<svg width="13" height="13" viewBox="0 0 13 13" fill="none" xmlns="http://www.w3.org/2000/svg">
<path fill-rule="evenodd" clip-rule="evenodd" d="M2.43542 1.25391C2.71157 1.25391 2.93542 1.47776 2.93542 1.75391V3.0242C2.93542 3.48903 3.25536 3.89084 3.70468 3.99722C3.8529 3.78185 4.01993 3.58159 4.20341 3.39925C4.29709 3.30616 4.42379 3.25391 4.55586 3.25391H4.93542C4.93542 2.14934 5.83086 1.25391 6.93542 1.25391C8.03999 1.25391 8.93542 2.14934 8.93542 3.25391H9.31499C9.44706 3.25391 9.57376 3.30616 9.66744 3.39925C9.85092 3.58159 10.0179 3.78185 10.1662 3.99722C10.6155 3.89084 10.9354 3.48903 10.9354 3.0242V1.75391C10.9354 1.47776 11.1593 1.25391 11.4354 1.25391C11.7116 1.25391 11.9354 1.47776 11.9354 1.75391V3.0242C11.9354 3.86785 11.4085 4.60771 10.6394 4.89639C10.8305 5.39326 10.9354 5.93629 10.9354 6.50391C10.9354 6.85389 10.8955 7.19459 10.8201 7.52094L10.8277 7.52245C11.7625 7.70942 12.4354 8.53025 12.4354 9.48361V10.7539C12.4354 11.03 12.2116 11.2539 11.9354 11.2539C11.6593 11.2539 11.4354 11.03 11.4354 10.7539V9.48361C11.4354 9.00693 11.099 8.59652 10.6315 8.50303L10.4811 8.47294C9.89099 9.6696 8.77229 10.5446 7.43542 10.7212V10.2564L7.43542 10.2552L7.43542 10.2539V6.75391C7.43542 6.47776 7.21157 6.25391 6.93542 6.25391C6.65928 6.25391 6.43542 6.47776 6.43542 6.75391V10.7212C5.09856 10.5446 3.97986 9.6696 3.38975 8.47294L3.23931 8.50303C2.77188 8.59652 2.43542 9.00693 2.43542 9.48361V10.7539C2.43542 11.03 2.21157 11.2539 1.93542 11.2539C1.65928 11.2539 1.43542 11.03 1.43542 10.7539V9.48361C1.43542 8.53025 2.10834 7.70942 3.04319 7.52245L3.05074 7.52094C2.97531 7.19459 2.93542 6.85389 2.93542 6.50391C2.93542 5.93629 3.04034 5.39326 3.23147 4.89639C2.46237 4.60771 1.93542 3.86785 1.93542 3.0242V1.75391C1.93542 1.47776 2.15928 1.25391 2.43542 1.25391ZM7.93542 3.25391C7.93542 2.70162 7.48771 2.25391 6.93542 2.25391C6.38314 2.25391 5.93542 2.70162 5.93542 3.25391H7.93542Z" fill="#FFC83A"/>
</svg>
