<svg width="7" height="14" viewBox="0 0 7 14" fill="none" xmlns="http://www.w3.org/2000/svg">
<g clip-path="url(#clip0_5099_45902)">
<path d="M2.25635 9.79323C2.0575 9.79323 1.88943 9.72457 1.75213 9.58727C1.61482 9.44996 1.54616 9.28188 1.54616 9.08303V4.05395C1.54616 3.8551 1.61482 3.68702 1.75213 3.54971C1.88943 3.41241 2.0575 3.34375 2.25635 3.34375H6.22525C6.42409 3.34375 6.59216 3.41241 6.72947 3.54971C6.86678 3.68702 6.93544 3.8551 6.93544 4.05395V9.08303C6.93544 9.28188 6.86678 9.44996 6.72947 9.58727C6.59216 9.72457 6.42409 9.79323 6.22525 9.79323H2.25635ZM0.886943 11.1626C0.688105 11.1626 0.520032 11.094 0.382722 10.9567C0.245413 10.8193 0.176758 10.6513 0.176758 10.4524V4.84909H0.751018V10.4524C0.751018 10.4864 0.765175 10.5176 0.793491 10.5459C0.821815 10.5742 0.852965 10.5884 0.886943 10.5884H5.43011V11.1626H0.886943Z" fill="#8D8D8D"/>
</g>
<defs>
<clipPath id="clip0_5099_45902">
<rect width="6.75868" height="13.2524" fill="white" transform="translate(0.176758 0.628906)"/>
</clipPath>
</defs>
</svg>
