<svg width="14" height="15" viewBox="0 0 14 15" fill="none" xmlns="http://www.w3.org/2000/svg">
<path opacity="0.28" d="M4.95869 12.1865C3.02387 11.3849 1.66284 9.47808 1.66284 7.25341C1.66284 5.02875 3.02387 3.12197 4.95869 2.32031M9.04199 2.32031C10.9768 3.12197 12.3378 5.02875 12.3378 7.25341C12.3378 9.47808 10.9768 11.3849 9.04199 12.1865" stroke="white" stroke-linecap="round" stroke-linejoin="round"/>
<path d="M6.99901 3.75391V4.45391M6.99901 4.45391V7.25391M6.99901 4.45391H6.35086C5.63494 4.45391 5.05457 5.08071 5.05457 5.85391C5.05457 6.6271 5.63494 7.25391 6.35086 7.25391H6.99901M6.99901 4.45391H7.688C8.29202 4.45391 8.79955 4.90008 8.94345 5.50391M6.99901 7.25391V10.0539M6.99901 7.25391L7.64716 7.25391C8.36308 7.25391 8.94345 7.88071 8.94345 8.65391C8.94345 9.4271 8.36308 10.0539 7.64716 10.0539H6.99901M6.99901 10.0539V10.7539M6.99901 10.0539H6.31002C5.706 10.0539 5.19847 9.60774 5.05457 9.00391" stroke="white" stroke-linecap="round" stroke-linejoin="round"/>
</svg>
