<svg width="17" height="17" viewBox="0 0 17 17" fill="none" xmlns="http://www.w3.org/2000/svg">
<path fill-rule="evenodd" clip-rule="evenodd" d="M9.90069 3.58698L10.261 2.86042C10.4649 2.4492 10.9389 2.2111 11.4134 2.34717C11.8682 2.47761 12.8704 2.8036 13.6936 3.37157C13.7008 3.37655 13.7079 3.38167 13.7149 3.38693C15.2024 4.50223 15.8315 6.26891 16.1025 7.77037C16.352 9.15301 16.3166 10.4227 16.3013 10.971C16.2999 11.0236 16.2986 11.0696 16.2977 11.1084C16.2944 11.2675 16.2536 11.4317 16.1683 11.5823C15.4189 12.905 14.3828 13.5785 13.5297 13.9154C13.1062 14.0826 12.7289 14.1668 12.4538 14.2093C12.3159 14.2307 12.2025 14.2417 12.1204 14.2475C12.0793 14.2503 12.0459 14.2519 12.0211 14.2527C12.0139 14.2529 12.0074 14.2531 12.0016 14.2533C11.9975 14.2534 11.9937 14.2534 11.9903 14.2535L11.9799 14.2536L11.9759 14.2536L11.9743 14.2536L11.9735 14.2536C11.9735 14.2536 11.9729 14.2536 11.9729 13.587V14.2536C11.7166 14.2536 11.483 14.1068 11.372 13.8758L10.8357 12.76C11.0151 12.7154 11.1987 12.6648 11.3874 12.608C11.7542 12.4977 12.1388 12.365 12.5488 12.2113C12.8935 12.0821 13.0683 11.6978 12.939 11.353C12.8097 11.0083 12.4255 10.8336 12.0807 10.9628C11.6905 11.1092 11.3348 11.2315 11.0034 11.3312C9.49933 11.7836 8.46115 11.7835 6.95688 11.3309C6.62573 11.2313 6.27033 11.109 5.88041 10.9628C5.53565 10.8336 5.15139 11.0083 5.02214 11.353C4.89289 11.6978 5.06759 12.0821 5.41235 12.2113C5.82198 12.3649 6.20622 12.4974 6.57275 12.6077C6.76126 12.6644 6.94458 12.7151 7.12383 12.7596L6.58533 13.8765C6.47416 14.1071 6.24079 14.2536 5.98481 14.2536V13.587C5.98481 14.2536 5.98412 14.2536 5.98412 14.2536L5.98338 14.2536L5.98173 14.2536L5.97779 14.2536L5.96735 14.2535C5.95928 14.2534 5.94898 14.2531 5.93656 14.2527C5.91173 14.2519 5.87835 14.2503 5.83727 14.2475C5.75517 14.2417 5.64181 14.2307 5.50389 14.2093C5.22873 14.1668 4.85148 14.0826 4.42801 13.9154C3.57491 13.5785 2.53879 12.905 1.78935 11.5823C1.70402 11.4316 1.66331 11.2675 1.65992 11.1084C1.65909 11.0696 1.65781 11.0236 1.65634 10.971C1.64105 10.4227 1.60564 9.15302 1.85519 7.77037C2.12618 6.26891 2.75529 4.50223 4.24274 3.38693C4.24975 3.38167 4.25687 3.37655 4.26408 3.37157C5.08766 2.80335 6.09037 2.47732 6.54494 2.34699C7.01855 2.2112 7.4918 2.44824 7.69627 2.85825L8.0597 3.58698H9.90069ZM5.64654 8.25374C5.64654 7.5172 6.24374 6.92041 6.98005 6.92041C7.71636 6.92041 8.31355 7.5172 8.31355 8.25374C8.31355 8.99029 7.71636 9.58708 6.98005 9.58708C6.24374 9.58708 5.64654 8.99029 5.64654 8.25374ZM9.64757 8.25374C9.64757 7.5172 10.2448 6.92041 10.9811 6.92041C11.7174 6.92041 12.3146 7.5172 12.3146 8.25374C12.3146 8.99029 11.7174 9.58708 10.9811 9.58708C10.2448 9.58708 9.64757 8.99028 9.64757 8.25374Z" fill="#989C9F"/>
</svg>
