<svg width="16" height="17" viewBox="0 0 16 17" fill="none" xmlns="http://www.w3.org/2000/svg">
<g opacity="0.28">
<path d="M6.66667 5.29297C6.66667 4.1884 7.5621 3.29297 8.66667 3.29297H9.33333C10.4379 3.29297 11.3333 4.1884 11.3333 5.29297C11.3333 6.39754 10.4379 7.29297 9.33333 7.29297H8.66667C7.5621 7.29297 6.66667 6.39754 6.66667 5.29297Z" fill="#4D4D4D"/>
<path d="M4 11.9596C4 10.8551 4.89543 9.95963 6 9.95963H6.66667C7.77124 9.95963 8.66667 10.8551 8.66667 11.9596C8.66667 13.0642 7.77124 13.9596 6.66667 13.9596H6C4.89543 13.9596 4 13.0642 4 11.9596Z" fill="#4D4D4D"/>
</g>
<path d="M2 5.29297H6.66667M6.66667 5.29297C6.66667 6.39754 7.5621 7.29297 8.66667 7.29297H9.33333C10.4379 7.29297 11.3333 6.39754 11.3333 5.29297C11.3333 4.1884 10.4379 3.29297 9.33333 3.29297H8.66667C7.5621 3.29297 6.66667 4.1884 6.66667 5.29297ZM10.6667 11.9596H14M13.3333 5.29297H14M2 11.9596H4M4 11.9596C4 13.0642 4.89543 13.9596 6 13.9596H6.66667C7.77124 13.9596 8.66667 13.0642 8.66667 11.9596C8.66667 10.8551 7.77124 9.95964 6.66667 9.95964H6C4.89543 9.95964 4 10.8551 4 11.9596Z" stroke="#4D4D4D" stroke-linecap="round" stroke-linejoin="round"/>
</svg>
