<svg width="17" height="17" viewBox="0 0 17 17" fill="none" xmlns="http://www.w3.org/2000/svg">
<path d="M8.96085 1.70533C8.83454 1.56706 8.6559 1.48828 8.46862 1.48828C11.9808 1.48828 14.868 4.16407 15.2029 7.58828H11.5402C11.3514 5.40312 10.4482 3.33367 8.96085 1.70533Z" fill="#989C9F"/>
<path d="M15.2029 8.92161H11.5402C11.3514 11.1068 10.4482 13.1762 8.96085 14.8046C8.83454 14.9428 8.6559 15.0216 8.46862 15.0216C8.28134 15.0216 8.10269 14.9428 7.97639 14.8046C6.48902 13.1762 5.58586 11.1068 5.39705 8.92161H1.73438C2.06924 12.3458 4.95644 15.0216 8.46862 15.0216C11.9808 15.0216 14.868 12.3458 15.2029 8.92161Z" fill="#989C9F"/>
<path d="M1.73438 7.58828C2.06924 4.16407 4.95644 1.48828 8.46862 1.48828C8.28134 1.48828 8.10269 1.56706 7.97639 1.70533C6.48902 3.33367 5.58586 5.40312 5.39705 7.58828H1.73438Z" fill="#989C9F"/>
<path d="M8.46862 13.316C7.49579 12.0405 6.89558 10.5189 6.73613 8.92161H10.2011C10.0417 10.5189 9.44144 12.0405 8.46862 13.316Z" fill="#989C9F"/>
<path d="M8.46862 3.19386C7.49579 4.46937 6.89558 5.99096 6.73613 7.58828H10.2011C10.0417 5.99096 9.44144 4.46937 8.46862 3.19386Z" fill="#989C9F"/>
</svg>
