<svg width="16" height="17" viewBox="0 0 16 17" fill="none" xmlns="http://www.w3.org/2000/svg">
<path opacity="0.28" d="M6.06437 3.2633L2.02166 5.25736C1.63592 5.44763 1.44305 5.54277 1.37773 5.67164C1.32081 5.78394 1.31857 5.91396 1.3716 6.02794C1.43245 6.15873 1.62196 6.25968 2.00096 6.46158L3.33337 7.17137V11.3821C3.33337 11.6076 3.33337 11.7203 3.36628 11.8211C3.39539 11.9103 3.443 11.9924 3.506 12.0619C3.57721 12.1405 3.67508 12.1964 3.87083 12.3083L4.29554 12.5509C5.64579 13.3225 6.32092 13.7083 7.03792 13.8594C7.67237 13.9931 8.32771 13.9931 8.96216 13.8594C9.67916 13.7083 10.3543 13.3225 11.7045 12.5509L12.1293 12.3083C12.325 12.1964 12.4229 12.1405 12.4941 12.0619C12.5571 11.9924 12.6047 11.9103 12.6338 11.8211C12.6667 11.7203 12.6667 11.614 12.6667 11.3885V7.17137L13.9991 6.46158C14.3781 6.25968 14.5676 6.15873 14.6285 6.02794C14.6815 5.91396 14.6793 5.78394 14.6224 5.67164C14.557 5.54277 14.3642 5.44763 13.9784 5.25736L9.93571 3.2633C9.22738 2.91392 8.87321 2.73922 8.50018 2.67058C8.16988 2.60981 7.8302 2.60981 7.4999 2.67058C7.12687 2.73922 6.7727 2.91392 6.06437 3.2633Z" fill="#FFC83A"/>
<path d="M12.6667 7.17137L13.9991 6.46158C14.3781 6.25968 14.5676 6.15873 14.6285 6.02794C14.6815 5.91396 14.6793 5.78394 14.6224 5.67164C14.557 5.54277 14.3642 5.44763 13.9784 5.25736L9.93571 3.2633C9.22738 2.91392 8.87321 2.73922 8.50018 2.67058C8.16988 2.60981 7.8302 2.60981 7.4999 2.67058C7.12687 2.73922 6.7727 2.91392 6.06437 3.2633L2.02166 5.25736C1.63592 5.44763 1.44305 5.54277 1.37773 5.67164C1.34818 5.72994 1.33337 5.79301 1.33337 5.85613M12.6667 7.17137L10.054 8.56317C9.30505 8.96216 8.93056 9.16165 8.5332 9.2398C8.18156 9.30896 7.81852 9.30896 7.46688 9.2398C7.06953 9.16165 6.69504 8.96216 5.94606 8.56317L3.33337 7.17137M12.6667 7.17137V11.3885C12.6667 11.614 12.6667 11.7203 12.6338 11.8211C12.6047 11.9103 12.5571 11.9924 12.4941 12.0619C12.4229 12.1405 12.325 12.1964 12.1293 12.3083L11.7045 12.5509C10.3543 13.3225 9.67916 13.7083 8.96216 13.8594C8.32771 13.9931 7.67237 13.9931 7.03792 13.8594C6.32092 13.7083 5.64579 13.3225 4.29554 12.5509L3.87083 12.3083C3.67508 12.1964 3.57721 12.1405 3.506 12.0619C3.443 11.9924 3.39539 11.9103 3.36628 11.8211C3.33337 11.7203 3.33337 11.6076 3.33337 11.3821V7.17137M3.33337 7.17137L2.00096 6.46158C1.62196 6.25968 1.43245 6.15873 1.3716 6.02794C1.3461 5.97313 1.33338 5.91461 1.33337 5.85613M1.33337 5.85613V10.625" stroke="#FFC83A" stroke-linecap="round" stroke-linejoin="round"/>
</svg>
