<svg width="16" height="17" viewBox="0 0 16 17" fill="none" xmlns="http://www.w3.org/2000/svg">
<g opacity="0.28">
<path d="M10.6667 10.6237H5.33341C3.86066 10.6237 2.66675 11.8176 2.66675 13.2904C2.66675 14.0267 3.2637 14.6237 4.00008 14.6237H12.0001C12.7365 14.6237 13.3334 14.0267 13.3334 13.2904C13.3334 11.8176 12.1395 10.6237 10.6667 10.6237Z" fill="#FFC83A"/>
<path d="M3.33341 3.29036L8.00008 1.95703L12.6667 3.29036L8.00008 4.6237L3.33341 3.29036Z" fill="#FFC83A"/>
</g>
<path d="M3.33341 3.29036L8.00008 1.95703L12.6667 3.29036L10.3133 3.96278M3.33341 3.29036L5.68685 3.96278M3.33341 3.29036V5.29036M10.3133 3.96278L8.00008 4.6237L5.68685 3.96278M10.3133 3.96278C10.5382 4.35371 10.6667 4.80702 10.6667 5.29036C10.6667 6.76312 9.47284 7.95703 8.00008 7.95703C6.52732 7.95703 5.33341 6.76312 5.33341 5.29036C5.33341 4.80702 5.46201 4.35371 5.68685 3.96278M5.33341 10.6237C3.86066 10.6237 2.66675 11.8176 2.66675 13.2904C2.66675 14.0267 3.2637 14.6237 4.00008 14.6237H12.0001C12.7365 14.6237 13.3334 14.0267 13.3334 13.2904C13.3334 11.8176 12.1395 10.6237 10.6667 10.6237H5.33341Z" stroke="#FFC83A" stroke-linecap="round" stroke-linejoin="round"/>
</svg>
