<svg width="16" height="17" viewBox="0 0 16 17" fill="none" xmlns="http://www.w3.org/2000/svg">
<path opacity="0.28" d="M4.03589 6.33867L7.87323 3.33051C8.96519 2.4745 9.51117 2.0465 9.88496 2.08879C10.2085 2.12541 10.4932 2.33259 10.6429 2.6404C10.8159 2.996 10.6405 3.69366 10.2897 5.08899L9.99568 6.25809C9.85522 6.8167 9.78498 7.09601 9.83335 7.3385C9.8759 7.55181 9.98073 7.74528 10.1328 7.8912C10.3057 8.05708 10.5678 8.13192 11.092 8.2816L11.4322 8.37872C12.4403 8.66656 12.9443 8.81048 13.1458 9.10347C13.3211 9.35822 13.3772 9.68442 13.2983 9.98887C13.2075 10.339 12.7842 10.6643 11.9377 11.3147L8.16988 14.2099C7.08466 15.0438 6.54205 15.4608 6.17011 15.416C5.84811 15.3773 5.56559 15.1696 5.41727 14.8625C5.24596 14.5079 5.4191 13.8193 5.76539 12.4422L6.02821 11.397C6.16867 10.8384 6.2389 10.5591 6.19053 10.3166C6.14799 10.1033 6.04316 9.90981 5.89108 9.7639C5.71819 9.59801 5.45608 9.52317 4.93186 9.37349L4.55338 9.26543C3.55586 8.98061 3.0571 8.8382 2.85572 8.54716C2.68059 8.29404 2.62324 7.96968 2.69992 7.66601C2.7881 7.31684 3.20403 6.99078 4.03589 6.33867Z" fill="#FFC83A"/>
<path d="M4.03589 6.33867L7.87323 3.33051C8.96519 2.4745 9.51117 2.0465 9.88496 2.08879C10.2085 2.12541 10.4932 2.33259 10.6429 2.6404C10.8159 2.996 10.6405 3.69366 10.2897 5.08899L9.99568 6.25809C9.85521 6.8167 9.78498 7.09601 9.83335 7.3385C9.8759 7.55181 9.98072 7.74528 10.1328 7.8912C10.3057 8.05708 10.5678 8.13192 11.092 8.2816L11.4322 8.37872C12.4403 8.66656 12.9443 8.81048 13.1458 9.10347C13.3211 9.35822 13.3772 9.68442 13.2983 9.98887C13.2075 10.339 12.7842 10.6643 11.9377 11.3147L8.16988 14.2099C7.08466 15.0438 6.54205 15.4608 6.17011 15.416C5.84811 15.3773 5.56559 15.1696 5.41727 14.8625C5.24596 14.5079 5.4191 13.8193 5.76539 12.4422L6.02821 11.397C6.16867 10.8384 6.2389 10.5591 6.19053 10.3166C6.14799 10.1033 6.04316 9.90981 5.89108 9.7639C5.71819 9.59801 5.45608 9.52317 4.93186 9.37349L4.55338 9.26543C3.55586 8.98061 3.0571 8.8382 2.85572 8.54716C2.68059 8.29404 2.62324 7.96968 2.69992 7.66601C2.7881 7.31684 3.20403 6.99078 4.03589 6.33867Z" stroke="#FFC83A" stroke-linecap="round" stroke-linejoin="round"/>
</svg>
