<svg width="16" height="17" viewBox="0 0 16 17" fill="none" xmlns="http://www.w3.org/2000/svg">
<path opacity="0.28" d="M3.40882 4.81959L2.43923 6.55292C2.01618 7.3092 1.80466 7.68734 1.72173 8.0878C1.64834 8.44222 1.64834 8.80778 1.72173 9.1622C1.80466 9.56266 2.01618 9.9408 2.43923 10.6971L3.40882 12.4304C3.85561 13.2291 4.07901 13.6285 4.39675 13.9193C4.67784 14.1766 5.011 14.3713 5.37395 14.4904C5.55437 14.5496 5.7444 14.5827 5.97894 14.6013C5.97894 13.998 5.97923 13.693 6.00192 13.4354C6.25745 10.5347 8.57305 8.23494 11.4937 7.98117C11.7565 7.95833 12.0681 7.95833 12.6915 7.95833H14.2396C14.1388 7.61238 13.9344 7.24695 13.5696 6.59483L12.5766 4.81959C12.1298 4.02086 11.9064 3.62149 11.5886 3.33069C11.3076 3.07342 10.9744 2.87873 10.6114 2.75963C10.2012 2.625 9.74118 2.625 8.82117 2.625L7.16422 2.625C6.24422 2.625 5.78422 2.625 5.37395 2.75963C5.011 2.87873 4.67784 3.07342 4.39675 3.33069C4.07901 3.62149 3.85561 4.02087 3.40882 4.81959Z" fill="#FFC83A"/>
<path d="M11.3334 11.1241L10 13.2908H12.6667L11.3334 15.4574M7.68752 14.625L7.16422 14.625C6.64879 14.625 6.27774 14.625 5.97894 14.6013M14.2396 7.95833H12.6915C12.0681 7.95833 11.7565 7.95833 11.4937 7.98117C8.57305 8.23494 6.25745 10.5347 6.00192 13.4354C5.97923 13.693 5.97894 13.998 5.97894 14.6013M14.2396 7.95833C14.1388 7.61238 13.9344 7.24694 13.5696 6.59481L12.5766 4.81959C12.1298 4.02086 11.9064 3.62149 11.5886 3.33069C11.3076 3.07342 10.9744 2.87873 10.6114 2.75963C10.2012 2.625 9.74118 2.625 8.82117 2.625L7.16422 2.625C6.24422 2.625 5.78422 2.625 5.37395 2.75963C5.011 2.87873 4.67784 3.07342 4.39675 3.33069C4.07901 3.62149 3.85561 4.02086 3.40882 4.81959L2.43923 6.55292C2.01618 7.3092 1.80466 7.68734 1.72173 8.0878C1.64834 8.44222 1.64834 8.80778 1.72173 9.1622C1.80466 9.56266 2.01618 9.9408 2.43923 10.6971L3.40882 12.4304C3.85561 13.2291 4.07901 13.6285 4.39675 13.9193C4.67784 14.1766 5.011 14.3713 5.37395 14.4904C5.55437 14.5496 5.7444 14.5827 5.97894 14.6013M14.2396 7.95833C14.2535 8.00585 14.2654 8.053 14.2755 8.10047C14.3494 8.44845 14.3525 8.80761 14.2846 9.15681C14.2252 9.46255 14.0911 9.75619 13.8467 10.2214M5.97894 7.29167C5.60821 7.29167 5.30768 6.99319 5.30768 6.625C5.30768 6.25681 5.60821 5.95833 5.97894 5.95833C6.34966 5.95833 6.65019 6.25681 6.65019 6.625C6.65019 6.99319 6.34966 7.29167 5.97894 7.29167Z" stroke="#FFC83A" stroke-linecap="round" stroke-linejoin="round"/>
</svg>
