<svg width="18" height="18" viewBox="0 0 18 18" fill="none" xmlns="http://www.w3.org/2000/svg">
<g clip-path="url(#clip0_5099_45921)">
<path d="M9.51677 4.12153L6.78196 6.85634L11.6703 11.7447L14.4051 9.00986C15.9155 7.49947 16.0456 5.18076 14.6958 3.83089C13.3459 2.48101 11.0272 2.61114 9.51677 4.12153Z" fill="#FEFEFE" stroke="#0A4E3D" stroke-width="0.389162"/>
<path d="M8.93248 14.4825L11.6673 11.7477L6.77893 6.85938L4.04415 9.59416C2.53371 11.1046 2.40361 13.4233 3.75348 14.7732C5.10335 16.123 7.42204 15.9929 8.93248 14.4825Z" fill="#50D591" stroke="#0A4E3D" stroke-width="0.389162"/>
<g style="mix-blend-mode:darken">
<path fill-rule="evenodd" clip-rule="evenodd" d="M14.2829 8.88234C15.6926 7.47264 15.814 5.30851 14.5541 4.04863C14.2057 3.70023 13.7882 3.45746 13.3365 3.31836C13.5332 3.4333 13.7172 3.5741 13.8841 3.74102C15.054 4.91091 14.9412 6.92046 13.6322 8.22947L10.8974 10.9643L8.16255 13.6991C6.85355 15.0081 4.844 15.1209 3.67411 13.951C3.50423 13.7811 3.3614 13.5935 3.24539 13.3929C3.38378 13.8495 3.62786 14.2716 3.97953 14.6232C5.23942 15.8831 7.4035 15.7617 8.81325 14.3519L14.2829 8.88234Z" fill="#134D42" fill-opacity="0.28"/>
</g>
<path fill-rule="evenodd" clip-rule="evenodd" d="M5.38562 10.253C5.46544 10.3523 5.44185 10.507 5.33289 10.5985C5.28172 10.6415 5.23185 10.6871 5.18345 10.7355C5.13511 10.7839 5.08938 10.8338 5.04646 10.8849C4.95492 10.9939 4.80025 11.0175 4.70089 10.9377C4.60157 10.8579 4.59525 10.7049 4.68678 10.5959C4.74044 10.532 4.79741 10.4698 4.85756 10.4097C4.91778 10.3494 4.97997 10.2925 5.04385 10.2388C5.15282 10.1473 5.30585 10.1536 5.38562 10.253ZM4.50358 11.2815C4.63043 11.3133 4.69581 11.4454 4.64949 11.5767C4.51713 11.9522 4.49486 12.3483 4.58583 12.7113C4.61764 12.8381 4.53701 12.9785 4.4057 13.0248C4.27446 13.0711 4.14234 13.0057 4.11052 12.8788C3.99685 12.4253 4.02462 11.9308 4.19005 11.4616C4.23631 11.3303 4.37668 11.2497 4.50358 11.2815ZM4.56562 13.3485C4.67453 13.2571 4.82755 13.2634 4.90738 13.3627C4.94486 13.4094 4.98524 13.4544 5.02848 13.4976C5.07172 13.5409 5.11674 13.5812 5.16341 13.6187C5.26272 13.6985 5.26904 13.8516 5.17757 13.9605C5.08603 14.0694 4.93136 14.093 4.83206 14.0132C4.77379 13.9664 4.7176 13.9161 4.6638 13.8623C4.61 13.8085 4.55972 13.7523 4.51289 13.694C4.43306 13.5947 4.45665 13.4401 4.56562 13.3485Z" fill="white"/>
</g>
<defs>
<clipPath id="clip0_5099_45921">
<rect width="7.94421" height="16" fill="white" transform="translate(12.2711 0.789062) rotate(45)"/>
</clipPath>
</defs>
</svg>
