<svg width="16" height="17" viewBox="0 0 16 17" fill="none" xmlns="http://www.w3.org/2000/svg">
<path opacity="0.28" d="M12.2213 3.42188H5.65375C5.35645 3.42188 5.20779 3.42188 5.0689 3.45833C4.9458 3.49063 4.82874 3.54386 4.72251 3.61582C4.60266 3.69702 4.50221 3.81028 4.30132 4.0368L2.54566 6.0164C2.2449 6.35553 2.09452 6.52509 2.0376 6.71748C1.98747 6.88691 1.98747 7.06795 2.0376 7.23738C2.09452 7.42977 2.2449 7.59933 2.54566 7.93846L3.99436 9.57196C4.29513 9.91108 4.44551 10.0806 4.50243 10.273C4.55256 10.4425 4.55256 10.6235 4.50243 10.7929C4.44551 10.9853 4.29513 11.1549 3.99436 11.494L3.10245 12.4997C2.6568 13.0022 2.43397 13.2534 2.424 13.4674C2.41534 13.6533 2.49164 13.8326 2.63003 13.9515C2.78939 14.0885 3.11915 14.0885 3.77866 14.0885H10.3463C10.6436 14.0885 10.7922 14.0885 10.9311 14.0521C11.0542 14.0198 11.1713 13.9666 11.2775 13.8946C11.3973 13.8134 11.4978 13.7001 11.6987 13.4736L13.4543 11.494C13.7551 11.1549 13.9055 10.9853 13.9624 10.7929C14.0125 10.6235 14.0125 10.4425 13.9624 10.273C13.9055 10.0806 13.7551 9.91108 13.4543 9.57196L12.0056 7.93846C11.7049 7.59933 11.5545 7.42977 11.4976 7.23738C11.4474 7.06795 11.4474 6.88691 11.4976 6.71748C11.5545 6.52509 11.7049 6.35553 12.0056 6.0164L12.8976 5.01071C13.3432 4.50822 13.566 4.25697 13.576 4.04297C13.5847 3.85713 13.5084 3.67786 13.37 3.55888C13.2106 3.42188 12.8809 3.42188 12.2213 3.42188Z" fill="#4D4D4D"/>
<path d="M11.46 6.97743C11.46 6.88981 11.4725 6.8022 11.4976 6.71748C11.5545 6.52509 11.7049 6.35553 12.0056 6.0164L12.8976 5.01071C13.3432 4.50822 13.566 4.25697 13.576 4.04297C13.5847 3.85713 13.5084 3.67786 13.37 3.55888C13.2106 3.42188 12.8809 3.42188 12.2213 3.42188H5.65375C5.35645 3.42188 5.20779 3.42188 5.0689 3.45833C4.9458 3.49063 4.82874 3.54386 4.72251 3.61582C4.60266 3.69702 4.50221 3.81028 4.30132 4.0368L2.54566 6.0164C2.2449 6.35553 2.09452 6.52509 2.0376 6.71748C2.01253 6.8022 2 6.88981 2 6.97743M11.46 6.97743C11.46 7.06505 11.4725 7.15267 11.4976 7.23738C11.5545 7.42977 11.7049 7.59933 12.0056 7.93846L13.4543 9.57195C13.7551 9.91108 13.9055 10.0806 13.9624 10.273C13.9875 10.3578 14 10.4454 14 10.533M11.46 6.97743H2M2 6.97743C2 7.06505 2.01253 7.15267 2.0376 7.23738C2.09452 7.42977 2.2449 7.59934 2.54566 7.93846L3.99436 9.57195C4.29513 9.91108 4.44551 10.0806 4.50243 10.273C4.5275 10.3578 4.54003 10.4454 4.54003 10.533M4.54003 10.533C4.54003 10.6206 4.5275 10.7082 4.50243 10.7929C4.44551 10.9853 4.29513 11.1549 3.99436 11.494L3.10245 12.4997C2.6568 13.0022 2.43397 13.2534 2.424 13.4674C2.41534 13.6533 2.49164 13.8326 2.63003 13.9515C2.78939 14.0885 3.11915 14.0885 3.77866 14.0885H10.3463C10.6436 14.0885 10.7922 14.0885 10.9311 14.0521C11.0542 14.0198 11.1713 13.9666 11.2775 13.8946C11.3973 13.8134 11.4978 13.7001 11.6987 13.4736L13.4543 11.494C13.7551 11.1549 13.9055 10.9853 13.9624 10.7929C13.9875 10.7082 14 10.6206 14 10.533M4.54003 10.533H14" stroke="#4D4D4D" stroke-linecap="round" stroke-linejoin="round"/>
</svg>
