<svg width="38" height="39" viewBox="0 0 38 39" fill="none" xmlns="http://www.w3.org/2000/svg">
<path opacity="0.28" d="M7.47058 16.332L14.2502 32.9571M14.7701 11.582L35.0903 31.6472" stroke="#FFC83A" stroke-width="2" stroke-linecap="round" stroke-linejoin="round"/>
<path d="M9.95333 3.83842C8.44864 1.68949 5.48679 1.16724 3.33787 2.67194C1.18895 4.17663 0.666693 7.13847 2.17139 9.2874L3.98771 11.8814C4.48928 12.5977 5.47656 12.7718 6.19286 12.2702L11.3808 8.63755C12.0971 8.13599 12.2712 7.14871 11.7697 6.4324L9.95333 3.83842ZM5.1542 5.26592C5.8705 4.76435 6.85778 4.93844 7.35935 5.65474L8.26751 6.95174L5.67353 8.76806L4.76537 7.47107C4.2638 6.75476 4.43789 5.76748 5.1542 5.26592Z" fill="#FFC83A"/>
<path d="M25.3339 28.2094C22.1262 28.2094 19.1948 28.6937 17.0239 29.3732C15.9471 29.7102 14.9913 30.1156 14.269 30.5771C13.9101 30.8065 13.5493 31.0871 13.262 31.4301C12.9818 31.7646 12.6673 32.2865 12.6673 32.9595C12.6673 33.6325 12.9818 34.1543 13.262 34.4889C13.5493 34.8318 13.9101 35.1125 14.2691 35.3418C14.9913 35.8033 15.9472 36.2087 17.0239 36.5457C19.1948 37.2251 22.1262 37.7094 25.3339 37.7094C28.5416 37.7094 31.473 37.2251 33.6439 36.5457C34.7207 36.2087 35.6765 35.8033 36.3988 35.3418C36.7578 35.1125 37.1185 34.8318 37.4058 34.4889C37.6861 34.1543 38.0006 33.6325 38.0006 32.9595C38.0006 32.2865 37.6861 31.7646 37.4059 31.4301C37.1185 31.0871 36.7578 30.8065 36.3988 30.5771C35.6766 30.1156 34.7207 29.7102 33.6439 29.3732C31.473 28.6937 28.5416 28.2094 25.3339 28.2094Z" fill="#FFC83A"/>
</svg>
