<svg width="17" height="17" viewBox="0 0 17 17" fill="none" xmlns="http://www.w3.org/2000/svg">
<path d="M11.1138 6.08903C11.0683 6.16407 9.08581 7.92929 7.94376 8.9611C7.41164 9.44185 6.91565 10.1091 7.24775 10.7447C7.37204 10.9826 7.55821 11.1479 7.73395 11.278C7.90097 11.4016 8.11634 11.5337 8.35599 11.6806L10.128 12.7676C10.5123 13.0034 10.8384 13.2034 11.1138 13.3402C11.397 13.4808 11.7066 13.5971 12.0503 13.588C12.5388 13.575 13.0059 13.3736 13.347 13.0221C13.589 12.7728 13.7082 12.4631 13.7895 12.1614C13.8683 11.8688 13.932 11.4978 14.0065 11.0636L15.0553 4.95164C15.0968 4.70952 15.1357 4.48341 15.1498 4.29744C15.1641 4.10851 15.1654 3.8446 15.0324 3.5901C14.8649 3.26968 14.5679 3.04112 14.2229 2.95397C13.9521 2.88558 13.6993 2.93983 13.5153 2.99297C13.3337 3.04543 13.1165 3.1298 12.8806 3.2215L3.56811 6.83943C3.19537 6.98423 2.87684 7.10797 2.64115 7.22265C2.43623 7.32235 2.11045 7.49466 1.94938 7.82231C1.76017 8.20721 1.78455 8.66012 2.01213 9.02255C2.20563 9.33069 2.54597 9.46929 2.76053 9.54826C3.00687 9.63892 3.33661 9.73041 3.72274 9.83755L4.11214 9.94564C4.4902 10.0508 4.78413 10.1325 5.08674 10.1421C5.35326 10.1506 5.61958 10.1165 5.87523 10.0411C5.95946 10.0163 6.06969 9.96923 6.18377 9.91492C6.57995 9.72631 6.90656 9.43182 7.24775 9.1559L11.1138 6.08903Z" fill="#989C9F"/>
</svg>
