<svg width="12" height="13" viewBox="0 0 12 13" fill="none" xmlns="http://www.w3.org/2000/svg">
<path d="M3.5 3.75391C3.5 2.37319 4.61929 1.25391 6 1.25391C7.38071 1.25391 8.5 2.37319 8.5 3.75391C8.5 5.13462 7.38071 6.25391 6 6.25391C4.61929 6.25391 3.5 5.13462 3.5 3.75391Z" fill="#8D8D8D"/>
<path d="M2.5 9.62891C2.5 8.31723 3.56332 7.25391 4.875 7.25391H7.125C8.43668 7.25391 9.5 8.31723 9.5 9.62891C9.5 10.5264 8.77246 11.2539 7.875 11.2539H4.125C3.22754 11.2539 2.5 10.5264 2.5 9.62891Z" fill="#8D8D8D"/>
<path d="M2.99132 2.2229C3.09088 2.0277 3.05174 1.79042 2.89476 1.63753C2.73778 1.48465 2.49955 1.45179 2.30704 1.55647C1.52954 1.97928 1 2.80439 1 3.75392C1 4.70344 1.52953 5.52854 2.30702 5.95135C2.49952 6.05604 2.73776 6.02318 2.89474 5.8703C3.05172 5.71742 3.09086 5.48013 2.9913 5.28493C2.75723 4.82598 2.625 4.30612 2.625 3.75393C2.625 3.20173 2.75723 2.68186 2.99132 2.2229Z" fill="#8D8D8D"/>
<path d="M9.69296 1.55648C9.50045 1.45179 9.26222 1.48465 9.10524 1.63754C8.94826 1.79042 8.90912 2.0277 9.00868 2.22291C9.24277 2.68187 9.375 3.20173 9.375 3.75393C9.375 4.30612 9.24277 4.82598 9.0087 5.28493C8.90914 5.48013 8.94828 5.71741 9.10526 5.8703C9.26225 6.02318 9.50048 6.05603 9.69298 5.95135C10.4705 5.52854 11 4.70344 11 3.75392C11 2.80439 10.4705 1.97928 9.69296 1.55648Z" fill="#8D8D8D"/>
<path d="M1.96246 8.18499C2.05868 7.99133 2.0195 7.75775 1.86535 7.60609C1.7112 7.45442 1.47702 7.41905 1.28495 7.51841C0.52274 7.91271 0 8.70935 0 9.62892C0 10.3782 0.50671 11.0079 1.19527 11.1964C1.37741 11.2462 1.5721 11.1892 1.69857 11.049C1.82505 10.9087 1.86173 10.7092 1.7934 10.5332C1.68481 10.2534 1.625 9.94876 1.625 9.62893C1.625 9.10925 1.74661 8.61941 1.96246 8.18499Z" fill="#8D8D8D"/>
<path d="M10.7151 7.51841C10.523 7.41905 10.2888 7.45443 10.1347 7.60609C9.9805 7.75775 9.94132 7.99133 10.0375 8.18499C10.2534 8.61941 10.375 9.10926 10.375 9.62893C10.375 9.94875 10.3152 10.2534 10.2066 10.5332C10.1383 10.7092 10.175 10.9087 10.3014 11.049C10.4279 11.1892 10.6226 11.2462 10.8047 11.1964C11.4933 11.0079 12 10.3782 12 9.62892C12 8.70935 11.4773 7.91271 10.7151 7.51841Z" fill="#8D8D8D"/>
</svg>
