<svg width="16" height="17" viewBox="0 0 16 17" fill="none" xmlns="http://www.w3.org/2000/svg">
<path d="M5.04239 2.92188H4.04188C3.59725 2.92188 3.37493 2.92188 3.25507 3.01416C3.15071 3.09451 3.08736 3.21701 3.08211 3.34862C3.07609 3.49977 3.20459 3.68119 3.4616 4.04402L7.04101 9.09731L9.79719 12.9884C9.95285 13.2081 10.0307 13.318 10.1313 13.3974C10.2203 13.4677 10.322 13.5203 10.4309 13.5523C10.5538 13.5885 10.6885 13.5885 10.9578 13.5885H11.9583C12.4029 13.5885 12.6252 13.5885 12.7451 13.4963C12.8494 13.4159 12.9128 13.2934 12.918 13.1618C12.9241 13.0106 12.7956 12.8292 12.5386 12.4664L8.76031 7.1324L6.20296 3.52203C6.04731 3.30228 5.96948 3.1924 5.86889 3.11301C5.77982 3.04271 5.67811 2.99012 5.56926 2.95807C5.44633 2.92188 5.31169 2.92188 5.04239 2.92188Z" fill="#161618"/>
<path d="M12.4445 2.92188L8.76031 7.1324M3.11119 13.5885L7.04101 9.09731M8.76031 7.1324L6.20296 3.52203C6.04731 3.30228 5.96948 3.1924 5.86889 3.11301C5.77982 3.04271 5.67811 2.99012 5.56926 2.95807C5.44633 2.92188 5.31169 2.92188 5.04239 2.92188H4.04188C3.59725 2.92188 3.37493 2.92188 3.25507 3.01416C3.15071 3.09451 3.08736 3.21701 3.08211 3.34862C3.07609 3.49977 3.20459 3.68119 3.4616 4.04402L7.04101 9.09731M8.76031 7.1324L12.5386 12.4664C12.7956 12.8292 12.9241 13.0106 12.918 13.1618C12.9128 13.2934 12.8494 13.4159 12.7451 13.4963C12.6252 13.5885 12.4029 13.5885 11.9583 13.5885H10.9578C10.6885 13.5885 10.5538 13.5885 10.4309 13.5523C10.322 13.5203 10.2203 13.4677 10.1313 13.3974C10.0307 13.318 9.95285 13.2081 9.79719 12.9884L7.04101 9.09731" stroke="#989C9F" stroke-linecap="round" stroke-linejoin="round"/>
</svg>
