<svg width="55" height="55" viewBox="0 0 55 55" fill="none" xmlns="http://www.w3.org/2000/svg">
<path d="M25.2501 27.5C25.2501 26.2574 26.2575 25.25 27.5001 25.25C28.7428 25.25 29.7501 26.2574 29.7501 27.5C29.7501 28.7426 28.7428 29.75 27.5001 29.75C26.2575 29.75 25.2501 28.7426 25.2501 27.5Z" stroke="#FFC83A" stroke-width="1.3" stroke-linecap="round" stroke-linejoin="round"/>
<path d="M19.7635 10.2187C22.5819 8.59254 23.9912 7.77944 25.4894 7.46119C26.815 7.1796 28.185 7.1796 29.5106 7.46119C31.0088 7.77944 32.4181 8.59254 35.2365 10.2187L38.6073 12.1636C41.4257 13.7898 42.8349 14.6029 43.8598 15.7404C44.7666 16.7469 45.4516 17.9327 45.8704 19.2208C46.3438 20.6765 46.3438 22.3027 46.3438 25.5551V29.4449C46.3438 32.6973 46.3438 34.3235 45.8704 35.7792C45.4516 37.0673 44.7666 38.2531 43.8598 39.2596C42.8349 40.3971 41.4257 41.2102 38.6073 42.8364L35.2365 44.7813C32.4181 46.4075 31.0088 47.2206 29.5106 47.5388C28.185 47.8204 26.815 47.8204 25.4894 47.5388C23.9912 47.2206 22.5819 46.4075 19.7635 44.7813L16.3927 42.8364C13.5743 41.2102 12.1651 40.3971 11.1402 39.2596C10.2334 38.2531 9.54835 37.0673 9.12956 35.7792C8.65625 34.3235 8.65625 32.6973 8.65625 29.4449V25.5551C8.65625 22.3027 8.65625 20.6765 9.12956 19.2208C9.54835 17.9327 10.2334 16.7469 11.1402 15.7404C12.1651 14.6029 13.5743 13.7898 16.3927 12.1636L19.7635 10.2187Z" stroke="#FFC83A" stroke-width="1.3" stroke-linecap="round" stroke-linejoin="round"/>
</svg>
