<svg width="47" height="48" viewBox="0 0 47 48" fill="none" xmlns="http://www.w3.org/2000/svg">
<rect x="0.5" y="1" width="46" height="46" fill="black"/>
<rect x="0.5" y="1" width="46" height="46" stroke="#FFC83A"/>
<mask id="mask0_217_3742" style="mask-type:alpha" maskUnits="userSpaceOnUse" x="7" y="8" width="33" height="32">
<rect x="7.5" y="8" width="32" height="32" fill="#D9D9D9"/>
</mask>
<g mask="url(#mask0_217_3742)">
<path d="M23.4993 30.4612C22.8258 30.4612 22.2472 30.2193 21.7634 29.7355C21.2797 29.2518 21.0378 28.6731 21.0378 27.9996C21.0378 27.3262 21.2797 26.7475 21.7634 26.2637C22.2472 25.78 22.8258 25.5381 23.4993 25.5381C24.1728 25.5381 24.7514 25.78 25.2352 26.2637C25.719 26.7475 25.9609 27.3262 25.9609 27.9996C25.9609 28.6731 25.719 29.2518 25.2352 29.7355C24.7514 30.2193 24.1728 30.4612 23.4993 30.4612ZM19.8327 39.6663V35.033C17.978 34.4484 16.6382 33.4308 15.8134 31.9804C14.9887 30.53 14.5549 28.8697 14.5121 26.9997H16.5121C16.5634 29.2527 17.1814 30.927 18.366 32.0227C19.5506 33.1185 21.2617 33.6663 23.4993 33.6663C25.7369 33.6663 27.4481 33.1185 28.6327 32.0227C29.8173 30.927 30.4352 29.2527 30.4865 26.9997H32.4865C32.4437 28.8697 32.01 30.53 31.1852 31.9804C30.3604 33.4308 29.0207 34.4484 27.166 35.033V39.6663L19.8327 39.6663ZM14.3583 25.256L11.5891 18.6304C11.3754 18.7312 11.1331 18.8586 10.8621 19.0124C10.5912 19.1663 10.3591 19.2432 10.166 19.2432C9.89078 19.2432 9.65532 19.1475 9.45958 18.956C9.26387 18.7646 9.16602 18.527 9.16602 18.2432V13.6663C9.16602 12.2082 10.5481 10.9548 13.3121 9.90607C16.0762 8.85736 19.472 8.33301 23.4993 8.33301C27.5267 8.33301 30.9224 8.85736 33.6865 9.90607C36.4506 10.9548 37.8326 12.2082 37.8326 13.6663V18.2432C37.8326 18.527 37.7348 18.7646 37.5391 18.956C37.3433 19.1475 37.1079 19.2432 36.8327 19.2432C36.6395 19.2432 36.4075 19.1663 36.1365 19.0124C35.8656 18.8586 35.6232 18.7312 35.4096 18.6304L32.6403 25.256H30.4481L28.4353 16.6714C27.6164 16.5518 26.7968 16.4654 25.9762 16.4124C25.1557 16.3594 24.3301 16.3329 23.4993 16.3329C22.6685 16.3329 21.8429 16.3594 21.0224 16.4124C20.2019 16.4654 19.3822 16.5518 18.5634 16.6714L16.5506 25.256H14.3583ZM15.3326 23.5125L16.8532 16.9406C16.1369 17.0911 15.4839 17.2462 14.8942 17.406C14.3044 17.5659 13.6942 17.7714 13.0634 18.0227L15.3326 23.5125ZM31.666 23.492L33.9353 18.0227C33.2959 17.78 32.6835 17.5766 32.0981 17.4124C31.5126 17.2483 30.8617 17.0911 30.1455 16.9406L31.666 23.492Z" fill="#FFC83A"/>
</g>
</svg>
