<svg width="47" height="48" viewBox="0 0 47 48" fill="none" xmlns="http://www.w3.org/2000/svg">
<rect x="0.5" y="1" width="46" height="46" fill="black"/>
<rect x="0.5" y="1" width="46" height="46" stroke="#4D4D4D"/>
<mask id="mask0_940_1849" style="mask-type:alpha" maskUnits="userSpaceOnUse" x="7" y="8" width="33" height="32">
<rect x="7.5" y="8" width="32" height="32" fill="#D9D9D9"/>
</mask>
<g mask="url(#mask0_940_1849)">
<path d="M23.5003 30.4615C22.8268 30.4615 22.2482 30.2197 21.7644 29.7359C21.2806 29.2521 21.0388 28.6735 21.0388 28C21.0388 27.3265 21.2806 26.7479 21.7644 26.2641C22.2482 25.7804 22.8268 25.5385 23.5003 25.5385C24.1738 25.5385 24.7524 25.7804 25.2362 26.2641C25.72 26.7479 25.9618 27.3265 25.9618 28C25.9618 28.6735 25.72 29.2521 25.2362 29.7359C24.7524 30.2197 24.1738 30.4615 23.5003 30.4615ZM19.8337 39.6666V35.0333C17.9789 34.4487 16.6392 33.4312 15.8144 31.9808C14.9896 30.5303 14.5559 28.8701 14.5131 27H16.5131C16.5644 29.253 17.1823 30.9274 18.367 32.0231C19.5516 33.1188 21.2627 33.6667 23.5003 33.6667C25.7379 33.6667 27.449 33.1188 28.6336 32.0231C29.8183 30.9274 30.4362 29.253 30.4875 27H32.4875C32.4447 28.8701 32.0109 30.5303 31.1862 31.9808C30.3614 33.4312 29.0216 34.4487 27.1669 35.0333V39.6667L19.8337 39.6666ZM14.3593 25.2564L11.5901 18.6307C11.3764 18.7316 11.134 18.859 10.8631 19.0128C10.5922 19.1667 10.3601 19.2436 10.167 19.2436C9.89176 19.2436 9.65629 19.1479 9.46056 18.9564C9.26485 18.7649 9.16699 18.5273 9.16699 18.2436V13.6667C9.16699 12.2086 10.549 10.9552 13.3131 9.90644C16.0772 8.85773 19.4729 8.33337 23.5003 8.33337C27.5277 8.33337 30.9234 8.85773 33.6875 9.90644C36.4516 10.9552 37.8336 12.2086 37.8336 13.6667V18.2436C37.8336 18.5273 37.7357 18.7649 37.54 18.9564C37.3443 19.1479 37.1088 19.2436 36.8336 19.2436C36.6405 19.2436 36.4084 19.1667 36.1375 19.0128C35.8665 18.859 35.6242 18.7316 35.4105 18.6307L32.6413 25.2564H30.449L28.4362 16.6718C27.6174 16.5521 26.7977 16.4658 25.9772 16.4128C25.1567 16.3598 24.3311 16.3333 23.5003 16.3333C22.6695 16.3333 21.8439 16.3598 21.0234 16.4128C20.2028 16.4658 19.3832 16.5521 18.5644 16.6718L16.5516 25.2564H14.3593ZM15.3336 23.5129L16.8542 16.941C16.1379 17.0914 15.4849 17.2466 14.8952 17.4064C14.3054 17.5662 13.6951 17.7718 13.0644 18.0231L15.3336 23.5129ZM31.667 23.4923L33.9362 18.0231C33.2969 17.7803 32.6845 17.5769 32.099 17.4128C31.5135 17.2487 30.8627 17.0914 30.1464 16.941L31.667 23.4923ZM11.1669 16.6C12.8729 15.8564 14.7815 15.2928 16.8926 14.909C19.0037 14.5253 21.2063 14.3334 23.5003 14.3334C25.7943 14.3334 27.9969 14.5253 30.108 14.909C32.2191 15.2928 34.1277 15.8564 35.8337 16.6V13.6564C35.714 13.3487 35.358 13.0056 34.7657 12.6269C34.1734 12.2483 33.3589 11.8859 32.3221 11.5397C31.2853 11.1936 30.0311 10.906 28.5593 10.6769C27.0875 10.4478 25.4012 10.3333 23.5003 10.3333C21.5994 10.3333 19.9131 10.4478 18.4413 10.6769C16.9695 10.906 15.7152 11.1936 14.6785 11.5397C13.6417 11.8859 12.8272 12.2483 12.2349 12.6269C11.6426 13.0056 11.2866 13.3487 11.1669 13.6564V16.6Z" fill="white"/>
</g>
</svg>
