<svg width="351" height="265" viewBox="0 0 351 265" fill="none" xmlns="http://www.w3.org/2000/svg">
<g filter="url(#filter0_b_4116_14484)">
<rect y="0.210938" width="351" height="264" rx="12" fill="#29292D" fill-opacity="0.3"/>
<path opacity="0.5" d="M117.818 67.0974L112.39 63.9599C111.306 63.3377 111.439 62.2355 112.692 61.5156L117.507 58.7335C118.76 58.0136 120.652 57.9336 121.736 58.5558L127.164 61.6933C128.248 62.3155 128.115 63.4177 126.862 64.1376L122.047 66.9197C120.794 67.6396 118.902 67.7196 117.818 67.0974Z" stroke="#FFC83A" stroke-width="0.6" stroke-linecap="round" stroke-linejoin="round"/>
<path opacity="0.5" d="M131.091 74.7654L125.663 71.6278C124.579 71.0057 124.712 69.9035 125.965 69.1835L130.78 66.4015C132.033 65.6816 133.925 65.6016 135.009 66.2237L140.438 69.3613C141.522 69.9835 141.388 71.0856 140.136 71.8056L135.32 74.5876C134.068 75.3076 132.175 75.3876 131.091 74.7654Z" stroke="#FFC83A" stroke-width="0.6" stroke-linecap="round" stroke-linejoin="round"/>
<path opacity="0.5" d="M104.545 59.4256L99.1162 56.288C98.0323 55.6658 98.1656 54.5637 99.4183 53.8437L104.234 51.0617C105.486 50.3417 107.379 50.2617 108.463 50.8839L113.891 54.0215C114.975 54.6437 114.842 55.7458 113.589 56.4658L108.774 59.2478C107.521 59.9677 105.628 60.0477 104.545 59.4256Z" stroke="#FFC83A" stroke-width="0.6" stroke-linecap="round" stroke-linejoin="round"/>
<path opacity="0.5" d="M144.373 82.4373L138.945 79.2997C137.861 78.6775 137.994 77.5754 139.247 76.8554L144.062 74.0734C145.315 73.3534 147.207 73.2734 148.291 73.8956L153.719 77.0332C154.803 77.6554 154.67 78.7575 153.417 79.4775L148.602 82.2595C147.349 82.9795 145.457 83.0595 144.373 82.4373Z" stroke="#FFC83A" stroke-width="0.6" stroke-linecap="round" stroke-linejoin="round"/>
<path opacity="0.5" d="M157.646 90.0974L152.218 86.9599C151.134 86.3377 151.267 85.2355 152.52 84.5156L157.335 81.7335C158.588 81.0136 160.481 80.9336 161.564 81.5558L166.993 84.6933C168.077 85.3155 167.943 86.4177 166.691 87.1376L161.875 89.9197C160.623 90.6396 158.73 90.7196 157.646 90.0974Z" stroke="#FFC83A" stroke-width="0.6" stroke-linecap="round" stroke-linejoin="round"/>
<path opacity="0.5" d="M170.92 97.7693L165.491 94.6317C164.408 94.0096 164.541 92.9074 165.794 92.1875L170.609 89.4054C171.862 88.6855 173.754 88.6055 174.838 89.2276L180.266 92.3652C181.35 92.9874 181.217 94.0896 179.964 94.8095L175.149 97.5915C173.896 98.3115 172.004 98.3915 170.92 97.7693Z" stroke="#FFC83A" stroke-width="0.6" stroke-linecap="round" stroke-linejoin="round"/>
<path opacity="0.5" d="M91.263 67.0974L85.8346 63.9599C84.7507 63.3377 84.884 62.2355 86.1367 61.5156L90.952 58.7335C92.2047 58.0136 94.0971 57.9336 95.181 58.5558L100.609 61.6933C101.693 62.3155 101.56 63.4177 100.307 64.1376L95.4919 66.9197C94.2392 67.6396 92.3469 67.7196 91.263 67.0974Z" stroke="#FFC83A" stroke-width="0.6" stroke-linecap="round" stroke-linejoin="round"/>
<path d="M104.544 64.7654L99.1156 61.6278C98.0317 61.0057 98.165 59.9035 99.4177 59.1835L104.233 56.4015C105.486 55.6816 107.378 55.6016 108.462 56.2237L113.89 59.3613C114.974 59.9835 114.841 61.0856 113.588 61.8056L108.773 64.5876C107.52 65.3076 105.628 65.3876 104.544 64.7654Z" fill="#1C1D1F" stroke="#FFC83A" stroke-width="0.6" stroke-linecap="round" stroke-linejoin="round"/>
<path opacity="0.5" d="M117.818 82.4373L112.39 79.2997C111.306 78.6775 111.439 77.5754 112.692 76.8554L117.507 74.0734C118.76 73.3534 120.652 73.2734 121.736 73.8956L127.164 77.0332C128.248 77.6554 128.115 78.7575 126.862 79.4775L122.047 82.2595C120.794 82.9795 118.902 83.0595 117.818 82.4373Z" stroke="#FFC83A" stroke-width="0.6" stroke-linecap="round" stroke-linejoin="round"/>
<path opacity="0.5" d="M131.091 90.0974L125.663 86.9599C124.579 86.3377 124.712 85.2355 125.965 84.5156L130.78 81.7335C132.033 81.0136 133.925 80.9336 135.009 81.5558L140.438 84.6933C141.522 85.3155 141.388 86.4177 140.136 87.1376L135.32 89.9197C134.068 90.6396 132.175 90.7196 131.091 90.0974Z" stroke="#FFC83A" stroke-width="0.6" stroke-linecap="round" stroke-linejoin="round"/>
<path opacity="0.5" d="M144.373 97.7693L138.945 94.6317C137.861 94.0096 137.994 92.9074 139.247 92.1875L144.062 89.4054C145.315 88.6855 147.207 88.6055 148.291 89.2276L153.719 92.3652C154.803 92.9874 154.67 94.0896 153.417 94.8095L148.602 97.5915C147.349 98.3115 145.457 98.3915 144.373 97.7693Z" stroke="#FFC83A" stroke-width="0.6" stroke-linecap="round" stroke-linejoin="round"/>
<path opacity="0.5" d="M157.646 105.441L152.218 102.304C151.134 101.681 151.267 100.579 152.52 99.8593L157.335 97.0773C158.588 96.3573 160.481 96.2773 161.564 96.8995L166.993 100.037C168.077 100.659 167.943 101.761 166.691 102.481L161.875 105.263C160.623 105.983 158.73 106.063 157.646 105.441Z" stroke="#FFC83A" stroke-width="0.6" stroke-linecap="round" stroke-linejoin="round"/>
<path opacity="0.5" d="M77.9895 74.7654L72.5612 71.6278C71.4773 71.0057 71.6105 69.9035 72.8632 69.1835L77.6786 66.4015C78.9313 65.6816 80.8237 65.6016 81.9076 66.2237L87.3359 69.3613C88.4198 69.9835 88.2866 71.0856 87.0339 71.8056L82.2185 74.5876C80.9658 75.3076 79.0734 75.3876 77.9895 74.7654Z" stroke="#FFC83A" stroke-width="0.6" stroke-linecap="round" stroke-linejoin="round"/>
<path opacity="0.5" d="M91.263 82.4373L85.8346 79.2997C84.7507 78.6775 84.884 77.5754 86.1367 76.8554L90.952 74.0734C92.2047 73.3534 94.0971 73.2734 95.181 73.8956L100.609 77.0332C101.693 77.6554 101.56 78.7575 100.307 79.4775L95.4919 82.2595C94.2392 82.9795 92.3469 83.0595 91.263 82.4373Z" stroke="#FFC83A" stroke-width="0.6" stroke-linecap="round" stroke-linejoin="round"/>
<path d="M104.544 80.1013L99.1156 76.9638C98.0317 76.3416 98.165 75.2394 99.4177 74.5195L104.233 71.7374C105.486 71.0175 107.378 70.9375 108.462 71.5597L113.89 74.6972C114.974 75.3194 114.841 76.4216 113.588 77.1415L108.773 79.9236C107.52 80.6435 105.628 80.7235 104.544 80.1013Z" fill="#1C1D1F" stroke="#FFC83A" stroke-width="0.6" stroke-linecap="round" stroke-linejoin="round"/>
<path d="M117.817 87.7693L112.389 84.6317C111.305 84.0096 111.438 82.9074 112.691 82.1875L117.506 79.4054C118.759 78.6855 120.652 78.6055 121.735 79.2276L127.164 82.3652C128.248 82.9874 128.114 84.0896 126.862 84.8095L122.046 87.5915C120.794 88.3115 118.901 88.3915 117.817 87.7693Z" fill="#1C1D1F" stroke="#FFC83A" stroke-width="0.6" stroke-linecap="round" stroke-linejoin="round"/>
<path d="M131.091 95.4412L125.662 92.3036C124.579 91.6814 124.712 90.5793 125.965 89.8593L130.78 87.0773C132.033 86.3573 133.925 86.2773 135.009 86.8995L140.437 90.0371C141.521 90.6593 141.388 91.7614 140.135 92.4814L135.32 95.2634C134.067 95.9834 132.175 96.0634 131.091 95.4412Z" fill="#1C1D1F" stroke="#FFC83A" stroke-width="0.6" stroke-linecap="round" stroke-linejoin="round"/>
<path opacity="0.5" d="M144.373 113.109L138.945 109.972C137.861 109.349 137.994 108.247 139.247 107.527L144.062 104.745C145.315 104.025 147.207 103.945 148.291 104.567L153.719 107.705C154.803 108.327 154.67 109.429 153.417 110.149L148.602 112.931C147.349 113.651 145.457 113.731 144.373 113.109Z" stroke="#FFC83A" stroke-width="0.6" stroke-linecap="round" stroke-linejoin="round"/>
<path opacity="0.5" d="M64.7161 82.4373L59.2877 79.2997C58.2038 78.6775 58.3371 77.5754 59.5898 76.8554L64.4051 74.0734C65.6578 73.3534 67.5502 73.2734 68.6341 73.8956L74.0625 77.0332C75.1464 77.6554 75.0131 78.7575 73.7604 79.4775L68.9451 82.2595C67.6924 82.9795 65.8 83.0595 64.7161 82.4373Z" stroke="#FFC83A" stroke-width="0.6" stroke-linecap="round" stroke-linejoin="round"/>
<path opacity="0.5" d="M77.9895 90.0974L72.5612 86.9599C71.4773 86.3377 71.6105 85.2355 72.8632 84.5156L77.6786 81.7335C78.9313 81.0136 80.8237 80.9336 81.9076 81.5558L87.3359 84.6933C88.4198 85.3155 88.2866 86.4177 87.0339 87.1376L82.2185 89.9197C80.9658 90.6396 79.0734 90.7196 77.9895 90.0974Z" stroke="#FFC83A" stroke-width="0.6" stroke-linecap="round" stroke-linejoin="round"/>
<path d="M91.2627 87.7693L85.8343 84.6317C84.7505 84.0096 84.8837 82.9074 86.1364 82.1875L90.9518 79.4054C92.2045 78.6855 94.0968 78.6055 95.1807 79.2276L100.609 82.3652C101.693 82.9874 101.56 84.0896 100.307 84.8095L95.4917 87.5915C94.239 88.3115 92.3466 88.3915 91.2627 87.7693Z" fill="#1C1D1F" stroke="#FFC83A" stroke-width="0.6" stroke-linecap="round" stroke-linejoin="round"/>
<path d="M104.544 95.4412L99.1156 92.3036C98.0317 91.6814 98.165 90.5793 99.4177 89.8593L104.233 87.0773C105.486 86.3573 107.378 86.2773 108.462 86.8995L113.89 90.0371C114.974 90.6593 114.841 91.7614 113.588 92.4814L108.773 95.2634C107.52 95.9834 105.628 96.0634 104.544 95.4412Z" fill="#1C1D1F" stroke="#FFC83A" stroke-width="0.6" stroke-linecap="round" stroke-linejoin="round"/>
<path d="M117.817 103.109L112.389 99.9716C111.305 99.3494 111.438 98.2473 112.691 97.5273L117.506 94.7453C118.759 94.0253 120.652 93.9453 121.735 94.5675L127.164 97.7051C128.248 98.3272 128.114 99.4294 126.862 100.149L122.046 102.931C120.794 103.651 118.901 103.731 117.817 103.109Z" fill="#1C1D1F" stroke="#FFC83A" stroke-width="0.6" stroke-linecap="round" stroke-linejoin="round"/>
<path opacity="0.5" d="M131.091 120.773L125.663 117.636C124.579 117.013 124.712 115.911 125.965 115.191L130.78 112.409C132.033 111.689 133.925 111.609 135.009 112.232L140.438 115.369C141.522 115.991 141.388 117.093 140.136 117.813L135.32 120.595C134.068 121.315 132.175 121.395 131.091 120.773Z" stroke="#FFC83A" stroke-width="0.6" stroke-linecap="round" stroke-linejoin="round"/>
<path opacity="0.5" d="M51.4346 90.0974L46.0062 86.9599C44.9223 86.3377 45.0556 85.2355 46.3083 84.5156L51.1236 81.7335C52.3763 81.0136 54.2687 80.9336 55.3526 81.5558L60.781 84.6933C61.8649 85.3155 61.7316 86.4177 60.4789 87.1376L55.6636 89.9197C54.4109 90.6396 52.5185 90.7196 51.4346 90.0974Z" stroke="#FFC83A" stroke-width="0.6" stroke-linecap="round" stroke-linejoin="round"/>
<path opacity="0.5" d="M64.7161 97.7693L59.2877 94.6317C58.2038 94.0096 58.3371 92.9074 59.5898 92.1875L64.4051 89.4054C65.6578 88.6855 67.5502 88.6055 68.6341 89.2276L74.0625 92.3652C75.1464 92.9874 75.0131 94.0896 73.7604 94.8095L68.9451 97.5915C67.6924 98.3115 65.8 98.3915 64.7161 97.7693Z" stroke="#FFC83A" stroke-width="0.6" stroke-linecap="round" stroke-linejoin="round"/>
<path opacity="0.5" d="M77.9895 105.441L72.5612 102.304C71.4773 101.681 71.6105 100.579 72.8632 99.8593L77.6786 97.0773C78.9313 96.3573 80.8237 96.2773 81.9076 96.8995L87.3359 100.037C88.4198 100.659 88.2866 101.761 87.0339 102.481L82.2185 105.263C80.9658 105.983 79.0734 106.063 77.9895 105.441Z" stroke="#FFC83A" stroke-width="0.6" stroke-linecap="round" stroke-linejoin="round"/>
<path opacity="0.5" d="M91.263 113.109L85.8346 109.972C84.7507 109.349 84.884 108.247 86.1367 107.527L90.952 104.745C92.2047 104.025 94.0971 103.945 95.181 104.567L100.609 107.705C101.693 108.327 101.56 109.429 100.307 110.149L95.4919 112.931C94.2392 113.651 92.3469 113.731 91.263 113.109Z" stroke="#FFC83A" stroke-width="0.6" stroke-linecap="round" stroke-linejoin="round"/>
<path opacity="0.5" d="M104.545 120.773L99.1162 117.636C98.0323 117.013 98.1656 115.911 99.4183 115.191L104.234 112.409C105.486 111.689 107.379 111.609 108.463 112.232L113.891 115.369C114.975 115.991 114.842 117.093 113.589 117.813L108.774 120.595C107.521 121.315 105.628 121.395 104.545 120.773Z" stroke="#FFC83A" stroke-width="0.6" stroke-linecap="round" stroke-linejoin="round"/>
<path opacity="0.5" d="M117.818 128.445L112.39 125.308C111.306 124.685 111.439 123.583 112.692 122.863L117.507 120.081C118.76 119.361 120.652 119.281 121.736 119.903L127.164 123.041C128.248 123.663 128.115 124.765 126.862 125.485L122.047 128.267C120.794 128.987 118.902 129.067 117.818 128.445Z" stroke="#FFC83A" stroke-width="0.6" stroke-linecap="round" stroke-linejoin="round"/>
<path opacity="0.5" d="M38.1612 97.7693L32.7328 94.6317C31.6489 94.0096 31.7822 92.9074 33.0349 92.1875L37.8502 89.4054C39.1029 88.6855 40.9953 88.6055 42.0792 89.2276L47.5075 92.3652C48.5914 92.9874 48.4582 94.0896 47.2055 94.8095L42.3901 97.5915C41.1374 98.3115 39.245 98.3915 38.1612 97.7693Z" stroke="#FFC83A" stroke-width="0.6" stroke-linecap="round" stroke-linejoin="round"/>
<path opacity="0.5" d="M51.4346 105.441L46.0062 102.304C44.9223 101.681 45.0556 100.579 46.3083 99.8593L51.1236 97.0773C52.3763 96.3573 54.2687 96.2773 55.3526 96.8995L60.781 100.037C61.8649 100.659 61.7316 101.761 60.4789 102.481L55.6636 105.263C54.4109 105.983 52.5185 106.063 51.4346 105.441Z" stroke="#FFC83A" stroke-width="0.6" stroke-linecap="round" stroke-linejoin="round"/>
<path opacity="0.5" d="M64.7161 113.109L59.2877 109.972C58.2038 109.349 58.3371 108.247 59.5898 107.527L64.4051 104.745C65.6578 104.025 67.5502 103.945 68.6341 104.567L74.0625 107.705C75.1464 108.327 75.0131 109.429 73.7604 110.149L68.9451 112.931C67.6924 113.651 65.8 113.731 64.7161 113.109Z" stroke="#FFC83A" stroke-width="0.6" stroke-linecap="round" stroke-linejoin="round"/>
<path opacity="0.5" d="M77.9895 120.773L72.5612 117.636C71.4773 117.013 71.6105 115.911 72.8632 115.191L77.6786 112.409C78.9313 111.689 80.8237 111.609 81.9076 112.232L87.3359 115.369C88.4198 115.991 88.2866 117.093 87.0339 117.813L82.2185 120.595C80.9658 121.315 79.0734 121.395 77.9895 120.773Z" stroke="#FFC83A" stroke-width="0.6" stroke-linecap="round" stroke-linejoin="round"/>
<path opacity="0.5" d="M91.263 128.445L85.8346 125.308C84.7507 124.685 84.884 123.583 86.1367 122.863L90.952 120.081C92.2047 119.361 94.0971 119.281 95.181 119.903L100.609 123.041C101.693 123.663 101.56 124.765 100.307 125.485L95.4919 128.267C94.2392 128.987 92.3469 129.067 91.263 128.445Z" stroke="#FFC83A" stroke-width="0.6" stroke-linecap="round" stroke-linejoin="round"/>
<path opacity="0.5" d="M104.545 136.113L99.1162 132.975C98.0323 132.353 98.1656 131.251 99.4183 130.531L104.234 127.749C105.486 127.029 107.379 126.949 108.463 127.571L113.891 130.709C114.975 131.331 114.842 132.433 113.589 133.153L108.774 135.935C107.521 136.655 105.628 136.735 104.545 136.113Z" stroke="#FFC83A" stroke-width="0.6" stroke-linecap="round" stroke-linejoin="round"/>
<path d="M35.5017 198.746H32.938L40.353 178.552H42.8773L50.2923 198.746H47.7286L41.694 181.747H41.5363L35.5017 198.746ZM36.4483 190.858H46.782L46.782 193.027H36.4483L36.4483 190.858ZM62.667 192.554L62.667 183.601H64.9941L64.9941 198.746H62.667L62.667 196.182H62.5093C62.1543 196.952 61.6021 197.606 60.8527 198.145C60.1033 198.677 59.1568 198.943 58.0129 198.943C57.0664 198.943 56.2249 198.736 55.4887 198.322C54.7525 197.901 54.174 197.27 53.7533 196.429C53.3326 195.581 53.1222 194.513 53.1222 193.224L53.1222 183.601H55.4493L55.4493 193.067C55.4493 194.171 55.7582 195.052 56.3761 195.709C57.0006 196.366 57.796 196.695 58.7623 196.695C59.3408 196.695 59.9291 196.547 60.5273 196.251C61.1321 195.956 61.6383 195.502 62.0458 194.891C62.46 194.279 62.667 193.5 62.667 192.554ZM75.843 183.601L75.843 185.573H67.9941L67.9941 183.601H75.843ZM70.2817 179.972H72.6088L72.6088 194.408C72.6088 195.065 72.7041 195.558 72.8947 195.887C73.0919 196.209 73.3417 196.426 73.6441 196.537C73.9531 196.643 74.2785 196.695 74.6203 196.695C74.8767 196.695 75.087 196.682 75.2514 196.656C75.4157 196.623 75.5472 196.597 75.6458 196.577L76.1191 198.667C75.9613 198.726 75.7411 198.786 75.4584 198.845C75.1758 198.91 74.8175 198.943 74.3836 198.943C73.7263 198.943 73.0821 198.802 72.451 198.519C71.8265 198.237 71.3072 197.806 70.8931 197.228C70.4855 196.649 70.2817 195.919 70.2817 195.039L70.2817 179.972ZM85.3336 199.062C83.9663 199.062 82.7666 198.736 81.7346 198.085C80.7091 197.435 79.9071 196.524 79.3286 195.354C78.7567 194.184 78.4708 192.817 78.4708 191.252C78.4708 189.675 78.7567 188.297 79.3286 187.121C79.9071 185.944 80.7091 185.03 81.7346 184.38C82.7666 183.729 83.9663 183.403 85.3336 183.403C86.7009 183.403 87.8973 183.729 88.9228 184.38C89.9548 185.03 90.7568 185.944 91.3287 187.121C91.9072 188.297 92.1964 189.675 92.1964 191.252C92.1964 192.817 91.9072 194.184 91.3287 195.354C90.7568 196.524 89.9548 197.435 88.9228 198.085C87.8973 198.736 86.7009 199.062 85.3336 199.062ZM85.3336 196.971C86.3722 196.971 87.2268 196.705 87.8973 196.173C88.5678 195.64 89.0641 194.94 89.3862 194.072C89.7083 193.205 89.8694 192.265 89.8694 191.252C89.8694 190.24 89.7083 189.297 89.3862 188.422C89.0641 187.548 88.5678 186.841 87.8973 186.302C87.2268 185.763 86.3722 185.494 85.3336 185.494C84.295 185.494 83.4404 185.763 82.7699 186.302C82.0994 186.841 81.6031 187.548 81.281 188.422C80.9589 189.297 80.7978 190.24 80.7978 191.252C80.7978 192.265 80.9589 193.205 81.281 194.072C81.6031 194.94 82.0994 195.64 82.7699 196.173C83.4404 196.705 84.295 196.971 85.3336 196.971ZM114.917 183.601C114.799 182.601 114.319 181.826 113.478 181.274C112.636 180.721 111.604 180.445 110.381 180.445C109.487 180.445 108.705 180.59 108.035 180.879C107.371 181.168 106.851 181.566 106.477 182.072C106.109 182.578 105.925 183.154 105.925 183.798C105.925 184.337 106.053 184.8 106.309 185.188C106.572 185.569 106.907 185.888 107.315 186.145C107.722 186.394 108.15 186.601 108.597 186.766C109.044 186.923 109.455 187.052 109.829 187.15L111.88 187.702C112.406 187.841 112.991 188.031 113.635 188.274C114.286 188.518 114.907 188.85 115.499 189.27C116.097 189.684 116.59 190.217 116.978 190.868C117.366 191.518 117.56 192.317 117.56 193.264C117.56 194.355 117.274 195.341 116.702 196.222C116.137 197.103 115.308 197.803 114.217 198.322C113.132 198.841 111.814 199.101 110.263 199.101C108.817 199.101 107.565 198.868 106.506 198.401C105.455 197.934 104.626 197.283 104.021 196.449C103.423 195.614 103.085 194.644 103.006 193.54H105.53C105.596 194.302 105.852 194.933 106.299 195.433C106.753 195.926 107.325 196.294 108.015 196.537C108.712 196.774 109.461 196.892 110.263 196.892C111.197 196.892 112.035 196.741 112.777 196.439C113.52 196.13 114.109 195.703 114.543 195.157C114.976 194.605 115.193 193.961 115.193 193.224C115.193 192.554 115.006 192.008 114.631 191.587C114.257 191.167 113.764 190.825 113.152 190.562C112.541 190.299 111.88 190.069 111.17 189.872L108.685 189.162C107.108 188.708 105.859 188.061 104.938 187.219C104.018 186.378 103.558 185.277 103.558 183.916C103.558 182.785 103.864 181.799 104.475 180.958C105.093 180.11 105.921 179.453 106.96 178.986C108.005 178.513 109.172 178.276 110.46 178.276C111.762 178.276 112.919 178.509 113.931 178.976C114.943 179.436 115.745 180.067 116.337 180.869C116.935 181.671 117.251 182.582 117.284 183.601H114.917ZM130.81 192.554L130.81 183.601H133.137L133.137 198.746H130.81L130.81 196.182H130.652C130.297 196.952 129.745 197.606 128.995 198.145C128.246 198.677 127.299 198.943 126.156 198.943C125.209 198.943 124.368 198.736 123.631 198.322C122.895 197.901 122.317 197.27 121.896 196.429C121.475 195.581 121.265 194.513 121.265 193.224L121.265 183.601H123.592L123.592 193.067C123.592 194.171 123.901 195.052 124.519 195.709C125.143 196.366 125.939 196.695 126.905 196.695C127.483 196.695 128.072 196.547 128.67 196.251C129.275 195.956 129.781 195.502 130.188 194.891C130.603 194.279 130.81 193.5 130.81 192.554ZM143.512 204.741C142.388 204.741 141.422 204.597 140.613 204.307C139.805 204.025 139.131 203.65 138.592 203.183C138.06 202.723 137.636 202.23 137.32 201.704L139.174 200.403C139.384 200.679 139.65 200.994 139.972 201.349C140.295 201.711 140.735 202.023 141.294 202.286C141.859 202.555 142.599 202.69 143.512 202.69C144.735 202.69 145.744 202.394 146.539 201.803C147.335 201.211 147.733 200.284 147.733 199.022L147.733 195.946H147.535C147.364 196.222 147.121 196.564 146.806 196.971C146.497 197.372 146.05 197.73 145.465 198.046C144.886 198.355 144.104 198.509 143.118 198.509C141.895 198.509 140.797 198.22 139.825 197.642C138.858 197.063 138.092 196.222 137.527 195.117C136.968 194.013 136.689 192.672 136.689 191.094C136.689 189.543 136.962 188.192 137.507 187.042C138.053 185.885 138.812 184.991 139.785 184.36C140.758 183.722 141.882 183.403 143.157 183.403C144.143 183.403 144.926 183.568 145.504 183.896C146.089 184.218 146.536 184.587 146.845 185.001C147.161 185.408 147.404 185.744 147.575 186.006H147.811L147.811 183.601H150.06L150.06 199.18C150.06 200.482 149.764 201.54 149.172 202.355C148.587 203.177 147.798 203.778 146.806 204.159C145.82 204.547 144.722 204.741 143.512 204.741ZM143.433 196.419C144.367 196.419 145.156 196.205 145.8 195.778C146.444 195.351 146.934 194.736 147.269 193.934C147.604 193.132 147.772 192.173 147.772 191.055C147.772 189.964 147.608 189.001 147.279 188.166C146.95 187.331 146.464 186.677 145.82 186.204C145.175 185.73 144.38 185.494 143.433 185.494C142.447 185.494 141.626 185.744 140.968 186.243C140.318 186.743 139.828 187.413 139.499 188.255C139.177 189.096 139.016 190.03 139.016 191.055C139.016 192.107 139.18 193.037 139.509 193.845C139.844 194.647 140.337 195.279 140.988 195.739C141.645 196.192 142.461 196.419 143.433 196.419ZM160.433 204.741C159.309 204.741 158.342 204.597 157.534 204.307C156.725 204.025 156.051 203.65 155.512 203.183C154.98 202.723 154.556 202.23 154.24 201.704L156.094 200.403C156.304 200.679 156.571 200.994 156.893 201.349C157.215 201.711 157.655 202.023 158.214 202.286C158.779 202.555 159.519 202.69 160.433 202.69C161.655 202.69 162.664 202.394 163.46 201.803C164.255 201.211 164.653 200.284 164.653 199.022L164.653 195.946H164.456C164.285 196.222 164.042 196.564 163.726 196.971C163.417 197.372 162.97 197.73 162.385 198.046C161.807 198.355 161.024 198.509 160.038 198.509C158.816 198.509 157.718 198.22 156.745 197.642C155.779 197.063 155.013 196.222 154.447 195.117C153.889 194.013 153.609 192.672 153.609 191.094C153.609 189.543 153.882 188.192 154.428 187.042C154.973 185.885 155.733 184.991 156.705 184.36C157.678 183.722 158.802 183.403 160.078 183.403C161.064 183.403 161.846 183.568 162.425 183.896C163.01 184.218 163.457 184.587 163.766 185.001C164.081 185.408 164.324 185.744 164.495 186.006H164.732L164.732 183.601H166.98L166.98 199.18C166.98 200.482 166.684 201.54 166.093 202.355C165.508 203.177 164.719 203.778 163.726 204.159C162.74 204.547 161.642 204.741 160.433 204.741ZM160.354 196.419C161.287 196.419 162.076 196.205 162.72 195.778C163.365 195.351 163.854 194.736 164.19 193.934C164.525 193.132 164.692 192.173 164.692 191.055C164.692 189.964 164.528 189.001 164.199 188.166C163.871 187.331 163.384 186.677 162.74 186.204C162.096 185.73 161.3 185.494 160.354 185.494C159.368 185.494 158.546 185.744 157.889 186.243C157.238 186.743 156.748 187.413 156.42 188.255C156.097 189.096 155.936 190.03 155.936 191.055C155.936 192.107 156.101 193.037 156.429 193.845C156.765 194.647 157.258 195.279 157.908 195.739C158.566 196.192 159.381 196.419 160.354 196.419ZM177.59 199.062C176.13 199.062 174.872 198.74 173.813 198.095C172.761 197.445 171.95 196.537 171.378 195.374C170.812 194.204 170.53 192.843 170.53 191.292C170.53 189.74 170.812 188.373 171.378 187.19C171.95 186 172.745 185.073 173.764 184.409C174.789 183.739 175.986 183.403 177.353 183.403C178.142 183.403 178.921 183.535 179.69 183.798C180.459 184.061 181.159 184.488 181.79 185.08C182.421 185.665 182.924 186.44 183.299 187.407C183.674 188.373 183.861 189.563 183.861 190.976V191.962H172.186V189.951H181.494C181.494 189.096 181.324 188.334 180.982 187.663C180.646 186.993 180.167 186.463 179.542 186.076C178.924 185.688 178.195 185.494 177.353 185.494C176.426 185.494 175.624 185.724 174.947 186.184C174.277 186.638 173.761 187.229 173.399 187.959C173.038 188.689 172.857 189.471 172.857 190.306V191.647C172.857 192.79 173.054 193.76 173.448 194.555C173.849 195.344 174.405 195.946 175.115 196.36C175.825 196.767 176.65 196.971 177.59 196.971C178.201 196.971 178.753 196.886 179.246 196.715C179.746 196.537 180.176 196.274 180.538 195.926C180.9 195.571 181.179 195.131 181.376 194.605L183.624 195.236C183.388 195.998 182.99 196.669 182.431 197.247C181.872 197.819 181.182 198.266 180.361 198.588C179.539 198.904 178.615 199.062 177.59 199.062ZM198.129 186.993L196.039 187.584C195.907 187.236 195.713 186.897 195.457 186.569C195.207 186.233 194.865 185.957 194.431 185.74C193.997 185.523 193.442 185.415 192.765 185.415C191.838 185.415 191.066 185.629 190.448 186.056C189.836 186.476 189.531 187.012 189.531 187.663C189.531 188.242 189.741 188.698 190.162 189.034C190.582 189.369 191.24 189.648 192.134 189.872L194.382 190.424C195.736 190.753 196.745 191.255 197.409 191.933C198.073 192.603 198.405 193.468 198.405 194.526C198.405 195.394 198.155 196.169 197.656 196.853C197.163 197.537 196.472 198.076 195.585 198.47C194.698 198.864 193.665 199.062 192.489 199.062C190.944 199.062 189.665 198.726 188.653 198.056C187.641 197.385 187 196.406 186.73 195.117L188.939 194.565C189.149 195.38 189.547 195.992 190.132 196.399C190.724 196.807 191.496 197.011 192.449 197.011C193.534 197.011 194.395 196.781 195.033 196.32C195.677 195.854 195.999 195.295 195.999 194.644C195.999 194.118 195.815 193.678 195.447 193.323C195.079 192.961 194.513 192.692 193.751 192.514L191.227 191.923C189.84 191.594 188.821 191.085 188.17 190.394C187.526 189.698 187.204 188.827 187.204 187.781C187.204 186.927 187.444 186.171 187.923 185.513C188.41 184.856 189.071 184.34 189.905 183.965C190.747 183.591 191.7 183.403 192.765 183.403C194.264 183.403 195.44 183.732 196.295 184.389C197.156 185.047 197.767 185.914 198.129 186.993ZM208.495 183.601V185.573H200.646V183.601H208.495ZM202.933 179.972H205.26L205.26 194.408C205.26 195.065 205.356 195.558 205.546 195.887C205.744 196.209 205.993 196.426 206.296 196.537C206.605 196.643 206.93 196.695 207.272 196.695C207.528 196.695 207.739 196.682 207.903 196.656C208.067 196.623 208.199 196.597 208.297 196.577L208.771 198.667C208.613 198.726 208.393 198.786 208.11 198.845C207.827 198.91 207.469 198.943 207.035 198.943C206.378 198.943 205.734 198.802 205.103 198.519C204.478 198.237 203.959 197.806 203.545 197.228C203.137 196.649 202.933 195.919 202.933 195.039L202.933 179.972ZM211.995 198.746L211.995 183.601H214.322L214.322 198.746H211.995ZM213.178 181.076C212.725 181.076 212.334 180.922 212.005 180.613C211.683 180.304 211.522 179.932 211.522 179.499C211.522 179.065 211.683 178.693 212.005 178.384C212.334 178.075 212.725 177.921 213.178 177.921C213.632 177.921 214.02 178.075 214.342 178.384C214.671 178.693 214.835 179.065 214.835 179.499C214.835 179.932 214.671 180.304 214.342 180.613C214.02 180.922 213.632 181.076 213.178 181.076ZM224.737 199.062C223.37 199.062 222.17 198.736 221.138 198.085C220.113 197.435 219.311 196.524 218.732 195.354C218.16 194.184 217.874 192.817 217.874 191.252C217.874 189.675 218.16 188.297 218.732 187.121C219.311 185.944 220.113 185.03 221.138 184.38C222.17 183.729 223.37 183.403 224.737 183.403C226.104 183.403 227.301 183.729 228.326 184.38C229.358 185.03 230.16 185.944 230.732 187.121C231.311 188.297 231.6 189.675 231.6 191.252C231.6 192.817 231.311 194.184 230.732 195.354C230.16 196.524 229.358 197.435 228.326 198.085C227.301 198.736 226.104 199.062 224.737 199.062ZM224.737 196.971C225.776 196.971 226.63 196.705 227.301 196.173C227.971 195.64 228.468 194.94 228.79 194.072C229.112 193.205 229.273 192.265 229.273 191.252C229.273 190.24 229.112 189.297 228.79 188.422C228.468 187.548 227.971 186.841 227.301 186.302C226.63 185.763 225.776 185.494 224.737 185.494C223.699 185.494 222.844 185.763 222.173 186.302C221.503 186.841 221.007 187.548 220.685 188.422C220.362 189.297 220.201 190.24 220.201 191.252C220.201 192.265 220.362 193.205 220.685 194.072C221.007 194.94 221.503 195.64 222.173 196.173C222.844 196.705 223.699 196.971 224.737 196.971ZM237.479 189.635L237.479 198.746H235.152L235.152 183.601H237.4L237.4 185.967H237.598C237.953 185.198 238.492 184.58 239.215 184.113C239.938 183.64 240.871 183.403 242.015 183.403C243.04 183.403 243.938 183.614 244.707 184.034C245.476 184.449 246.074 185.08 246.501 185.928C246.929 186.769 247.142 187.834 247.142 189.122L247.142 198.746H244.815L244.815 189.28C244.815 188.09 244.506 187.163 243.888 186.5C243.271 185.829 242.423 185.494 241.345 185.494C240.602 185.494 239.938 185.655 239.353 185.977C238.774 186.299 238.317 186.769 237.982 187.387C237.647 188.005 237.479 188.754 237.479 189.635ZM262.123 186.993L260.032 187.584C259.901 187.236 259.707 186.897 259.451 186.569C259.201 186.233 258.859 185.957 258.425 185.74C257.991 185.523 257.436 185.415 256.759 185.415C255.832 185.415 255.059 185.629 254.442 186.056C253.83 186.476 253.525 187.012 253.525 187.663C253.525 188.242 253.735 188.698 254.156 189.034C254.576 189.369 255.234 189.648 256.128 189.872L258.376 190.424C259.73 190.753 260.739 191.255 261.403 191.933C262.067 192.603 262.399 193.468 262.399 194.526C262.399 195.394 262.149 196.169 261.649 196.853C261.156 197.537 260.466 198.076 259.579 198.47C258.691 198.864 257.659 199.062 256.483 199.062C254.938 199.062 253.659 198.726 252.647 198.056C251.635 197.385 250.994 196.406 250.724 195.117L252.933 194.565C253.143 195.38 253.541 195.992 254.126 196.399C254.718 196.807 255.49 197.011 256.443 197.011C257.528 197.011 258.389 196.781 259.027 196.32C259.671 195.854 259.993 195.295 259.993 194.644C259.993 194.118 259.809 193.678 259.441 193.323C259.073 192.961 258.507 192.692 257.745 192.514L255.221 191.923C253.834 191.594 252.815 191.085 252.164 190.394C251.52 189.698 251.197 188.827 251.197 187.781C251.197 186.927 251.437 186.171 251.917 185.513C252.404 184.856 253.064 184.34 253.899 183.965C254.741 183.591 255.694 183.403 256.759 183.403C258.258 183.403 259.434 183.732 260.289 184.389C261.15 185.047 261.761 185.914 262.123 186.993Z" fill="url(#paint0_linear_4116_14484)"/>
<path d="M33.4945 229.211L33.4945 219.114H39.5487L39.5487 220.199H34.7172L34.7172 223.61H39.0952L39.0952 224.695H34.7172L34.7172 229.211H33.4945ZM41.4851 229.211L41.4851 221.638H42.6486L42.6486 229.211H41.4851ZM42.0767 220.376C41.8499 220.376 41.6543 220.299 41.49 220.144C41.329 219.99 41.2484 219.804 41.2484 219.587C41.2484 219.37 41.329 219.185 41.49 219.03C41.6543 218.876 41.8499 218.798 42.0767 218.798C42.3035 218.798 42.4974 218.876 42.6585 219.03C42.8228 219.185 42.905 219.37 42.905 219.587C42.905 219.804 42.8228 219.99 42.6585 220.144C42.4974 220.299 42.3035 220.376 42.0767 220.376ZM45.9432 224.655L45.9432 229.211H44.7797L44.7797 221.638H45.9038L45.9038 222.821H46.0024C46.1799 222.437 46.4494 222.128 46.8109 221.895C47.1725 221.658 47.6392 221.54 48.2111 221.54C48.7238 221.54 49.1725 221.645 49.557 221.855C49.9416 222.062 50.2407 222.378 50.4543 222.802C50.668 223.222 50.7748 223.755 50.7748 224.399L50.7748 229.211H49.6113L49.6113 224.478C49.6113 223.883 49.4568 223.42 49.1478 223.088C48.8389 222.752 48.4149 222.585 47.8758 222.585C47.5044 222.585 47.1725 222.665 46.8799 222.826C46.5907 222.987 46.3623 223.222 46.1946 223.531C46.027 223.84 45.9432 224.215 45.9432 224.655ZM55.7604 229.369C55.1294 229.369 54.5723 229.209 54.0891 228.89C53.6059 228.568 53.228 228.115 52.9552 227.53C52.6824 226.941 52.546 226.246 52.546 225.444C52.546 224.649 52.6824 223.959 52.9552 223.374C53.228 222.789 53.6076 222.337 54.094 222.018C54.5805 221.699 55.1425 221.54 55.7802 221.54C56.2732 221.54 56.6627 221.622 56.9486 221.786C57.2379 221.947 57.4581 222.131 57.6093 222.338C57.7637 222.542 57.8837 222.71 57.9692 222.841H58.0678L58.0678 219.114H59.2313L59.2313 229.211H58.1072L58.1072 228.047H57.9692C57.8837 228.185 57.7621 228.36 57.6043 228.57C57.4466 228.777 57.2214 228.963 56.9289 229.127C56.6364 229.288 56.2469 229.369 55.7604 229.369ZM55.9182 228.324C56.3849 228.324 56.7793 228.202 57.1015 227.959C57.4236 227.712 57.6684 227.372 57.8361 226.938C58.0037 226.501 58.0875 225.996 58.0875 225.425C58.0875 224.859 58.0053 224.365 57.841 223.941C57.6766 223.513 57.4334 223.181 57.1113 222.945C56.7892 222.705 56.3915 222.585 55.9182 222.585C55.4252 222.585 55.0143 222.711 54.6857 222.964C54.3603 223.214 54.1154 223.554 53.9511 223.985C53.79 224.412 53.7095 224.892 53.7095 225.425C53.7095 225.964 53.7917 226.453 53.956 226.894C54.1236 227.331 54.3701 227.679 54.6955 227.939C55.0242 228.195 55.4318 228.324 55.9182 228.324ZM65.5863 229.211L65.5863 219.114H66.809L66.809 223.61H72.1928L72.1928 219.114H73.4154L73.4154 229.211H72.1928L72.1928 224.695H66.809L66.809 229.211H65.5863ZM75.7055 229.211L75.7055 221.638H76.869L76.869 229.211H75.7055ZM76.2971 220.376C76.0704 220.376 75.8748 220.299 75.7105 220.144C75.5494 219.99 75.4689 219.804 75.4689 219.587C75.4689 219.37 75.5494 219.185 75.7105 219.03C75.8748 218.876 76.0704 218.798 76.2971 218.798C76.5239 218.798 76.7179 218.876 76.8789 219.03C77.0432 219.185 77.1254 219.37 77.1254 219.587C77.1254 219.804 77.0432 219.99 76.8789 220.144C76.7179 220.299 76.5239 220.376 76.2971 220.376ZM81.8596 229.369C81.2286 229.369 80.6715 229.209 80.1883 228.89C79.7051 228.568 79.3272 228.115 79.0544 227.53C78.7815 226.941 78.6451 226.246 78.6451 225.444C78.6451 224.649 78.7815 223.959 79.0544 223.374C79.3272 222.789 79.7068 222.337 80.1932 222.018C80.6797 221.699 81.2417 221.54 81.8794 221.54C82.3724 221.54 82.7619 221.622 83.0478 221.786C83.337 221.947 83.5573 222.131 83.7085 222.338C83.8629 222.542 83.9829 222.71 84.0684 222.841H84.167L84.167 219.114H85.3305L85.3305 229.211H84.2064L84.2064 228.047H84.0684C83.9829 228.185 83.8613 228.36 83.7035 228.57C83.5458 228.777 83.3206 228.963 83.0281 229.127C82.7356 229.288 82.3461 229.369 81.8596 229.369ZM82.0174 228.324C82.4841 228.324 82.8785 228.202 83.2006 227.959C83.5227 227.712 83.7676 227.372 83.9352 226.938C84.1029 226.501 84.1867 225.996 84.1867 225.425C84.1867 224.859 84.1045 224.365 83.9402 223.941C83.7758 223.513 83.5326 223.181 83.2105 222.945C82.8884 222.705 82.4907 222.585 82.0174 222.585C81.5244 222.585 81.1135 222.711 80.7848 222.964C80.4595 223.214 80.2146 223.554 80.0503 223.985C79.8892 224.412 79.8087 224.892 79.8087 225.425C79.8087 225.964 79.8908 226.453 80.0552 226.894C80.2228 227.331 80.4693 227.679 80.7947 227.939C81.1234 228.195 81.531 228.324 82.0174 228.324ZM90.4825 229.369C89.8515 229.369 89.2944 229.209 88.8112 228.89C88.328 228.568 87.9501 228.115 87.6773 227.53C87.4045 226.941 87.268 226.246 87.268 225.444C87.268 224.649 87.4045 223.959 87.6773 223.374C87.9501 222.789 88.3297 222.337 88.8161 222.018C89.3026 221.699 89.8646 221.54 90.5023 221.54C90.9953 221.54 91.3848 221.622 91.6707 221.786C91.9599 221.947 92.1802 222.131 92.3314 222.338C92.4858 222.542 92.6058 222.71 92.6913 222.841H92.7899L92.7899 219.114H93.9534L93.9534 229.211H92.8293L92.8293 228.047H92.6913C92.6058 228.185 92.4842 228.36 92.3264 228.57C92.1687 228.777 91.9435 228.963 91.651 229.127C91.3585 229.288 90.969 229.369 90.4825 229.369ZM90.6403 228.324C91.107 228.324 91.5014 228.202 91.8235 227.959C92.1456 227.712 92.3905 227.372 92.5581 226.938C92.7258 226.501 92.8096 225.996 92.8096 225.425C92.8096 224.859 92.7274 224.365 92.5631 223.941C92.3987 223.513 92.1555 223.181 91.8334 222.945C91.5113 222.705 91.1136 222.585 90.6403 222.585C90.1473 222.585 89.7364 222.711 89.4078 222.964C89.0824 223.214 88.8375 223.554 88.6732 223.985C88.5121 224.412 88.4316 224.892 88.4316 225.425C88.4316 225.964 88.5137 226.453 88.6781 226.894C88.8457 227.331 89.0922 227.679 89.4176 227.939C89.7463 228.195 90.1539 228.324 90.6403 228.324ZM99.421 229.369C98.6913 229.369 98.0619 229.208 97.5327 228.886C97.0068 228.56 96.6009 228.107 96.3149 227.525C96.0323 226.94 95.891 226.259 95.891 225.484C95.891 224.708 96.0323 224.024 96.3149 223.433C96.6009 222.838 96.9986 222.374 97.5081 222.042C98.0208 221.707 98.619 221.54 99.3026 221.54C99.6971 221.54 100.087 221.605 100.471 221.737C100.856 221.868 101.206 222.082 101.521 222.378C101.837 222.67 102.088 223.058 102.276 223.541C102.463 224.024 102.557 224.619 102.557 225.326V225.819H96.7192V224.813H101.373C101.373 224.386 101.288 224.005 101.117 223.669C100.949 223.334 100.709 223.07 100.397 222.876C100.088 222.682 99.7234 222.585 99.3026 222.585C98.8392 222.585 98.4382 222.7 98.0997 222.93C97.7644 223.157 97.5064 223.452 97.3256 223.817C97.1449 224.182 97.0545 224.573 97.0545 224.991V225.661C97.0545 226.233 97.1531 226.718 97.3503 227.116C97.5508 227.51 97.8285 227.811 98.1835 228.018C98.5385 228.222 98.951 228.324 99.421 228.324C99.7266 228.324 100.003 228.281 100.249 228.195C100.499 228.107 100.714 227.975 100.895 227.801C101.076 227.623 101.216 227.403 101.314 227.14L102.438 227.456C102.32 227.837 102.121 228.172 101.842 228.462C101.562 228.747 101.217 228.971 100.806 229.132C100.396 229.29 99.9337 229.369 99.421 229.369ZM105.49 224.655L105.49 229.211H104.327L104.327 221.638H105.451L105.451 222.821H105.549C105.727 222.437 105.996 222.128 106.358 221.895C106.719 221.658 107.186 221.54 107.758 221.54C108.271 221.54 108.719 221.645 109.104 221.855C109.488 222.062 109.788 222.378 110.001 222.802C110.215 223.222 110.322 223.755 110.322 224.399L110.322 229.211H109.158L109.158 224.478C109.158 223.883 109.004 223.42 108.695 223.088C108.386 222.752 107.962 222.585 107.423 222.585C107.051 222.585 106.719 222.665 106.427 222.826C106.138 222.987 105.909 223.222 105.741 223.531C105.574 223.84 105.49 224.215 105.49 224.655ZM116.51 229.211L116.51 219.114H122.565V220.199H117.733L117.733 223.61H122.111L122.111 224.695H117.733L117.733 229.211H116.51ZM124.501 229.211L124.501 221.638H125.664L125.664 229.211H124.501ZM125.092 220.376C124.866 220.376 124.67 220.299 124.506 220.144C124.345 219.99 124.264 219.804 124.264 219.587C124.264 219.37 124.345 219.185 124.506 219.03C124.67 218.876 124.866 218.798 125.092 218.798C125.319 218.798 125.513 218.876 125.674 219.03C125.839 219.185 125.921 219.37 125.921 219.587C125.921 219.804 125.839 219.99 125.674 220.144C125.513 220.299 125.319 220.376 125.092 220.376ZM128.959 224.655L128.959 229.211H127.795L127.795 221.638H128.92L128.92 222.821H129.018C129.196 222.437 129.465 222.128 129.827 221.895C130.188 221.658 130.655 221.54 131.227 221.54C131.74 221.54 132.188 221.645 132.573 221.855C132.957 222.062 133.256 222.378 133.47 222.802C133.684 223.222 133.791 223.755 133.791 224.399L133.791 229.211H132.627L132.627 224.478C132.627 223.883 132.473 223.42 132.164 223.088C131.855 222.752 131.431 222.585 130.892 222.585C130.52 222.585 130.188 222.665 129.896 222.826C129.606 222.987 129.378 223.222 129.21 223.531C129.043 223.84 128.959 224.215 128.959 224.655ZM138.776 229.369C138.145 229.369 137.588 229.209 137.105 228.89C136.622 228.568 136.244 228.115 135.971 227.53C135.698 226.941 135.562 226.246 135.562 225.444C135.562 224.649 135.698 223.959 135.971 223.374C136.244 222.789 136.623 222.337 137.11 222.018C137.596 221.699 138.158 221.54 138.796 221.54C139.289 221.54 139.678 221.622 139.964 221.786C140.254 221.947 140.474 222.131 140.625 222.338C140.78 222.542 140.899 222.71 140.985 222.841H141.084L141.084 219.114H142.247L142.247 229.211H141.123L141.123 228.047H140.985C140.899 228.185 140.778 228.36 140.62 228.57C140.462 228.777 140.237 228.963 139.945 229.127C139.652 229.288 139.263 229.369 138.776 229.369ZM138.934 228.324C139.401 228.324 139.795 228.202 140.117 227.959C140.439 227.712 140.684 227.372 140.852 226.938C141.019 226.501 141.103 225.996 141.103 225.425C141.103 224.859 141.021 224.365 140.857 223.941C140.692 223.513 140.449 223.181 140.127 222.945C139.805 222.705 139.407 222.585 138.934 222.585C138.441 222.585 138.03 222.711 137.701 222.964C137.376 223.214 137.131 223.554 136.967 223.985C136.806 224.412 136.725 224.892 136.725 225.425C136.725 225.964 136.807 226.453 136.972 226.894C137.139 227.331 137.386 227.679 137.711 227.939C138.04 228.195 138.448 228.324 138.934 228.324ZM149.904 223.334L148.858 223.63C148.793 223.456 148.696 223.286 148.568 223.122C148.443 222.955 148.272 222.816 148.055 222.708C147.838 222.6 147.56 222.545 147.222 222.545C146.758 222.545 146.372 222.652 146.063 222.866C145.757 223.076 145.605 223.344 145.605 223.669C145.605 223.959 145.71 224.187 145.92 224.355C146.13 224.522 146.459 224.662 146.906 224.774L148.03 225.05C148.707 225.214 149.212 225.466 149.544 225.804C149.876 226.139 150.042 226.572 150.042 227.101C150.042 227.535 149.917 227.923 149.667 228.264C149.42 228.606 149.075 228.876 148.632 229.073C148.188 229.27 147.672 229.369 147.084 229.369C146.311 229.369 145.672 229.201 145.166 228.866C144.66 228.531 144.339 228.041 144.204 227.397L145.309 227.121C145.414 227.528 145.613 227.834 145.905 228.038C146.201 228.241 146.587 228.343 147.064 228.343C147.606 228.343 148.037 228.228 148.356 227.998C148.678 227.765 148.839 227.485 148.839 227.16C148.839 226.897 148.747 226.677 148.563 226.499C148.379 226.319 148.096 226.184 147.715 226.095L146.453 225.799C145.759 225.635 145.25 225.38 144.924 225.035C144.602 224.687 144.441 224.251 144.441 223.729C144.441 223.301 144.561 222.923 144.801 222.595C145.044 222.266 145.374 222.008 145.792 221.821C146.213 221.633 146.689 221.54 147.222 221.54C147.971 221.54 148.559 221.704 148.987 222.033C149.417 222.361 149.723 222.795 149.904 223.334Z" fill="#A0A0A0"/>
</g>
<defs>
<filter id="filter0_b_4116_14484" x="-84" y="-83.7891" width="519" height="432" filterUnits="userSpaceOnUse" color-interpolation-filters="sRGB">
<feFlood flood-opacity="0" result="BackgroundImageFix"/>
<feGaussianBlur in="BackgroundImageFix" stdDeviation="42"/>
<feComposite in2="SourceAlpha" operator="in" result="effect1_backgroundBlur_4116_14484"/>
<feBlend mode="normal" in="SourceGraphic" in2="effect1_backgroundBlur_4116_14484" result="shape"/>
</filter>
<linearGradient id="paint0_linear_4116_14484" x1="88.633" y1="171.746" x2="88.633" y2="218.576" gradientUnits="userSpaceOnUse">
<stop stop-color="white"/>
<stop offset="1" stop-color="#999999"/>
</linearGradient>
</defs>
</svg>
