<svg width="351" height="265" viewBox="0 0 351 265" fill="none" xmlns="http://www.w3.org/2000/svg">
<g filter="url(#filter0_b_4116_14525)">
<rect y="0.210938" width="351" height="264" rx="12" fill="#29292D" fill-opacity="0.3"/>
<g clip-path="url(#clip0_4116_14525)">
<g opacity="0.3">
<mask id="mask0_4116_14525" style="mask-type:alpha" maskUnits="userSpaceOnUse" x="-32" y="-13" width="365" height="188">
<ellipse cx="150.337" cy="81.3757" rx="182.009" ry="93.5203" fill="url(#paint0_radial_4116_14525)"/>
</mask>
<g mask="url(#mask0_4116_14525)">
<line x1="127.144" y1="-48.0547" x2="127.144" y2="185.154" stroke="#D4D4D4" stroke-width="0.29595"/>
<line x1="208.828" y1="-48.0547" x2="208.828" y2="185.154" stroke="#D4D4D4" stroke-width="0.29595"/>
<line x1="236.054" y1="-48.0547" x2="236.054" y2="185.154" stroke="#D4D4D4" stroke-width="0.29595"/>
<line x1="154.375" y1="-48.0547" x2="154.375" y2="185.154" stroke="#D4D4D4" stroke-width="0.29595"/>
<line x1="181.601" y1="-48.0547" x2="181.601" y2="185.154" stroke="#D4D4D4" stroke-width="0.29595"/>
<line x1="-160.074" y1="54.7895" x2="278.228" y2="54.7895" stroke="#D4D4D4" stroke-width="0.29595"/>
<line x1="99.9175" y1="-48.0547" x2="99.9175" y2="185.154" stroke="#D4D4D4" stroke-width="0.29595"/>
<line x1="-160.074" y1="82.0161" x2="278.228" y2="82.0161" stroke="#D4D4D4" stroke-width="0.29595"/>
<line x1="72.6909" y1="-48.0547" x2="72.6909" y2="185.154" stroke="#D4D4D4" stroke-width="0.29595"/>
<line x1="-160.074" y1="109.243" x2="278.228" y2="109.243" stroke="#D4D4D4" stroke-width="0.29595"/>
<line x1="45.4644" y1="-48.0547" x2="45.4644" y2="185.154" stroke="#D4D4D4" stroke-width="0.29595"/>
<line x1="-160.074" y1="136.469" x2="278.228" y2="136.469" stroke="#D4D4D4" stroke-width="0.29595"/>
<path d="M181.75 82.1641L208.681 109.096" stroke="#D4D4D4" stroke-width="0.29595"/>
<path d="M181.75 109.094L208.681 82.1623" stroke="#D4D4D4" stroke-width="0.29595"/>
</g>
<rect x="58.6328" y="130.801" width="0.887851" height="0.887851" fill="#999999"/>
<rect x="58.6328" y="49.1172" width="0.887851" height="0.887851" fill="#999999"/>
<rect x="58.6328" y="103.57" width="0.887851" height="0.887851" fill="#999999"/>
<rect x="58.6328" y="49.1172" width="0.887851" height="0.887851" fill="#999999"/>
</g>
<path d="M32 68.2109H119L156 121.211H268.5" stroke="#FFC83A"/>
<path d="M32 95.2109H119H156H268.5" stroke="#D93535" stroke-dasharray="2 2"/>
</g>
<path d="M35.6235 198.746H33.0598L40.4748 178.552H42.999L50.414 198.746H47.8503L41.8158 181.747H41.658L35.6235 198.746ZM36.57 190.858H46.9037L46.9037 193.027H36.57L36.57 190.858ZM62.7888 192.554L62.7888 183.601H65.1158L65.1158 198.746H62.7888L62.7888 196.182H62.631C62.2761 196.952 61.7239 197.606 60.9745 198.145C60.2251 198.677 59.2785 198.943 58.1347 198.943C57.1881 198.943 56.3467 198.736 55.6104 198.322C54.8742 197.901 54.2957 197.27 53.875 196.429C53.4543 195.581 53.244 194.513 53.244 193.224L53.244 183.601H55.571L55.571 193.067C55.571 194.171 55.88 195.052 56.4979 195.709C57.1224 196.366 57.9178 196.695 58.8841 196.695C59.4626 196.695 60.0509 196.547 60.6491 196.251C61.2539 195.956 61.76 195.502 62.1676 194.891C62.5817 194.279 62.7888 193.5 62.7888 192.554ZM75.9647 183.601L75.9647 185.573H68.1159L68.1159 183.601H75.9647ZM70.4035 179.972H72.7305L72.7305 194.408C72.7305 195.065 72.8258 195.558 73.0165 195.887C73.2137 196.209 73.4635 196.426 73.7659 196.537C74.0748 196.643 74.4002 196.695 74.742 196.695C74.9984 196.695 75.2088 196.682 75.3731 196.656C75.5374 196.623 75.6689 196.597 75.7675 196.577L76.2408 198.667C76.0831 198.726 75.8628 198.786 75.5802 198.845C75.2975 198.91 74.9392 198.943 74.5054 198.943C73.848 198.943 73.2038 198.802 72.5728 198.519C71.9483 198.237 71.429 197.806 71.0148 197.228C70.6073 196.649 70.4035 195.919 70.4035 195.039L70.4035 179.972ZM85.4553 199.062C84.088 199.062 82.8884 198.736 81.8563 198.085C80.8308 197.435 80.0288 196.524 79.4504 195.354C78.8785 194.184 78.5925 192.817 78.5925 191.252C78.5925 189.675 78.8785 188.297 79.4504 187.121C80.0288 185.944 80.8308 185.03 81.8563 184.38C82.8884 183.729 84.088 183.403 85.4553 183.403C86.8226 183.403 88.019 183.729 89.0445 184.38C90.0766 185.03 90.8785 185.944 91.4505 187.121C92.0289 188.297 92.3182 189.675 92.3182 191.252C92.3182 192.817 92.0289 194.184 91.4505 195.354C90.8785 196.524 90.0766 197.435 89.0445 198.085C88.019 198.736 86.8226 199.062 85.4553 199.062ZM85.4553 196.971C86.494 196.971 87.3485 196.705 88.019 196.173C88.6895 195.64 89.1859 194.94 89.508 194.072C89.8301 193.205 89.9911 192.265 89.9911 191.252C89.9911 190.24 89.8301 189.297 89.508 188.422C89.1859 187.548 88.6895 186.841 88.019 186.302C87.3485 185.763 86.494 185.494 85.4553 185.494C84.4167 185.494 83.5621 185.763 82.8916 186.302C82.2211 186.841 81.7248 187.548 81.4027 188.422C81.0806 189.297 80.9196 190.24 80.9196 191.252C80.9196 192.265 81.0806 193.205 81.4027 194.072C81.7248 194.94 82.2211 195.64 82.8916 196.173C83.5621 196.705 84.4167 196.971 85.4553 196.971ZM115.039 183.601C114.921 182.601 114.441 181.826 113.599 181.274C112.758 180.721 111.726 180.445 110.503 180.445C109.609 180.445 108.827 180.59 108.156 180.879C107.492 181.168 106.973 181.566 106.598 182.072C106.23 182.578 106.046 183.154 106.046 183.798C106.046 184.337 106.174 184.8 106.431 185.188C106.694 185.569 107.029 185.888 107.437 186.145C107.844 186.394 108.271 186.601 108.718 186.766C109.165 186.923 109.576 187.052 109.951 187.15L112.002 187.702C112.528 187.841 113.113 188.031 113.757 188.274C114.408 188.518 115.029 188.85 115.621 189.27C116.219 189.684 116.712 190.217 117.1 190.868C117.488 191.518 117.682 192.317 117.682 193.264C117.682 194.355 117.396 195.341 116.824 196.222C116.258 197.103 115.43 197.803 114.339 198.322C113.254 198.841 111.936 199.101 110.385 199.101C108.939 199.101 107.686 198.868 106.628 198.401C105.576 197.934 104.748 197.283 104.143 196.449C103.545 195.614 103.206 194.644 103.128 193.54H105.652C105.718 194.302 105.974 194.933 106.421 195.433C106.875 195.926 107.446 196.294 108.137 196.537C108.833 196.774 109.583 196.892 110.385 196.892C111.318 196.892 112.156 196.741 112.899 196.439C113.642 196.13 114.23 195.703 114.664 195.157C115.098 194.605 115.315 193.961 115.315 193.224C115.315 192.554 115.128 192.008 114.753 191.587C114.378 191.167 113.885 190.825 113.274 190.562C112.663 190.299 112.002 190.069 111.292 189.872L108.807 189.162C107.23 188.708 105.981 188.061 105.06 187.219C104.14 186.378 103.68 185.277 103.68 183.916C103.68 182.785 103.985 181.799 104.597 180.958C105.215 180.11 106.043 179.453 107.082 178.986C108.127 178.513 109.294 178.276 110.582 178.276C111.884 178.276 113.041 178.509 114.053 178.976C115.065 179.436 115.867 180.067 116.459 180.869C117.057 181.671 117.373 182.582 117.405 183.601H115.039ZM127.973 183.601L127.973 185.573H120.124L120.124 183.601H127.973ZM122.412 179.972H124.739L124.739 194.408C124.739 195.065 124.834 195.558 125.025 195.887C125.222 196.209 125.472 196.426 125.774 196.537C126.083 196.643 126.409 196.695 126.751 196.695C127.007 196.695 127.217 196.682 127.382 196.656C127.546 196.623 127.677 196.597 127.776 196.577L128.249 198.667C128.092 198.726 127.871 198.786 127.589 198.845C127.306 198.91 126.948 198.943 126.514 198.943C125.857 198.943 125.212 198.802 124.581 198.519C123.957 198.237 123.438 197.806 123.023 197.228C122.616 196.649 122.412 195.919 122.412 195.039L122.412 179.972ZM137.464 199.062C136.097 199.062 134.897 198.736 133.865 198.085C132.839 197.435 132.037 196.524 131.459 195.354C130.887 194.184 130.601 192.817 130.601 191.252C130.601 189.675 130.887 188.297 131.459 187.121C132.037 185.944 132.839 185.03 133.865 184.38C134.897 183.729 136.097 183.403 137.464 183.403C138.831 183.403 140.028 183.729 141.053 184.38C142.085 185.03 142.887 185.944 143.459 187.121C144.037 188.297 144.327 189.675 144.327 191.252C144.327 192.817 144.037 194.184 143.459 195.354C142.887 196.524 142.085 197.435 141.053 198.085C140.028 198.736 138.831 199.062 137.464 199.062ZM137.464 196.971C138.503 196.971 139.357 196.705 140.028 196.173C140.698 195.64 141.194 194.94 141.517 194.072C141.839 193.205 142 192.265 142 191.252C142 190.24 141.839 189.297 141.517 188.422C141.194 187.548 140.698 186.841 140.028 186.302C139.357 185.763 138.503 185.494 137.464 185.494C136.425 185.494 135.571 185.763 134.9 186.302C134.23 186.841 133.733 187.548 133.411 188.422C133.089 189.297 132.928 190.24 132.928 191.252C132.928 192.265 133.089 193.205 133.411 194.072C133.733 194.94 134.23 195.64 134.9 196.173C135.571 196.705 136.425 196.971 137.464 196.971ZM147.879 204.426L147.879 183.601H150.127L150.127 186.006H150.403C150.574 185.744 150.811 185.408 151.113 185.001C151.422 184.587 151.863 184.218 152.434 183.896C153.013 183.568 153.795 183.403 154.781 183.403C156.056 183.403 157.181 183.722 158.153 184.36C159.126 184.997 159.886 185.901 160.431 187.071C160.977 188.242 161.25 189.622 161.25 191.213C161.25 192.817 160.977 194.207 160.431 195.384C159.886 196.554 159.13 197.461 158.163 198.105C157.197 198.743 156.083 199.062 154.821 199.062C153.848 199.062 153.069 198.901 152.484 198.578C151.899 198.25 151.448 197.878 151.133 197.464C150.817 197.044 150.574 196.695 150.403 196.419H150.206L150.206 204.426H147.879ZM150.167 191.173C150.167 192.317 150.334 193.326 150.669 194.2C151.005 195.068 151.494 195.749 152.139 196.242C152.783 196.728 153.572 196.971 154.505 196.971C155.478 196.971 156.29 196.715 156.941 196.202C157.598 195.683 158.091 194.986 158.42 194.112C158.755 193.231 158.923 192.251 158.923 191.173C158.923 190.108 158.758 189.149 158.43 188.294C158.107 187.433 157.618 186.753 156.96 186.253C156.31 185.747 155.491 185.494 154.505 185.494C153.559 185.494 152.763 185.734 152.119 186.214C151.475 186.687 150.988 187.351 150.66 188.205C150.331 189.053 150.167 190.043 150.167 191.173ZM174.936 178.552L174.936 198.746H172.609L172.609 178.552H174.936ZM185.351 199.062C183.984 199.062 182.784 198.736 181.752 198.085C180.726 197.435 179.924 196.524 179.346 195.354C178.774 194.184 178.488 192.817 178.488 191.252C178.488 189.675 178.774 188.297 179.346 187.121C179.924 185.944 180.726 185.03 181.752 184.38C182.784 183.729 183.984 183.403 185.351 183.403C186.718 183.403 187.915 183.729 188.94 184.38C189.972 185.03 190.774 185.944 191.346 187.121C191.924 188.297 192.214 189.675 192.214 191.252C192.214 192.817 191.924 194.184 191.346 195.354C190.774 196.524 189.972 197.435 188.94 198.085C187.915 198.736 186.718 199.062 185.351 199.062ZM185.351 196.971C186.389 196.971 187.244 196.705 187.915 196.173C188.585 195.64 189.081 194.94 189.403 194.072C189.726 193.205 189.887 192.265 189.887 191.252C189.887 190.24 189.726 189.297 189.403 188.422C189.081 187.548 188.585 186.841 187.915 186.302C187.244 185.763 186.389 185.494 185.351 185.494C184.312 185.494 183.458 185.763 182.787 186.302C182.117 186.841 181.62 187.548 181.298 188.422C180.976 189.297 180.815 190.24 180.815 191.252C180.815 192.265 180.976 193.205 181.298 194.072C181.62 194.94 182.117 195.64 182.787 196.173C183.458 196.705 184.312 196.971 185.351 196.971ZM206.494 186.993L204.404 187.584C204.272 187.236 204.078 186.897 203.822 186.569C203.572 186.233 203.23 185.957 202.796 185.74C202.362 185.523 201.807 185.415 201.13 185.415C200.203 185.415 199.431 185.629 198.813 186.056C198.201 186.476 197.896 187.012 197.896 187.663C197.896 188.242 198.106 188.698 198.527 189.034C198.947 189.369 199.605 189.648 200.499 189.872L202.747 190.424C204.101 190.753 205.11 191.255 205.774 191.933C206.438 192.603 206.77 193.468 206.77 194.526C206.77 195.394 206.52 196.169 206.021 196.853C205.528 197.537 204.837 198.076 203.95 198.47C203.063 198.864 202.031 199.062 200.854 199.062C199.309 199.062 198.03 198.726 197.018 198.056C196.006 197.385 195.365 196.406 195.095 195.117L197.304 194.565C197.514 195.38 197.912 195.992 198.497 196.399C199.089 196.807 199.861 197.011 200.814 197.011C201.899 197.011 202.76 196.781 203.398 196.32C204.042 195.854 204.364 195.295 204.364 194.644C204.364 194.118 204.18 193.678 203.812 193.323C203.444 192.961 202.878 192.692 202.116 192.514L199.592 191.923C198.205 191.594 197.186 191.085 196.535 190.394C195.891 189.698 195.569 188.827 195.569 187.781C195.569 186.927 195.809 186.171 196.288 185.513C196.775 184.856 197.436 184.34 198.27 183.965C199.112 183.591 200.065 183.403 201.13 183.403C202.629 183.403 203.805 183.732 204.66 184.389C205.521 185.047 206.132 185.914 206.494 186.993ZM221.001 186.993L218.911 187.584C218.779 187.236 218.585 186.897 218.329 186.569C218.079 186.233 217.737 185.957 217.303 185.74C216.87 185.523 216.314 185.415 215.637 185.415C214.71 185.415 213.938 185.629 213.32 186.056C212.708 186.476 212.403 187.012 212.403 187.663C212.403 188.242 212.613 188.698 213.034 189.034C213.455 189.369 214.112 189.648 215.006 189.872L217.254 190.424C218.608 190.753 219.617 191.255 220.281 191.933C220.945 192.603 221.277 193.468 221.277 194.526C221.277 195.394 221.027 196.169 220.528 196.853C220.035 197.537 219.345 198.076 218.457 198.47C217.57 198.864 216.538 199.062 215.361 199.062C213.816 199.062 212.538 198.726 211.525 198.056C210.513 197.385 209.872 196.406 209.602 195.117L211.811 194.565C212.022 195.38 212.419 195.992 213.004 196.399C213.596 196.807 214.368 197.011 215.321 197.011C216.406 197.011 217.267 196.781 217.905 196.32C218.549 195.854 218.871 195.295 218.871 194.644C218.871 194.118 218.687 193.678 218.319 193.323C217.951 192.961 217.386 192.692 216.623 192.514L214.099 191.923C212.712 191.594 211.693 191.085 211.042 190.394C210.398 189.698 210.076 188.827 210.076 187.781C210.076 186.927 210.316 186.171 210.796 185.513C211.282 184.856 211.943 184.34 212.777 183.965C213.619 183.591 214.572 183.403 215.637 183.403C217.136 183.403 218.312 183.732 219.167 184.389C220.028 185.047 220.639 185.914 221.001 186.993Z" fill="url(#paint1_linear_4116_14525)"/>
<path d="M33.4945 229.211L33.4945 219.114H39.5487L39.5487 220.199H34.7172L34.7172 223.61H39.0952L39.0952 224.695H34.7172L34.7172 229.211H33.4945ZM41.4851 229.211L41.4851 221.638H42.6486L42.6486 229.211H41.4851ZM42.0767 220.376C41.8499 220.376 41.6543 220.299 41.49 220.144C41.329 219.99 41.2484 219.804 41.2484 219.587C41.2484 219.37 41.329 219.185 41.49 219.03C41.6543 218.876 41.8499 218.798 42.0767 218.798C42.3035 218.798 42.4974 218.876 42.6585 219.03C42.8228 219.185 42.905 219.37 42.905 219.587C42.905 219.804 42.8228 219.99 42.6585 220.144C42.4974 220.299 42.3035 220.376 42.0767 220.376ZM45.9432 224.655L45.9432 229.211H44.7797L44.7797 221.638H45.9038L45.9038 222.821H46.0024C46.1799 222.437 46.4494 222.128 46.8109 221.895C47.1725 221.658 47.6392 221.54 48.2111 221.54C48.7238 221.54 49.1725 221.645 49.557 221.855C49.9416 222.062 50.2407 222.378 50.4543 222.802C50.668 223.222 50.7748 223.755 50.7748 224.399L50.7748 229.211H49.6113L49.6113 224.478C49.6113 223.883 49.4568 223.42 49.1478 223.088C48.8389 222.752 48.4149 222.585 47.8758 222.585C47.5044 222.585 47.1725 222.665 46.8799 222.826C46.5907 222.987 46.3623 223.222 46.1946 223.531C46.027 223.84 45.9432 224.215 45.9432 224.655ZM55.7604 229.369C55.1294 229.369 54.5723 229.209 54.0891 228.89C53.6059 228.568 53.228 228.115 52.9552 227.53C52.6824 226.941 52.546 226.246 52.546 225.444C52.546 224.649 52.6824 223.959 52.9552 223.374C53.228 222.789 53.6076 222.337 54.094 222.018C54.5805 221.699 55.1425 221.54 55.7802 221.54C56.2732 221.54 56.6627 221.622 56.9486 221.786C57.2379 221.947 57.4581 222.131 57.6093 222.338C57.7637 222.542 57.8837 222.71 57.9692 222.841H58.0678L58.0678 219.114H59.2313L59.2313 229.211H58.1072L58.1072 228.047H57.9692C57.8837 228.185 57.7621 228.36 57.6043 228.57C57.4466 228.777 57.2214 228.963 56.9289 229.127C56.6364 229.288 56.2469 229.369 55.7604 229.369ZM55.9182 228.324C56.3849 228.324 56.7793 228.202 57.1015 227.959C57.4236 227.712 57.6684 227.372 57.8361 226.938C58.0037 226.501 58.0875 225.996 58.0875 225.425C58.0875 224.859 58.0053 224.365 57.841 223.941C57.6766 223.513 57.4334 223.181 57.1113 222.945C56.7892 222.705 56.3915 222.585 55.9182 222.585C55.4252 222.585 55.0143 222.711 54.6857 222.964C54.3603 223.214 54.1154 223.554 53.9511 223.985C53.79 224.412 53.7095 224.892 53.7095 225.425C53.7095 225.964 53.7917 226.453 53.956 226.894C54.1236 227.331 54.3701 227.679 54.6955 227.939C55.0242 228.195 55.4318 228.324 55.9182 228.324ZM65.5863 229.211L65.5863 219.114H66.809L66.809 223.61H72.1928L72.1928 219.114H73.4154L73.4154 229.211H72.1928L72.1928 224.695H66.809L66.809 229.211H65.5863ZM75.7055 229.211L75.7055 221.638H76.869L76.869 229.211H75.7055ZM76.2971 220.376C76.0704 220.376 75.8748 220.299 75.7105 220.144C75.5494 219.99 75.4689 219.804 75.4689 219.587C75.4689 219.37 75.5494 219.185 75.7105 219.03C75.8748 218.876 76.0704 218.798 76.2971 218.798C76.5239 218.798 76.7179 218.876 76.8789 219.03C77.0432 219.185 77.1254 219.37 77.1254 219.587C77.1254 219.804 77.0432 219.99 76.8789 220.144C76.7179 220.299 76.5239 220.376 76.2971 220.376ZM81.8596 229.369C81.2286 229.369 80.6715 229.209 80.1883 228.89C79.7051 228.568 79.3272 228.115 79.0544 227.53C78.7815 226.941 78.6451 226.246 78.6451 225.444C78.6451 224.649 78.7815 223.959 79.0544 223.374C79.3272 222.789 79.7068 222.337 80.1932 222.018C80.6797 221.699 81.2417 221.54 81.8794 221.54C82.3724 221.54 82.7619 221.622 83.0478 221.786C83.337 221.947 83.5573 222.131 83.7085 222.338C83.8629 222.542 83.9829 222.71 84.0684 222.841H84.167L84.167 219.114H85.3305L85.3305 229.211H84.2064L84.2064 228.047H84.0684C83.9829 228.185 83.8613 228.36 83.7035 228.57C83.5458 228.777 83.3206 228.963 83.0281 229.127C82.7356 229.288 82.3461 229.369 81.8596 229.369ZM82.0174 228.324C82.4841 228.324 82.8785 228.202 83.2006 227.959C83.5227 227.712 83.7676 227.372 83.9352 226.938C84.1029 226.501 84.1867 225.996 84.1867 225.425C84.1867 224.859 84.1045 224.365 83.9402 223.941C83.7758 223.513 83.5326 223.181 83.2105 222.945C82.8884 222.705 82.4907 222.585 82.0174 222.585C81.5244 222.585 81.1135 222.711 80.7848 222.964C80.4595 223.214 80.2146 223.554 80.0503 223.985C79.8892 224.412 79.8087 224.892 79.8087 225.425C79.8087 225.964 79.8908 226.453 80.0552 226.894C80.2228 227.331 80.4693 227.679 80.7947 227.939C81.1234 228.195 81.531 228.324 82.0174 228.324ZM90.4825 229.369C89.8515 229.369 89.2944 229.209 88.8112 228.89C88.328 228.568 87.9501 228.115 87.6773 227.53C87.4045 226.941 87.268 226.246 87.268 225.444C87.268 224.649 87.4045 223.959 87.6773 223.374C87.9501 222.789 88.3297 222.337 88.8161 222.018C89.3026 221.699 89.8646 221.54 90.5023 221.54C90.9953 221.54 91.3848 221.622 91.6707 221.786C91.9599 221.947 92.1802 222.131 92.3314 222.338C92.4858 222.542 92.6058 222.71 92.6913 222.841H92.7899L92.7899 219.114H93.9534L93.9534 229.211H92.8293L92.8293 228.047H92.6913C92.6058 228.185 92.4842 228.36 92.3264 228.57C92.1687 228.777 91.9435 228.963 91.651 229.127C91.3585 229.288 90.969 229.369 90.4825 229.369ZM90.6403 228.324C91.107 228.324 91.5014 228.202 91.8235 227.959C92.1456 227.712 92.3905 227.372 92.5581 226.938C92.7258 226.501 92.8096 225.996 92.8096 225.425C92.8096 224.859 92.7274 224.365 92.5631 223.941C92.3987 223.513 92.1555 223.181 91.8334 222.945C91.5113 222.705 91.1136 222.585 90.6403 222.585C90.1473 222.585 89.7364 222.711 89.4078 222.964C89.0824 223.214 88.8375 223.554 88.6732 223.985C88.5121 224.412 88.4316 224.892 88.4316 225.425C88.4316 225.964 88.5137 226.453 88.6781 226.894C88.8457 227.331 89.0922 227.679 89.4176 227.939C89.7463 228.195 90.1539 228.324 90.6403 228.324ZM99.421 229.369C98.6913 229.369 98.0619 229.208 97.5327 228.886C97.0068 228.56 96.6009 228.107 96.3149 227.525C96.0323 226.94 95.891 226.259 95.891 225.484C95.891 224.708 96.0323 224.024 96.3149 223.433C96.6009 222.838 96.9986 222.374 97.5081 222.042C98.0208 221.707 98.619 221.54 99.3026 221.54C99.6971 221.54 100.087 221.605 100.471 221.737C100.856 221.868 101.206 222.082 101.521 222.378C101.837 222.67 102.088 223.058 102.276 223.541C102.463 224.024 102.557 224.619 102.557 225.326V225.819H96.7192V224.813H101.373C101.373 224.386 101.288 224.005 101.117 223.669C100.949 223.334 100.709 223.07 100.397 222.876C100.088 222.682 99.7234 222.585 99.3026 222.585C98.8392 222.585 98.4382 222.7 98.0997 222.93C97.7644 223.157 97.5064 223.452 97.3256 223.817C97.1449 224.182 97.0545 224.573 97.0545 224.991V225.661C97.0545 226.233 97.1531 226.718 97.3503 227.116C97.5508 227.51 97.8285 227.811 98.1835 228.018C98.5385 228.222 98.951 228.324 99.421 228.324C99.7266 228.324 100.003 228.281 100.249 228.195C100.499 228.107 100.714 227.975 100.895 227.801C101.076 227.623 101.216 227.403 101.314 227.14L102.438 227.456C102.32 227.837 102.121 228.172 101.842 228.462C101.562 228.747 101.217 228.971 100.806 229.132C100.396 229.29 99.9337 229.369 99.421 229.369ZM105.49 224.655L105.49 229.211H104.327L104.327 221.638H105.451L105.451 222.821H105.549C105.727 222.437 105.996 222.128 106.358 221.895C106.719 221.658 107.186 221.54 107.758 221.54C108.271 221.54 108.719 221.645 109.104 221.855C109.488 222.062 109.788 222.378 110.001 222.802C110.215 223.222 110.322 223.755 110.322 224.399L110.322 229.211H109.158L109.158 224.478C109.158 223.883 109.004 223.42 108.695 223.088C108.386 222.752 107.962 222.585 107.423 222.585C107.051 222.585 106.719 222.665 106.427 222.826C106.138 222.987 105.909 223.222 105.741 223.531C105.574 223.84 105.49 224.215 105.49 224.655ZM116.51 229.211L116.51 219.114H122.565V220.199H117.733L117.733 223.61H122.111L122.111 224.695H117.733L117.733 229.211H116.51ZM124.501 229.211L124.501 221.638H125.664L125.664 229.211H124.501ZM125.092 220.376C124.866 220.376 124.67 220.299 124.506 220.144C124.345 219.99 124.264 219.804 124.264 219.587C124.264 219.37 124.345 219.185 124.506 219.03C124.67 218.876 124.866 218.798 125.092 218.798C125.319 218.798 125.513 218.876 125.674 219.03C125.839 219.185 125.921 219.37 125.921 219.587C125.921 219.804 125.839 219.99 125.674 220.144C125.513 220.299 125.319 220.376 125.092 220.376ZM128.959 224.655L128.959 229.211H127.795L127.795 221.638H128.92L128.92 222.821H129.018C129.196 222.437 129.465 222.128 129.827 221.895C130.188 221.658 130.655 221.54 131.227 221.54C131.74 221.54 132.188 221.645 132.573 221.855C132.957 222.062 133.256 222.378 133.47 222.802C133.684 223.222 133.791 223.755 133.791 224.399L133.791 229.211H132.627L132.627 224.478C132.627 223.883 132.473 223.42 132.164 223.088C131.855 222.752 131.431 222.585 130.892 222.585C130.52 222.585 130.188 222.665 129.896 222.826C129.606 222.987 129.378 223.222 129.21 223.531C129.043 223.84 128.959 224.215 128.959 224.655ZM138.776 229.369C138.145 229.369 137.588 229.209 137.105 228.89C136.622 228.568 136.244 228.115 135.971 227.53C135.698 226.941 135.562 226.246 135.562 225.444C135.562 224.649 135.698 223.959 135.971 223.374C136.244 222.789 136.623 222.337 137.11 222.018C137.596 221.699 138.158 221.54 138.796 221.54C139.289 221.54 139.678 221.622 139.964 221.786C140.254 221.947 140.474 222.131 140.625 222.338C140.78 222.542 140.899 222.71 140.985 222.841H141.084L141.084 219.114H142.247L142.247 229.211H141.123L141.123 228.047H140.985C140.899 228.185 140.778 228.36 140.62 228.57C140.462 228.777 140.237 228.963 139.945 229.127C139.652 229.288 139.263 229.369 138.776 229.369ZM138.934 228.324C139.401 228.324 139.795 228.202 140.117 227.959C140.439 227.712 140.684 227.372 140.852 226.938C141.019 226.501 141.103 225.996 141.103 225.425C141.103 224.859 141.021 224.365 140.857 223.941C140.692 223.513 140.449 223.181 140.127 222.945C139.805 222.705 139.407 222.585 138.934 222.585C138.441 222.585 138.03 222.711 137.701 222.964C137.376 223.214 137.131 223.554 136.967 223.985C136.806 224.412 136.725 224.892 136.725 225.425C136.725 225.964 136.807 226.453 136.972 226.894C137.139 227.331 137.386 227.679 137.711 227.939C138.04 228.195 138.448 228.324 138.934 228.324ZM149.904 223.334L148.858 223.63C148.793 223.456 148.696 223.286 148.568 223.122C148.443 222.955 148.272 222.816 148.055 222.708C147.838 222.6 147.56 222.545 147.222 222.545C146.758 222.545 146.372 222.652 146.063 222.866C145.757 223.076 145.605 223.344 145.605 223.669C145.605 223.959 145.71 224.187 145.92 224.355C146.13 224.522 146.459 224.662 146.906 224.774L148.03 225.05C148.707 225.214 149.212 225.466 149.544 225.804C149.876 226.139 150.042 226.572 150.042 227.101C150.042 227.535 149.917 227.923 149.667 228.264C149.42 228.606 149.075 228.876 148.632 229.073C148.188 229.27 147.672 229.369 147.084 229.369C146.311 229.369 145.672 229.201 145.166 228.866C144.66 228.531 144.339 228.041 144.204 227.397L145.309 227.121C145.414 227.528 145.613 227.834 145.905 228.038C146.201 228.241 146.587 228.343 147.064 228.343C147.606 228.343 148.037 228.228 148.356 227.998C148.678 227.765 148.839 227.485 148.839 227.16C148.839 226.897 148.747 226.677 148.563 226.499C148.379 226.319 148.096 226.184 147.715 226.095L146.453 225.799C145.759 225.635 145.25 225.38 144.924 225.035C144.602 224.687 144.441 224.251 144.441 223.729C144.441 223.301 144.561 222.923 144.801 222.595C145.044 222.266 145.374 222.008 145.792 221.821C146.213 221.633 146.689 221.54 147.222 221.54C147.971 221.54 148.559 221.704 148.987 222.033C149.417 222.361 149.723 222.795 149.904 223.334Z" fill="#A0A0A0"/>
</g>
<defs>
<filter id="filter0_b_4116_14525" x="-84" y="-83.7891" width="519" height="432" filterUnits="userSpaceOnUse" color-interpolation-filters="sRGB">
<feFlood flood-opacity="0" result="BackgroundImageFix"/>
<feGaussianBlur in="BackgroundImageFix" stdDeviation="42"/>
<feComposite in2="SourceAlpha" operator="in" result="effect1_backgroundBlur_4116_14525"/>
<feBlend mode="normal" in="SourceGraphic" in2="effect1_backgroundBlur_4116_14525" result="shape"/>
</filter>
<radialGradient id="paint0_radial_4116_14525" cx="0" cy="0" r="1" gradientUnits="userSpaceOnUse" gradientTransform="translate(150.337 81.3757) rotate(90) scale(93.5203 182.009)">
<stop stop-color="#F5FAF9"/>
<stop offset="1" stop-color="#F5FAF9" stop-opacity="0"/>
</radialGradient>
<linearGradient id="paint1_linear_4116_14525" x1="78.6246" y1="171.746" x2="78.6246" y2="218.576" gradientUnits="userSpaceOnUse">
<stop stop-color="white"/>
<stop offset="1" stop-color="#999999"/>
</linearGradient>
<clipPath id="clip0_4116_14525">
<rect width="222" height="96" fill="white" transform="translate(32 40.5352)"/>
</clipPath>
</defs>
</svg>
