<svg width="47" height="48" viewBox="0 0 47 48" fill="none" xmlns="http://www.w3.org/2000/svg">
<rect x="0.5" y="1" width="46" height="46" fill="black"/>
<rect x="0.5" y="1" width="46" height="46" stroke="#FFC83A"/>
<mask id="mask0_217_3059" style="mask-type:alpha" maskUnits="userSpaceOnUse" x="7" y="8" width="33" height="32">
<rect x="7.5" y="8" width="32" height="32" fill="#D9D9D9"/>
</mask>
<g mask="url(#mask0_217_3059)">
<path d="M13.5 26.6667C13.5 24.7009 13.9338 22.9308 14.8013 21.3565C15.6688 19.7821 16.6517 18.424 17.7499 17.2822C18.8482 16.1403 19.9016 15.2223 20.9102 14.5283C21.9187 13.8343 22.5597 13.389 22.8333 13.1924V16.4C22.8333 17.4273 23.1794 18.2397 23.8717 18.8372C24.564 19.4346 25.3401 19.7333 26.2 19.7333C26.6034 19.7333 26.988 19.6599 27.3538 19.5128C27.7196 19.3658 28.0641 19.1359 28.3872 18.8231L28.9743 18.2308C30.3436 19.13 31.4401 20.3218 32.264 21.8064C33.088 23.291 33.4999 24.9111 33.4999 26.6667C33.4999 28.6649 32.9709 30.4611 31.9127 32.0551C30.8546 33.6491 29.4836 34.8359 27.7999 35.6154C28.2289 35.1419 28.564 34.6034 28.805 34C29.0461 33.3966 29.1666 32.7521 29.1666 32.0667C29.1666 31.3231 29.0255 30.6145 28.7435 29.9411C28.4615 29.2675 28.0563 28.6667 27.5281 28.1385L23.5 24.1975L19.5051 28.1385C18.9633 28.6804 18.5492 29.2825 18.2629 29.9449C17.9765 30.6073 17.8334 31.3145 17.8334 32.0667C17.8334 32.7521 17.9539 33.3966 18.1949 34C18.4359 34.6034 18.771 35.1419 19.2001 35.6154C17.5163 34.8359 16.1453 33.6491 15.0872 32.0551C14.0291 30.4611 13.5 28.6649 13.5 26.6667ZM23.5 26.9949L26.1025 29.5436C26.4461 29.8872 26.7094 30.2709 26.8923 30.6949C27.0752 31.1188 27.1666 31.5761 27.1666 32.0667C27.1666 33.0615 26.8098 33.9102 26.0961 34.6128C25.3824 35.3153 24.5171 35.6666 23.5 35.6666C22.4829 35.6666 21.6175 35.3153 20.9038 34.6128C20.1902 33.9102 19.8333 33.0615 19.8333 32.0667C19.8333 31.5983 19.9226 31.1487 20.1013 30.718C20.2799 30.2872 20.5453 29.8957 20.8974 29.5436L23.5 26.9949Z" fill="#FFC83A"/>
</g>
</svg>
