<svg width="47" height="48" viewBox="0 0 47 48" fill="none" xmlns="http://www.w3.org/2000/svg">
<rect x="0.5" y="1" width="46" height="46" fill="black"/>
<rect x="0.5" y="1" width="46" height="46" stroke="#4D4D4D"/>
<mask id="mask0_940_2717" style="mask-type:alpha" maskUnits="userSpaceOnUse" x="7" y="8" width="33" height="32">
<rect x="7.5" y="8" width="32" height="32" fill="#D9D9D9"/>
</mask>
<g mask="url(#mask0_940_2717)">
<path d="M15.5 26.6667C15.5 28.0103 15.8209 29.2607 16.4628 30.418C17.1047 31.5752 17.9872 32.5086 19.1103 33.218C19.0111 33.0299 18.9402 32.8423 18.8975 32.6551C18.8547 32.4679 18.8333 32.2718 18.8333 32.0667C18.8333 31.4496 18.9517 30.8684 19.1885 30.3231C19.4252 29.7778 19.765 29.2838 20.2077 28.8411L23.5 25.6026L26.8051 28.8411C27.2478 29.2838 27.5854 29.7778 27.8179 30.3231C28.0504 30.8684 28.1666 31.4496 28.1666 32.0667C28.1666 32.2718 28.1452 32.4679 28.1025 32.6551C28.0597 32.8423 27.9888 33.0299 27.8896 33.218C29.0127 32.5086 29.8952 31.5752 30.5371 30.418C31.179 29.2607 31.5 28.0103 31.5 26.6667C31.5 25.5555 31.2944 24.5055 30.8833 23.5167C30.4722 22.5278 29.8777 21.6444 29.1 20.8667C28.6555 21.1555 28.1889 21.3722 27.7 21.5167C27.2111 21.6611 26.7111 21.7333 26.2 21.7333C24.8136 21.7333 23.6149 21.2778 22.6038 20.3667C21.5927 19.4555 21.0136 18.3248 20.8666 16.9744C20 17.6991 19.2333 18.456 18.5666 19.2449C17.9 20.0337 17.3389 20.838 16.8833 21.6577C16.4277 22.4773 16.0833 23.3094 15.85 24.1538C15.6166 24.9983 15.5 25.8359 15.5 26.6667ZM23.5 28.4L21.6 30.2667C21.3555 30.5111 21.1666 30.7889 21.0333 31.1C20.9 31.4111 20.8333 31.7333 20.8333 32.0667C20.8333 32.7778 21.0944 33.3889 21.6166 33.9C22.1389 34.4111 22.7666 34.6667 23.5 34.6667C24.2333 34.6667 24.8611 34.4111 25.3833 33.9C25.9055 33.3889 26.1666 32.7778 26.1666 32.0667C26.1666 31.7111 26.1 31.3833 25.9666 31.0833C25.8333 30.7833 25.6444 30.5111 25.4 30.2667L23.5 28.4ZM22.8333 13.1924V16.4C22.8333 17.3436 23.1585 18.1351 23.8089 18.7744C24.4593 19.4137 25.2564 19.7333 26.2 19.7333C26.6085 19.7333 26.9978 19.6564 27.3679 19.5026C27.738 19.3487 28.0778 19.1222 28.3872 18.8231L28.9743 18.2308C30.3794 19.13 31.485 20.3295 32.291 21.8295C33.0969 23.3295 33.4999 24.9419 33.4999 26.6667C33.4999 29.4564 32.5307 31.8205 30.5922 33.7589C28.6538 35.6974 26.2897 36.6666 23.5 36.6666C20.7102 36.6666 18.3461 35.6974 16.4077 33.7589C14.4692 31.8205 13.5 29.4564 13.5 26.6667C13.5 24.0906 14.3393 21.612 16.0179 19.2308C17.6966 16.8496 19.9683 14.8368 22.8333 13.1924Z" fill="white"/>
</g>
</svg>
