<svg width="20" height="20" viewBox="0 0 20 20" fill="none" xmlns="http://www.w3.org/2000/svg">
<mask id="mask0_1348_7977" style="mask-type:alpha" maskUnits="userSpaceOnUse" x="0" y="0" width="20" height="20">
<rect width="20" height="20" fill="#D9D9D9"/>
</mask>
<g mask="url(#mask0_1348_7977)">
<path d="M8.92081 12.7108L13.6067 8.04581L12.8327 7.27179L8.92081 11.1628L7.14997 9.41281L6.37595 10.1868L8.92081 12.7108ZM10.0007 17.5826C8.96134 17.5826 7.98075 17.3853 7.05897 16.9906C6.13718 16.5958 5.33036 16.0527 4.63852 15.3612C3.94665 14.6696 3.40327 13.8632 3.00837 12.9418C2.61347 12.0205 2.41602 11.0401 2.41602 10.0007C2.41602 8.94745 2.61338 7.96339 3.0081 7.04856C3.40282 6.13371 3.94595 5.33036 4.63747 4.63852C5.32902 3.94666 6.13547 3.40327 7.05683 3.00837C7.97818 2.61347 8.95854 2.41602 9.99793 2.41602C11.0512 2.41602 12.0353 2.61338 12.9501 3.0081C13.8649 3.40282 14.6683 3.94595 15.3601 4.63747C16.052 5.32902 16.5954 6.132 16.9903 7.04641C17.3852 7.96082 17.5826 8.94466 17.5826 9.99793C17.5826 11.0373 17.3853 12.0179 16.9906 12.9397C16.5958 13.8615 16.0527 14.6683 15.3612 15.3601C14.6696 16.052 13.8667 16.5954 12.9522 16.9903C12.0378 17.3852 11.054 17.5826 10.0007 17.5826Z" fill="#FFC83A"/>
</g>
</svg>
