<svg width="17" height="17" viewBox="0 0 17 17" fill="none" xmlns="http://www.w3.org/2000/svg">
<path opacity="0.28" d="M14.3297 7.39326C14.333 7.72198 14.333 8.08825 14.333 8.5C14.333 10.3638 14.333 11.2957 14.0285 12.0307C13.6226 13.0108 12.8439 13.7895 11.8637 14.1955C11.1287 14.5 10.1968 14.5 8.33301 14.5C6.46924 14.5 5.53736 14.5 4.80227 14.1955C3.82216 13.7895 3.04347 13.0108 2.63749 12.0307C2.33301 11.2957 2.33301 10.3638 2.33301 8.5C2.33301 6.63623 2.33301 5.70435 2.63749 4.96927C3.04347 3.98915 3.82216 3.21046 4.80227 2.80448C5.53736 2.5 6.46924 2.5 8.33301 2.5C10.0342 2.5 10.9589 2.5 11.6663 2.73153" stroke="#3BEA8E" stroke-linecap="round" stroke-linejoin="round"/>
<path d="M14.3557 4.10156L13.8274 4.46235C11.6906 5.92168 9.91287 7.84713 8.62833 10.0936L8.38875 10.5125L6.07227 7.83268" stroke="#3BEA8E" stroke-linecap="round" stroke-linejoin="round"/>
</svg>
