<svg width="628" height="337" viewBox="0 0 628 337" fill="none" xmlns="http://www.w3.org/2000/svg">
<path d="M15.2027 81C13.3327 81 11.6043 80.5467 10.0177 79.64C8.48768 78.7333 7.26934 77.515 6.36268 75.985C5.45601 74.3983 5.00268 72.67 5.00268 70.8V30C5.00268 28.13 5.45601 26.43 6.36268 24.9C7.26934 23.3133 8.48768 22.0667 10.0177 21.16C11.6043 20.2533 13.3327 19.8 15.2027 19.8H66.0327V26.685H15.2027C14.296 26.685 13.5027 27.025 12.8227 27.705C12.1993 28.3283 11.8877 29.0933 11.8877 30V70.8C11.8877 71.7067 12.1993 72.5 12.8227 73.18C13.5027 73.8033 14.296 74.115 15.2027 74.115H66.0327V81H15.2027ZM86.2553 81C84.3853 81 82.6569 80.5467 81.0703 79.64C79.5403 78.6767 78.2936 77.43 77.3303 75.9C76.4236 74.3133 75.9703 72.585 75.9703 70.715V41.985C75.9703 40.115 76.4236 38.415 77.3303 36.885C78.2936 35.2983 79.5403 34.0517 81.0703 33.145C82.6569 32.1817 84.3853 31.7 86.2553 31.7H115.835C117.762 31.7 119.49 32.1817 121.02 33.145C122.607 34.0517 123.854 35.2983 124.76 36.885C125.724 38.415 126.205 40.115 126.205 41.985V70.715C126.205 72.585 125.724 74.3133 124.76 75.9C123.854 77.43 122.607 78.6767 121.02 79.64C119.49 80.5467 117.762 81 115.835 81H86.2553ZM86.2553 74.03H115.835C116.742 74.03 117.507 73.7183 118.13 73.095C118.81 72.415 119.15 71.6217 119.15 70.715V41.985C119.15 41.0783 118.81 40.3133 118.13 39.69C117.507 39.01 116.742 38.67 115.835 38.67H86.2553C85.3486 38.67 84.5553 39.01 83.8753 39.69C83.2519 40.3133 82.9403 41.0783 82.9403 41.985V70.715C82.9403 71.6217 83.2519 72.415 83.8753 73.095C84.5553 73.7183 85.3486 74.03 86.2553 74.03ZM136.578 81V31.7H201.688C203.614 31.7 205.343 32.1817 206.873 33.145C208.459 34.0517 209.706 35.2983 210.613 36.885C211.519 38.415 211.973 40.115 211.973 41.985V81H205.088V41.985C205.088 41.0783 204.748 40.3133 204.068 39.69C203.388 39.01 202.594 38.67 201.688 38.67H181.203C180.296 38.67 179.503 39.01 178.823 39.69C178.199 40.3133 177.888 41.0783 177.888 41.985V81H170.833V41.985C170.833 41.0783 170.493 40.3133 169.813 39.69C169.189 39.01 168.424 38.67 167.518 38.67H146.948C146.041 38.67 145.248 39.01 144.568 39.69C143.944 40.3133 143.633 41.0783 143.633 41.985V81H136.578ZM220.999 81V31.7H227.969V81H220.999ZM220.999 22.52V15.55H227.969V22.52H220.999ZM239.104 81V31.7H279.054C280.924 31.7 282.624 32.1817 284.154 33.145C285.741 34.0517 286.987 35.2983 287.894 36.885C288.857 38.415 289.339 40.115 289.339 41.985V81H282.369V41.985C282.369 41.0783 282.029 40.3133 281.349 39.69C280.726 39.01 279.961 38.67 279.054 38.67H249.474C248.567 38.67 247.774 39.01 247.094 39.69C246.414 40.3133 246.074 41.0783 246.074 41.985V81H239.104ZM307.779 100.465V93.41H338.549C339.455 93.41 340.22 93.07 340.844 92.39C341.524 91.7667 341.864 91.0017 341.864 90.095V81H308.969C307.099 81 305.37 80.5467 303.784 79.64C302.254 78.6767 301.007 77.43 300.044 75.9C299.137 74.3133 298.684 72.585 298.684 70.715V41.985C298.684 40.115 299.137 38.415 300.044 36.885C301.007 35.2983 302.254 34.0517 303.784 33.145C305.37 32.1817 307.099 31.7 308.969 31.7H338.549C340.475 31.7 342.204 32.1817 343.734 33.145C345.32 34.0517 346.567 35.2983 347.474 36.885C348.38 38.415 348.834 40.115 348.834 41.985V90.095C348.834 92.0217 348.38 93.75 347.474 95.28C346.567 96.8667 345.32 98.1133 343.734 99.02C342.204 99.9833 340.475 100.465 338.549 100.465H307.779ZM308.969 74.03H338.549C339.455 74.03 340.22 73.7183 340.844 73.095C341.524 72.415 341.864 71.6217 341.864 70.715V41.985C341.864 41.0783 341.524 40.3133 340.844 39.69C340.22 39.01 339.455 38.67 338.549 38.67H308.969C308.062 38.67 307.269 39.01 306.589 39.69C305.965 40.3133 305.654 41.0783 305.654 41.985V70.715C305.654 71.6217 305.965 72.415 306.589 73.095C307.269 73.7183 308.062 74.03 308.969 74.03ZM393.915 81C392.045 81 390.317 80.5467 388.73 79.64C387.2 78.7333 385.982 77.515 385.075 75.985C384.169 74.3983 383.715 72.67 383.715 70.8V68.42H390.6V70.8C390.6 71.7067 390.912 72.5 391.535 73.18C392.215 73.8033 393.009 74.115 393.915 74.115H434.715C435.622 74.115 436.387 73.8033 437.01 73.18C437.69 72.5 438.03 71.7067 438.03 70.8V57.115C438.03 56.2083 437.69 55.4433 437.01 54.82C436.387 54.1967 435.622 53.885 434.715 53.885H393.915C392.045 53.885 390.317 53.4317 388.73 52.525C387.2 51.5617 385.982 50.315 385.075 48.785C384.169 47.255 383.715 45.555 383.715 43.685V30C383.715 28.13 384.169 26.43 385.075 24.9C385.982 23.3133 387.2 22.0667 388.73 21.16C390.317 20.2533 392.045 19.8 393.915 19.8H434.715C436.585 19.8 438.285 20.2533 439.815 21.16C441.402 22.0667 442.649 23.3133 443.555 24.9C444.462 26.43 444.915 28.13 444.915 30V32.38H438.03V30C438.03 29.0933 437.69 28.3283 437.01 27.705C436.387 27.025 435.622 26.685 434.715 26.685H393.915C393.009 26.685 392.215 27.025 391.535 27.705C390.912 28.3283 390.6 29.0933 390.6 30V43.685C390.6 44.5917 390.912 45.3567 391.535 45.98C392.215 46.6033 393.009 46.915 393.915 46.915H434.715C436.585 46.915 438.285 47.3967 439.815 48.36C441.402 49.2667 442.649 50.485 443.555 52.015C444.462 53.545 444.915 55.245 444.915 57.115V70.8C444.915 72.67 444.462 74.3983 443.555 75.985C442.649 77.515 441.402 78.7333 439.815 79.64C438.285 80.5467 436.585 81 434.715 81H393.915ZM465.393 81C463.523 81 461.795 80.5467 460.208 79.64C458.678 78.6767 457.431 77.43 456.468 75.9C455.561 74.3133 455.108 72.585 455.108 70.715V41.985C455.108 40.115 455.561 38.415 456.468 36.885C457.431 35.2983 458.678 34.0517 460.208 33.145C461.795 32.1817 463.523 31.7 465.393 31.7H494.973C496.9 31.7 498.628 32.1817 500.158 33.145C501.745 34.0517 502.991 35.2983 503.898 36.885C504.861 38.415 505.343 40.115 505.343 41.985V70.715C505.343 72.585 504.861 74.3133 503.898 75.9C502.991 77.43 501.745 78.6767 500.158 79.64C498.628 80.5467 496.9 81 494.973 81H465.393ZM465.393 74.03H494.973C495.88 74.03 496.645 73.7183 497.268 73.095C497.948 72.415 498.288 71.6217 498.288 70.715V41.985C498.288 41.0783 497.948 40.3133 497.268 39.69C496.645 39.01 495.88 38.67 494.973 38.67H465.393C464.486 38.67 463.693 39.01 463.013 39.69C462.39 40.3133 462.078 41.0783 462.078 41.985V70.715C462.078 71.6217 462.39 72.415 463.013 73.095C463.693 73.7183 464.486 74.03 465.393 74.03ZM524.085 81C522.215 81 520.487 80.5467 518.9 79.64C517.37 78.6767 516.124 77.43 515.16 75.9C514.254 74.3133 513.8 72.585 513.8 70.715V41.985C513.8 40.115 514.254 38.415 515.16 36.885C516.124 35.2983 517.37 34.0517 518.9 33.145C520.487 32.1817 522.215 31.7 524.085 31.7H553.665C555.592 31.7 557.32 32.1817 558.85 33.145C560.437 34.0517 561.684 35.2983 562.59 36.885C563.554 38.415 564.035 40.115 564.035 41.985V70.715C564.035 72.585 563.554 74.3133 562.59 75.9C561.684 77.43 560.437 78.6767 558.85 79.64C557.32 80.5467 555.592 81 553.665 81H524.085ZM524.085 74.03H553.665C554.572 74.03 555.337 73.7183 555.96 73.095C556.64 72.415 556.98 71.6217 556.98 70.715V41.985C556.98 41.0783 556.64 40.3133 555.96 39.69C555.337 39.01 554.572 38.67 553.665 38.67H524.085C523.179 38.67 522.385 39.01 521.705 39.69C521.082 40.3133 520.77 41.0783 520.77 41.985V70.715C520.77 71.6217 521.082 72.415 521.705 73.095C522.385 73.7183 523.179 74.03 524.085 74.03ZM573.163 81V31.7H613.113C614.983 31.7 616.683 32.1817 618.213 33.145C619.799 34.0517 621.046 35.2983 621.953 36.885C622.916 38.415 623.398 40.115 623.398 41.985V81H616.428V41.985C616.428 41.0783 616.088 40.3133 615.408 39.69C614.784 39.01 614.019 38.67 613.113 38.67H583.533C582.626 38.67 581.833 39.01 581.153 39.69C580.473 40.3133 580.133 41.0783 580.133 41.985V81H573.163Z" fill="white"/>
<path d="M85.5754 154V140.2H87.2554V152.48H93.9754V154H85.5754ZM95.979 141.66V139.78H97.739V141.66H95.979ZM96.059 154V143.6H97.659V154H96.059ZM100.704 151V146.6C100.704 144.6 101.704 143.6 103.704 143.6H109.304V155C109.304 157 108.304 158 106.304 158H102.304L101.504 157.4V156.6H106.304C107.237 156.6 107.704 156.133 107.704 155.2V154H103.704C101.704 154 100.704 153 100.704 151ZM102.304 151.2C102.304 152.133 102.77 152.6 103.704 152.6H107.704V145H103.704C102.77 145 102.304 145.467 102.304 146.4V151.2ZM112.504 154V139.2H114.104V143.6H118.104C120.104 143.6 121.104 144.6 121.104 146.6V154H119.504V146.4C119.504 145.467 119.038 145 118.104 145H114.104V154H112.504ZM124.143 151V140.2H125.743V143.6H129.543V145H125.743V151.2C125.743 152.133 126.21 152.6 127.143 152.6H129.743V153.4L128.943 154H127.143C125.143 154 124.143 153 124.143 151ZM132.055 154V143.6H137.655C139.655 143.6 140.655 144.6 140.655 146.6V154H139.055V146.4C139.055 145.467 138.588 145 137.655 145H133.655V154H132.055ZM143.694 141.66V139.78H145.454V141.66H143.694ZM143.774 154V143.6H145.374V154H143.774ZM148.579 154V143.6H154.179C156.179 143.6 157.179 144.6 157.179 146.6V154H155.579V146.4C155.579 145.467 155.112 145 154.179 145H150.179V154H148.579ZM160.137 151V146.6C160.137 144.6 161.137 143.6 163.137 143.6H168.737V155C168.737 157 167.737 158 165.737 158H161.737L160.937 157.4V156.6H165.737C166.671 156.6 167.137 156.133 167.137 155.2V154H163.137C161.137 154 160.137 153 160.137 151ZM161.737 151.2C161.737 152.133 162.204 152.6 163.137 152.6H167.137V145H163.137C162.204 145 161.737 145.467 161.737 146.4V151.2ZM171.138 148.6V147.2H176.738V148.6H171.138ZM179.345 154V140.2H188.345V141.72H181.025V146.6H187.745V148.12H181.025V154H179.345ZM192.621 154C190.607 154 189.601 152.993 189.601 150.98C189.601 148.967 190.607 147.96 192.621 147.96H196.281V146.4C196.281 145.467 195.814 145 194.881 145H190.601V144.2L191.401 143.6H194.881C196.881 143.6 197.881 144.6 197.881 146.6V154H192.621ZM191.201 151.2C191.201 152.133 191.667 152.6 192.601 152.6H196.281V149.26H192.601C191.667 149.26 191.201 149.727 191.201 150.66V151.2ZM200.6 153.4V152.6H205.22C206.14 152.6 206.6 152.133 206.6 151.2C206.6 150.253 206.234 149.72 205.5 149.6L203.12 149.2C201.44 148.92 200.6 148.007 200.6 146.46C200.6 144.553 201.6 143.6 203.6 143.6H206.94L207.74 144.2V145H203.58C202.647 145 202.18 145.467 202.18 146.4C202.18 147.24 202.574 147.727 203.36 147.86L205.74 148.26C207.394 148.527 208.22 149.48 208.22 151.12C208.22 153.04 207.207 154 205.18 154H201.4L200.6 153.4ZM210.92 151V140.2H212.52V143.6H216.32V145H212.52V151.2C212.52 152.133 212.987 152.6 213.92 152.6H216.52V153.4L215.72 154H213.92C211.92 154 210.92 153 210.92 151ZM222.517 141.72V140.2H233.397V141.72H228.797V154H227.117V141.72H222.517ZM234.788 154V144.8C235.254 144 236.121 143.6 237.388 143.6H239.388L240.188 144.2V145H237.608C237.048 145 236.641 145.153 236.388 145.46V154H234.788ZM244.574 154C242.56 154 241.554 152.993 241.554 150.98C241.554 148.967 242.56 147.96 244.574 147.96H248.234V146.4C248.234 145.467 247.767 145 246.834 145H242.554V144.2L243.354 143.6H246.834C248.834 143.6 249.834 144.6 249.834 146.6V154H244.574ZM243.154 151.2C243.154 152.133 243.62 152.6 244.554 152.6H248.234V149.26H244.554C243.62 149.26 243.154 149.727 243.154 150.66V151.2ZM252.794 151V146.6C252.794 144.6 253.794 143.6 255.794 143.6H259.794V139.2H261.394V154H255.794C253.794 154 252.794 153 252.794 151ZM254.394 151.2C254.394 152.133 254.86 152.6 255.794 152.6H259.794V145H255.794C254.86 145 254.394 145.467 254.394 146.4V151.2ZM264.514 141.66V139.78H266.274V141.66H264.514ZM264.594 154V143.6H266.194V154H264.594ZM269.399 154V143.6H274.999C276.999 143.6 277.999 144.6 277.999 146.6V154H276.399V146.4C276.399 145.467 275.932 145 274.999 145H270.999V154H269.399ZM280.958 151V146.6C280.958 144.6 281.958 143.6 283.958 143.6H289.558V155C289.558 157 288.558 158 286.558 158H282.558L281.758 157.4V156.6H286.558C287.491 156.6 287.958 156.133 287.958 155.2V154H283.958C281.958 154 280.958 153 280.958 151ZM282.558 151.2C282.558 152.133 283.024 152.6 283.958 152.6H287.958V145H283.958C283.024 145 282.558 145.467 282.558 146.4V151.2ZM297.403 151V146.6C297.403 144.6 298.403 143.6 300.403 143.6H304.403V139.2H306.003V154H300.403C298.403 154 297.403 153 297.403 151ZM299.003 151.2C299.003 152.133 299.47 152.6 300.403 152.6H304.403V145H300.403C299.47 145 299.003 145.467 299.003 146.4V151.2ZM308.004 153.64L312.524 140.2H315.284L319.804 153.64L319.564 154H318.184L317.044 150.52H310.764L309.624 154H308.244L308.004 153.64ZM311.264 149H316.544L314.144 141.72H313.664L311.264 149ZM321.801 158V143.6H327.401C329.401 143.6 330.401 144.6 330.401 146.6V151C330.401 153 329.401 154 327.401 154H323.401V158H321.801ZM323.401 152.6H327.401C328.335 152.6 328.801 152.133 328.801 151.2V146.4C328.801 145.467 328.335 145 327.401 145H323.401V152.6ZM333.442 158V143.6H339.042C341.042 143.6 342.042 144.6 342.042 146.6V151C342.042 153 341.042 154 339.042 154H335.042V158H333.442ZM335.042 152.6H339.042C339.975 152.6 340.442 152.133 340.442 151.2V146.4C340.442 145.467 339.975 145 339.042 145H335.042V152.6ZM349.887 154V139.2H351.487V143.6H355.487C357.487 143.6 358.487 144.6 358.487 146.6V151C358.487 153 357.487 154 355.487 154H349.887ZM351.487 152.6H355.487C356.42 152.6 356.887 152.133 356.887 151.2V146.4C356.887 145.467 356.42 145 355.487 145H351.487V152.6ZM361.448 151V143.6H363.048V151.2C363.048 152.133 363.514 152.6 364.448 152.6H368.448V143.6H370.048V154H364.448C362.448 154 361.448 153 361.448 151ZM373.166 141.66V139.78H374.926V141.66H373.166ZM373.246 154V143.6H374.846V154H373.246ZM377.971 151.16V139.2H379.571V151.32C379.571 152.24 380.038 152.727 380.971 152.78V154.16C378.971 154.16 377.971 153.16 377.971 151.16ZM383.166 151V140.2H384.766V143.6H388.566V145H384.766V151.2C384.766 152.133 385.233 152.6 386.166 152.6H388.766V153.4L387.966 154H386.166C384.166 154 383.166 153 383.166 151ZM395.883 154V142.2C395.883 140.2 396.883 139.2 398.883 139.2H400.683L401.483 139.8V140.6H398.883C397.95 140.6 397.483 141.067 397.483 142V143.6H401.283V145H397.483V154H395.883ZM403.321 151V146.6C403.321 144.6 404.321 143.6 406.321 143.6H409.121C411.121 143.6 412.121 144.6 412.121 146.6V151C412.121 153 411.121 154 409.121 154H406.321C404.321 154 403.321 153 403.321 151ZM404.921 151.2C404.921 152.133 405.388 152.6 406.321 152.6H409.121C410.054 152.6 410.521 152.133 410.521 151.2V146.4C410.521 145.467 410.054 145 409.121 145H406.321C405.388 145 404.921 145.467 404.921 146.4V151.2ZM415.081 154V144.8C415.547 144 416.414 143.6 417.681 143.6H419.681L420.481 144.2V145H417.901C417.341 145 416.934 145.153 416.681 145.46V154H415.081Z" fill="white"/>
<path d="M427.507 154V140.2H434.147C436.32 140.2 437.407 141.287 437.407 143.46V146.12C437.407 148.28 436.32 149.36 434.147 149.36H429.947V154H427.507ZM429.947 147.14H434.087C434.673 147.14 434.967 146.847 434.967 146.26V143.28C434.967 142.707 434.673 142.42 434.087 142.42H429.947V147.14ZM439.842 150.84V146.66C439.842 144.553 440.895 143.5 443.002 143.5H445.802C447.895 143.5 448.942 144.553 448.942 146.66V150.84C448.942 152.947 447.895 154 445.802 154H443.002C440.895 154 439.842 152.947 439.842 150.84ZM442.182 151.04C442.182 151.653 442.489 151.96 443.102 151.96H445.682C446.295 151.96 446.602 151.653 446.602 151.04V146.46C446.602 145.847 446.295 145.54 445.682 145.54H443.102C442.489 145.54 442.182 145.847 442.182 146.46V151.04ZM450.739 143.86L450.999 143.5H452.959L454.739 151.96H454.939L457.079 143.5H459.699L461.839 151.96H462.039L463.839 143.5H465.779L466.039 143.86L463.819 154H460.239L458.379 146.26L456.519 154H452.979L450.739 143.86ZM467.83 150.84V146.66C467.83 144.553 468.884 143.5 470.99 143.5H473.59C475.684 143.5 476.73 144.553 476.73 146.66V149.62H470.17V151.04C470.17 151.653 470.477 151.96 471.09 151.96H476.33V153.22L475.27 154H470.99C468.884 154 467.83 152.947 467.83 150.84ZM470.17 147.8H474.39V146.46C474.39 145.847 474.084 145.54 473.47 145.54H471.09C470.477 145.54 470.17 145.847 470.17 146.46V147.8ZM479.492 154V144.8C479.972 143.933 480.892 143.5 482.252 143.5H484.352L485.412 144.28V145.54H482.792C482.339 145.54 482.019 145.653 481.832 145.88V154H479.492ZM492.309 150.74V140.2H494.749V150.92C494.749 151.493 495.042 151.78 495.629 151.78H499.689C500.275 151.78 500.569 151.493 500.569 150.92V140.2H503.009V150.74C503.009 152.913 501.922 154 499.749 154H495.569C493.395 154 492.309 152.913 492.309 150.74ZM505.716 153.22V151.96H510.336C510.949 151.96 511.256 151.633 511.256 150.98C511.256 150.3 511.002 149.913 510.496 149.82L508.256 149.46C506.562 149.167 505.716 148.207 505.716 146.58C505.716 144.527 506.769 143.5 508.876 143.5H512.056L513.116 144.28V145.54H508.976C508.349 145.54 508.036 145.867 508.036 146.52C508.036 147.173 508.302 147.547 508.836 147.64L511.076 148C512.756 148.28 513.596 149.247 513.596 150.9C513.596 152.967 512.536 154 510.416 154H506.776L505.716 153.22ZM516.033 150.84V146.66C516.033 144.553 517.087 143.5 519.193 143.5H521.793C523.887 143.5 524.933 144.553 524.933 146.66V149.62H518.373V151.04C518.373 151.653 518.68 151.96 519.293 151.96H524.533V153.22L523.473 154H519.193C517.087 154 516.033 152.947 516.033 150.84ZM518.373 147.8H522.593V146.46C522.593 145.847 522.287 145.54 521.673 145.54H519.293C518.68 145.54 518.373 145.847 518.373 146.46V147.8ZM527.695 154V144.8C528.175 143.933 529.095 143.5 530.455 143.5H532.555L533.615 144.28V145.54H530.995C530.542 145.54 530.222 145.653 530.035 145.88V154H527.695ZM535.247 153.22V151.96H539.867C540.48 151.96 540.787 151.633 540.787 150.98C540.787 150.3 540.534 149.913 540.027 149.82L537.787 149.46C536.094 149.167 535.247 148.207 535.247 146.58C535.247 144.527 536.3 143.5 538.407 143.5H541.587L542.647 144.28V145.54H538.507C537.88 145.54 537.567 145.867 537.567 146.52C537.567 147.173 537.834 147.547 538.367 147.64L540.607 148C542.287 148.28 543.127 149.247 543.127 150.9C543.127 152.967 542.067 154 539.947 154H536.307L535.247 153.22Z" fill="#FFC83A"/>
<path d="M267.456 219V207.96H274.656V209.176H268.8V213.08H274.176V214.296H268.8V219H267.456ZM276.293 216.6V213.08C276.293 211.48 277.093 210.68 278.693 210.68H280.933C282.533 210.68 283.333 211.48 283.333 213.08V216.6C283.333 218.2 282.533 219 280.933 219H278.693C277.093 219 276.293 218.2 276.293 216.6ZM277.573 216.76C277.573 217.507 277.946 217.88 278.693 217.88H280.933C281.679 217.88 282.053 217.507 282.053 216.76V212.92C282.053 212.173 281.679 211.8 280.933 211.8H278.693C277.946 211.8 277.573 212.173 277.573 212.92V216.76ZM285.7 216.728V207.16H286.98V216.856C286.98 217.592 287.354 217.981 288.1 218.024V219.128C286.5 219.128 285.7 218.328 285.7 216.728ZM289.857 216.728V207.16H291.137V216.856C291.137 217.592 291.51 217.981 292.257 218.024V219.128C290.657 219.128 289.857 218.328 289.857 216.728ZM293.949 216.6V213.08C293.949 211.48 294.749 210.68 296.349 210.68H298.589C300.189 210.68 300.989 211.48 300.989 213.08V216.6C300.989 218.2 300.189 219 298.589 219H296.349C294.749 219 293.949 218.2 293.949 216.6ZM295.229 216.76C295.229 217.507 295.602 217.88 296.349 217.88H298.589C299.336 217.88 299.709 217.507 299.709 216.76V212.92C299.709 212.173 299.336 211.8 298.589 211.8H296.349C295.602 211.8 295.229 212.173 295.229 212.92V216.76ZM302.525 210.904L302.685 210.68H303.741L305.437 217.88H305.661L307.693 210.68H309.149L311.181 217.88H311.405L313.117 210.68H314.157L314.317 210.904L312.365 219H310.317L308.413 212.152L306.525 219H304.477L302.525 210.904ZM319.891 216.552V207.96H321.235V216.696C321.235 217.421 321.598 217.784 322.323 217.784H325.779C326.504 217.784 326.867 217.421 326.867 216.696V207.96H328.211V216.552C328.211 218.184 327.395 219 325.763 219H322.339C320.707 219 319.891 218.184 319.891 216.552ZM330.523 218.52V217.88H334.219C334.955 217.88 335.323 217.507 335.323 216.76C335.323 216.003 335.029 215.576 334.443 215.48L332.539 215.16C331.195 214.936 330.523 214.205 330.523 212.968C330.523 211.443 331.323 210.68 332.923 210.68H335.595L336.235 211.16V211.8H332.907C332.16 211.8 331.787 212.173 331.787 212.92C331.787 213.592 332.101 213.981 332.731 214.088L334.635 214.408C335.957 214.621 336.619 215.384 336.619 216.696C336.619 218.232 335.808 219 334.187 219H331.163L330.523 218.52ZM342.686 216.552V210.408C342.686 208.776 343.502 207.96 345.134 207.96H348.878C350.51 207.96 351.326 208.776 351.326 210.408V216.552C351.326 218.184 350.51 219 348.878 219H345.134C343.502 219 342.686 218.184 342.686 216.552ZM344.03 216.696C344.03 217.421 344.393 217.784 345.118 217.784H348.894C349.62 217.784 349.982 217.421 349.982 216.696V210.264C349.982 209.539 349.62 209.176 348.894 209.176H345.118C344.393 209.176 344.03 209.539 344.03 210.264V216.696ZM353.889 219V210.68H358.369C359.969 210.68 360.769 211.48 360.769 213.08V219H359.489V212.92C359.489 212.173 359.116 211.8 358.369 211.8H355.169V219H353.889Z" fill="white"/>
<path d="M299.272 249.587H302.083L295.941 256.606L303.167 266.159H297.509L293.078 260.365L288.008 266.159H285.195L291.765 258.65L284.833 249.587H290.634L294.64 254.882L299.272 249.587ZM298.285 264.476H299.843L289.788 251.181H288.116L298.285 264.476Z" fill="#FFC83A"/>
<g clip-path="url(#clip0_2621_10430)">
<path d="M340.931 251.463C339.656 250.878 338.289 250.447 336.86 250.2C336.834 250.195 336.808 250.207 336.794 250.231C336.619 250.544 336.424 250.952 336.288 251.272C334.75 251.042 333.221 251.042 331.715 251.272C331.579 250.945 331.377 250.544 331.2 250.231C331.187 250.208 331.161 250.196 331.135 250.2C329.707 250.446 328.34 250.877 327.064 251.463C327.053 251.468 327.044 251.476 327.037 251.486C324.444 255.36 323.734 259.138 324.083 262.87C324.084 262.888 324.094 262.905 324.109 262.916C325.819 264.173 327.476 264.935 329.103 265.441C329.129 265.449 329.156 265.439 329.173 265.418C329.558 264.892 329.901 264.339 330.195 263.756C330.212 263.722 330.195 263.681 330.16 263.668C329.616 263.462 329.098 263.21 328.6 262.924C328.56 262.901 328.557 262.845 328.593 262.818C328.698 262.739 328.803 262.658 328.903 262.575C328.921 262.56 328.947 262.557 328.968 262.566C332.241 264.061 335.785 264.061 339.019 262.566C339.04 262.556 339.066 262.559 339.085 262.574C339.185 262.657 339.29 262.739 339.395 262.818C339.431 262.845 339.429 262.901 339.39 262.924C338.891 263.216 338.373 263.462 337.829 263.667C337.793 263.681 337.778 263.722 337.795 263.756C338.095 264.338 338.438 264.892 338.816 265.417C338.832 265.439 338.86 265.449 338.886 265.441C340.52 264.935 342.177 264.173 343.888 262.916C343.903 262.905 343.912 262.889 343.914 262.87C344.331 258.556 343.215 254.809 340.957 251.487C340.951 251.476 340.942 251.468 340.931 251.463ZM330.683 260.597C329.698 260.597 328.886 259.693 328.886 258.582C328.886 257.471 329.682 256.566 330.683 256.566C331.692 256.566 332.497 257.479 332.481 258.582C332.481 259.693 331.685 260.597 330.683 260.597ZM337.329 260.597C336.344 260.597 335.532 259.693 335.532 258.582C335.532 257.471 336.328 256.566 337.329 256.566C338.338 256.566 339.142 257.479 339.126 258.582C339.126 259.693 338.338 260.597 337.329 260.597Z" fill="#8D8D8D"/>
</g>
<path d="M171.393 326.505V315.465H176.625C178.257 315.465 179.073 316.281 179.073 317.913V319.993C179.073 321.625 178.257 322.441 176.625 322.441H172.737V326.505H171.393ZM172.737 321.225H176.641C177.366 321.225 177.729 320.862 177.729 320.137V317.769C177.729 317.044 177.366 316.681 176.641 316.681H172.737V321.225ZM181.183 324.105V320.585C181.183 318.985 181.983 318.185 183.583 318.185H185.823C187.423 318.185 188.223 318.985 188.223 320.585V324.105C188.223 325.705 187.423 326.505 185.823 326.505H183.583C181.983 326.505 181.183 325.705 181.183 324.105ZM182.463 324.265C182.463 325.012 182.837 325.385 183.583 325.385H185.823C186.57 325.385 186.943 325.012 186.943 324.265V320.425C186.943 319.678 186.57 319.305 185.823 319.305H183.583C182.837 319.305 182.463 319.678 182.463 320.425V324.265ZM189.759 318.409L189.919 318.185H190.975L192.671 325.385H192.895L194.927 318.185H196.383L198.415 325.385H198.639L200.351 318.185H201.391L201.551 318.409L199.599 326.505H197.551L195.647 319.657L193.759 326.505H191.711L189.759 318.409ZM203.09 324.105V320.585C203.09 318.985 203.89 318.185 205.49 318.185H207.57C209.17 318.185 209.97 318.985 209.97 320.585V322.841H204.37V324.265C204.37 325.012 204.743 325.385 205.49 325.385H209.65V326.025L209.01 326.505H205.49C203.89 326.505 203.09 325.705 203.09 324.105ZM204.37 321.801H208.69V320.425C208.69 319.678 208.316 319.305 207.57 319.305H205.49C204.743 319.305 204.37 319.678 204.37 320.425V321.801ZM212.341 326.505V319.145C212.714 318.505 213.408 318.185 214.421 318.185H216.021L216.661 318.665V319.305H214.597C214.149 319.305 213.824 319.428 213.621 319.673V326.505H212.341ZM218.23 324.105V320.585C218.23 318.985 219.03 318.185 220.63 318.185H222.71C224.31 318.185 225.11 318.985 225.11 320.585V322.841H219.51V324.265C219.51 325.012 219.883 325.385 220.63 325.385H224.79V326.025L224.15 326.505H220.63C219.03 326.505 218.23 325.705 218.23 324.105ZM219.51 321.801H223.83V320.425C223.83 319.678 223.457 319.305 222.71 319.305H220.63C219.883 319.305 219.51 319.678 219.51 320.425V321.801ZM227.418 324.105V320.585C227.418 318.985 228.218 318.185 229.818 318.185H233.018V314.665H234.298V326.505H229.818C228.218 326.505 227.418 325.705 227.418 324.105ZM228.698 324.265C228.698 325.012 229.071 325.385 229.818 325.385H233.018V319.305H229.818C229.071 319.305 228.698 319.678 228.698 320.425V324.265ZM240.702 326.505V314.665H241.982V318.185H245.182C246.782 318.185 247.582 318.985 247.582 320.585V324.105C247.582 325.705 246.782 326.505 245.182 326.505H240.702ZM241.982 325.385H245.182C245.929 325.385 246.302 325.012 246.302 324.265V320.425C246.302 319.678 245.929 319.305 245.182 319.305H241.982V325.385ZM249.054 318.409L249.198 318.185H250.302L252.734 325.385H253.054L255.486 318.185H256.59L256.734 318.409L252.83 329.705H251.726L251.582 329.481L252.654 326.505H251.854L249.054 318.409Z" fill="white"/>
<path d="M318.545 328.692H322.009V315.105H326.538V311.819H314.046V315.105H318.545V328.692ZM326.538 328.692H329.794V323.008C329.794 321.025 330.8 319.841 332.369 319.841C332.902 319.841 333.346 319.93 333.849 320.107V316.792C333.494 316.703 333.109 316.644 332.754 316.644C331.422 316.644 330.208 317.532 329.794 318.686V316.792H326.538V328.692ZM340.095 328.958C341.723 328.958 342.966 328.129 343.529 327.36V328.692H346.785V316.821H343.529V318.154C342.996 317.384 341.753 316.555 340.095 316.555C336.928 316.555 334.5 319.397 334.5 322.771C334.5 326.116 336.928 328.958 340.095 328.958ZM340.776 325.998C338.97 325.998 337.786 324.636 337.786 322.771C337.786 320.906 338.97 319.545 340.776 319.545C342.582 319.545 343.766 320.906 343.766 322.771C343.766 324.636 342.582 325.998 340.776 325.998ZM354.511 328.958C356.139 328.958 357.382 328.129 357.945 327.36V328.692H361.201V310.872H357.945V318.154C357.412 317.384 356.169 316.555 354.511 316.555C351.344 316.555 348.916 319.397 348.916 322.771C348.946 326.116 351.344 328.958 354.511 328.958ZM355.221 325.998C353.416 325.998 352.232 324.636 352.232 322.771C352.232 320.906 353.416 319.545 355.221 319.545C357.027 319.545 358.211 320.906 358.211 322.771C358.211 324.636 357.027 325.998 355.221 325.998ZM365.73 315.016C366.884 315.016 367.831 314.098 367.831 312.944C367.831 311.789 366.884 310.872 365.73 310.872C364.605 310.872 363.658 311.789 363.658 312.944C363.687 314.069 364.605 314.986 365.73 315.016ZM364.131 328.692H367.387V316.94H364.131V328.692ZM370.259 328.692H373.515V322.89C373.515 320.61 374.64 319.515 376.149 319.515C377.511 319.515 378.251 320.551 378.251 322.268V328.692H381.507V321.735C381.507 318.657 379.79 316.555 376.919 316.555C375.38 316.555 374.166 317.206 373.515 318.183V316.821H370.259V328.692ZM389.796 325.524C388.167 325.524 386.776 324.281 386.776 322.475C386.776 320.64 388.138 319.426 389.796 319.426C391.424 319.426 392.815 320.64 392.815 322.475C392.815 324.311 391.453 325.524 389.796 325.524ZM389.411 333.842C393.052 333.842 395.805 331.977 395.805 327.715V316.762H392.548V318.094C391.897 317.177 390.624 316.496 389.115 316.496C386.007 316.496 383.52 319.16 383.52 322.505C383.52 325.82 386.007 328.484 389.115 328.484C390.624 328.484 391.927 327.804 392.548 326.916V327.715C392.548 329.609 391.276 330.971 389.352 330.971C388.019 330.971 386.687 330.527 385.651 329.491L383.875 331.918C385.237 333.25 387.339 333.842 389.411 333.842ZM402.702 328.692H405.78L412.766 311.819H408.977L404.271 323.541L399.505 311.819H395.775L402.702 328.692ZM415.726 314.868C416.881 314.868 417.798 313.95 417.828 312.796C417.828 311.641 416.881 310.724 415.726 310.724C414.601 310.724 413.654 311.641 413.654 312.796C413.654 313.95 414.631 314.868 415.726 314.868ZM414.128 328.692H417.384V316.792H414.128V328.692ZM425.791 328.958C428.277 328.958 430.172 327.922 431.296 326.294L428.869 324.488C428.336 325.317 427.3 325.998 425.791 325.998C424.222 325.998 422.831 325.11 422.623 323.511H431.504C431.563 323.008 431.563 322.683 431.563 322.387C431.563 318.509 428.84 316.555 425.702 316.555C422.09 316.555 419.456 319.249 419.456 322.742C419.515 326.501 422.268 328.958 425.791 328.958ZM422.771 321.321C423.097 319.87 424.429 319.249 425.643 319.249C426.856 319.249 428.04 319.9 428.336 321.321H422.771ZM443.788 328.692H447.015L450.922 316.792H447.429L445.209 324.399L442.782 316.792H440.295L437.898 324.399L435.648 316.792H432.185L436.121 328.692H439.348L441.568 321.942L443.788 328.692Z" fill="white"/>
<path d="M286.458 328.691H279.886V318.39H273.315V311.818H286.428V328.691H286.458ZM299.601 328.691H292.111L299.157 311.818H306.646L299.601 328.691ZM292.082 311.818C294.154 311.818 295.841 313.506 295.841 315.578C295.841 317.65 294.154 319.337 292.082 319.337C290.01 319.337 288.323 317.65 288.323 315.578C288.352 313.506 290.01 311.818 292.082 311.818Z" fill="white"/>
<defs>
<clipPath id="clip0_2621_10430">
<rect width="20" height="20" fill="white" transform="translate(324 248)"/>
</clipPath>
</defs>
</svg>
