<svg width="17" height="16" viewBox="0 0 17 16" fill="none" xmlns="http://www.w3.org/2000/svg">
<path d="M6.93921 11.8329C6.63913 11.8329 6.38548 11.7293 6.17826 11.5221C5.97104 11.3149 5.86743 11.0612 5.86743 10.7611V3.17141C5.86743 2.87132 5.97104 2.61767 6.17826 2.41044C6.38548 2.20322 6.63913 2.09961 6.93921 2.09961H12.9289C13.229 2.09961 13.4827 2.20322 13.6899 2.41044C13.8971 2.61767 14.0007 2.87132 14.0007 3.17141V10.7611C14.0007 11.0612 13.8971 11.3149 13.6899 11.5221C13.4827 11.7293 13.229 11.8329 12.9289 11.8329H6.93921ZM6.93921 10.9663H12.9289C12.9802 10.9663 13.0272 10.9449 13.07 10.9022C13.1127 10.8594 13.1341 10.8124 13.1341 10.7611V3.17141C13.1341 3.12012 13.1127 3.0731 13.07 3.03036C13.0272 2.98763 12.9802 2.96626 12.9289 2.96626H6.93921C6.88793 2.96626 6.84091 2.98763 6.79818 3.03036C6.75544 3.0731 6.73406 3.12012 6.73406 3.17141V10.7611C6.73406 10.8124 6.75544 10.8594 6.79818 10.9022C6.84091 10.9449 6.88793 10.9663 6.93921 10.9663ZM4.87256 13.8995C4.57249 13.8995 4.31884 13.7959 4.11161 13.5887C3.90439 13.3815 3.80078 13.1278 3.80078 12.8278V4.37141H4.66743V12.8278C4.66743 12.879 4.6888 12.9261 4.73153 12.9688C4.77428 13.0115 4.82129 13.0329 4.87256 13.0329H11.7289V13.8995H4.87256Z" fill="white"/>
</svg>
