<svg width="47" height="48" viewBox="0 0 47 48" fill="none" xmlns="http://www.w3.org/2000/svg">
<rect x="0.5" y="1" width="46" height="46" fill="black"/>
<rect x="0.5" y="1" width="46" height="46" stroke="#4D4D4D"/>
<mask id="mask0_940_1738" style="mask-type:alpha" maskUnits="userSpaceOnUse" x="7" y="8" width="33" height="32">
<rect x="7.5" y="8" width="32" height="32" fill="#D9D9D9"/>
</mask>
<g mask="url(#mask0_940_1738)">
<path d="M32.3772 36.6333C32.2166 36.6333 32.067 36.6077 31.9285 36.5564C31.7901 36.5051 31.6585 36.4171 31.5337 36.2923L24.8106 29.582C24.6858 29.4573 24.5978 29.3256 24.5465 29.1872C24.4952 29.0487 24.4696 28.8992 24.4696 28.7385C24.4696 28.5778 24.4952 28.4282 24.5465 28.2897C24.5978 28.1513 24.6858 28.0197 24.8106 27.8949L27.3362 25.3693C27.461 25.2445 27.5926 25.1564 27.7311 25.1052C27.8695 25.0539 28.0191 25.0282 28.1798 25.0282C28.3405 25.0282 28.49 25.0539 28.6285 25.1052C28.767 25.1564 28.8986 25.2445 29.0234 25.3693L35.7464 32.0923C35.8712 32.2171 35.9593 32.3487 36.0105 32.4872C36.0618 32.6257 36.0875 32.7752 36.0875 32.9359C36.0875 33.0966 36.0618 33.2462 36.0105 33.3846C35.9593 33.5231 35.8712 33.6547 35.7464 33.7795L33.2208 36.2923C33.096 36.4171 32.9644 36.5051 32.826 36.5564C32.6875 36.6077 32.5379 36.6333 32.3772 36.6333ZM32.3772 34.3513L33.7927 32.9359L28.2003 27.3436L26.7849 28.759L32.3772 34.3513ZM14.5901 36.6538C14.4294 36.6538 14.2764 36.6248 14.1311 36.5667C13.9858 36.5085 13.8508 36.4171 13.726 36.2923L11.2209 33.8C11.0961 33.6752 11.0047 33.5402 10.9465 33.3949C10.8884 33.2496 10.8594 33.0966 10.8594 32.9359C10.8594 32.7752 10.8884 32.6235 10.9465 32.4808C11.0047 32.3381 11.0961 32.2043 11.2209 32.0795L18.185 25.1154H20.9927L22.0747 24.0334L16.4978 18.4564H14.5978L10.8978 14.7565L14.2029 11.4514L17.9029 15.1513V17.0513L23.4798 22.6283L27.4234 18.6847L25.4772 16.7385L27.1644 15.0513H23.7695L23.0285 14.3231L27.2875 10.0642L28.0157 10.7924V14.2L29.7028 12.5129L34.7182 17.5026C35.0704 17.8462 35.3358 18.2377 35.5144 18.677C35.693 19.1163 35.7823 19.5813 35.7823 20.0719C35.7823 20.5026 35.708 20.9176 35.5593 21.3167C35.4106 21.7158 35.1943 22.0787 34.9106 22.4052L32.1285 19.6231L30.249 21.5026L28.8362 20.0898L22.385 26.541V29.3538L15.4337 36.2923C15.3089 36.4171 15.1773 36.5085 15.0388 36.5667C14.9004 36.6248 14.7508 36.6538 14.5901 36.6538ZM14.5901 34.3385L20.7055 28.2231V26.8077H19.2901L13.1747 32.9231L14.5901 34.3385ZM14.5901 34.3385L13.1747 32.9231L13.8926 33.6205L14.5901 34.3385Z" fill="white"/>
</g>
</svg>
