<svg width="47" height="48" viewBox="0 0 47 48" fill="none" xmlns="http://www.w3.org/2000/svg">
<rect x="0.5" y="1" width="46" height="46" fill="black"/>
<rect x="0.5" y="1" width="46" height="46" stroke="#FFC83A"/>
<mask id="mask0_217_2859" style="mask-type:alpha" maskUnits="userSpaceOnUse" x="7" y="8" width="33" height="32">
<rect x="7.5" y="8" width="32" height="32" fill="#D9D9D9"/>
</mask>
<g mask="url(#mask0_217_2859)">
<path d="M32.3772 36.6336C32.2166 36.6336 32.067 36.6079 31.9285 36.5567C31.7901 36.5054 31.6585 36.4173 31.5337 36.2926L24.8106 29.5823C24.6858 29.4575 24.5978 29.3259 24.5465 29.1874C24.4952 29.049 24.4696 28.8994 24.4696 28.7387C24.4696 28.578 24.4952 28.4285 24.5465 28.29C24.5978 28.1515 24.6858 28.0199 24.8106 27.8951L27.3362 25.3695C27.461 25.2447 27.5926 25.1567 27.7311 25.1054C27.8695 25.0541 28.0191 25.0285 28.1798 25.0285C28.3405 25.0285 28.49 25.0541 28.6285 25.1054C28.767 25.1567 28.8986 25.2447 29.0234 25.3695L35.7464 32.0926C35.8712 32.2174 35.9593 32.349 36.0105 32.4875C36.0618 32.6259 36.0875 32.7755 36.0875 32.9362C36.0875 33.0968 36.0618 33.2464 36.0105 33.3849C35.9593 33.5234 35.8712 33.655 35.7464 33.7798L33.2208 36.2926C33.096 36.4173 32.9644 36.5054 32.826 36.5567C32.6875 36.6079 32.5379 36.6336 32.3772 36.6336ZM14.5901 36.6541C14.4294 36.6541 14.2764 36.625 14.1311 36.5669C13.9858 36.5088 13.8508 36.4173 13.726 36.2926L11.2209 33.8003C11.0961 33.6755 11.0047 33.5404 10.9465 33.3952C10.8884 33.2498 10.8594 33.0968 10.8594 32.9362C10.8594 32.7755 10.8884 32.6238 10.9465 32.4811C11.0047 32.3383 11.0961 32.2046 11.2209 32.0798L18.185 25.1157H20.9927L22.0747 24.0336L16.4978 18.4567H14.5978L10.8978 14.7567L14.2029 11.4516L17.9029 15.1516V17.0516L23.4798 22.6285L27.4234 18.6849L25.4772 16.7388L27.1644 15.0516H23.7695L23.0285 14.3234L27.2875 10.0645L28.0157 10.7926V14.2003L29.7028 12.5131L34.7182 17.5029C35.0704 17.8465 35.3358 18.2379 35.5144 18.6773C35.693 19.1166 35.7823 19.5815 35.7823 20.0721C35.7823 20.5029 35.708 20.9178 35.5593 21.317C35.4106 21.7161 35.1943 22.0789 34.9106 22.4054L32.1285 19.6234L30.249 21.5029L28.8362 20.09L22.385 26.5413V29.3541L15.4337 36.2926C15.3089 36.4173 15.1773 36.5088 15.0388 36.5669C14.9004 36.625 14.7508 36.6541 14.5901 36.6541Z" fill="#FFC83A"/>
</g>
</svg>
