<svg width="16" height="16" viewBox="0 0 16 16" fill="none" xmlns="http://www.w3.org/2000/svg">
<mask id="mask0_1446_5238" style="mask-type:alpha" maskUnits="userSpaceOnUse" x="0" y="0" width="16" height="16">
<rect width="16" height="16" fill="#D9D9D9"/>
</mask>
<g mask="url(#mask0_1446_5238)">
<path d="M3.80422 13.2667C3.50413 13.2667 3.25048 13.1631 3.04326 12.9559C2.83603 12.7486 2.73242 12.495 2.73242 12.1949V3.8052C2.73242 3.50511 2.83603 3.25145 3.04326 3.04423C3.25048 2.83701 3.50413 2.7334 3.80422 2.7334H7.74264V3.60005H3.80422C3.75293 3.60005 3.70592 3.62142 3.66317 3.66415C3.62044 3.70689 3.59907 3.75391 3.59907 3.8052V12.1949C3.59907 12.2462 3.62044 12.2932 3.66317 12.3359C3.70592 12.3787 3.75293 12.4 3.80422 12.4H12.1939C12.2452 12.4 12.2922 12.3787 12.335 12.3359C12.3777 12.2932 12.3991 12.2462 12.3991 12.1949V8.25648H13.2657V12.1949C13.2657 12.495 13.1621 12.7486 12.9549 12.9559C12.7477 13.1631 12.494 13.2667 12.1939 13.2667H3.80422ZM6.46189 10.1564L5.84267 9.53723L11.7799 3.60005H9.59907V2.7334H13.2657V6.40005H12.3991V4.21927L6.46189 10.1564Z" fill="white"/>
</g>
</svg>
