<svg width="16" height="16" viewBox="0 0 16 16" fill="none" xmlns="http://www.w3.org/2000/svg">
<mask id="mask0_2728_5287" style="mask-type:alpha" maskUnits="userSpaceOnUse" x="0" y="0" width="16" height="16">
<rect width="16" height="16" fill="#D9D9D9"/>
</mask>
<g mask="url(#mask0_2728_5287)">
<path d="M3.60039 13.5984C3.27039 13.5984 2.98789 13.4809 2.75289 13.2459C2.51789 13.0109 2.40039 12.7284 2.40039 12.3984V3.59844C2.40039 3.26844 2.51789 2.98594 2.75289 2.75094C2.98789 2.51594 3.27039 2.39844 3.60039 2.39844H8.00039V3.59844H3.60039V12.3984H12.4004V7.99844H13.6004V12.3984C13.6004 12.7284 13.4829 13.0109 13.2479 13.2459C13.0129 13.4809 12.7304 13.5984 12.4004 13.5984H3.60039ZM6.45039 10.3984L5.60039 9.54844L11.5504 3.59844H9.60039V2.39844H13.6004V6.39844H12.4004V4.44844L6.45039 10.3984Z" fill="white"/>
</g>
</svg>
