<svg width="28" height="28" viewBox="0 0 28 28" fill="none" xmlns="http://www.w3.org/2000/svg">
<rect x="0.5" y="0.5" width="27" height="27" fill="black"/>
<rect x="0.5" y="0.5" width="27" height="27" stroke="#FFC83A"/>
<mask id="mask0_1446_1210" style="mask-type:alpha" maskUnits="userSpaceOnUse" x="5" y="5" width="18" height="18">
<rect x="5" y="5" width="18" height="18" fill="#D9D9D9"/>
</mask>
<g mask="url(#mask0_1446_1210)">
<path d="M9.04922 20.3002C8.67797 20.3002 8.36016 20.168 8.09578 19.9036C7.83141 19.6393 7.69922 19.3214 7.69922 18.9502V9.0502C7.69922 8.67895 7.83141 8.36113 8.09578 8.09676C8.36016 7.83238 8.67797 7.7002 9.04922 7.7002H13.9992V9.0502H9.04922V18.9502H18.9492V14.0002H20.2992V18.9502C20.2992 19.3214 20.167 19.6393 19.9027 19.9036C19.6383 20.168 19.3205 20.3002 18.9492 20.3002H9.04922ZM12.2555 16.7002L11.2992 15.7439L17.993 9.0502H15.7992V7.7002H20.2992V12.2002H18.9492V10.0064L12.2555 16.7002Z" fill="white"/>
</g>
</svg>
