<svg width="1457" height="859" viewBox="0 0 1457 859" fill="none" xmlns="http://www.w3.org/2000/svg">
<rect x="1.67957" y="1.67957" width="1453.36" height="855.641" rx="4.84159" fill="#161618"/>
<rect x="1.67957" y="1.67957" width="1453.36" height="855.641" rx="4.84159" stroke="url(#paint0_radial_4116_14304)" stroke-width="2.64087"/>
<mask id="path-2-inside-1_4116_14304" fill="white">
<path d="M20.6058 20.6055H1436.11V55.817H20.6058V20.6055Z"/>
</mask>
<path d="M1436.11 54.9367H20.6058V56.6973H1436.11V54.9367Z" fill="#4D4D4D" mask="url(#path-2-inside-1_4116_14304)"/>
<mask id="path-4-inside-2_4116_14304" fill="white">
<path d="M20.6058 20.6055H140.817V55.817H20.6058V20.6055Z"/>
</mask>
<path d="M140.817 54.0564H20.6058V57.5776H140.817V54.0564Z" fill="#FFC83A" mask="url(#path-4-inside-2_4116_14304)"/>
<path d="M38.9869 26.4643L38.9869 24.8013H48.8964L48.8964 26.4643H44.9014L44.9014 37.6055H42.9757L42.9757 26.4643H38.9869ZM53.5886 37.7993C52.6883 37.7993 51.9026 37.593 51.2316 37.1803C50.5605 36.7677 50.0395 36.1904 49.6686 35.4485C49.2976 34.7066 49.1121 33.8396 49.1121 32.8477C49.1121 31.8515 49.2976 30.9804 49.6686 30.2343C50.0395 29.4882 50.5605 28.9089 51.2316 28.4962C51.9026 28.0836 52.6883 27.8773 53.5886 27.8773C54.4889 27.8773 55.2746 28.0836 55.9456 28.4962C56.6167 28.9089 57.1377 29.4882 57.5086 30.2343C57.8796 30.9804 58.0651 31.8515 58.0651 32.8477C58.0651 33.8396 57.8796 34.7066 57.5086 35.4485C57.1377 36.1904 56.6167 36.7677 55.9456 37.1803C55.2746 37.593 54.4889 37.7993 53.5886 37.7993ZM53.5948 36.23C54.1784 36.23 54.6619 36.0758 55.0453 35.7674C55.4288 35.4589 55.7122 35.0484 55.8956 34.5357C56.0832 34.023 56.1769 33.4583 56.1769 32.8414C56.1769 32.2287 56.0832 31.666 55.8956 31.1534C55.7122 30.6365 55.4288 30.2218 55.0453 29.9092C54.6619 29.5966 54.1784 29.4403 53.5948 29.4403C53.0072 29.4403 52.5195 29.5966 52.1319 29.9092C51.7484 30.2218 51.4629 30.6365 51.2753 31.1534C51.0919 31.666 51.0002 32.2287 51.0002 32.8414C51.0002 33.4583 51.0919 34.023 51.2753 34.5357C51.4629 35.0484 51.7484 35.4589 52.1319 35.7674C52.5195 36.0758 53.0072 36.23 53.5948 36.23ZM60.1517 41.2067L60.1517 28.0023H61.9773L61.9773 29.5591H62.1336C62.242 29.359 62.3983 29.1277 62.6025 28.8651C62.8067 28.6025 63.0901 28.3733 63.4528 28.1774C63.8154 27.9773 64.2947 27.8773 64.8907 27.8773C65.666 27.8773 66.3579 28.0732 66.9664 28.465C67.575 28.8568 68.0522 29.4215 68.3981 30.1593C68.7483 30.897 68.9233 31.7848 68.9233 32.8226C68.9233 33.8605 68.7503 34.7504 68.4044 35.4923C68.0584 36.23 67.5833 36.799 66.9789 37.1991C66.3746 37.595 65.6847 37.793 64.9095 37.793C64.326 37.793 63.8487 37.6951 63.4778 37.4992C63.111 37.3033 62.8234 37.074 62.615 36.8115C62.4066 36.5489 62.2461 36.3155 62.1336 36.1112H62.021L62.021 41.2067H60.1517ZM61.9835 32.8039C61.9835 33.4791 62.0815 34.071 62.2774 34.5795C62.4733 35.088 62.7567 35.486 63.1277 35.7736C63.4986 36.057 63.9529 36.1988 64.4906 36.1988C65.0491 36.1988 65.5159 36.0508 65.8911 35.7549C66.2662 35.4548 66.5496 35.0484 66.7413 34.5357C66.9372 34.023 67.0352 33.4458 67.0352 32.8039C67.0352 32.1704 66.9393 31.6014 66.7476 31.0971C66.56 30.5928 66.2766 30.1947 65.8973 29.9029C65.5222 29.6112 65.0533 29.4653 64.4906 29.4653C63.9488 29.4653 63.4903 29.6049 63.1152 29.8842C62.7442 30.1634 62.4629 30.5532 62.2711 31.0533C62.0794 31.5535 61.9835 32.137 61.9835 32.8039ZM86.4619 28.9651H84.5112C84.4362 28.5483 84.2966 28.1815 84.0923 27.8648C83.8881 27.548 83.638 27.2792 83.3421 27.0583C83.0462 26.8374 82.7148 26.6706 82.348 26.5581C81.9854 26.4456 81.5999 26.3893 81.1914 26.3893C80.4537 26.3893 79.793 26.5748 79.2095 26.9457C78.6301 27.3167 78.1717 27.8606 77.834 28.5775C77.5006 29.2944 77.3339 30.1697 77.3339 31.2034C77.3339 32.2454 77.5006 33.1248 77.834 33.8417C78.1717 34.5586 78.6322 35.1005 79.2157 35.4673C79.7993 35.8341 80.4557 36.0174 81.1851 36.0174C81.5894 36.0174 81.9729 35.9633 82.3355 35.8549C82.7023 35.7424 83.0337 35.5777 83.3296 35.361C83.6255 35.1442 83.8756 34.8796 84.0798 34.567C84.2882 34.2502 84.432 33.8876 84.5112 33.4791L86.4619 33.4854C86.3577 34.1147 86.1555 34.6941 85.8554 35.2234C85.5595 35.7486 85.1781 36.2029 84.7113 36.5864C84.2487 36.9657 83.7193 37.2595 83.1233 37.4679C82.5273 37.6763 81.877 37.7805 81.1726 37.7805C80.0639 37.7805 79.0761 37.5179 78.2092 36.9928C77.3422 36.4634 76.6587 35.7069 76.1585 34.7233C75.6625 33.7396 75.4145 32.5663 75.4145 31.2034C75.4145 29.8363 75.6646 28.663 76.1647 27.6835C76.6649 26.6998 77.3485 25.9454 78.2154 25.4202C79.0824 24.8909 80.0681 24.6262 81.1726 24.6262C81.852 24.6262 82.4856 24.7242 83.0733 24.9201C83.6651 25.1118 84.1966 25.3952 84.6675 25.7703C85.1385 26.1413 85.5282 26.5956 85.8367 27.1333C86.1451 27.6668 86.3535 28.2774 86.4619 28.9651ZM92.6686 37.7993C91.7683 37.7993 90.9826 37.593 90.3116 37.1803C89.6405 36.7677 89.1195 36.1904 88.7486 35.4485C88.3776 34.7066 88.1921 33.8396 88.1921 32.8477C88.1921 31.8515 88.3776 30.9804 88.7486 30.2343C89.1195 29.4882 89.6405 28.9089 90.3116 28.4962C90.9826 28.0836 91.7683 27.8773 92.6686 27.8773C93.5689 27.8773 94.3546 28.0836 95.0256 28.4962C95.6967 28.9089 96.2177 29.4882 96.5886 30.2343C96.9596 30.9804 97.1451 31.8515 97.1451 32.8477C97.1451 33.8396 96.9596 34.7066 96.5886 35.4485C96.2177 36.1904 95.6967 36.7677 95.0256 37.1803C94.3546 37.593 93.5689 37.7993 92.6686 37.7993ZM92.6749 36.23C93.2584 36.23 93.7419 36.0758 94.1253 35.7674C94.5088 35.4589 94.7922 35.0484 94.9756 34.5357C95.1632 34.023 95.257 33.4583 95.257 32.8414C95.257 32.2287 95.1632 31.666 94.9756 31.1534C94.7922 30.6365 94.5088 30.2218 94.1253 29.9092C93.7419 29.5966 93.2584 29.4403 92.6749 29.4403C92.0872 29.4403 91.5995 29.5966 91.2119 29.9092C90.8284 30.2218 90.5429 30.6365 90.3553 31.1534C90.172 31.666 90.0803 32.2287 90.0803 32.8414C90.0803 33.4583 90.172 34.023 90.3553 34.5357C90.5429 35.0484 90.8284 35.4589 91.2119 35.7674C91.5995 36.0758 92.0872 36.23 92.6749 36.23ZM99.2317 37.6055L99.2317 28.0023H101.101L101.101 37.6055H99.2317ZM100.176 26.5206C99.8506 26.5206 99.5714 26.4122 99.338 26.1955C99.1087 25.9746 98.9941 25.712 98.9941 25.4077C98.9941 25.0993 99.1087 24.8367 99.338 24.62C99.5714 24.3991 99.8506 24.2886 100.176 24.2886C100.501 24.2886 100.778 24.3991 101.007 24.62C101.241 24.8367 101.357 25.0993 101.357 25.4077C101.357 25.712 101.241 25.9746 101.007 26.1955C100.778 26.4122 100.501 26.5206 100.176 26.5206ZM105.485 31.9036L105.485 37.6055H103.616L103.616 28.0023H105.41V29.5653H105.529C105.75 29.0568 106.096 28.6484 106.567 28.3399C107.042 28.0315 107.64 27.8773 108.361 27.8773C109.016 27.8773 109.589 28.0148 110.081 28.2899C110.572 28.5608 110.954 28.9651 111.225 29.5028C111.496 30.0405 111.631 30.7053 111.631 31.4972L111.631 37.6055H109.762L109.762 31.7223C109.762 31.0262 109.58 30.4823 109.218 30.0905C108.855 29.6945 108.357 29.4966 107.724 29.4966C107.29 29.4966 106.905 29.5903 106.567 29.7779C106.233 29.9655 105.969 30.2406 105.773 30.6032C105.581 30.9616 105.485 31.3951 105.485 31.9036ZM121.334 30.3468L119.64 30.6469C119.569 30.4302 119.457 30.2239 119.302 30.028C119.152 29.8321 118.948 29.6716 118.69 29.5466C118.431 29.4215 118.108 29.359 117.721 29.359C117.191 29.359 116.749 29.4778 116.395 29.7154C116.041 29.9488 115.864 30.251 115.864 30.6219C115.864 30.9429 115.983 31.2013 116.22 31.3972C116.458 31.5931 116.841 31.7535 117.37 31.8786L118.896 32.2287C119.78 32.4329 120.438 32.7476 120.872 33.1728C121.305 33.5979 121.522 34.1502 121.522 34.8296C121.522 35.4047 121.355 35.9174 121.022 36.3676C120.692 36.8135 120.232 37.1637 119.64 37.4179C119.052 37.6722 118.371 37.7993 117.596 37.7993C116.52 37.7993 115.643 37.57 114.963 37.1116C114.284 36.6489 113.867 35.9924 113.713 35.1422L115.52 34.8671C115.632 35.3381 115.864 35.6944 116.214 35.9362C116.564 36.1737 117.02 36.2925 117.583 36.2925C118.196 36.2925 118.685 36.1654 119.052 35.9112C119.419 35.6527 119.602 35.3381 119.602 34.9671C119.602 34.667 119.49 34.4148 119.265 34.2106C119.044 34.0064 118.704 33.8522 118.246 33.748L116.62 33.3916C115.724 33.1874 115.061 32.8622 114.632 32.4163C114.207 31.9703 113.994 31.4055 113.994 30.722C113.994 30.1551 114.153 29.6591 114.47 29.234C114.786 28.8088 115.224 28.4775 115.782 28.2399C116.341 27.9981 116.981 27.8773 117.702 27.8773C118.74 27.8773 119.557 28.1024 120.153 28.5525C120.749 28.9985 121.143 29.5966 121.334 30.3468Z" fill="white"/>
<path d="M176.879 26.1767V24.8013H186.482V26.1767H182.456L182.456 37.6055H180.906L180.906 26.1767H176.879ZM187.678 37.6055L187.678 28.0023H189.104V29.4528H189.204C189.379 28.9776 189.696 28.5921 190.154 28.2962C190.612 28.0002 191.129 27.8523 191.705 27.8523C191.813 27.8523 191.948 27.8544 192.111 27.8585C192.273 27.8627 192.396 27.8689 192.48 27.8773V29.3778C192.43 29.3653 192.315 29.3465 192.136 29.3215C191.961 29.2923 191.775 29.2777 191.579 29.2777C191.113 29.2777 190.696 29.3757 190.329 29.5716C189.966 29.7633 189.679 30.0301 189.466 30.3718C189.258 30.7095 189.154 31.095 189.154 31.5285L189.154 37.6055H187.678ZM197.963 37.8055C197.038 37.8055 196.239 37.6013 195.568 37.1928C194.901 36.7802 194.387 36.205 194.024 35.4673C193.666 34.7254 193.486 33.8626 193.486 32.8789C193.486 31.8953 193.666 31.0283 194.024 30.2781C194.387 29.5236 194.891 28.936 195.537 28.515C196.187 28.0898 196.946 27.8773 197.813 27.8773C198.313 27.8773 198.807 27.9606 199.294 28.1274C199.782 28.2941 200.226 28.565 200.626 28.9401C201.026 29.3111 201.345 29.8029 201.583 30.4156C201.82 31.0283 201.939 31.7827 201.939 32.6789V33.3041H194.537V32.0286H200.439C200.439 31.4868 200.33 31.0033 200.114 30.5782C199.901 30.153 199.597 29.8175 199.201 29.5716C198.809 29.3257 198.346 29.2027 197.813 29.2027C197.225 29.2027 196.717 29.3486 196.287 29.6404C195.862 29.9279 195.535 30.3031 195.306 30.7657C195.076 31.2284 194.962 31.7244 194.962 32.2537V33.104C194.962 33.8292 195.087 34.444 195.337 34.9483C195.591 35.4485 195.943 35.8299 196.394 36.0925C196.844 36.3509 197.367 36.4801 197.963 36.4801C198.35 36.4801 198.701 36.4259 199.013 36.3175C199.33 36.205 199.603 36.0383 199.832 35.8174C200.061 35.5923 200.239 35.313 200.364 34.9796L201.789 35.3797C201.639 35.8632 201.387 36.2884 201.033 36.6552C200.678 37.0178 200.241 37.3012 199.72 37.5054C199.199 37.7055 198.613 37.8055 197.963 37.8055ZM205.659 31.8286L205.659 37.6055H204.184L204.184 28.0023H205.609V29.5028H205.734C205.959 29.0151 206.301 28.6234 206.759 28.3274C207.218 28.0273 207.81 27.8773 208.535 27.8773C209.185 27.8773 209.754 28.0107 210.242 28.2774C210.73 28.54 211.109 28.9401 211.38 29.4778C211.651 30.0113 211.786 30.6865 211.786 31.5035L211.786 37.6055H210.311L210.311 31.6035C210.311 30.8491 210.115 30.2614 209.723 29.8404C209.331 29.4153 208.793 29.2027 208.11 29.2027C207.639 29.2027 207.218 29.3048 206.847 29.5091C206.48 29.7133 206.191 30.0113 205.978 30.4031C205.765 30.7949 205.659 31.2701 205.659 31.8286ZM218.108 37.8055C217.308 37.8055 216.602 37.6034 215.989 37.1991C215.376 36.7906 214.897 36.2154 214.551 35.4735C214.205 34.7274 214.032 33.8459 214.032 32.8289C214.032 31.8202 214.205 30.9449 214.551 30.203C214.897 29.4611 215.378 28.888 215.995 28.4837C216.612 28.0794 217.325 27.8773 218.133 27.8773C218.759 27.8773 219.253 27.9815 219.615 28.1899C219.982 28.3941 220.261 28.6275 220.453 28.8901C220.649 29.1485 220.801 29.3611 220.909 29.5278H221.034L221.034 24.8013H222.51L222.51 37.6055H221.084V36.13H220.909C220.801 36.305 220.647 36.5259 220.447 36.7927C220.247 37.0553 219.961 37.2908 219.59 37.4992C219.219 37.7034 218.725 37.8055 218.108 37.8055ZM218.309 36.4801C218.9 36.4801 219.401 36.3259 219.809 36.0174C220.218 35.7048 220.528 35.2735 220.741 34.7233C220.953 34.1689 221.059 33.5291 221.059 32.8039C221.059 32.087 220.955 31.4597 220.747 30.922C220.538 30.3802 220.23 29.9592 219.822 29.6591C219.413 29.3548 218.909 29.2027 218.309 29.2027C217.683 29.2027 217.162 29.3632 216.746 29.6841C216.333 30.0009 216.022 30.4323 215.814 30.9783C215.61 31.5201 215.508 32.1287 215.508 32.8039C215.508 33.4875 215.612 34.1085 215.82 34.667C216.033 35.2214 216.345 35.6632 216.758 35.9924C217.175 36.3175 217.692 36.4801 218.309 36.4801ZM225.417 37.6055L225.417 28.0023H226.893L226.893 37.6055H225.417ZM226.167 26.4018C225.88 26.4018 225.632 26.3038 225.423 26.1079C225.219 25.912 225.117 25.6766 225.117 25.4015C225.117 25.1264 225.219 24.8909 225.423 24.695C225.632 24.4991 225.88 24.4011 226.167 24.4011C226.455 24.4011 226.701 24.4991 226.905 24.695C227.114 24.8909 227.218 25.1264 227.218 25.4015C227.218 25.6766 227.114 25.912 226.905 26.1079C226.701 26.3038 226.455 26.4018 226.167 26.4018ZM231.071 31.8286L231.071 37.6055H229.595L229.595 28.0023H231.021V29.5028H231.146C231.371 29.0151 231.712 28.6234 232.171 28.3274C232.629 28.0273 233.221 27.8773 233.947 27.8773C234.597 27.8773 235.166 28.0107 235.653 28.2774C236.141 28.54 236.52 28.9401 236.791 29.4778C237.062 30.0113 237.198 30.6865 237.198 31.5035L237.198 37.6055H235.722L235.722 31.6035C235.722 30.8491 235.526 30.2614 235.134 29.8404C234.743 29.4153 234.205 29.2027 233.521 29.2027C233.05 29.2027 232.629 29.3048 232.258 29.5091C231.892 29.7133 231.602 30.0113 231.389 30.4031C231.177 30.7949 231.071 31.2701 231.071 31.8286ZM243.77 41.4067C243.057 41.4067 242.445 41.315 241.932 41.1316C241.419 40.9524 240.992 40.7148 240.65 40.4189C240.313 40.1271 240.044 39.8145 239.844 39.4811L241.019 38.6558C241.153 38.8309 241.321 39.0309 241.526 39.256C241.73 39.4853 242.009 39.6832 242.363 39.85C242.722 40.0208 243.191 40.1063 243.77 40.1063C244.545 40.1063 245.185 39.9187 245.689 39.5436C246.194 39.1685 246.446 38.5808 246.446 37.7805V35.8299H246.321C246.213 36.0049 246.058 36.2217 245.858 36.4801C245.662 36.7343 245.379 36.9615 245.008 37.1616C244.641 37.3575 244.145 37.4554 243.52 37.4554C242.745 37.4554 242.049 37.272 241.432 36.9052C240.819 36.5385 240.333 36.0049 239.975 35.3047C239.621 34.6045 239.444 33.7542 239.444 32.7539C239.444 31.7702 239.617 30.9137 239.963 30.1843C240.308 29.4507 240.79 28.8839 241.407 28.4837C242.024 28.0794 242.736 27.8773 243.545 27.8773C244.17 27.8773 244.666 27.9815 245.033 28.1899C245.404 28.3941 245.687 28.6275 245.883 28.8901C246.083 29.1485 246.238 29.3611 246.346 29.5278H246.496V28.0023H247.921L247.921 37.8806C247.921 38.7058 247.734 39.3769 247.359 39.8937C246.988 40.4147 246.488 40.7961 245.858 41.0378C245.233 41.2838 244.537 41.4067 243.77 41.4067ZM243.72 36.13C244.312 36.13 244.812 35.9945 245.221 35.7236C245.629 35.4527 245.939 35.063 246.152 34.5545C246.365 34.046 246.471 33.4374 246.471 32.7289C246.471 32.037 246.367 31.4264 246.158 30.897C245.95 30.3677 245.641 29.953 245.233 29.6529C244.825 29.3528 244.32 29.2027 243.72 29.2027C243.095 29.2027 242.574 29.3611 242.157 29.6779C241.744 29.9946 241.434 30.4198 241.225 30.9533C241.021 31.4868 240.919 32.0787 240.919 32.7289C240.919 33.3958 241.023 33.9855 241.232 34.4982C241.444 35.0067 241.757 35.4068 242.17 35.6986C242.586 35.9862 243.103 36.13 243.72 36.13Z" fill="#8D8D8D"/>
<path d="M314.55 24.8013L314.55 37.6055H313.05L306.072 27.5522H305.947L305.947 37.6055H304.397L304.397 24.8013H305.897L312.9 34.8796H313.025L313.025 24.8013H314.55ZM321.479 37.8055C320.554 37.8055 319.756 37.6013 319.084 37.1928C318.418 36.7802 317.903 36.205 317.54 35.4673C317.182 34.7254 317.003 33.8626 317.003 32.8789C317.003 31.8953 317.182 31.0283 317.54 30.2781C317.903 29.5236 318.407 28.936 319.053 28.515C319.703 28.0898 320.462 27.8773 321.329 27.8773C321.829 27.8773 322.323 27.9606 322.811 28.1274C323.298 28.2941 323.742 28.565 324.142 28.9401C324.542 29.3111 324.861 29.8029 325.099 30.4156C325.337 31.0283 325.455 31.7827 325.455 32.6789V33.3041H318.053V32.0286H323.955C323.955 31.4868 323.846 31.0033 323.63 30.5782C323.417 30.153 323.113 29.8175 322.717 29.5716C322.325 29.3257 321.862 29.2027 321.329 29.2027C320.741 29.2027 320.233 29.3486 319.803 29.6404C319.378 29.9279 319.051 30.3031 318.822 30.7657C318.593 31.2284 318.478 31.7244 318.478 32.2537L318.478 33.104C318.478 33.8292 318.603 34.444 318.853 34.9483C319.107 35.4485 319.46 35.8299 319.91 36.0925C320.36 36.3509 320.883 36.4801 321.479 36.4801C321.867 36.4801 322.217 36.4259 322.529 36.3175C322.846 36.205 323.119 36.0383 323.348 35.8174C323.578 35.5923 323.755 35.313 323.88 34.9796L325.305 35.3797C325.155 35.8632 324.903 36.2884 324.549 36.6552C324.194 37.0178 323.757 37.3012 323.236 37.5054C322.715 37.7055 322.129 37.8055 321.479 37.8055ZM329.875 37.6055L326.95 28.0023H328.5L330.576 35.3547H330.676L332.726 28.0023H334.302L336.328 35.3297H336.428L338.503 28.0023H340.054L337.128 37.6055H335.677L333.577 30.228H333.427L331.326 37.6055H329.875ZM347.156 37.6055L347.156 24.8013H351.483C352.487 24.8013 353.308 24.9826 353.946 25.3452C354.588 25.7036 355.063 26.1892 355.371 26.8019C355.68 27.4146 355.834 28.0982 355.834 28.8526C355.834 29.607 355.68 30.2927 355.371 30.9095C355.067 31.5264 354.596 32.0182 353.958 32.385C353.321 32.7476 352.504 32.9289 351.508 32.9289H348.407L348.407 31.5535H351.458C352.145 31.5535 352.698 31.4347 353.114 31.1971C353.531 30.9595 353.833 30.6386 354.021 30.2343C354.213 29.8258 354.309 29.3653 354.309 28.8526C354.309 28.3399 354.213 27.8814 354.021 27.4771C353.833 27.0728 353.529 26.7561 353.108 26.5268C352.687 26.2934 352.129 26.1767 351.433 26.1767H348.707L348.707 37.6055H347.156ZM361.93 37.8055C361.063 37.8055 360.302 37.5992 359.648 37.1866C358.998 36.7739 358.489 36.1967 358.122 35.4548C357.76 34.7129 357.578 33.8459 357.578 32.8539C357.578 31.8536 357.76 30.9804 358.122 30.2343C358.489 29.4882 358.998 28.9089 359.648 28.4962C360.302 28.0836 361.063 27.8773 361.93 27.8773C362.797 27.8773 363.555 28.0836 364.206 28.4962C364.86 28.9089 365.368 29.4882 365.731 30.2343C366.098 30.9804 366.281 31.8536 366.281 32.8539C366.281 33.8459 366.098 34.7129 365.731 35.4548C365.368 36.1967 364.86 36.7739 364.206 37.1866C363.555 37.5992 362.797 37.8055 361.93 37.8055ZM361.93 36.4801C362.588 36.4801 363.13 36.3113 363.555 35.9737C363.98 35.6361 364.295 35.1922 364.499 34.642C364.704 34.0918 364.806 33.4958 364.806 32.8539C364.806 32.212 364.704 31.6139 364.499 31.0596C364.295 30.5052 363.98 30.0572 363.555 29.7154C363.13 29.3736 362.588 29.2027 361.93 29.2027C361.271 29.2027 360.729 29.3736 360.304 29.7154C359.879 30.0572 359.564 30.5052 359.36 31.0596C359.156 31.6139 359.054 32.212 359.054 32.8539C359.054 33.4958 359.156 34.0918 359.36 34.642C359.564 35.1922 359.879 35.6361 360.304 35.9737C360.729 36.3113 361.271 36.4801 361.93 36.4801ZM372.435 37.8055C371.568 37.8055 370.807 37.5992 370.153 37.1866C369.503 36.7739 368.994 36.1967 368.627 35.4548C368.265 34.7129 368.083 33.8459 368.083 32.8539C368.083 31.8536 368.265 30.9804 368.627 30.2343C368.994 29.4882 369.503 28.9089 370.153 28.4962C370.807 28.0836 371.568 27.8773 372.435 27.8773C373.302 27.8773 374.06 28.0836 374.711 28.4962C375.365 28.9089 375.873 29.4882 376.236 30.2343C376.603 30.9804 376.786 31.8536 376.786 32.8539C376.786 33.8459 376.603 34.7129 376.236 35.4548C375.873 36.1967 375.365 36.7739 374.711 37.1866C374.06 37.5992 373.302 37.8055 372.435 37.8055ZM372.435 36.4801C373.093 36.4801 373.635 36.3113 374.06 35.9737C374.485 35.6361 374.8 35.1922 375.004 34.642C375.209 34.0918 375.311 33.4958 375.311 32.8539C375.311 32.212 375.209 31.6139 375.004 31.0596C374.8 30.5052 374.485 30.0572 374.06 29.7154C373.635 29.3736 373.093 29.2027 372.435 29.2027C371.776 29.2027 371.234 29.3736 370.809 29.7154C370.384 30.0572 370.069 30.5052 369.865 31.0596C369.661 31.6139 369.559 32.212 369.559 32.8539C369.559 33.4958 369.661 34.0918 369.865 34.642C370.069 35.1922 370.384 35.6361 370.809 35.9737C371.234 36.3113 371.776 36.4801 372.435 36.4801ZM380.514 24.8013L380.514 37.6055H379.039L379.039 24.8013H380.514ZM390.019 30.153L388.693 30.5281C388.61 30.3072 388.487 30.0926 388.324 29.8842C388.166 29.6716 387.949 29.4966 387.674 29.359C387.399 29.2215 387.047 29.1527 386.618 29.1527C386.03 29.1527 385.54 29.2882 385.148 29.5591C384.761 29.8258 384.567 30.1655 384.567 30.5782C384.567 30.9449 384.7 31.2346 384.967 31.4472C385.234 31.6598 385.651 31.8369 386.217 31.9786L387.643 32.3287C388.502 32.5371 389.141 32.856 389.562 33.2853C389.983 33.7104 390.194 34.2585 390.194 34.9296C390.194 35.4798 390.035 35.9716 389.719 36.4051C389.406 36.8386 388.968 37.1803 388.406 37.4304C387.843 37.6805 387.189 37.8055 386.442 37.8055C385.463 37.8055 384.652 37.593 384.01 37.1678C383.369 36.7427 382.962 36.1216 382.791 35.3047L384.192 34.9546C384.325 35.4714 384.577 35.8591 384.948 36.1175C385.323 36.3759 385.813 36.5051 386.417 36.5051C387.105 36.5051 387.651 36.3592 388.056 36.0675C388.464 35.7715 388.668 35.4173 388.668 35.0046C388.668 34.6712 388.552 34.3919 388.318 34.1668C388.085 33.9376 387.726 33.7667 387.243 33.6542L385.642 33.279C384.763 33.0706 384.117 32.7476 383.704 32.31C383.296 31.8682 383.091 31.3159 383.091 30.6532C383.091 30.1113 383.244 29.632 383.548 29.2152C383.856 28.7984 384.275 28.4712 384.804 28.2336C385.338 27.9961 385.942 27.8773 386.618 27.8773C387.568 27.8773 388.314 28.0857 388.856 28.5025C389.402 28.9193 389.789 29.4695 390.019 30.153Z" fill="#8D8D8D"/>
<path d="M447.765 24.8013L447.765 37.6055H446.214L446.214 24.8013H447.765ZM452.149 31.8286L452.149 37.6055H450.673L450.673 28.0023H452.099V29.5028H452.224C452.449 29.0151 452.791 28.6234 453.249 28.3274C453.708 28.0273 454.3 27.8773 455.025 27.8773C455.675 27.8773 456.244 28.0107 456.732 28.2774C457.219 28.54 457.599 28.9401 457.87 29.4778C458.14 30.0113 458.276 30.6865 458.276 31.5035L458.276 37.6055H456.8L456.8 31.6035C456.8 30.8491 456.605 30.2614 456.213 29.8404C455.821 29.4153 455.283 29.2027 454.6 29.2027C454.129 29.2027 453.708 29.3048 453.337 29.5091C452.97 29.7133 452.68 30.0113 452.468 30.4031C452.255 30.7949 452.149 31.2701 452.149 31.8286ZM468.481 28.0023L464.93 37.6055H463.429L459.878 28.0023H461.479L464.129 35.6548H464.229L466.88 28.0023H468.481ZM474.111 37.8055C473.185 37.8055 472.387 37.6013 471.716 37.1928C471.049 36.7802 470.535 36.205 470.172 35.4673C469.814 34.7254 469.634 33.8626 469.634 32.8789C469.634 31.8953 469.814 31.0283 470.172 30.2781C470.535 29.5236 471.039 28.936 471.685 28.515C472.335 28.0898 473.094 27.8773 473.961 27.8773C474.461 27.8773 474.955 27.9606 475.442 28.1274C475.93 28.2941 476.374 28.565 476.774 28.9401C477.174 29.3111 477.493 29.8029 477.731 30.4156C477.968 31.0283 478.087 31.7827 478.087 32.6789V33.3041H470.685V32.0286H476.587C476.587 31.4868 476.478 31.0033 476.262 30.5782C476.049 30.153 475.745 29.8175 475.349 29.5716C474.957 29.3257 474.494 29.2027 473.961 29.2027C473.373 29.2027 472.865 29.3486 472.435 29.6404C472.01 29.9279 471.683 30.3031 471.454 30.7657C471.224 31.2284 471.11 31.7244 471.11 32.2537L471.11 33.104C471.11 33.8292 471.235 34.444 471.485 34.9483C471.739 35.4485 472.091 35.8299 472.542 36.0925C472.992 36.3509 473.515 36.4801 474.111 36.4801C474.498 36.4801 474.849 36.4259 475.161 36.3175C475.478 36.205 475.751 36.0383 475.98 35.8174C476.209 35.5923 476.387 35.313 476.512 34.9796L477.937 35.3797C477.787 35.8632 477.535 36.2884 477.181 36.6552C476.826 37.0178 476.389 37.3012 475.868 37.5054C475.347 37.7055 474.761 37.8055 474.111 37.8055ZM481.807 31.8286L481.807 37.6055H480.332L480.332 28.0023H481.757V29.5028H481.882C482.107 29.0151 482.449 28.6234 482.907 28.3274C483.366 28.0273 483.958 27.8773 484.683 27.8773C485.333 27.8773 485.902 28.0107 486.39 28.2774C486.877 28.54 487.257 28.9401 487.528 29.4778C487.799 30.0113 487.934 30.6865 487.934 31.5035L487.934 37.6055H486.459L486.459 31.6035C486.459 30.8491 486.263 30.2614 485.871 29.8404C485.479 29.4153 484.941 29.2027 484.258 29.2027C483.787 29.2027 483.366 29.3048 482.995 29.5091C482.628 29.7133 482.338 30.0113 482.126 30.4031C481.913 30.7949 481.807 31.2701 481.807 31.8286ZM494.807 28.0023V29.2527H489.83V28.0023H494.807ZM491.28 25.7016H492.756L492.756 34.8546C492.756 35.2714 492.816 35.584 492.937 35.7924C493.062 35.9966 493.221 36.1342 493.412 36.205C493.608 36.2717 493.815 36.305 494.031 36.305C494.194 36.305 494.327 36.2967 494.432 36.28C494.536 36.2592 494.619 36.2425 494.682 36.23L494.982 37.5555C494.882 37.593 494.742 37.6305 494.563 37.668C494.384 37.7097 494.156 37.7305 493.881 37.7305C493.465 37.7305 493.056 37.6409 492.656 37.4617C492.26 37.2824 491.931 37.0094 491.668 36.6427C491.41 36.2759 491.28 35.8132 491.28 35.2547L491.28 25.7016ZM500.824 37.8055C499.957 37.8055 499.197 37.5992 498.542 37.1866C497.892 36.7739 497.384 36.1967 497.017 35.4548C496.654 34.7129 496.473 33.8459 496.473 32.8539C496.473 31.8536 496.654 30.9804 497.017 30.2343C497.384 29.4882 497.892 28.9089 498.542 28.4962C499.197 28.0836 499.957 27.8773 500.824 27.8773C501.691 27.8773 502.45 28.0836 503.1 28.4962C503.754 28.9089 504.263 29.4882 504.626 30.2343C504.992 30.9804 505.176 31.8536 505.176 32.8539C505.176 33.8459 504.992 34.7129 504.626 35.4548C504.263 36.1967 503.754 36.7739 503.1 37.1866C502.45 37.5992 501.691 37.8055 500.824 37.8055ZM500.824 36.4801C501.483 36.4801 502.025 36.3113 502.45 35.9737C502.875 35.6361 503.19 35.1922 503.394 34.642C503.598 34.0918 503.7 33.4958 503.7 32.8539C503.7 32.212 503.598 31.6139 503.394 31.0596C503.19 30.5052 502.875 30.0572 502.45 29.7154C502.025 29.3736 501.483 29.2027 500.824 29.2027C500.166 29.2027 499.624 29.3736 499.199 29.7154C498.774 30.0572 498.459 30.5052 498.255 31.0596C498.05 31.6139 497.948 32.212 497.948 32.8539C497.948 33.4958 498.05 34.0918 498.255 34.642C498.459 35.1922 498.774 35.6361 499.199 35.9737C499.624 36.3113 500.166 36.4801 500.824 36.4801ZM507.428 37.6055L507.428 28.0023H508.853V29.4528H508.953C509.129 28.9776 509.445 28.5921 509.904 28.2962C510.362 28.0002 510.879 27.8523 511.454 27.8523C511.563 27.8523 511.698 27.8544 511.861 27.8585C512.023 27.8627 512.146 27.8689 512.23 27.8773V29.3778C512.18 29.3653 512.065 29.3465 511.886 29.3215C511.711 29.2923 511.525 29.2777 511.329 29.2777C510.862 29.2777 510.446 29.3757 510.079 29.5716C509.716 29.7633 509.429 30.0301 509.216 30.3718C509.008 30.7095 508.903 31.095 508.903 31.5285L508.903 37.6055H507.428ZM515.221 41.2067C514.971 41.2067 514.748 41.1858 514.552 41.1441C514.356 41.1066 514.221 41.0691 514.146 41.0316L514.521 39.7312C514.879 39.8229 515.196 39.8562 515.471 39.8312C515.746 39.8062 515.99 39.6832 516.203 39.4623C516.419 39.2456 516.617 38.8934 516.797 38.4057L517.072 37.6555L513.521 28.0023H515.121L517.772 35.6548H517.872L520.523 28.0023H522.123L518.047 39.0059C517.864 39.5019 517.637 39.9125 517.366 40.2376C517.095 40.5669 516.78 40.8107 516.422 40.9691C516.067 41.1275 515.667 41.2067 515.221 41.2067Z" fill="#8D8D8D"/>
<rect x="834.308" y="21.0456" width="210.557" height="34.3313" fill="#1C1C1F"/>
<rect x="834.308" y="21.0456" width="210.557" height="34.3313" stroke="#4D4D4D" stroke-width="0.880289"/>
<rect x="834.308" y="21.0456" width="38.7255" height="34.3313" fill="#FFC83A"/>
<rect x="834.308" y="21.0456" width="38.7255" height="34.3313" fill="black"/>
<rect x="834.308" y="21.0456" width="38.7255" height="34.3313" stroke="#4D4D4D" stroke-width="0.880289"/>
<path d="M846.751 34.0284L846.751 41.7109H845.588V35.1913H845.543L843.705 36.3917V35.2813L845.622 34.0284H846.751ZM851.504 41.8385C850.911 41.836 850.404 41.6797 849.984 41.3696C849.564 41.0595 849.243 40.6081 849.02 40.0154C848.798 39.4227 848.686 38.7087 848.686 37.8734C848.686 37.0407 848.798 36.3292 849.02 35.739C849.245 35.1488 849.568 34.6986 849.988 34.3885C850.411 34.0784 850.916 33.9234 851.504 33.9234C852.091 33.9234 852.595 34.0797 853.015 34.3923C853.435 34.7024 853.757 35.1525 853.979 35.7427C854.204 36.3304 854.317 37.0407 854.317 37.8734C854.317 38.7112 854.206 39.4264 853.983 40.0191C853.761 40.6093 853.439 41.0607 853.019 41.3733C852.599 41.6834 852.094 41.8385 851.504 41.8385ZM851.504 40.8369C852.024 40.8369 852.43 40.5831 852.723 40.0754C853.018 39.5677 853.165 38.8337 853.165 37.8734C853.165 37.2357 853.098 36.6968 852.963 36.2566C852.83 35.814 852.639 35.4789 852.389 35.2513C852.141 35.0212 851.846 34.9062 851.504 34.9062C850.986 34.9062 850.58 35.1613 850.284 35.6715C849.989 36.1816 849.841 36.9156 849.838 37.8734C849.838 38.5136 849.904 39.0551 850.037 39.4977C850.172 39.9379 850.363 40.2717 850.611 40.4993C850.858 40.7244 851.156 40.8369 851.504 40.8369ZM855.663 41.7109V35.949H856.739V36.8869H856.811C856.931 36.5692 857.127 36.3217 857.4 36.1441C857.672 35.9641 857.999 35.874 858.379 35.874C858.764 35.874 859.086 35.9641 859.346 36.1441C859.609 36.3242 859.803 36.5718 859.928 36.8869H859.988C860.125 36.5793 860.344 36.3342 860.644 36.1516C860.945 35.9666 861.302 35.874 861.717 35.874C862.24 35.874 862.666 36.0378 862.996 36.3654C863.329 36.693 863.495 37.187 863.495 37.8472L863.495 41.7109H862.374L862.374 37.9522C862.374 37.5621 862.267 37.2795 862.055 37.1044C861.842 36.9294 861.588 36.8418 861.293 36.8418C860.928 36.8418 860.644 36.9544 860.442 37.1795C860.239 37.402 860.138 37.6884 860.138 38.0385L860.138 41.7109H859.02L859.02 37.8809C859.02 37.5683 858.923 37.317 858.728 37.1269C858.532 36.9369 858.279 36.8418 857.966 36.8418C857.753 36.8418 857.557 36.8981 857.377 37.0106C857.2 37.1207 857.056 37.2745 856.946 37.472C856.838 37.6696 856.784 37.8984 856.784 38.1585V41.7109H855.663Z" fill="#FFC83A"/>
<path d="M895.059 34.0284L895.059 41.7109H893.897V35.1913H893.852L892.013 36.3917V35.2813L893.93 34.0284H895.059ZM898.274 38.2898V41.7109H897.153V34.0284H898.259V36.8869H898.331C898.466 36.5768 898.672 36.3304 898.95 36.1479C899.227 35.9653 899.59 35.874 900.037 35.874C900.433 35.874 900.778 35.9553 901.073 36.1179C901.37 36.2804 901.6 36.523 901.763 36.8456C901.928 37.1657 902.011 37.5658 902.011 38.046L902.011 41.7109H900.889V38.181C900.889 37.7584 900.78 37.4308 900.563 37.1982C900.345 36.9631 900.042 36.8456 899.655 36.8456C899.39 36.8456 899.152 36.9019 898.942 37.0144C898.734 37.1269 898.571 37.292 898.451 37.5096C898.333 37.7246 898.274 37.9847 898.274 38.2898Z" fill="#8D8D8D"/>
<path d="M924.571 41.816C924.229 41.811 923.891 41.7484 923.558 41.6284C923.228 41.5084 922.928 41.3083 922.658 41.0282C922.388 40.7481 922.172 40.3717 922.009 39.8991C921.849 39.4264 921.769 38.8362 921.769 38.1285C921.769 37.4583 921.835 36.8631 921.968 36.3429C922.103 35.8228 922.297 35.3839 922.549 35.0262C922.802 34.6661 923.107 34.3923 923.465 34.2047C923.822 34.0172 924.224 33.9234 924.669 33.9234C925.126 33.9234 925.533 34.0134 925.888 34.1935C926.243 34.3735 926.531 34.6224 926.751 34.94C926.973 35.2576 927.115 35.6189 927.175 36.0241H926.031C925.953 35.704 925.799 35.4426 925.569 35.2401C925.339 35.0375 925.039 34.9362 924.669 34.9362C924.106 34.9362 923.667 35.1813 923.352 35.6715C923.04 36.1616 922.882 36.8431 922.88 37.7159H922.936C923.068 37.4983 923.231 37.3132 923.423 37.1607C923.618 37.0056 923.836 36.8869 924.076 36.8043C924.319 36.7193 924.574 36.6768 924.841 36.6768C925.287 36.6768 925.689 36.7856 926.049 37.0031C926.412 37.2182 926.701 37.5158 926.916 37.8959C927.131 38.2761 927.238 38.7112 927.238 39.2014C927.238 39.6915 927.127 40.1354 926.905 40.5331C926.685 40.9307 926.374 41.2458 925.974 41.4784C925.574 41.7084 925.106 41.821 924.571 41.816ZM924.568 40.8407C924.863 40.8407 925.126 40.7681 925.359 40.6231C925.592 40.478 925.775 40.283 925.911 40.0379C926.046 39.7928 926.113 39.519 926.113 39.2164C926.113 38.9213 926.047 38.6524 925.914 38.4099C925.784 38.1673 925.604 37.9747 925.374 37.8322C925.147 37.6896 924.886 37.6183 924.594 37.6183C924.371 37.6183 924.165 37.6609 923.975 37.7459C923.787 37.8309 923.622 37.9485 923.48 38.0985C923.337 38.2486 923.225 38.4211 923.142 38.6162C923.062 38.8087 923.022 39.0126 923.022 39.2276C923.022 39.5152 923.088 39.7816 923.221 40.0266C923.356 40.2717 923.54 40.4693 923.772 40.6193C924.007 40.7669 924.272 40.8407 924.568 40.8407ZM929.741 38.2898V41.7109H928.62V34.0284H929.726V36.8869H929.798C929.933 36.5768 930.139 36.3304 930.417 36.1479C930.694 35.9653 931.057 35.874 931.505 35.874C931.9 35.874 932.245 35.9553 932.54 36.1179C932.837 36.2804 933.068 36.523 933.23 36.8456C933.395 37.1657 933.478 37.5658 933.478 38.046L933.478 41.7109H932.356V38.181C932.356 37.7584 932.247 37.4308 932.03 37.1982C931.812 36.9631 931.51 36.8456 931.122 36.8456C930.857 36.8456 930.619 36.9019 930.409 37.0144C930.202 37.1269 930.038 37.292 929.918 37.5096C929.8 37.7246 929.741 37.9847 929.741 38.2898Z" fill="#8D8D8D"/>
<path d="M956.137 34.0284L956.137 41.7109H954.974V35.1913H954.929L953.091 36.3917V35.2813L955.007 34.0284H956.137ZM960.807 41.7109H958.32V34.0284H960.886C961.638 34.0284 962.285 34.1822 962.825 34.4898C963.365 34.7949 963.779 35.2338 964.067 35.8065C964.357 36.3767 964.502 37.0607 964.502 37.8584C964.502 38.6587 964.356 39.3464 964.063 39.9216C963.773 40.4968 963.353 40.9394 962.803 41.2495C962.252 41.5571 961.587 41.7109 960.807 41.7109ZM959.479 40.6981H960.743C961.328 40.6981 961.815 40.5881 962.202 40.368C962.59 40.1454 962.88 39.8241 963.073 39.4039C963.265 38.9813 963.361 38.4661 963.361 37.8584C963.361 37.2557 963.265 36.7443 963.073 36.3242C962.883 35.904 962.599 35.5852 962.221 35.3676C961.843 35.15 961.375 35.0412 960.814 35.0412H959.479L959.479 40.6981Z" fill="#8D8D8D"/>
<path d="M984.024 41.7109L987.378 35.0788V35.0225H983.499V34.0284H988.578V35.0563L985.236 41.7109H984.024ZM992.475 41.7109H989.988V34.0284H992.554C993.306 34.0284 993.953 34.1822 994.493 34.4898C995.033 34.7949 995.447 35.2338 995.735 35.8065C996.025 36.3767 996.17 37.0607 996.17 37.8584C996.17 38.6587 996.024 39.3464 995.731 39.9216C995.441 40.4968 995.021 40.9394 994.471 41.2495C993.92 41.5571 993.255 41.7109 992.475 41.7109ZM991.147 40.6981H992.411C992.996 40.6981 993.483 40.5881 993.87 40.368C994.258 40.1454 994.548 39.8241 994.741 39.4039C994.933 38.9813 995.029 38.4661 995.029 37.8584C995.029 37.2557 994.933 36.7443 994.741 36.3242C994.551 35.904 994.267 35.5852 993.889 35.3676C993.511 35.15 993.043 35.0412 992.482 35.0412H991.147L991.147 40.6981Z" fill="#8D8D8D"/>
<path d="M1018.29 41.816C1017.78 41.816 1017.32 41.7272 1016.91 41.5496C1016.51 41.3721 1016.19 41.1257 1015.95 40.8106C1015.72 40.493 1015.6 40.1254 1015.58 39.7078H1016.76C1016.77 39.9354 1016.85 40.1329 1016.99 40.3005C1017.13 40.4655 1017.31 40.5931 1017.53 40.6831C1017.76 40.7731 1018.01 40.8181 1018.28 40.8181C1018.59 40.8181 1018.85 40.7656 1019.09 40.6606C1019.32 40.5556 1019.51 40.4093 1019.64 40.2217C1019.77 40.0316 1019.84 39.8128 1019.84 39.5652C1019.84 39.3076 1019.77 39.0813 1019.64 38.8863C1019.51 38.6887 1019.32 38.5336 1019.06 38.4211C1018.81 38.3086 1018.51 38.2523 1018.16 38.2523H1017.51V37.307H1018.16C1018.44 37.307 1018.69 37.2557 1018.91 37.1532C1019.12 37.0507 1019.29 36.9081 1019.42 36.7256C1019.54 36.5405 1019.6 36.3242 1019.6 36.0766C1019.6 35.839 1019.55 35.6327 1019.44 35.4576C1019.33 35.2801 1019.18 35.1413 1018.99 35.0412C1018.8 34.9412 1018.57 34.8912 1018.31 34.8912C1018.06 34.8912 1017.82 34.9375 1017.6 35.03C1017.39 35.12 1017.21 35.2501 1017.08 35.4201C1016.94 35.5877 1016.87 35.789 1016.86 36.0241H1015.74C1015.75 35.6089 1015.88 35.2438 1016.11 34.9287C1016.34 34.6136 1016.65 34.3673 1017.04 34.1897C1017.42 34.0122 1017.85 33.9234 1018.32 33.9234C1018.81 33.9234 1019.24 34.0197 1019.6 34.2122C1019.96 34.4023 1020.23 34.6561 1020.43 34.9737C1020.63 35.2913 1020.72 35.6389 1020.72 36.0166C1020.72 36.4467 1020.6 36.8118 1020.36 37.1119C1020.12 37.412 1019.8 37.6133 1019.4 37.7159V37.7759C1019.91 37.8534 1020.31 38.056 1020.59 38.3836C1020.87 38.7112 1021.01 39.1176 1021.01 39.6027C1021.01 40.0254 1020.89 40.4043 1020.65 40.7394C1020.42 41.0745 1020.1 41.3383 1019.69 41.5309C1019.28 41.7209 1018.82 41.816 1018.29 41.816ZM1025.1 41.8385C1024.51 41.836 1024 41.6797 1023.58 41.3696C1023.16 41.0595 1022.84 40.6081 1022.62 40.0154C1022.39 39.4227 1022.28 38.7087 1022.28 37.8734C1022.28 37.0407 1022.39 36.3292 1022.62 35.739C1022.84 35.1488 1023.16 34.6986 1023.58 34.3885C1024.01 34.0784 1024.51 33.9234 1025.1 33.9234C1025.69 33.9234 1026.19 34.0797 1026.61 34.3923C1027.03 34.7024 1027.35 35.1525 1027.58 35.7427C1027.8 36.3304 1027.91 37.0407 1027.91 37.8734C1027.91 38.7112 1027.8 39.4264 1027.58 40.0191C1027.36 40.6093 1027.04 41.0607 1026.61 41.3733C1026.19 41.6834 1025.69 41.8385 1025.1 41.8385ZM1025.1 40.8369C1025.62 40.8369 1026.03 40.5831 1026.32 40.0754C1026.61 39.5677 1026.76 38.8337 1026.76 37.8734C1026.76 37.2357 1026.69 36.6968 1026.56 36.2566C1026.43 35.814 1026.23 35.4789 1025.98 35.2513C1025.74 35.0212 1025.44 34.9062 1025.1 34.9062C1024.58 34.9062 1024.18 35.1613 1023.88 35.6715C1023.59 36.1816 1023.44 36.9156 1023.43 37.8734C1023.43 38.5136 1023.5 39.0551 1023.63 39.4977C1023.77 39.9379 1023.96 40.2717 1024.21 40.4993C1024.45 40.7244 1024.75 40.8369 1025.1 40.8369ZM1031.84 41.7109H1029.35L1029.35 34.0284H1031.91C1032.67 34.0284 1033.31 34.1822 1033.85 34.4898C1034.39 34.7949 1034.81 35.2338 1035.1 35.8065C1035.39 36.3767 1035.53 37.0607 1035.53 37.8584C1035.53 38.6587 1035.38 39.3464 1035.09 39.9216C1034.8 40.4968 1034.38 40.9394 1033.83 41.2495C1033.28 41.5571 1032.62 41.7109 1031.84 41.7109ZM1030.51 40.6981H1031.77C1032.36 40.6981 1032.84 40.5881 1033.23 40.368C1033.62 40.1454 1033.91 39.8241 1034.1 39.4039C1034.29 38.9813 1034.39 38.4661 1034.39 37.8584C1034.39 37.2557 1034.29 36.7443 1034.1 36.3242C1033.91 35.904 1033.63 35.5852 1033.25 35.3676C1032.87 35.15 1032.4 35.0412 1031.84 35.0412H1030.51V40.6981Z" fill="#8D8D8D"/>
<rect x="1063.35" y="21.0456" width="219.36" height="34.3313" fill="#1C1C1F"/>
<rect x="1063.35" y="21.0456" width="219.36" height="34.3313" stroke="#4D4D4D" stroke-width="0.880289"/>
<path d="M1077.19 35.949C1077.14 35.5689 1076.96 35.2738 1076.64 35.0638C1076.32 34.8537 1075.93 34.7487 1075.46 34.7487C1075.12 34.7487 1074.82 34.8037 1074.57 34.9137C1074.31 35.0237 1074.12 35.175 1073.97 35.3676C1073.83 35.5602 1073.76 35.779 1073.76 36.0241C1073.76 36.2291 1073.81 36.4054 1073.91 36.553C1074.01 36.698 1074.14 36.8193 1074.29 36.9169C1074.45 37.0119 1074.61 37.0907 1074.78 37.1532C1074.95 37.2132 1075.11 37.262 1075.25 37.2995L1076.03 37.5096C1076.23 37.5621 1076.45 37.6346 1076.7 37.7271C1076.95 37.8197 1077.18 37.946 1077.41 38.106C1077.63 38.2636 1077.82 38.4661 1077.97 38.7137C1078.12 38.9613 1078.19 39.2651 1078.19 39.6253C1078.19 40.0404 1078.08 40.4155 1077.86 40.7506C1077.65 41.0857 1077.33 41.3521 1076.92 41.5496C1076.51 41.7472 1076.01 41.846 1075.41 41.846C1074.86 41.846 1074.39 41.7572 1073.99 41.5796C1073.59 41.4021 1073.27 41.1545 1073.04 40.8369C1072.81 40.5193 1072.68 40.1504 1072.65 39.7303H1073.61C1073.64 40.0204 1073.74 40.2605 1073.91 40.4505C1074.08 40.6381 1074.3 40.7781 1074.56 40.8707C1074.82 40.9607 1075.11 41.0057 1075.41 41.0057C1075.77 41.0057 1076.09 40.9482 1076.37 40.8331C1076.65 40.7156 1076.88 40.5531 1077.04 40.3455C1077.21 40.1354 1077.29 39.8903 1077.29 39.6102C1077.29 39.3552 1077.22 39.1476 1077.08 38.9875C1076.93 38.8275 1076.75 38.6974 1076.51 38.5974C1076.28 38.4974 1076.03 38.4099 1075.76 38.3348L1074.81 38.0647C1074.21 37.8922 1073.74 37.6459 1073.39 37.3257C1073.04 37.0056 1072.86 36.5868 1072.86 36.0691C1072.86 35.6389 1072.98 35.2638 1073.21 34.9437C1073.45 34.6211 1073.76 34.371 1074.16 34.1935C1074.56 34.0134 1075 33.9234 1075.49 33.9234C1075.99 33.9234 1076.43 34.0122 1076.81 34.1897C1077.2 34.3648 1077.5 34.6049 1077.73 34.91C1077.95 35.2151 1078.07 35.5614 1078.09 35.949H1077.19ZM1080.49 38.2448V41.7109H1079.6V34.0284H1080.49V36.8493H1080.56C1080.7 36.5517 1080.9 36.3154 1081.17 36.1404C1081.44 35.9628 1081.8 35.874 1082.26 35.874C1082.65 35.874 1082.99 35.9528 1083.29 36.1103C1083.58 36.2654 1083.81 36.5042 1083.97 36.8268C1084.14 37.1469 1084.22 37.5546 1084.22 38.0497V41.7109H1083.34V38.1098C1083.34 37.6521 1083.22 37.2982 1082.98 37.0482C1082.75 36.7956 1082.42 36.6693 1082 36.6693C1081.71 36.6693 1081.45 36.7306 1081.22 36.8531C1080.99 36.9756 1080.81 37.1544 1080.68 37.3895C1080.55 37.6246 1080.49 37.9097 1080.49 38.2448ZM1088.18 41.831C1087.66 41.831 1087.21 41.7072 1086.81 41.4596C1086.42 41.212 1086.12 40.8657 1085.9 40.4205C1085.68 39.9754 1085.57 39.4552 1085.57 38.86C1085.57 38.2598 1085.68 37.7359 1085.9 37.2882C1086.12 36.8406 1086.42 36.493 1086.81 36.2454C1087.21 35.9978 1087.66 35.874 1088.18 35.874C1088.7 35.874 1089.16 35.9978 1089.55 36.2454C1089.94 36.493 1090.25 36.8406 1090.46 37.2882C1090.68 37.7359 1090.79 38.2598 1090.79 38.86C1090.79 39.4552 1090.68 39.9754 1090.46 40.4205C1090.25 40.8657 1089.94 41.212 1089.55 41.4596C1089.16 41.7072 1088.7 41.831 1088.18 41.831ZM1088.18 41.0357C1088.58 41.0357 1088.9 40.9344 1089.16 40.7319C1089.41 40.5293 1089.6 40.263 1089.72 39.9329C1089.85 39.6027 1089.91 39.2451 1089.91 38.86C1089.91 38.4749 1089.85 38.116 1089.72 37.7834C1089.6 37.4508 1089.41 37.182 1089.16 36.9769C1088.9 36.7718 1088.58 36.6693 1088.18 36.6693C1087.79 36.6693 1087.46 36.7718 1087.21 36.9769C1086.95 37.182 1086.76 37.4508 1086.64 37.7834C1086.52 38.116 1086.46 38.4749 1086.46 38.86C1086.46 39.2451 1086.52 39.6027 1086.64 39.9329C1086.76 40.263 1086.95 40.5293 1087.21 40.7319C1087.46 40.9344 1087.79 41.0357 1088.18 41.0357ZM1093.25 41.7109L1091.5 35.949H1092.43L1093.67 40.3605H1093.73L1094.96 35.949H1095.91L1097.13 40.3455H1097.19L1098.43 35.949H1099.36L1097.61 41.7109H1096.74L1095.47 37.2845H1095.38L1094.12 41.7109H1093.25ZM1103.2 34.8537V34.0284H1108.96V34.8537H1106.55L1106.55 41.7109H1105.62V34.8537H1103.2ZM1111.79 41.831C1111.26 41.831 1110.81 41.7072 1110.42 41.4596C1110.03 41.212 1109.72 40.8657 1109.5 40.4205C1109.28 39.9754 1109.17 39.4552 1109.17 38.86C1109.17 38.2598 1109.28 37.7359 1109.5 37.2882C1109.72 36.8406 1110.03 36.493 1110.42 36.2454C1110.81 35.9978 1111.26 35.874 1111.79 35.874C1112.31 35.874 1112.76 35.9978 1113.15 36.2454C1113.54 36.493 1113.85 36.8406 1114.07 37.2882C1114.29 37.7359 1114.4 38.2598 1114.4 38.86C1114.4 39.4552 1114.29 39.9754 1114.07 40.4205C1113.85 40.8657 1113.54 41.212 1113.15 41.4596C1112.76 41.7072 1112.31 41.831 1111.79 41.831ZM1111.79 41.0357C1112.18 41.0357 1112.51 40.9344 1112.76 40.7319C1113.02 40.5293 1113.2 40.263 1113.33 39.9329C1113.45 39.6027 1113.51 39.2451 1113.51 38.86C1113.51 38.4749 1113.45 38.116 1113.33 37.7834C1113.2 37.4508 1113.02 37.182 1112.76 36.9769C1112.51 36.7718 1112.18 36.6693 1111.79 36.6693C1111.39 36.6693 1111.06 36.7718 1110.81 36.9769C1110.55 37.182 1110.37 37.4508 1110.24 37.7834C1110.12 38.116 1110.06 38.4749 1110.06 38.86C1110.06 39.2451 1110.12 39.6027 1110.24 39.9329C1110.37 40.263 1110.55 40.5293 1110.81 40.7319C1111.06 40.9344 1111.39 41.0357 1111.79 41.0357ZM1115.75 43.8716V35.949H1116.6V36.8643H1116.71C1116.77 36.7643 1116.86 36.6368 1116.98 36.4817C1117.1 36.3242 1117.26 36.1841 1117.48 36.0616C1117.7 35.9365 1118 35.874 1118.37 35.874C1118.86 35.874 1119.29 35.9953 1119.66 36.2379C1120.03 36.4805 1120.32 36.8243 1120.52 37.2695C1120.73 37.7146 1120.83 38.2398 1120.83 38.845C1120.83 39.4552 1120.73 39.9841 1120.52 40.4318C1120.32 40.8769 1120.03 41.222 1119.66 41.4671C1119.29 41.7097 1118.87 41.831 1118.39 41.831C1118.02 41.831 1117.72 41.7697 1117.5 41.6472C1117.28 41.5221 1117.11 41.3808 1116.99 41.2233C1116.87 41.0632 1116.77 40.9307 1116.71 40.8256H1116.63V43.8716H1115.75ZM1116.62 38.83C1116.62 39.2651 1116.68 39.649 1116.81 39.9816C1116.94 40.3117 1117.12 40.5706 1117.37 40.7581C1117.61 40.9432 1117.91 41.0357 1118.27 41.0357C1118.64 41.0357 1118.95 40.9382 1119.19 40.7431C1119.44 40.5456 1119.63 40.2805 1119.76 39.9479C1119.88 39.6127 1119.95 39.2401 1119.95 38.83C1119.95 38.4249 1119.89 38.0597 1119.76 37.7346C1119.64 37.407 1119.45 37.1482 1119.2 36.9581C1118.95 36.7656 1118.64 36.6693 1118.27 36.6693C1117.91 36.6693 1117.61 36.7606 1117.36 36.9431C1117.12 37.1232 1116.93 37.3758 1116.81 37.7009C1116.68 38.0235 1116.62 38.3999 1116.62 38.83Z" fill="white"/>
<rect x="1139.76" y="21.0456" width="34.3313" height="34.3313" fill="black"/>
<rect x="1139.76" y="21.0456" width="34.3313" height="34.3313" stroke="#4D4D4D" stroke-width="0.880289"/>
<path d="M1154.84 34.0284V41.7109H1153.68L1153.68 35.1913H1153.64L1151.8 36.3917V35.2813L1153.71 34.0284H1154.84ZM1156.92 41.7109V40.8707L1159.52 38.1773C1159.8 37.8847 1160.03 37.6283 1160.21 37.4083C1160.39 37.1857 1160.53 36.9744 1160.62 36.7743C1160.71 36.5743 1160.75 36.3617 1160.75 36.1366C1160.75 35.8815 1160.69 35.6615 1160.57 35.4764C1160.45 35.2888 1160.29 35.145 1160.08 35.045C1159.87 34.9425 1159.64 34.8912 1159.38 34.8912C1159.1 34.8912 1158.86 34.9475 1158.66 35.06C1158.45 35.1725 1158.3 35.3313 1158.19 35.5364C1158.08 35.7415 1158.02 35.9816 1158.02 36.2566H1156.91C1156.91 35.789 1157.02 35.3801 1157.24 35.03C1157.45 34.6799 1157.75 34.4085 1158.12 34.216C1158.5 34.0209 1158.92 33.9234 1159.4 33.9234C1159.88 33.9234 1160.31 34.0197 1160.68 34.2122C1161.05 34.4023 1161.34 34.6624 1161.54 34.9925C1161.75 35.3201 1161.85 35.6902 1161.85 36.1028C1161.85 36.3879 1161.8 36.6668 1161.69 36.9394C1161.59 37.212 1161.4 37.5158 1161.14 37.8509C1160.88 38.1835 1160.51 38.5874 1160.05 39.0626L1158.52 40.6606V40.7169H1161.98V41.7109H1156.92Z" fill="#FFC83A"/>
<path d="M1195.74 41.816C1195.22 41.816 1194.76 41.7272 1194.36 41.5496C1193.95 41.3721 1193.64 41.1257 1193.4 40.8106C1193.17 40.493 1193.04 40.1254 1193.02 39.7078H1194.2C1194.22 39.9354 1194.29 40.1329 1194.43 40.3005C1194.57 40.4655 1194.75 40.5931 1194.98 40.6831C1195.2 40.7731 1195.45 40.8181 1195.73 40.8181C1196.03 40.8181 1196.3 40.7656 1196.53 40.6606C1196.77 40.5556 1196.95 40.4093 1197.08 40.2217C1197.22 40.0316 1197.28 39.8128 1197.28 39.5652C1197.28 39.3076 1197.22 39.0813 1197.08 38.8863C1196.95 38.6887 1196.76 38.5336 1196.51 38.4211C1196.26 38.3086 1195.96 38.2523 1195.6 38.2523H1194.95V37.307H1195.6C1195.89 37.307 1196.14 37.2557 1196.35 37.1532C1196.57 37.0507 1196.74 36.9081 1196.86 36.7256C1196.99 36.5405 1197.05 36.3242 1197.05 36.0766C1197.05 35.839 1196.99 35.6327 1196.88 35.4576C1196.78 35.2801 1196.63 35.1413 1196.43 35.0412C1196.24 34.9412 1196.01 34.8912 1195.75 34.8912C1195.5 34.8912 1195.27 34.9375 1195.05 35.03C1194.84 35.12 1194.66 35.2501 1194.53 35.4201C1194.39 35.5877 1194.32 35.789 1194.31 36.0241H1193.19C1193.2 35.6089 1193.32 35.2438 1193.55 34.9287C1193.79 34.6136 1194.1 34.3673 1194.48 34.1897C1194.87 34.0122 1195.3 33.9234 1195.77 33.9234C1196.26 33.9234 1196.68 34.0197 1197.04 34.2122C1197.4 34.4023 1197.68 34.6561 1197.88 34.9737C1198.07 35.2913 1198.17 35.6389 1198.17 36.0166C1198.17 36.4467 1198.05 36.8118 1197.81 37.1119C1197.57 37.412 1197.25 37.6133 1196.85 37.7159V37.7759C1197.36 37.8534 1197.75 38.056 1198.03 38.3836C1198.32 38.7112 1198.46 39.1176 1198.45 39.6027C1198.46 40.0254 1198.34 40.4043 1198.1 40.7394C1197.87 41.0745 1197.54 41.3383 1197.14 41.5309C1196.73 41.7209 1196.26 41.816 1195.74 41.816ZM1202.55 41.8385C1201.95 41.836 1201.45 41.6797 1201.03 41.3696C1200.61 41.0595 1200.28 40.6081 1200.06 40.0154C1199.84 39.4227 1199.73 38.7087 1199.73 37.8734C1199.73 37.0407 1199.84 36.3292 1200.06 35.739C1200.29 35.1488 1200.61 34.6986 1201.03 34.3885C1201.45 34.0784 1201.96 33.9234 1202.55 33.9234C1203.13 33.9234 1203.64 34.0797 1204.06 34.3923C1204.48 34.7024 1204.8 35.1525 1205.02 35.7427C1205.25 36.3304 1205.36 37.0407 1205.36 37.8734C1205.36 38.7112 1205.25 39.4264 1205.03 40.0191C1204.8 40.6093 1204.48 41.0607 1204.06 41.3733C1203.64 41.6834 1203.14 41.8385 1202.55 41.8385ZM1202.55 40.8369C1203.07 40.8369 1203.47 40.5831 1203.76 40.0754C1204.06 39.5677 1204.21 38.8337 1204.21 37.8734C1204.21 37.2357 1204.14 36.6968 1204 36.2566C1203.87 35.814 1203.68 35.4789 1203.43 35.2513C1203.18 35.0212 1202.89 34.9062 1202.55 34.9062C1202.03 34.9062 1201.62 35.1613 1201.33 35.6715C1201.03 36.1816 1200.88 36.9156 1200.88 37.8734C1200.88 38.5136 1200.95 39.0551 1201.08 39.4977C1201.21 39.9379 1201.41 40.2717 1201.65 40.4993C1201.9 40.7244 1202.2 40.8369 1202.55 40.8369Z" fill="#8D8D8D"/>
<path d="M1227.4 41.816C1227.05 41.811 1226.72 41.7484 1226.38 41.6284C1226.05 41.5084 1225.75 41.3083 1225.48 41.0282C1225.21 40.7481 1225 40.3717 1224.83 39.8991C1224.67 39.4264 1224.59 38.8362 1224.59 38.1285C1224.59 37.4583 1224.66 36.8631 1224.79 36.3429C1224.93 35.8228 1225.12 35.3839 1225.37 35.0262C1225.63 34.6661 1225.93 34.3923 1226.29 34.2047C1226.65 34.0172 1227.05 33.9234 1227.49 33.9234C1227.95 33.9234 1228.36 34.0134 1228.71 34.1935C1229.07 34.3735 1229.36 34.6224 1229.58 34.94C1229.8 35.2576 1229.94 35.6189 1230 36.0241H1228.86C1228.78 35.704 1228.62 35.4426 1228.39 35.2401C1228.16 35.0375 1227.86 34.9362 1227.49 34.9362C1226.93 34.9362 1226.49 35.1813 1226.18 35.6715C1225.87 36.1616 1225.71 36.8431 1225.71 37.7159H1225.76C1225.89 37.4983 1226.06 37.3132 1226.25 37.1607C1226.44 37.0056 1226.66 36.8869 1226.9 36.8043C1227.14 36.7193 1227.4 36.6768 1227.67 36.6768C1228.11 36.6768 1228.51 36.7856 1228.87 37.0031C1229.24 37.2182 1229.53 37.5158 1229.74 37.8959C1229.96 38.2761 1230.06 38.7112 1230.06 39.2014C1230.06 39.6915 1229.95 40.1354 1229.73 40.5331C1229.51 40.9307 1229.2 41.2458 1228.8 41.4784C1228.4 41.7084 1227.93 41.821 1227.4 41.816ZM1227.39 40.8407C1227.69 40.8407 1227.95 40.7681 1228.18 40.6231C1228.42 40.478 1228.6 40.283 1228.74 40.0379C1228.87 39.7928 1228.94 39.519 1228.94 39.2164C1228.94 38.9213 1228.87 38.6524 1228.74 38.4099C1228.61 38.1673 1228.43 37.9747 1228.2 37.8322C1227.97 37.6896 1227.71 37.6183 1227.42 37.6183C1227.2 37.6183 1226.99 37.6609 1226.8 37.7459C1226.61 37.8309 1226.45 37.9485 1226.31 38.0985C1226.16 38.2486 1226.05 38.4211 1225.97 38.6162C1225.89 38.8087 1225.85 39.0126 1225.85 39.2276C1225.85 39.5152 1225.91 39.7816 1226.05 40.0266C1226.18 40.2717 1226.37 40.4693 1226.6 40.6193C1226.83 40.7669 1227.1 40.8407 1227.39 40.8407ZM1234.1 41.8385C1233.51 41.836 1233.01 41.6797 1232.59 41.3696C1232.17 41.0595 1231.84 40.6081 1231.62 40.0154C1231.4 39.4227 1231.29 38.7087 1231.29 37.8734C1231.29 37.0407 1231.4 36.3292 1231.62 35.739C1231.85 35.1488 1232.17 34.6986 1232.59 34.3885C1233.01 34.0784 1233.52 33.9234 1234.1 33.9234C1234.69 33.9234 1235.2 34.0797 1235.62 34.3923C1236.04 34.7024 1236.36 35.1525 1236.58 35.7427C1236.81 36.3304 1236.92 37.0407 1236.92 37.8734C1236.92 38.7112 1236.81 39.4264 1236.58 40.0191C1236.36 40.6093 1236.04 41.0607 1235.62 41.3733C1235.2 41.6834 1234.7 41.8385 1234.1 41.8385ZM1234.1 40.8369C1234.63 40.8369 1235.03 40.5831 1235.32 40.0754C1235.62 39.5677 1235.77 38.8337 1235.77 37.8734C1235.77 37.2357 1235.7 36.6968 1235.56 36.2566C1235.43 35.814 1235.24 35.4789 1234.99 35.2513C1234.74 35.0212 1234.45 34.9062 1234.1 34.9062C1233.59 34.9062 1233.18 35.1613 1232.89 35.6715C1232.59 36.1816 1232.44 36.9156 1232.44 37.8734C1232.44 38.5136 1232.51 39.0551 1232.64 39.4977C1232.77 39.9379 1232.96 40.2717 1233.21 40.4993C1233.46 40.7244 1233.76 40.8369 1234.1 40.8369Z" fill="#8D8D8D"/>
<path d="M1259.36 34.0284V41.7109H1258.19L1258.19 35.1913H1258.15L1256.31 36.3917V35.2813L1258.23 34.0284H1259.36ZM1261.44 41.7109V40.8707L1264.04 38.1773C1264.31 37.8847 1264.54 37.6283 1264.72 37.4083C1264.9 37.1857 1265.04 36.9744 1265.13 36.7743C1265.22 36.5743 1265.27 36.3617 1265.27 36.1366C1265.27 35.8815 1265.21 35.6615 1265.09 35.4764C1264.97 35.2888 1264.8 35.145 1264.59 35.045C1264.39 34.9425 1264.15 34.8912 1263.89 34.8912C1263.62 34.8912 1263.38 34.9475 1263.17 35.06C1262.97 35.1725 1262.81 35.3313 1262.7 35.5364C1262.59 35.7415 1262.53 35.9816 1262.53 36.2566H1261.43C1261.43 35.789 1261.54 35.3801 1261.75 35.03C1261.97 34.6799 1262.26 34.4085 1262.64 34.216C1263.01 34.0209 1263.44 33.9234 1263.92 33.9234C1264.4 33.9234 1264.82 34.0197 1265.19 34.2122C1265.56 34.4023 1265.85 34.6624 1266.06 34.9925C1266.26 35.3201 1266.37 35.6902 1266.37 36.1028C1266.37 36.3879 1266.31 36.6668 1266.21 36.9394C1266.1 37.212 1265.92 37.5158 1265.66 37.8509C1265.39 38.1835 1265.03 38.5874 1264.56 39.0626L1263.03 40.6606V40.7169H1266.49V41.7109H1261.44ZM1270.59 41.8385C1270 41.836 1269.49 41.6797 1269.07 41.3696C1268.65 41.0595 1268.33 40.6081 1268.11 40.0154C1267.88 39.4227 1267.77 38.7087 1267.77 37.8734C1267.77 37.0407 1267.88 36.3292 1268.11 35.739C1268.33 35.1488 1268.65 34.6986 1269.07 34.3885C1269.5 34.0784 1270 33.9234 1270.59 33.9234C1271.18 33.9234 1271.68 34.0797 1272.1 34.3923C1272.52 34.7024 1272.84 35.1525 1273.06 35.7427C1273.29 36.3304 1273.4 37.0407 1273.4 37.8734C1273.4 38.7112 1273.29 39.4264 1273.07 40.0191C1272.85 40.6093 1272.52 41.0607 1272.1 41.3733C1271.68 41.6834 1271.18 41.8385 1270.59 41.8385ZM1270.59 40.8369C1271.11 40.8369 1271.52 40.5831 1271.81 40.0754C1272.1 39.5677 1272.25 38.8337 1272.25 37.8734C1272.25 37.2357 1272.18 36.6968 1272.05 36.2566C1271.92 35.814 1271.72 35.4789 1271.47 35.2513C1271.23 35.0212 1270.93 34.9062 1270.59 34.9062C1270.07 34.9062 1269.66 35.1613 1269.37 35.6715C1269.07 36.1816 1268.93 36.9156 1268.92 37.8734C1268.92 38.5136 1268.99 39.0551 1269.12 39.4977C1269.26 39.9379 1269.45 40.2717 1269.7 40.4993C1269.94 40.7244 1270.24 40.8369 1270.59 40.8369Z" fill="#8D8D8D"/>
<rect x="1301.2" y="21.0456" width="34.3313" height="34.3313" fill="#FFC83A"/>
<rect x="1301.2" y="21.0456" width="34.3313" height="34.3313" fill="black"/>
<rect x="1301.2" y="21.0456" width="34.3313" height="34.3313" stroke="#4D4D4D" stroke-width="0.880289"/>
<rect x="1301.2" y="21.0456" width="34.3313" height="34.3313" fill="#1C1C1F"/>
<rect x="1301.2" y="21.0456" width="34.3313" height="34.3313" stroke="#4D4D4D" stroke-width="0.880289"/>
<mask id="mask0_4116_14304" style="mask-type:alpha" maskUnits="userSpaceOnUse" x="1309" y="29" width="19" height="19">
<rect x="1309.56" y="29.4102" width="17.6058" height="17.6058" fill="#D9D9D9"/>
</mask>
<g mask="url(#mask0_4116_14304)">
<path d="M1323.21 42.829V40.6072H1313.52V42.829C1313.52 42.8949 1313.54 42.949 1313.59 42.9913C1313.63 43.0336 1313.68 43.0548 1313.75 43.0548H1322.98C1323.05 43.0548 1323.1 43.0336 1323.14 42.9913C1323.18 42.949 1323.21 42.8949 1323.21 42.829ZM1323.21 39.6535V36.7728H1313.52V39.6535H1323.21ZM1323.21 35.8192V33.5973C1323.21 33.5315 1323.18 33.4774 1323.14 33.4351C1323.1 33.3928 1323.05 33.3716 1322.98 33.3716H1313.75C1313.68 33.3716 1313.63 33.3928 1313.59 33.4351C1313.54 33.4774 1313.52 33.5315 1313.52 33.5973V35.8192H1323.21ZM1313.75 44.0084C1313.43 44.0084 1313.15 43.8923 1312.92 43.66C1312.68 43.4277 1312.57 43.1507 1312.57 42.829V33.5973C1312.57 33.2671 1312.68 32.988 1312.92 32.76C1313.15 32.532 1313.43 32.418 1313.75 32.418H1322.98C1323.31 32.418 1323.59 32.532 1323.82 32.76C1324.05 32.988 1324.16 33.2671 1324.16 33.5973V42.829C1324.16 43.1507 1324.05 43.4277 1323.82 43.66C1323.59 43.8923 1323.31 44.0084 1322.98 44.0084H1313.75Z" fill="#8D8D8D"/>
</g>
<rect x="1335.53" y="21.0456" width="34.3313" height="34.3313" fill="#FFC83A"/>
<rect x="1335.53" y="21.0456" width="34.3313" height="34.3313" fill="black"/>
<rect x="1335.53" y="21.0456" width="34.3313" height="34.3313" stroke="#4D4D4D" stroke-width="0.880289"/>
<mask id="mask1_4116_14304" style="mask-type:alpha" maskUnits="userSpaceOnUse" x="1343" y="29" width="19" height="19">
<rect x="1343.89" y="29.4102" width="17.6058" height="17.6058" fill="#FFC83A"/>
</mask>
<g mask="url(#mask1_4116_14304)">
<path d="M1346.9 37.3329V32.418H1351.81V37.3329H1346.9ZM1346.9 44.0084V39.0935H1351.81V44.0084H1346.9ZM1353.58 37.3329V32.418H1358.49V37.3329H1353.58ZM1353.58 44.0084V39.0935H1358.49V44.0084H1353.58ZM1347.85 36.3793H1350.86V33.3716H1347.85V36.3793ZM1354.53 36.3793H1357.54V33.3716H1354.53V36.3793ZM1354.53 43.0548H1357.54V40.0471H1354.53V43.0548ZM1347.85 43.0548H1350.86V40.0471H1347.85V43.0548Z" fill="#FFC83A"/>
</g>
<rect x="1388.35" y="21.0456" width="47.324" height="34.3313" fill="#1C1C1F"/>
<rect x="1388.35" y="21.0456" width="47.324" height="34.3313" stroke="#4D4D4D" stroke-width="0.880289"/>
<path d="M1399.72 36.0466C1399.68 35.6915 1399.51 35.4164 1399.22 35.2213C1398.93 35.0237 1398.57 34.925 1398.13 34.925C1397.81 34.925 1397.54 34.975 1397.31 35.075C1397.08 35.1725 1396.9 35.3076 1396.77 35.4801C1396.65 35.6502 1396.58 35.844 1396.58 36.0616C1396.58 36.2441 1396.63 36.4017 1396.71 36.5342C1396.8 36.6668 1396.91 36.7781 1397.05 36.8681C1397.2 36.9556 1397.35 37.0294 1397.51 37.0894C1397.67 37.1469 1397.83 37.1945 1397.98 37.232L1398.73 37.427C1398.98 37.4871 1399.23 37.5683 1399.48 37.6709C1399.74 37.7734 1399.98 37.9084 1400.2 38.076C1400.42 38.2435 1400.6 38.4511 1400.73 38.6987C1400.87 38.9463 1400.94 39.2426 1400.94 39.5877C1400.94 40.0229 1400.83 40.4093 1400.6 40.7469C1400.38 41.0845 1400.06 41.3508 1399.63 41.5459C1399.21 41.7409 1398.7 41.8385 1398.1 41.8385C1397.52 41.8385 1397.02 41.7472 1396.6 41.5646C1396.18 41.3821 1395.85 41.1232 1395.62 40.7881C1395.38 40.4505 1395.25 40.0504 1395.22 39.5877H1396.39C1396.41 39.8653 1396.5 40.0967 1396.66 40.2817C1396.82 40.4643 1397.02 40.6006 1397.27 40.6906C1397.52 40.7781 1397.79 40.8219 1398.09 40.8219C1398.42 40.8219 1398.71 40.7706 1398.96 40.6681C1399.22 40.5631 1399.42 40.418 1399.57 40.233C1399.72 40.0454 1399.79 39.8266 1399.79 39.5765C1399.79 39.3489 1399.73 39.1626 1399.6 39.0176C1399.47 38.8725 1399.3 38.7525 1399.08 38.6574C1398.86 38.5624 1398.61 38.4786 1398.34 38.4061L1397.43 38.1585C1396.81 37.991 1396.33 37.7446 1395.97 37.4195C1395.61 37.0944 1395.43 36.6643 1395.43 36.1291C1395.43 35.6865 1395.55 35.3001 1395.79 34.97C1396.03 34.6399 1396.35 34.3835 1396.76 34.201C1397.17 34.0159 1397.64 33.9234 1398.15 33.9234C1398.67 33.9234 1399.13 34.0147 1399.53 34.1972C1399.93 34.3798 1400.24 34.6311 1400.47 34.9512C1400.7 35.2688 1400.82 35.6339 1400.83 36.0466H1399.72ZM1404.72 41.8272C1404.15 41.8272 1403.66 41.7059 1403.25 41.4634C1402.84 41.2183 1402.53 40.8744 1402.31 40.4318C1402.09 39.9866 1401.98 39.4652 1401.98 38.8675C1401.98 38.2773 1402.09 37.7571 1402.31 37.307C1402.53 36.8568 1402.84 36.5055 1403.24 36.2529C1403.64 36.0003 1404.1 35.874 1404.64 35.874C1404.96 35.874 1405.28 35.9278 1405.58 36.0353C1405.89 36.1429 1406.16 36.3117 1406.41 36.5417C1406.65 36.7718 1406.84 37.0707 1406.98 37.4383C1407.12 37.8034 1407.19 38.2473 1407.19 38.77V39.1676H1402.61V38.3273H1406.09C1406.09 38.0322 1406.03 37.7709 1405.91 37.5433C1405.79 37.3132 1405.62 37.1319 1405.4 36.9994C1405.19 36.8668 1404.94 36.8006 1404.65 36.8006C1404.33 36.8006 1404.06 36.8781 1403.82 37.0332C1403.59 37.1857 1403.41 37.3858 1403.28 37.6333C1403.16 37.8784 1403.09 38.1448 1403.09 38.4324V39.0888C1403.09 39.474 1403.16 39.8016 1403.3 40.0716C1403.43 40.3417 1403.63 40.5481 1403.87 40.6906C1404.12 40.8306 1404.4 40.9007 1404.73 40.9007C1404.94 40.9007 1405.14 40.8707 1405.31 40.8106C1405.49 40.7481 1405.64 40.6556 1405.76 40.5331C1405.89 40.4105 1405.99 40.2592 1406.06 40.0792L1407.12 40.2705C1407.03 40.5831 1406.88 40.8569 1406.66 41.092C1406.44 41.3246 1406.17 41.5059 1405.84 41.6359C1405.51 41.7635 1405.14 41.8272 1404.72 41.8272ZM1410.92 41.8272C1410.35 41.8272 1409.86 41.7059 1409.45 41.4634C1409.04 41.2183 1408.73 40.8744 1408.51 40.4318C1408.29 39.9866 1408.18 39.4652 1408.18 38.8675C1408.18 38.2773 1408.29 37.7571 1408.51 37.307C1408.73 36.8568 1409.04 36.5055 1409.44 36.2529C1409.84 36.0003 1410.3 35.874 1410.84 35.874C1411.16 35.874 1411.48 35.9278 1411.78 36.0353C1412.09 36.1429 1412.36 36.3117 1412.61 36.5417C1412.85 36.7718 1413.04 37.0707 1413.18 37.4383C1413.32 37.8034 1413.39 38.2473 1413.39 38.77V39.1676H1408.81V38.3273H1412.29C1412.29 38.0322 1412.23 37.7709 1412.11 37.5433C1411.99 37.3132 1411.82 37.1319 1411.6 36.9994C1411.39 36.8668 1411.14 36.8006 1410.85 36.8006C1410.53 36.8006 1410.26 36.8781 1410.02 37.0332C1409.79 37.1857 1409.61 37.3858 1409.48 37.6333C1409.36 37.8784 1409.29 38.1448 1409.29 38.4324V39.0888C1409.29 39.474 1409.36 39.8016 1409.5 40.0716C1409.63 40.3417 1409.83 40.5481 1410.07 40.6906C1410.32 40.8306 1410.6 40.9007 1410.93 40.9007C1411.14 40.9007 1411.34 40.8707 1411.51 40.8106C1411.69 40.7481 1411.84 40.6556 1411.96 40.5331C1412.09 40.4105 1412.19 40.2592 1412.26 40.0792L1413.32 40.2705C1413.23 40.5831 1413.08 40.8569 1412.86 41.092C1412.64 41.3246 1412.37 41.5059 1412.04 41.6359C1411.71 41.7635 1411.34 41.8272 1410.92 41.8272ZM1418.17 41.7109H1416.94L1419.7 34.0284H1421.04L1423.81 41.7109H1422.58L1420.4 35.4239H1420.34L1418.17 41.7109ZM1418.38 38.7024H1422.37V39.6778H1418.38V38.7024ZM1425.95 34.0284V41.7109H1424.83L1424.83 34.0284H1425.95ZM1428.58 34.0284V41.7109H1427.46L1427.46 34.0284H1428.58Z" fill="#8D8D8D"/>
<mask id="path-34-inside-3_4116_14304" fill="white">
<path d="M20.6058 73.4219H1436.11V105.993H20.6058V73.4219Z"/>
</mask>
<path d="M1436.11 105.112H20.6058V106.873H1436.11V105.112Z" fill="#4D4D4D" mask="url(#path-34-inside-3_4116_14304)"/>
<path d="M23.9757 91.0277L25.4199 84.5233L20.6058 80.1463L26.9329 79.5594L29.4087 73.4219L31.8845 79.5839L38.2116 80.1463L33.3975 84.5233L34.8418 91.0277L29.4087 87.5799L23.9757 91.0277Z" fill="#FFC83A"/>
<path d="M92.9165 85.7266L92.9165 78.044H95.6549C96.2526 78.044 96.7478 78.1528 97.1404 78.3704C97.533 78.588 97.8269 78.8856 98.0219 79.2632C98.217 79.6383 98.3145 80.061 98.3145 80.5311C98.3145 81.0038 98.2158 81.4289 98.0182 81.8065C97.8231 82.1816 97.528 82.4792 97.1329 82.6993C96.7403 82.9169 96.2464 83.0257 95.6512 83.0257H93.7681L93.7681 82.0429H95.5461C95.9238 82.0429 96.2301 81.9778 96.4652 81.8478C96.7003 81.7152 96.8728 81.5352 96.9829 81.3076C97.0929 81.08 97.1479 80.8212 97.1479 80.5311C97.1479 80.241 97.0929 79.9834 96.9829 79.7584C96.8728 79.5333 96.699 79.357 96.4614 79.2294C96.2264 79.1019 95.9163 79.0381 95.5311 79.0381H94.0757L94.0757 85.7266H92.9165ZM99.5074 85.7266H98.277L101.042 78.044H102.381L105.146 85.7266H103.915L101.743 79.4395H101.683L99.5074 85.7266ZM99.7138 82.7181H103.705V83.6934H99.7138V82.7181ZM107.414 78.044L107.414 85.7266H106.255L106.255 78.044H107.414ZM109.102 85.7266L109.102 78.044H111.841C112.436 78.044 112.93 78.1466 113.322 78.3516C113.717 78.5567 114.013 78.8406 114.208 79.2032C114.403 79.5633 114.5 79.9797 114.5 80.4523C114.5 80.9225 114.401 81.3364 114.204 81.694C114.009 82.0491 113.714 82.3254 113.319 82.523C112.926 82.7206 112.432 82.8194 111.837 82.8194H109.762L109.762 81.8215H111.732C112.107 81.8215 112.412 81.7678 112.647 81.6602C112.885 81.5527 113.058 81.3964 113.168 81.1913C113.279 80.9863 113.334 80.7399 113.334 80.4523C113.334 80.1622 113.277 79.9109 113.165 79.6983C113.055 79.4858 112.881 79.3232 112.643 79.2107C112.408 79.0956 112.099 79.0381 111.717 79.0381H110.261L110.261 85.7266H109.102ZM112.895 82.2604L114.793 85.7266H113.472L111.612 82.2604H112.895ZM119.865 78.044L119.865 85.7266H118.706L118.706 78.044H119.865ZM127.754 78.044L127.754 85.7266H126.689L122.784 80.0922H122.713L122.713 85.7266H121.553L121.553 78.044H122.626L126.535 83.6859H126.606L126.606 78.044H127.754ZM129.445 85.7266L129.445 78.044H134.209L134.209 79.0419H130.604L130.604 81.3826H133.868V82.3767H130.604V85.7266H129.445ZM142.308 81.8853C142.308 82.7056 142.158 83.4108 141.858 84.001C141.558 84.5887 141.146 85.0413 140.624 85.3589C140.104 85.674 139.512 85.8316 138.849 85.8316C138.184 85.8316 137.59 85.674 137.068 85.3589C136.547 85.0413 136.137 84.5874 135.837 83.9972C135.537 83.4071 135.387 82.7031 135.387 81.8853C135.387 81.065 135.537 80.3611 135.837 79.7734C136.137 79.1832 136.547 78.7305 137.068 78.4154C137.59 78.0978 138.184 77.939 138.849 77.939C139.512 77.939 140.104 78.0978 140.624 78.4154C141.146 78.7305 141.558 79.1832 141.858 79.7734C142.158 80.3611 142.308 81.065 142.308 81.8853ZM141.16 81.8853C141.16 81.2601 141.059 80.7337 140.856 80.306C140.656 79.8759 140.381 79.5508 140.031 79.3307C139.683 79.1081 139.29 78.9969 138.849 78.9969C138.407 78.9969 138.012 79.1081 137.664 79.3307C137.316 79.5508 137.041 79.8759 136.839 80.306C136.639 80.7337 136.539 81.2601 136.539 81.8853C136.539 82.5105 136.639 83.0382 136.839 83.4683C137.041 83.896 137.316 84.2211 137.664 84.4436C138.012 84.6637 138.407 84.7737 138.849 84.7737C139.29 84.7737 139.683 84.6637 140.031 84.4436C140.381 84.2211 140.656 83.896 140.856 83.4683C141.059 83.0382 141.16 82.5105 141.16 81.8853Z" fill="white"/>
<mask id="mask2_4116_14304" style="mask-type:alpha" maskUnits="userSpaceOnUse" x="151" y="73" width="19" height="19">
<rect x="151.712" y="73.4219" width="17.6058" height="17.6058" fill="#D9D9D9"/>
</mask>
<g mask="url(#mask2_4116_14304)">
<path d="M162.867 87.1385C161.502 87.1385 160.342 86.6602 159.385 85.7037C158.429 84.7471 157.95 83.5864 157.95 82.2214C157.95 80.8667 158.429 79.7092 159.385 78.7489C160.342 77.7887 161.502 77.3086 162.867 77.3086C164.222 77.3086 165.38 77.7887 166.34 78.7489C167.3 79.7092 167.78 80.8667 167.78 82.2214C167.78 83.5864 167.3 84.7471 166.34 85.7037C165.38 86.6602 164.222 87.1385 162.867 87.1385ZM162.856 86.1848C163.963 86.1848 164.901 85.8028 165.671 85.0386C166.442 84.2745 166.827 83.3392 166.827 82.2327C166.827 81.1262 166.442 80.1879 165.671 79.4176C164.901 78.6473 163.966 78.2622 162.865 78.2622C161.753 78.2622 160.814 78.6473 160.05 79.4176C159.286 80.1879 158.904 81.1232 158.904 82.2235C158.904 83.3361 159.286 84.2745 160.05 85.0386C160.814 85.8028 161.75 86.1848 162.856 86.1848ZM164.44 84.4905L165.114 83.8162L163.341 82.0391V79.6955H162.389V82.4255L164.44 84.4905ZM154.35 79.8394V78.8858H156.85V79.8394H154.35ZM153.47 82.7003V81.7467H156.85V82.7003H153.47ZM154.35 85.5613V84.6077H156.85V85.5613H154.35Z" fill="white"/>
</g>
<path d="M332.231 80.5424H331.061C331.016 80.2923 330.932 80.0722 330.809 79.8821C330.687 79.6921 330.537 79.5308 330.359 79.3982C330.182 79.2657 329.983 79.1657 329.763 79.0981C329.545 79.0306 329.314 78.9969 329.069 78.9969C328.626 78.9969 328.23 79.1081 327.88 79.3307C327.532 79.5533 327.257 79.8796 327.054 80.3098C326.854 80.7399 326.754 81.2651 326.754 81.8853C326.754 82.5105 326.854 83.0382 327.054 83.4683C327.257 83.8985 327.533 84.2236 327.883 84.4436C328.233 84.6637 328.627 84.7737 329.065 84.7737C329.307 84.7737 329.538 84.7412 329.755 84.6762C329.975 84.6087 330.174 84.5099 330.352 84.3799C330.529 84.2498 330.679 84.091 330.802 83.9035C330.927 83.7134 331.013 83.4958 331.061 83.2507L332.231 83.2545C332.168 83.6321 332.047 83.9797 331.867 84.2973C331.69 84.6124 331.461 84.885 331.181 85.1151C330.903 85.3427 330.585 85.519 330.228 85.644C329.87 85.7691 329.48 85.8316 329.057 85.8316C328.392 85.8316 327.799 85.674 327.279 85.3589C326.759 85.0413 326.349 84.5874 326.049 83.9972C325.751 83.4071 325.603 82.7031 325.603 81.8853C325.603 81.065 325.753 80.3611 326.053 79.7734C326.353 79.1832 326.763 78.7305 327.283 78.4154C327.803 78.0978 328.395 77.939 329.057 77.939C329.465 77.939 329.845 77.9978 330.198 78.1153C330.553 78.2304 330.872 78.4004 331.154 78.6255C331.437 78.8481 331.671 79.1206 331.856 79.4432C332.041 79.7634 332.166 80.1297 332.231 80.5424ZM333.618 85.7266L333.618 78.044H336.356C336.952 78.044 337.445 78.1466 337.838 78.3516C338.233 78.5567 338.528 78.8406 338.723 79.2032C338.918 79.5633 339.016 79.9797 339.016 80.4523C339.016 80.9225 338.917 81.3364 338.72 81.694C338.525 82.0491 338.229 82.3254 337.834 82.523C337.442 82.7206 336.948 82.8194 336.353 82.8194H334.278V81.8215H336.248C336.623 81.8215 336.928 81.7678 337.163 81.6602C337.4 81.5527 337.574 81.3964 337.684 81.1913C337.794 80.9863 337.849 80.7399 337.849 80.4523C337.849 80.1622 337.793 79.9109 337.681 79.6983C337.571 79.4858 337.397 79.3232 337.159 79.2107C336.924 79.0956 336.615 79.0381 336.233 79.0381H334.777L334.777 85.7266H333.618ZM337.41 82.2604L339.309 85.7266H337.988L336.128 82.2604H337.41ZM340.426 85.7266L340.426 78.044H345.243V79.0419H341.586L341.586 81.3826H344.992V82.3767H341.586V84.7287H345.288V85.7266H340.426ZM347.44 85.7266H346.21L348.975 78.044H350.314L353.078 85.7266H351.848L349.676 79.4395H349.616L347.44 85.7266ZM347.647 82.7181H351.638V83.6934H347.647L347.647 82.7181ZM352.901 79.0419V78.044H358.847V79.0419H356.45L356.45 85.7266H355.294L355.294 79.0419H352.901ZM360.161 85.7266L360.161 78.044H364.977V79.0419H361.32L361.32 81.3826H364.726V82.3767H361.32V84.7287H365.022V85.7266H360.161ZM369.013 85.7266H366.526L366.526 78.044H369.091C369.844 78.044 370.491 78.1978 371.031 78.5054C371.571 78.8105 371.985 79.2494 372.273 79.8221C372.563 80.3923 372.708 81.0763 372.708 81.874C372.708 82.6743 372.561 83.362 372.269 83.9372C371.979 84.5124 371.559 84.9551 371.008 85.2652C370.458 85.5728 369.793 85.7266 369.013 85.7266ZM367.685 84.7137H368.949C369.534 84.7137 370.021 84.6037 370.408 84.3836C370.796 84.161 371.086 83.8397 371.278 83.4196C371.471 82.9969 371.567 82.4817 371.567 81.874C371.567 81.2714 371.471 80.7599 371.278 80.3398C371.088 79.9197 370.805 79.6008 370.427 79.3832C370.049 79.1657 369.58 79.0569 369.02 79.0569H367.685L367.685 84.7137Z" fill="white"/>
<mask id="mask3_4116_14304" style="mask-type:alpha" maskUnits="userSpaceOnUse" x="377" y="73" width="19" height="19">
<rect x="377.706" y="73.4219" width="17.6058" height="17.6058" fill="#D9D9D9"/>
</mask>
<g mask="url(#mask3_4116_14304)">
<path d="M386.354 87.1385C386.253 87.1385 386.168 87.1045 386.099 87.0366C386.03 86.9687 385.995 86.8841 385.995 86.7829V82.7751L381.833 77.7417C381.766 77.6514 381.756 77.5566 381.804 77.4574C381.852 77.3582 381.931 77.3086 382.041 77.3086H390.976C391.086 77.3086 391.164 77.3582 391.213 77.4574C391.261 77.5566 391.251 77.6514 391.184 77.7417L387.022 82.7751V86.7829C387.022 86.8841 386.988 86.9687 386.92 87.0366C386.853 87.1045 386.768 87.1385 386.667 87.1385H386.354ZM386.508 81.8934L389.479 78.2622H383.519L386.508 81.8934Z" fill="white"/>
</g>
<path d="M438.28 85.7266L438.28 78.044H441.018C441.616 78.044 442.111 78.1528 442.503 78.3704C442.896 78.588 443.19 78.8856 443.385 79.2632C443.58 79.6383 443.678 80.061 443.678 80.5311C443.678 81.0038 443.579 81.4289 443.381 81.8065C443.186 82.1816 442.891 82.4792 442.496 82.6993C442.103 82.9169 441.609 83.0257 441.014 83.0257H439.131V82.0429H440.909C441.287 82.0429 441.593 81.9778 441.828 81.8478C442.063 81.7152 442.236 81.5352 442.346 81.3076C442.456 81.08 442.511 80.8212 442.511 80.5311C442.511 80.241 442.456 79.9834 442.346 79.7584C442.236 79.5333 442.062 79.357 441.824 79.2294C441.589 79.1019 441.279 79.0381 440.894 79.0381H439.439L439.439 85.7266H438.28ZM445.036 85.7266L445.036 78.044H447.775C448.37 78.044 448.864 78.1466 449.257 78.3516C449.652 78.5567 449.947 78.8406 450.142 79.2032C450.337 79.5633 450.434 79.9797 450.434 80.4523C450.434 80.9225 450.336 81.3364 450.138 81.694C449.943 82.0491 449.648 82.3254 449.253 82.523C448.86 82.7206 448.366 82.8194 447.771 82.8194H445.697V81.8215H447.666C448.041 81.8215 448.346 81.7678 448.581 81.6602C448.819 81.5527 448.993 81.3964 449.103 81.1913C449.213 80.9863 449.268 80.7399 449.268 80.4523C449.268 80.1622 449.212 79.9109 449.099 79.6983C448.989 79.4858 448.815 79.3232 448.578 79.2107C448.343 79.0956 448.034 79.0381 447.651 79.0381H446.196L446.196 85.7266H445.036ZM448.829 82.2604L450.727 85.7266H449.407L447.546 82.2604H448.829ZM453.004 78.044L453.004 85.7266H451.845L451.845 78.044H453.004ZM461.073 80.5424H459.903C459.858 80.2923 459.774 80.0722 459.651 79.8821C459.529 79.6921 459.379 79.5308 459.201 79.3982C459.024 79.2657 458.825 79.1657 458.605 79.0981C458.387 79.0306 458.156 78.9969 457.911 78.9969C457.468 78.9969 457.072 79.1081 456.722 79.3307C456.374 79.5533 456.099 79.8796 455.896 80.3098C455.696 80.7399 455.596 81.2651 455.596 81.8853C455.596 82.5105 455.696 83.0382 455.896 83.4683C456.099 83.8985 456.375 84.2236 456.725 84.4436C457.075 84.6637 457.469 84.7737 457.907 84.7737C458.149 84.7737 458.38 84.7412 458.597 84.6762C458.817 84.6087 459.016 84.5099 459.194 84.3799C459.371 84.2498 459.521 84.091 459.644 83.9035C459.769 83.7134 459.855 83.4958 459.903 83.2507L461.073 83.2545C461.01 83.6321 460.889 83.9797 460.709 84.2973C460.532 84.6124 460.303 84.885 460.023 85.1151C459.745 85.3427 459.427 85.519 459.07 85.644C458.712 85.7691 458.322 85.8316 457.899 85.8316C457.234 85.8316 456.641 85.674 456.121 85.3589C455.601 85.0413 455.191 84.5874 454.891 83.9972C454.593 83.4071 454.445 82.7031 454.445 81.8853C454.445 81.065 454.595 80.3611 454.895 79.7734C455.195 79.1832 455.605 78.7305 456.125 78.4154C456.645 78.0978 457.237 77.939 457.899 77.939C458.307 77.939 458.687 77.9978 459.04 78.1153C459.395 78.2304 459.714 78.4004 459.996 78.6255C460.279 78.8481 460.513 79.1206 460.698 79.4432C460.883 79.7634 461.008 80.1297 461.073 80.5424ZM462.46 85.7266L462.46 78.044H467.277V79.0419H463.619L463.619 81.3826H467.025V82.3767H463.619V84.7287H467.322V85.7266H462.46Z" fill="white"/>
<mask id="mask4_4116_14304" style="mask-type:alpha" maskUnits="userSpaceOnUse" x="472" y="73" width="18" height="19">
<rect x="472.382" y="73.4219" width="17.6058" height="17.6058" fill="#D9D9D9"/>
</mask>
<g mask="url(#mask4_4116_14304)">
<path d="M481.029 87.1385C480.929 87.1385 480.844 87.1045 480.774 87.0366C480.705 86.9687 480.671 86.8841 480.671 86.7829V82.7751L476.509 77.7417C476.441 77.6514 476.432 77.5566 476.48 77.4574C476.528 77.3582 476.607 77.3086 476.716 77.3086H485.652C485.761 77.3086 485.84 77.3582 485.888 77.4574C485.937 77.5566 485.927 77.6514 485.859 77.7417L481.698 82.7751V86.7829C481.698 86.8841 481.664 86.9687 481.596 87.0366C481.528 87.1045 481.444 87.1385 481.343 87.1385H481.029ZM481.184 81.8934L484.155 78.2622H478.195L481.184 81.8934Z" fill="white"/>
</g>
<path d="M524.033 85.7266V84.8863L526.632 82.1929C526.91 81.9003 527.139 81.644 527.319 81.4239C527.501 81.2013 527.638 80.99 527.728 80.7899C527.818 80.5899 527.863 80.3773 527.863 80.1522C527.863 79.8971 527.803 79.6771 527.683 79.492C527.563 79.3045 527.399 79.1607 527.191 79.0606C526.984 78.9581 526.75 78.9068 526.49 78.9068C526.215 78.9068 525.975 78.9631 525.77 79.0756C525.564 79.1882 525.407 79.347 525.297 79.552C525.187 79.7571 525.132 79.9972 525.132 80.2723H524.025C524.025 79.8046 524.133 79.3957 524.348 79.0456C524.563 78.6955 524.858 78.4242 525.233 78.2316C525.608 78.0365 526.035 77.939 526.512 77.939C526.995 77.939 527.42 78.0353 527.788 78.2279C528.158 78.4179 528.447 78.678 528.654 79.0081C528.862 79.3357 528.966 79.7058 528.966 80.1185C528.966 80.4036 528.912 80.6824 528.804 80.955C528.699 81.2276 528.515 81.5314 528.253 81.8665C527.99 82.1992 527.625 82.603 527.158 83.0782L525.631 84.6762V84.7325H529.089V85.7266H524.033ZM530.185 84.2261L530.185 83.2883L533.505 78.044H534.244V79.4245H533.775L531.4 83.1832V83.2432H535.95L535.95 84.2261H530.185ZM533.827 85.7266V83.941L533.835 83.5133V78.044H534.934L534.934 85.7266H533.827ZM537.363 85.7266V78.044H538.522V81.3826H542.352V78.044H543.515L543.515 85.7266H542.352L542.352 82.3767H538.522L538.522 85.7266H537.363ZM548.67 78.044L550.808 84.3011H550.894L553.033 78.044H554.285L551.521 85.7266H550.182L547.417 78.044H548.67ZM561.687 81.8853C561.687 82.7056 561.537 83.4108 561.237 84.001C560.936 84.5887 560.525 85.0413 560.002 85.3589C559.482 85.674 558.891 85.8316 558.228 85.8316C557.563 85.8316 556.969 85.674 556.446 85.3589C555.926 85.0413 555.516 84.5874 555.216 83.9972C554.916 83.4071 554.766 82.7031 554.766 81.8853C554.766 81.065 554.916 80.3611 555.216 79.7734C555.516 79.1832 555.926 78.7305 556.446 78.4154C556.969 78.0978 557.563 77.939 558.228 77.939C558.891 77.939 559.482 78.0978 560.002 78.4154C560.525 78.7305 560.936 79.1832 561.237 79.7734C561.537 80.3611 561.687 81.065 561.687 81.8853ZM560.539 81.8853C560.539 81.2601 560.437 80.7337 560.235 80.306C560.035 79.8759 559.76 79.5508 559.41 79.3307C559.062 79.1081 558.668 78.9969 558.228 78.9969C557.785 78.9969 557.39 79.1081 557.043 79.3307C556.695 79.5508 556.42 79.8759 556.217 80.306C556.017 80.7337 555.917 81.2601 555.917 81.8853C555.917 82.5105 556.017 83.0382 556.217 83.4683C556.42 83.896 556.695 84.2211 557.043 84.4436C557.39 84.6637 557.785 84.7737 558.228 84.7737C558.668 84.7737 559.062 84.6637 559.41 84.4436C559.76 84.2211 560.035 83.896 560.235 83.4683C560.437 83.0382 560.539 82.5105 560.539 81.8853ZM563.132 85.7266L563.132 78.044H564.291L564.291 84.7287H567.772V85.7266H563.132Z" fill="white"/>
<mask id="mask5_4116_14304" style="mask-type:alpha" maskUnits="userSpaceOnUse" x="572" y="73" width="19" height="19">
<rect x="572.652" y="73.4219" width="17.6058" height="17.6058" fill="#D9D9D9"/>
</mask>
<g mask="url(#mask5_4116_14304)">
<path d="M581.299 87.1385C581.198 87.1385 581.113 87.1045 581.044 87.0366C580.975 86.9687 580.94 86.8841 580.94 86.7829V82.7751L576.779 77.7417C576.711 77.6514 576.701 77.5566 576.749 77.4574C576.798 77.3582 576.877 77.3086 576.986 77.3086H585.921C586.031 77.3086 586.11 77.3582 586.158 77.4574C586.206 77.5566 586.197 77.6514 586.129 77.7417L581.967 82.7751V86.7829C581.967 86.8841 581.933 86.9687 581.866 87.0366C581.798 87.1045 581.714 87.1385 581.613 87.1385H581.299ZM581.454 81.8934L584.425 78.2622H578.464L581.454 81.8934Z" fill="white"/>
</g>
<path d="M633.402 85.7266V78.044H634.561L634.561 84.7287H638.043V85.7266H633.402ZM640.524 78.044L640.524 85.7266H639.365V78.044H640.524ZM645.037 83.2357H646.177L646.98 84.2823L647.359 84.7475L648.638 86.4168H647.453L646.597 85.3027L646.305 84.8975L645.037 83.2357ZM648.886 81.8853C648.886 82.7056 648.736 83.4108 648.435 84.001C648.135 84.5887 647.724 85.0413 647.201 85.3589C646.681 85.674 646.09 85.8316 645.427 85.8316C644.762 85.8316 644.168 85.674 643.645 85.3589C643.125 85.0413 642.715 84.5874 642.415 83.9972C642.115 83.4071 641.965 82.7031 641.965 81.8853C641.965 81.065 642.115 80.3611 642.415 79.7734C642.715 79.1832 643.125 78.7305 643.645 78.4154C644.168 78.0978 644.762 77.939 645.427 77.939C646.09 77.939 646.681 78.0978 647.201 78.4154C647.724 78.7305 648.135 79.1832 648.435 79.7734C648.736 80.3611 648.886 81.065 648.886 81.8853ZM647.738 81.8853C647.738 81.2601 647.636 80.7337 647.434 80.306C647.234 79.8759 646.959 79.5508 646.609 79.3307C646.261 79.1081 645.867 78.9969 645.427 78.9969C644.984 78.9969 644.589 79.1081 644.242 79.3307C643.894 79.5508 643.619 79.8759 643.416 80.306C643.216 80.7337 643.116 81.2601 643.116 81.8853C643.116 82.5105 643.216 83.0382 643.416 83.4683C643.619 83.896 643.894 84.2211 644.242 84.4436C644.589 84.6637 644.984 84.7737 645.427 84.7737C645.867 84.7737 646.261 84.6637 646.609 84.4436C646.959 84.2211 647.234 83.896 647.434 83.4683C647.636 83.0382 647.738 82.5105 647.738 81.8853ZM655.271 78.044H656.434V83.0969C656.434 83.6346 656.308 84.111 656.055 84.5262C655.803 84.9388 655.447 85.2639 654.99 85.5015C654.532 85.7366 653.996 85.8541 653.38 85.8541C652.768 85.8541 652.233 85.7366 651.775 85.5015C651.317 85.2639 650.962 84.9388 650.71 84.5262C650.457 84.111 650.331 83.6346 650.331 83.0969V78.044H651.49V83.0032C651.49 83.3508 651.566 83.6596 651.719 83.9297C651.874 84.1998 652.093 84.4124 652.375 84.5674C652.658 84.72 652.993 84.7963 653.38 84.7963C653.771 84.7963 654.107 84.72 654.39 84.5674C654.675 84.4124 654.892 84.1998 655.042 83.9297C655.195 83.6596 655.271 83.3508 655.271 83.0032V78.044ZM659.278 78.044L659.278 85.7266H658.119V78.044H659.278ZM663.453 85.7266H660.966V78.044H663.532C664.285 78.044 664.931 78.1978 665.472 78.5054C666.012 78.8105 666.426 79.2494 666.713 79.8221C667.003 80.3923 667.148 81.0763 667.148 81.874C667.148 82.6743 667.002 83.362 666.71 83.9372C666.419 84.5124 665.999 84.9551 665.449 85.2652C664.899 85.5728 664.234 85.7266 663.453 85.7266ZM662.126 84.7137H663.39C663.975 84.7137 664.461 84.6037 664.849 84.3836C665.237 84.161 665.527 83.8397 665.719 83.4196C665.912 82.9969 666.008 82.4817 666.008 81.874C666.008 81.2714 665.912 80.7599 665.719 80.3398C665.529 79.9197 665.245 79.6008 664.868 79.3832C664.49 79.1657 664.021 79.0569 663.461 79.0569H662.126L662.126 84.7137ZM669.749 78.044L669.749 85.7266H668.59L668.59 78.044H669.749ZM671.058 79.0419V78.044H677.004V79.0419H674.607V85.7266H673.451V79.0419H671.058ZM677.725 78.044H679.042L681.049 81.5364H681.131L683.138 78.044H684.455L681.668 82.7106L681.668 85.7266H680.512L680.512 82.7106L677.725 78.044ZM687.752 85.7266L690.404 78.044H692.497L695.146 85.7266H687.752ZM689.92 84.3874H692.981L691.481 79.7996H691.421L689.92 84.3874Z" fill="white"/>
<path d="M778.616 78.044L778.616 85.7266H777.457V78.044H778.616ZM786.505 78.044L786.505 85.7266H785.44L781.535 80.0922H781.463L781.463 85.7266H780.304V78.044H781.377L785.286 83.6859H785.357V78.044H786.505ZM789.355 78.044L789.355 85.7266H788.196V78.044H789.355ZM790.664 79.0419V78.044H796.61V79.0419H794.213V85.7266H793.058V79.0419H790.664ZM799.083 78.044L799.083 85.7266H797.924V78.044H799.083ZM801.42 85.7266H800.19L802.954 78.044H804.293L807.058 85.7266H805.828L803.656 79.4395H803.596L801.42 85.7266ZM801.626 82.7181H805.618V83.6934H801.626V82.7181ZM808.168 85.7266L808.168 78.044H809.327L809.327 84.7287H812.808V85.7266H808.168ZM816.926 85.7266L816.926 78.044H818.085L818.085 84.7287H821.566V85.7266H816.926ZM822.888 85.7266L822.888 78.044H825.627C826.224 78.044 826.72 78.1528 827.112 78.3704C827.505 78.588 827.799 78.8856 827.994 79.2632C828.189 79.6383 828.286 80.061 828.286 80.5311C828.286 81.0038 828.188 81.4289 827.99 81.8065C827.795 82.1816 827.5 82.4792 827.105 82.6993C826.712 82.9169 826.218 83.0257 825.623 83.0257H823.74V82.0429H825.518C825.896 82.0429 826.202 81.9778 826.437 81.8478C826.672 81.7152 826.845 81.5352 826.955 81.3076C827.065 81.08 827.12 80.8212 827.12 80.5311C827.12 80.241 827.065 79.9834 826.955 79.7584C826.845 79.5333 826.671 79.357 826.433 79.2294C826.198 79.1019 825.888 79.0381 825.503 79.0381H824.047L824.047 85.7266H822.888Z" fill="white"/>
<path d="M906.573 80.7575C906.533 80.4024 906.368 80.1273 906.078 79.9322C905.788 79.7347 905.423 79.6359 904.983 79.6359C904.667 79.6359 904.395 79.6859 904.165 79.7859C903.935 79.8835 903.756 80.0185 903.628 80.1911C903.503 80.3611 903.441 80.5549 903.441 80.7725C903.441 80.9551 903.483 81.1126 903.568 81.2452C903.656 81.3777 903.77 81.489 903.91 81.579C904.052 81.6666 904.205 81.7403 904.367 81.8004C904.53 81.8579 904.686 81.9054 904.836 81.9429L905.586 82.138C905.832 82.198 906.083 82.2793 906.34 82.3818C906.598 82.4843 906.837 82.6194 907.057 82.7869C907.277 82.9545 907.455 83.1621 907.59 83.4096C907.727 83.6572 907.796 83.9536 907.796 84.2987C907.796 84.7338 907.683 85.1202 907.458 85.4578C907.236 85.7954 906.912 86.0618 906.487 86.2568C906.064 86.4519 905.553 86.5494 904.953 86.5494C904.377 86.5494 903.88 86.4581 903.46 86.2756C903.039 86.093 902.711 85.8342 902.473 85.4991C902.235 85.1615 902.104 84.7613 902.079 84.2987H903.242C903.264 84.5763 903.355 84.8076 903.512 84.9927C903.672 85.1752 903.876 85.3115 904.124 85.4015C904.374 85.4891 904.647 85.5328 904.945 85.5328C905.273 85.5328 905.564 85.4816 905.819 85.379C906.077 85.274 906.279 85.129 906.427 84.9439C906.574 84.7563 906.648 84.5375 906.648 84.2874C906.648 84.0598 906.583 83.8735 906.453 83.7285C906.325 83.5834 906.152 83.4634 905.932 83.3684C905.714 83.2733 905.468 83.1896 905.193 83.117L904.285 82.8695C903.67 82.7019 903.182 82.4556 902.822 82.1305C902.464 81.8054 902.285 81.3752 902.285 80.84C902.285 80.3974 902.405 80.011 902.646 79.6809C902.886 79.3508 903.211 79.0945 903.621 78.9119C904.031 78.7268 904.494 78.6343 905.009 78.6343C905.529 78.6343 905.988 78.7256 906.386 78.9082C906.786 79.0907 907.101 79.3421 907.331 79.6622C907.561 79.9798 907.681 80.3449 907.691 80.7575H906.573ZM914.121 78.7394H915.284L915.284 83.7923C915.284 84.3299 915.158 84.8063 914.905 85.2215C914.653 85.6341 914.298 85.9592 913.84 86.1968C913.382 86.4319 912.846 86.5494 912.231 86.5494C911.618 86.5494 911.083 86.4319 910.625 86.1968C910.168 85.9592 909.813 85.6341 909.56 85.2215C909.307 84.8063 909.181 84.3299 909.181 83.7923V78.7394H910.34L910.34 83.6985C910.34 84.0461 910.417 84.3549 910.569 84.625C910.724 84.8951 910.943 85.1077 911.226 85.2627C911.508 85.4153 911.843 85.4916 912.231 85.4916C912.621 85.4916 912.957 85.4153 913.24 85.2627C913.525 85.1077 913.743 84.8951 913.893 84.625C914.045 84.3549 914.121 84.0461 914.121 83.6985L914.121 78.7394ZM916.97 86.4219V78.7394H919.708C920.306 78.7394 920.801 78.8481 921.193 79.0657C921.586 79.2833 921.88 79.5809 922.075 79.9585C922.27 80.3336 922.368 80.7563 922.368 81.2264C922.368 81.6991 922.269 82.1242 922.071 82.5018C921.876 82.877 921.581 83.1746 921.186 83.3946C920.793 83.6122 920.299 83.721 919.704 83.721H917.821V82.7382H919.599C919.977 82.7382 920.283 82.6731 920.518 82.5431C920.753 82.4106 920.926 82.2305 921.036 82.0029C921.146 81.7753 921.201 81.5165 921.201 81.2264C921.201 80.9363 921.146 80.6787 921.036 80.4537C920.926 80.2286 920.752 80.0523 920.515 79.9247C920.279 79.7972 919.969 79.7334 919.584 79.7334H918.129L918.129 86.4219H916.97ZM923.727 86.4219V78.7394H926.465C927.063 78.7394 927.558 78.8481 927.95 79.0657C928.343 79.2833 928.637 79.5809 928.832 79.9585C929.027 80.3336 929.125 80.7563 929.125 81.2264C929.125 81.6991 929.026 82.1242 928.828 82.5018C928.633 82.877 928.338 83.1746 927.943 83.3946C927.55 83.6122 927.056 83.721 926.461 83.721H924.578V82.7382H926.356C926.734 82.7382 927.04 82.6731 927.275 82.5431C927.51 82.4106 927.683 82.2305 927.793 82.0029C927.903 81.7753 927.958 81.5165 927.958 81.2264C927.958 80.9363 927.903 80.6787 927.793 80.4537C927.683 80.2286 927.509 80.0523 927.271 79.9247C927.036 79.7972 926.726 79.7334 926.341 79.7334H924.886L924.886 86.4219H923.727ZM930.483 86.4219V78.7394H931.643L931.643 85.424H935.124V86.4219H930.483ZM935.286 78.7394H936.603L938.61 82.2317H938.692L940.699 78.7394H942.016L939.228 83.4059V86.4219H938.073V83.4059L935.286 78.7394Z" fill="white"/>
<path d="M997.435 86.4219V78.7394H1002.2V79.7372H998.594L998.594 82.0779H1001.86V83.072H998.594V86.4219H997.435ZM1006.11 86.4219H1003.62V78.7394H1006.19C1006.94 78.7394 1007.59 78.8932 1008.13 79.2008C1008.67 79.5059 1009.08 79.9447 1009.37 80.5174C1009.66 81.0876 1009.81 81.7716 1009.81 82.5694C1009.81 83.3696 1009.66 84.0573 1009.37 84.6325C1009.08 85.2077 1008.66 85.6504 1008.11 85.9605C1007.56 86.2681 1006.89 86.4219 1006.11 86.4219ZM1004.78 85.409H1006.05C1006.63 85.409 1007.12 85.299 1007.51 85.0789C1007.9 84.8564 1008.19 84.535 1008.38 84.1149C1008.57 83.6922 1008.67 83.1771 1008.67 82.5694C1008.67 81.9667 1008.57 81.4552 1008.38 81.0351C1008.19 80.615 1007.9 80.2961 1007.53 80.0785C1007.15 79.861 1006.68 79.7522 1006.12 79.7522H1004.78L1004.78 85.409ZM1011.25 78.7394H1012.66L1015.1 84.7113H1015.19L1017.64 78.7394H1019.04L1019.04 86.4219H1017.94L1017.94 80.8626H1017.87L1015.6 86.4106H1014.69L1012.42 80.8588H1012.35V86.4219H1011.25V78.7394ZM1027.11 81.2377H1025.94C1025.89 80.9876 1025.81 80.7675 1025.69 80.5775C1025.57 80.3874 1025.42 80.2261 1025.24 80.0935C1025.06 79.961 1024.86 79.861 1024.64 79.7934C1024.42 79.7259 1024.19 79.6922 1023.95 79.6922C1023.5 79.6922 1023.11 79.8035 1022.76 80.026C1022.41 80.2486 1022.14 80.575 1021.93 81.0051C1021.73 81.4352 1021.63 81.9604 1021.63 82.5806C1021.63 83.2058 1021.73 83.7335 1021.93 84.1636C1022.14 84.5938 1022.41 84.9189 1022.76 85.139C1023.11 85.359 1023.51 85.4691 1023.94 85.4691C1024.19 85.4691 1024.42 85.4366 1024.63 85.3715C1024.85 85.304 1025.05 85.2052 1025.23 85.0752C1025.41 84.9451 1025.56 84.7863 1025.68 84.5988C1025.81 84.4087 1025.89 84.1911 1025.94 83.9461L1027.11 83.9498C1027.05 84.3274 1026.93 84.6751 1026.75 84.9927C1026.57 85.3078 1026.34 85.5803 1026.06 85.8104C1025.78 86.038 1025.46 86.2143 1025.11 86.3393C1024.75 86.4644 1024.36 86.5269 1023.94 86.5269C1023.27 86.5269 1022.68 86.3694 1022.16 86.0543C1021.64 85.7367 1021.23 85.2828 1020.93 84.6926C1020.63 84.1024 1020.48 83.3984 1020.48 82.5806C1020.48 81.7603 1020.63 81.0564 1020.93 80.4687C1021.23 79.8785 1021.64 79.4258 1022.16 79.1107C1022.68 78.7931 1023.27 78.6343 1023.94 78.6343C1024.34 78.6343 1024.72 78.6931 1025.08 78.8106C1025.43 78.9257 1025.75 79.0957 1026.03 79.3208C1026.32 79.5434 1026.55 79.816 1026.73 80.1386C1026.92 80.4587 1027.04 80.825 1027.11 81.2377Z" fill="white"/>
<path d="M1151.8 80.6364C1151.76 80.2813 1151.6 80.0062 1151.31 79.8112C1151.02 79.6136 1150.65 79.5148 1150.21 79.5148C1149.9 79.5148 1149.62 79.5648 1149.39 79.6649C1149.16 79.7624 1148.98 79.8974 1148.86 80.07C1148.73 80.24 1148.67 80.4339 1148.67 80.6514C1148.67 80.834 1148.71 80.9915 1148.8 81.1241C1148.88 81.2566 1149 81.3679 1149.14 81.4579C1149.28 81.5455 1149.43 81.6192 1149.6 81.6793C1149.76 81.7368 1149.91 81.7843 1150.06 81.8218L1150.81 82.0169C1151.06 82.0769 1151.31 82.1582 1151.57 82.2607C1151.83 82.3632 1152.06 82.4983 1152.28 82.6658C1152.51 82.8334 1152.68 83.041 1152.82 83.2885C1152.96 83.5361 1153.02 83.8325 1153.02 84.1776C1153.02 84.6127 1152.91 84.9991 1152.69 85.3367C1152.46 85.6743 1152.14 85.9407 1151.71 86.1357C1151.29 86.3308 1150.78 86.4283 1150.18 86.4283C1149.61 86.4283 1149.11 86.337 1148.69 86.1545C1148.27 85.9719 1147.94 85.7131 1147.7 85.378C1147.46 85.0404 1147.33 84.6402 1147.31 84.1776H1148.47C1148.49 84.4552 1148.58 84.6865 1148.74 84.8716C1148.9 85.0541 1149.1 85.1904 1149.35 85.2804C1149.6 85.368 1149.88 85.4117 1150.17 85.4117C1150.5 85.4117 1150.79 85.3605 1151.05 85.2579C1151.3 85.1529 1151.51 85.0079 1151.65 84.8228C1151.8 84.6352 1151.88 84.4164 1151.88 84.1663C1151.88 83.9388 1151.81 83.7524 1151.68 83.6074C1151.55 83.4623 1151.38 83.3423 1151.16 83.2473C1150.94 83.1522 1150.7 83.0685 1150.42 82.9959L1149.51 82.7484C1148.9 82.5808 1148.41 82.3345 1148.05 82.0094C1147.69 81.6843 1147.51 81.2541 1147.51 80.7189C1147.51 80.2763 1147.63 79.8899 1147.87 79.5598C1148.11 79.2297 1148.44 78.9734 1148.85 78.7908C1149.26 78.6058 1149.72 78.5132 1150.24 78.5132C1150.76 78.5132 1151.22 78.6045 1151.61 78.7871C1152.01 78.9696 1152.33 79.221 1152.56 79.5411C1152.79 79.8587 1152.91 80.2238 1152.92 80.6364H1151.8ZM1155 86.3008H1153.77L1156.53 78.6183H1157.87L1160.63 86.3008H1159.4L1157.23 80.0137H1157.17L1155 86.3008ZM1155.2 83.2923H1159.19V84.2676H1155.2V83.2923ZM1161.74 86.3008L1161.74 78.6183H1166.51V79.6161H1162.9V81.9569H1166.17V82.9509H1162.9V86.3008H1161.74ZM1167.93 86.3008L1167.93 78.6183H1172.75V79.6161H1169.09V81.9569H1172.5V82.9509H1169.09V85.303H1172.79V86.3008H1167.93ZM1173.92 79.6161V78.6183H1179.86V79.6161H1177.47L1177.47 86.3008H1176.31L1176.31 79.6161H1173.92ZM1180.59 78.6183H1181.9L1183.91 82.1107H1183.99L1186 78.6183H1187.32L1184.53 83.2848V86.3008H1183.37V83.2848L1180.59 78.6183ZM1197.59 81.1166H1196.42C1196.37 80.8665 1196.29 80.6464 1196.17 80.4564C1196.04 80.2663 1195.89 80.105 1195.71 79.9725C1195.54 79.8399 1195.34 79.7399 1195.12 79.6724C1194.9 79.6048 1194.67 79.5711 1194.42 79.5711C1193.98 79.5711 1193.59 79.6824 1193.24 79.9049C1192.89 80.1275 1192.61 80.4539 1192.41 80.884C1192.21 81.3141 1192.11 81.8393 1192.11 82.4595C1192.11 83.0847 1192.21 83.6124 1192.41 84.0425C1192.61 84.4727 1192.89 84.7978 1193.24 85.0179C1193.59 85.2379 1193.98 85.348 1194.42 85.348C1194.66 85.348 1194.89 85.3155 1195.11 85.2504C1195.33 85.1829 1195.53 85.0841 1195.71 84.9541C1195.88 84.824 1196.03 84.6652 1196.16 84.4777C1196.28 84.2876 1196.37 84.07 1196.42 83.825L1197.59 83.8287C1197.52 84.2063 1197.4 84.554 1197.22 84.8716C1197.05 85.1867 1196.82 85.4593 1196.54 85.6893C1196.26 85.9169 1195.94 86.0932 1195.58 86.2183C1195.23 86.3433 1194.84 86.4058 1194.41 86.4058C1193.75 86.4058 1193.16 86.2483 1192.64 85.9332C1192.11 85.6156 1191.7 85.1617 1191.4 84.5715C1191.11 83.9813 1190.96 83.2773 1190.96 82.4595C1190.96 81.6393 1191.11 80.9353 1191.41 80.3476C1191.71 79.7574 1192.12 79.3047 1192.64 78.9896C1193.16 78.672 1193.75 78.5132 1194.41 78.5132C1194.82 78.5132 1195.2 78.572 1195.55 78.6895C1195.91 78.8046 1196.23 78.9746 1196.51 79.1997C1196.79 79.4223 1197.03 79.6949 1197.21 80.0175C1197.4 80.3376 1197.52 80.7039 1197.59 81.1166ZM1198.97 86.3008L1198.97 78.6183H1200.13V81.9569H1203.96V78.6183H1205.13V86.3008H1203.96V82.9509H1200.13V86.3008H1198.97ZM1206.81 86.3008L1206.81 78.6183H1211.63V79.6161H1207.97V81.9569H1211.38V82.9509H1207.97V85.303H1211.68V86.3008H1206.81ZM1219.56 81.1166H1218.39C1218.34 80.8665 1218.26 80.6464 1218.14 80.4564C1218.02 80.2663 1217.87 80.105 1217.69 79.9725C1217.51 79.8399 1217.31 79.7399 1217.09 79.6724C1216.87 79.6048 1216.64 79.5711 1216.4 79.5711C1215.95 79.5711 1215.56 79.6824 1215.21 79.9049C1214.86 80.1275 1214.59 80.4539 1214.38 80.884C1214.18 81.3141 1214.08 81.8393 1214.08 82.4595C1214.08 83.0847 1214.18 83.6124 1214.38 84.0425C1214.59 84.4727 1214.86 84.7978 1215.21 85.0179C1215.56 85.2379 1215.96 85.348 1216.39 85.348C1216.64 85.348 1216.87 85.3155 1217.08 85.2504C1217.3 85.1829 1217.5 85.0841 1217.68 84.9541C1217.86 84.824 1218.01 84.6652 1218.13 84.4777C1218.26 84.2876 1218.34 84.07 1218.39 83.825L1219.56 83.8287C1219.5 84.2063 1219.38 84.554 1219.2 84.8716C1219.02 85.1867 1218.79 85.4593 1218.51 85.6893C1218.23 85.9169 1217.91 86.0932 1217.56 86.2183C1217.2 86.3433 1216.81 86.4058 1216.39 86.4058C1215.72 86.4058 1215.13 86.2483 1214.61 85.9332C1214.09 85.6156 1213.68 85.1617 1213.38 84.5715C1213.08 83.9813 1212.93 83.2773 1212.93 82.4595C1212.93 81.6393 1213.08 80.9353 1213.38 80.3476C1213.68 79.7574 1214.09 79.3047 1214.61 78.9896C1215.13 78.672 1215.72 78.5132 1216.39 78.5132C1216.79 78.5132 1217.17 78.572 1217.53 78.6895C1217.88 78.8046 1218.2 78.9746 1218.48 79.1997C1218.77 79.4223 1219 79.6949 1219.18 80.0175C1219.37 80.3376 1219.49 80.7039 1219.56 81.1166ZM1220.95 86.3008L1220.95 78.6183H1222.11V82.287H1222.2L1225.42 78.6183H1226.88L1223.78 82.0769L1226.89 86.3008H1225.5L1223.01 82.8684L1222.11 83.9112V86.3008H1220.95ZM1232.13 80.6364C1232.09 80.2813 1231.93 80.0062 1231.64 79.8112C1231.35 79.6136 1230.98 79.5148 1230.54 79.5148C1230.23 79.5148 1229.95 79.5648 1229.72 79.6649C1229.49 79.7624 1229.31 79.8974 1229.19 80.07C1229.06 80.24 1229 80.4339 1229 80.6514C1229 80.834 1229.04 80.9915 1229.13 81.1241C1229.21 81.2566 1229.33 81.3679 1229.47 81.4579C1229.61 81.5455 1229.76 81.6192 1229.93 81.6793C1230.09 81.7368 1230.24 81.7843 1230.39 81.8218L1231.14 82.0169C1231.39 82.0769 1231.64 82.1582 1231.9 82.2607C1232.16 82.3632 1232.39 82.4983 1232.61 82.6658C1232.83 82.8334 1233.01 83.041 1233.15 83.2885C1233.29 83.5361 1233.35 83.8325 1233.35 84.1776C1233.35 84.6127 1233.24 84.9991 1233.02 85.3367C1232.79 85.6743 1232.47 85.9407 1232.04 86.1357C1231.62 86.3308 1231.11 86.4283 1230.51 86.4283C1229.94 86.4283 1229.44 86.337 1229.02 86.1545C1228.6 85.9719 1228.27 85.7131 1228.03 85.378C1227.79 85.0404 1227.66 84.6402 1227.64 84.1776H1228.8C1228.82 84.4552 1228.91 84.6865 1229.07 84.8716C1229.23 85.0541 1229.43 85.1904 1229.68 85.2804C1229.93 85.368 1230.21 85.4117 1230.5 85.4117C1230.83 85.4117 1231.12 85.3605 1231.38 85.2579C1231.63 85.1529 1231.84 85.0079 1231.98 84.8228C1232.13 84.6352 1232.21 84.4164 1232.21 84.1663C1232.21 83.9388 1232.14 83.7524 1232.01 83.6074C1231.88 83.4623 1231.71 83.3423 1231.49 83.2473C1231.27 83.1522 1231.03 83.0685 1230.75 82.9959L1229.84 82.7484C1229.23 82.5808 1228.74 82.3345 1228.38 82.0094C1228.02 81.6843 1227.84 81.2541 1227.84 80.7189C1227.84 80.2763 1227.96 79.8899 1228.2 79.5598C1228.44 79.2297 1228.77 78.9734 1229.18 78.7908C1229.59 78.6058 1230.05 78.5132 1230.57 78.5132C1231.09 78.5132 1231.55 78.6045 1231.94 78.7871C1232.34 78.9696 1232.66 79.221 1232.89 79.5411C1233.12 79.8587 1233.24 80.2238 1233.25 80.6364H1232.13Z" fill="white"/>
<path d="M1377.32 86.3008H1376.09L1378.86 78.6183H1380.2L1382.96 86.3008H1381.73L1379.56 80.0137H1379.5L1377.32 86.3008ZM1377.53 83.2923H1381.52V84.2676H1377.53V83.2923ZM1390.09 81.1166H1388.92C1388.87 80.8665 1388.79 80.6464 1388.67 80.4564C1388.55 80.2663 1388.4 80.105 1388.22 79.9725C1388.04 79.8399 1387.84 79.7399 1387.62 79.6724C1387.4 79.6048 1387.17 79.5711 1386.93 79.5711C1386.49 79.5711 1386.09 79.6824 1385.74 79.9049C1385.39 80.1275 1385.12 80.4539 1384.91 80.884C1384.71 81.3141 1384.61 81.8393 1384.61 82.4595C1384.61 83.0847 1384.71 83.6124 1384.91 84.0425C1385.12 84.4727 1385.39 84.7978 1385.74 85.0179C1386.09 85.2379 1386.49 85.348 1386.92 85.348C1387.17 85.348 1387.4 85.3155 1387.61 85.2504C1387.83 85.1829 1388.03 85.0841 1388.21 84.9541C1388.39 84.824 1388.54 84.6652 1388.66 84.4777C1388.79 84.2876 1388.87 84.07 1388.92 83.825L1390.09 83.8287C1390.03 84.2063 1389.91 84.554 1389.73 84.8716C1389.55 85.1867 1389.32 85.4593 1389.04 85.6893C1388.76 85.9169 1388.44 86.0932 1388.09 86.2183C1387.73 86.3433 1387.34 86.4058 1386.92 86.4058C1386.25 86.4058 1385.66 86.2483 1385.14 85.9332C1384.62 85.6156 1384.21 85.1617 1383.91 84.5715C1383.61 83.9813 1383.46 83.2773 1383.46 82.4595C1383.46 81.6393 1383.61 80.9353 1383.91 80.3476C1384.21 79.7574 1384.62 79.3047 1385.14 78.9896C1385.66 78.672 1386.25 78.5132 1386.92 78.5132C1387.32 78.5132 1387.7 78.572 1388.06 78.6895C1388.41 78.8046 1388.73 78.9746 1389.01 79.1997C1389.3 79.4223 1389.53 79.6949 1389.72 80.0175C1389.9 80.3376 1390.03 80.7039 1390.09 81.1166ZM1391.1 79.6161V78.6183H1397.04V79.6161H1394.65L1394.65 86.3008H1393.49L1393.49 79.6161H1391.1ZM1399.52 78.6183V86.3008H1398.36L1398.36 78.6183H1399.52ZM1407.88 82.4595C1407.88 83.2798 1407.73 83.985 1407.43 84.5752C1407.13 85.1629 1406.72 85.6156 1406.19 85.9332C1405.67 86.2483 1405.08 86.4058 1404.42 86.4058C1403.75 86.4058 1403.16 86.2483 1402.64 85.9332C1402.12 85.6156 1401.71 85.1617 1401.41 84.5715C1401.11 83.9813 1400.96 83.2773 1400.96 82.4595C1400.96 81.6393 1401.11 80.9353 1401.41 80.3476C1401.71 79.7574 1402.12 79.3047 1402.64 78.9896C1403.16 78.672 1403.75 78.5132 1404.42 78.5132C1405.08 78.5132 1405.67 78.672 1406.19 78.9896C1406.72 79.3047 1407.13 79.7574 1407.43 80.3476C1407.73 80.9353 1407.88 81.6393 1407.88 82.4595ZM1406.73 82.4595C1406.73 81.8343 1406.63 81.3079 1406.43 80.8803C1406.23 80.4501 1405.95 80.125 1405.6 79.9049C1405.25 79.6824 1404.86 79.5711 1404.42 79.5711C1403.98 79.5711 1403.58 79.6824 1403.23 79.9049C1402.89 80.125 1402.61 80.4501 1402.41 80.8803C1402.21 81.3079 1402.11 81.8343 1402.11 82.4595C1402.11 83.0847 1402.21 83.6124 1402.41 84.0425C1402.61 84.4702 1402.89 84.7953 1403.23 85.0179C1403.58 85.2379 1403.98 85.348 1404.42 85.348C1404.86 85.348 1405.25 85.2379 1405.6 85.0179C1405.95 84.7953 1406.23 84.4702 1406.43 84.0425C1406.63 83.6124 1406.73 83.0847 1406.73 82.4595ZM1415.52 78.6183V86.3008H1414.46L1410.55 80.6664H1410.48V86.3008H1409.32L1409.32 78.6183H1410.4L1414.31 84.2601H1414.38V78.6183H1415.52Z" fill="white"/>
<defs>
<radialGradient id="paint0_radial_4116_14304" cx="0" cy="0" r="1" gradientUnits="userSpaceOnUse" gradientTransform="translate(728.358 263.811) rotate(84.8426) scale(1250.7 2124.01)">
<stop/>
<stop offset="1" stop-color="#666666"/>
</radialGradient>
</defs>
</svg>
