<svg width="90" height="91" viewBox="0 0 90 91" fill="none" xmlns="http://www.w3.org/2000/svg">
<path d="M67.0678 67.7609C79.3621 55.4665 79.3621 35.5335 67.0678 23.2391C54.7734 10.9448 34.8404 10.9448 22.546 23.2391C10.2517 35.5335 10.2517 55.4665 22.546 67.7609C34.8404 80.0552 54.7734 80.0552 67.0678 67.7609Z" fill="#0D0D0D"/>
<mask id="mask0_1632_888" style="mask-type:luminance" maskUnits="userSpaceOnUse" x="13" y="14" width="46" height="63">
<path d="M41.0775 45.4992C41.0775 33.0932 48.255 22.3628 58.6844 17.2336C54.4994 15.1743 49.7898 14.0176 44.8098 14.0176C27.4236 14.0176 13.3281 28.1131 13.3281 45.4992C13.3281 62.8853 27.4236 76.9808 44.8098 76.9808C49.7898 76.9808 54.4994 75.8214 58.6844 73.7648C48.255 68.6356 41.0775 57.9052 41.0775 45.4992Z" fill="white"/>
</mask>
<g mask="url(#mask0_1632_888)">
<path d="M67.0678 67.7609C79.3621 55.4665 79.3621 35.5335 67.0678 23.2391C54.7734 10.9448 34.8404 10.9448 22.546 23.2391C10.2517 35.5335 10.2517 55.4665 22.546 67.7609C34.8404 80.0552 54.7734 80.0552 67.0678 67.7609Z" fill="#FFC83A"/>
<path d="M36.453 35.2196C37.6639 33.7836 37.4815 31.638 36.0455 30.4271C34.6096 29.2162 32.4639 29.3986 31.253 30.8346C30.0422 32.2705 30.2246 34.4162 31.6605 35.6271C33.0965 36.838 35.2422 36.6555 36.453 35.2196Z" fill="#F9E2A8"/>
<path d="M34.4815 48.3125C34.8643 46.6829 33.8536 45.0514 32.2239 44.6686C30.5942 44.2857 28.9627 45.2965 28.5799 46.9262C28.1971 48.5558 29.2078 50.1873 30.8375 50.5701C32.4672 50.953 34.0986 49.9422 34.4815 48.3125Z" fill="#F9E2A8"/>
<path d="M33.7911 45.5977C34.1141 46.078 34.3018 46.6577 34.3018 47.2816C34.3018 48.9545 32.9463 50.3127 31.2707 50.3127C30.3735 50.3127 29.5646 49.9207 29.0098 49.2996C29.5536 50.1112 30.4784 50.6468 31.5302 50.6468C33.2031 50.6468 34.5613 49.2885 34.5613 47.6156C34.5613 46.8399 34.2687 46.1332 33.7911 45.5977Z" fill="#F3C757"/>
<path d="M31.2717 49.6058C32.5554 49.6058 33.5961 48.5652 33.5961 47.2814C33.5961 45.9977 32.5554 44.957 31.2717 44.957C29.9879 44.957 28.9473 45.9977 28.9473 47.2814C28.9473 48.5652 29.9879 49.6058 31.2717 49.6058Z" fill="#E2AF2E"/>
<path d="M61.6939 66.6176C62.2213 64.3986 60.85 62.1722 58.631 61.6448C56.4119 61.1174 54.1855 62.4887 53.6581 64.7077C53.1307 66.9267 54.502 69.1531 56.721 69.6806C58.94 70.208 61.1665 68.8367 61.6939 66.6176Z" fill="#F9E2A8"/>
<path d="M60.7532 62.9111C61.1922 63.5682 61.4489 64.3549 61.4489 65.2052C61.4489 67.4854 59.5993 69.335 57.3191 69.335C56.0962 69.335 54.9947 68.8022 54.2383 67.9547C54.9781 69.0617 56.2397 69.7905 57.6724 69.7905C59.9527 69.7905 61.8023 67.9409 61.8023 65.6607C61.8023 64.6034 61.4047 63.6427 60.7532 62.9111Z" fill="#EEB31D"/>
<path d="M58.5371 68.1333C60.1541 67.4635 60.922 65.6096 60.2522 63.9926C59.5824 62.3755 57.7285 61.6077 56.1115 62.2775C54.4945 62.9473 53.7266 64.8011 54.3964 66.4181C55.0662 68.0352 56.92 68.8031 58.5371 68.1333Z" fill="#E2AF2E"/>
<path d="M24.4018 31.1099C25.7116 30.5708 26.3364 29.0721 25.7973 27.7623C25.2583 26.4525 23.7595 25.8277 22.4497 26.3667C21.1399 26.9058 20.5151 28.4046 21.0542 29.7143C21.5932 31.0241 23.092 31.6489 24.4018 31.1099Z" fill="#F9E2A8"/>
<path d="M25.3353 27.0352C25.6086 27.4437 25.7687 27.9323 25.7687 28.4596C25.7687 29.8758 24.6203 31.0242 23.2041 31.0242C22.4449 31.0242 21.7603 30.6929 21.291 30.1684C21.752 30.8558 22.5333 31.3085 23.4249 31.3085C24.8411 31.3085 25.9895 30.1601 25.9895 28.744C25.9895 28.0869 25.7438 27.4907 25.338 27.0352H25.3353Z" fill="#EEB31D"/>
<path d="M25.169 28.4605C25.169 29.5481 24.2884 30.4288 23.2007 30.4288C22.113 30.4288 21.2324 29.5481 21.2324 28.4605C21.2324 27.3728 22.113 26.4922 23.2007 26.4922C24.2884 26.4922 25.169 27.3728 25.169 28.4605Z" fill="#E2AF2E"/>
<path d="M48.967 36.3499C52.6809 36.3499 55.6917 33.3391 55.6917 29.6252C55.6917 25.9112 52.6809 22.9004 48.967 22.9004C45.253 22.9004 42.2422 25.9112 42.2422 29.6252C42.2422 33.3391 45.253 36.3499 48.967 36.3499Z" fill="#F9E2A8"/>
<path d="M53.9819 25.1475C54.6969 26.2158 55.1138 27.4995 55.1138 28.8825C55.1138 32.5955 52.102 35.6073 48.389 35.6073C46.3959 35.6073 44.6043 34.7377 43.373 33.3602C44.5794 35.1628 46.6333 36.3499 48.966 36.3499C52.679 36.3499 55.6907 33.3381 55.6907 29.6251C55.6907 27.9053 55.0448 26.3373 53.9819 25.1475Z" fill="#EEB31D"/>
<path d="M53.3864 30.1715C54.0984 27.4123 52.4389 24.5984 49.6798 23.8864C46.9206 23.1744 44.1067 24.8339 43.3947 27.593C42.6827 30.3521 44.3422 33.1661 47.1013 33.8781C49.8605 34.5901 52.6744 32.9306 53.3864 30.1715Z" fill="#E2AF2E"/>
<path d="M43.23 69.7918C43.23 70.8242 42.3936 71.6607 41.3611 71.6607C40.3286 71.6607 39.4922 70.8242 39.4922 69.7918C39.4922 68.7593 40.3286 67.9229 41.3611 67.9229C42.3936 67.9229 43.23 68.7593 43.23 69.7918Z" fill="#EEB31D"/>
<path d="M33.2378 21.7547C33.2378 22.7871 32.4014 23.6236 31.3689 23.6236C30.3365 23.6236 29.5 22.7871 29.5 21.7547C29.5 20.7222 30.3365 19.8857 31.3689 19.8857C32.4014 19.8857 33.2378 20.7222 33.2378 21.7547Z" fill="#EEB31D"/>
<g style="mix-blend-mode:multiply">
<path d="M23.1189 61.1265C24.1511 61.1265 24.9878 60.2898 24.9878 59.2576C24.9878 58.2254 24.1511 57.3887 23.1189 57.3887C22.0867 57.3887 21.25 58.2254 21.25 59.2576C21.25 60.2898 22.0867 61.1265 23.1189 61.1265Z" fill="#FFC83A"/>
</g>
<g style="mix-blend-mode:multiply">
<path d="M44.8045 52.5161C45.8366 52.5161 46.6734 51.6794 46.6734 50.6472C46.6734 49.6151 45.8366 48.7783 44.8045 48.7783C43.7723 48.7783 42.9355 49.6151 42.9355 50.6472C42.9355 51.6794 43.7723 52.5161 44.8045 52.5161Z" fill="#FFC83A"/>
</g>
<path d="M20.564 39.3406C20.564 40.373 19.7275 41.2095 18.6951 41.2095C17.6626 41.2095 16.8262 40.373 16.8262 39.3406C16.8262 38.3081 17.6626 37.4717 18.6951 37.4717C19.7275 37.4717 20.564 38.3081 20.564 39.3406Z" fill="#EEB31D"/>
<g style="mix-blend-mode:multiply">
<path d="M74.3046 34.4795C70.8097 53.2514 54.3484 67.4629 34.5634 67.4629C29.3762 67.4629 24.4182 66.4856 19.8633 64.705C25.6191 72.1697 34.6517 76.9813 44.8079 76.9813C62.194 76.9813 76.2895 62.8858 76.2895 45.4997C76.2895 41.6211 75.5855 37.9109 74.3046 34.4795Z" fill="#FFC83A"/>
</g>
</g>
</svg>
