<svg width="12" height="11" viewBox="0 0 12 11" fill="none" xmlns="http://www.w3.org/2000/svg">
<path d="M6.02247 8.77559C6.17931 8.77559 6.3127 8.72052 6.42264 8.61038C6.53257 8.50023 6.58754 8.36674 6.58754 8.2099C6.58754 8.05306 6.53246 7.91968 6.42232 7.80975C6.31218 7.69981 6.17869 7.64484 6.02185 7.64484C5.86501 7.64484 5.73163 7.69991 5.6217 7.81006C5.51176 7.9202 5.45679 8.05369 5.45679 8.21053C5.45679 8.36737 5.51186 8.50076 5.622 8.6107C5.73214 8.72063 5.86564 8.77559 6.02247 8.77559ZM5.60934 6.7014H6.4159C6.42338 6.37534 6.46059 6.1435 6.52752 6.00589C6.59445 5.8683 6.72701 5.70153 6.9252 5.50558C7.26921 5.17129 7.50217 4.89308 7.62407 4.67097C7.74597 4.44885 7.80692 4.2093 7.80692 3.95231C7.80692 3.45995 7.64352 3.05073 7.31672 2.72466C6.9899 2.3986 6.57035 2.23556 6.05806 2.23556C5.62954 2.23556 5.24608 2.35092 4.90767 2.58164C4.56927 2.81235 4.32715 3.12327 4.18131 3.51439L4.91607 3.82961C5.02601 3.53869 5.1767 3.32817 5.36815 3.19805C5.55961 3.06792 5.77612 3.00285 6.01768 3.00285C6.32356 3.00285 6.56867 3.08998 6.75301 3.26424C6.93737 3.43849 7.02954 3.66323 7.02954 3.93844C7.02954 4.16579 6.95606 4.36416 6.8091 4.53355C6.66215 4.70294 6.49631 4.87401 6.31159 5.04678C6.01619 5.32423 5.8253 5.56822 5.73892 5.77874C5.65253 5.98927 5.60934 6.29682 5.60934 6.7014ZM6.0007 10.8083C5.27313 10.8083 4.58672 10.6701 3.94148 10.3938C3.29622 10.1175 2.73145 9.73734 2.24716 9.25327C1.76285 8.76919 1.38249 8.20467 1.10605 7.55972C0.829622 6.91478 0.691406 6.22852 0.691406 5.50095C0.691406 4.76365 0.829559 4.07481 1.10586 3.43443C1.38217 2.79404 1.76236 2.23169 2.24643 1.7474C2.73051 1.2631 3.29502 0.882731 3.93998 0.606299C4.58492 0.329867 5.27118 0.19165 5.99875 0.19165C6.73604 0.19165 7.42488 0.329804 8.06527 0.606109C8.70566 0.882415 9.268 1.2626 9.75229 1.74667C10.2366 2.23075 10.617 2.79284 10.8934 3.43293C11.1698 4.07301 11.308 4.7617 11.308 5.49899C11.308 6.22656 11.1699 6.91297 10.8936 7.55822C10.6173 8.20347 10.2371 8.76824 9.75302 9.25254C9.26894 9.73684 8.70686 10.1172 8.06677 10.3936C7.42668 10.6701 6.738 10.8083 6.0007 10.8083ZM5.99972 10.05C7.26361 10.05 8.33792 9.60761 9.22264 8.72289C10.1074 7.83816 10.5497 6.76386 10.5497 5.49997C10.5497 4.23608 10.1074 3.16178 9.22264 2.27705C8.33792 1.39233 7.26361 0.949969 5.99972 0.949969C4.73584 0.949969 3.66153 1.39233 2.77681 2.27705C1.89209 3.16178 1.44972 4.23608 1.44972 5.49997C1.44972 6.76386 1.89209 7.83816 2.77681 8.72289C3.66153 9.60761 4.73584 10.05 5.99972 10.05Z" fill="black"/>
</svg>
