<svg width="20" height="20" viewBox="0 0 20 20" fill="none" xmlns="http://www.w3.org/2000/svg">
<g id="help">
<mask id="mask0_27_407" style="mask-type:alpha" maskUnits="userSpaceOnUse" x="0" y="0" width="20" height="20">
<rect id="Bounding box" width="20" height="20" fill="#D9D9D9"/>
</mask>
<g mask="url(#mask0_27_407)">
<path id="help_2" d="M10.0328 14.6794C10.2569 14.6794 10.4474 14.6007 10.6045 14.4434C10.7615 14.286 10.84 14.0953 10.84 13.8713C10.84 13.6472 10.7614 13.4567 10.604 13.2996C10.4467 13.1426 10.256 13.064 10.0319 13.064C9.80785 13.064 9.6173 13.1427 9.46026 13.3001C9.30321 13.4574 9.22468 13.6481 9.22468 13.8722C9.22468 14.0962 9.30335 14.2868 9.4607 14.4438C9.61805 14.6009 9.80875 14.6794 10.0328 14.6794ZM9.44262 11.7163H10.5948C10.6055 11.2505 10.6587 10.9193 10.7543 10.7227C10.8499 10.5261 11.0393 10.2879 11.3224 10.008C11.8139 9.53039 12.1467 9.13295 12.3208 8.81565C12.4949 8.49834 12.582 8.15613 12.582 7.789C12.582 7.08563 12.3486 6.50103 11.8817 6.03521C11.4148 5.5694 10.8155 5.3365 10.0836 5.3365C9.47147 5.3365 8.92367 5.5013 8.44022 5.8309C7.95679 6.16048 7.61091 6.60465 7.40258 7.1634L8.45222 7.61371C8.60928 7.19811 8.82455 6.89737 9.09805 6.71148C9.37157 6.52558 9.68087 6.43263 10.026 6.43263C10.4629 6.43263 10.8131 6.5571 11.0764 6.80604C11.3398 7.05497 11.4715 7.37602 11.4715 7.76919C11.4715 8.09397 11.3665 8.37735 11.1566 8.61934C10.9466 8.86132 10.7097 9.10572 10.4458 9.35252C10.0238 9.74888 9.75112 10.0974 9.62772 10.3982C9.50432 10.6989 9.44262 11.1383 9.44262 11.7163ZM10.0017 17.5833C8.96231 17.5833 7.98173 17.3859 7.05995 16.9912C6.13816 16.5964 5.33134 16.0533 4.63949 15.3618C3.94763 14.6703 3.40425 13.8638 3.00935 12.9424C2.61444 12.0211 2.41699 11.0407 2.41699 10.0013C2.41699 8.94806 2.61435 7.964 3.00908 7.04917C3.4038 6.13432 3.94692 5.33097 4.63845 4.63913C5.32999 3.94727 6.13644 3.40388 7.05781 3.00898C7.97915 2.61408 8.95952 2.41663 9.99891 2.41663C11.0522 2.41663 12.0362 2.61399 12.9511 3.00871C13.8659 3.40343 14.6693 3.94656 15.3611 4.63808C16.053 5.32963 16.5964 6.13261 16.9913 7.04702C17.3862 7.96143 17.5836 8.94527 17.5836 9.99854C17.5836 11.0379 17.3863 12.0185 16.9915 12.9403C16.5968 13.8621 16.0537 14.6689 15.3622 15.3608C14.6706 16.0526 13.8676 16.596 12.9532 16.9909C12.0388 17.3858 11.055 17.5833 10.0017 17.5833ZM10.0003 16.4999C11.8059 16.4999 13.3406 15.868 14.6045 14.6041C15.8684 13.3402 16.5003 11.8055 16.5003 9.99994C16.5003 8.19438 15.8684 6.65966 14.6045 5.39577C13.3406 4.13188 11.8059 3.49994 10.0003 3.49994C8.19475 3.49994 6.66003 4.13188 5.39614 5.39577C4.13225 6.65966 3.5003 8.19438 3.5003 9.99994C3.5003 11.8055 4.13225 13.3402 5.39614 14.6041C6.66003 15.868 8.19475 16.4999 10.0003 16.4999Z" fill="white"/>
</g>
</g>
</svg>
