<svg width="105" height="89" viewBox="0 0 105 89" fill="none" xmlns="http://www.w3.org/2000/svg">
<g clip-path="url(#clip0_1354_250)">
<mask id="mask0_1354_250" style="mask-type:luminance" maskUnits="userSpaceOnUse" x="20" y="0" width="64" height="64">
<path d="M83.1137 0H20.5V64H83.1137V0Z" fill="white"/>
</mask>
<g mask="url(#mask0_1354_250)">
<g filter="url(#filter0_d_1354_250)">
<path d="M26.4961 50.333C29.118 54.094 32.4812 57.2408 36.3652 59.5674C40.2492 61.8938 44.5661 63.3474 49.0331 63.8328C46.7349 60.2664 43.3943 56.9854 39.2239 54.4874C35.0536 51.9894 30.637 50.6248 26.4961 50.333Z" fill="url(#paint0_linear_1354_250)"/>
<path d="M44.8245 44.5408C36.7899 39.727 28.0936 38.5002 21.8711 40.6674C22.4718 42.7148 23.264 44.6972 24.2366 46.5866C29.6429 46.4574 35.5456 47.9716 41.038 51.2614C46.5306 54.5512 50.7315 59.0916 53.3021 63.9998C55.3765 63.9342 57.44 63.6616 59.4636 63.1862C58.2055 56.5394 52.8573 49.3556 44.8245 44.5408Z" fill="url(#paint1_linear_1354_250)"/>
<path d="M83.1156 25.0018C82.0942 20.7168 80.2457 16.6881 77.6809 13.1561C75.116 9.6241 71.8873 6.66134 68.1875 4.4447C64.4878 2.22806 60.3927 0.803008 56.1472 0.254618C51.9015 -0.29377 47.5922 0.0457593 43.4766 1.25293C50.3521 2.12066 57.984 4.78244 65.4685 9.26648C72.9532 13.7505 78.981 19.2682 83.1156 25.0018Z" fill="url(#paint2_linear_1354_250)"/>
<path d="M73.1116 40.7167C69.5922 34.6893 63.5634 28.9177 56.1365 24.4685C48.7098 20.0191 40.8634 17.4777 34.0488 17.3096C28.0535 17.1631 23.5539 18.9604 21.7069 22.2395C21.6964 22.2589 21.6817 22.2773 21.6701 22.2969C21.5039 22.9119 21.3609 23.5279 21.2305 24.1463C23.8095 23.0963 26.7977 22.5117 30.1203 22.4465C37.5092 22.3035 45.7784 24.7407 53.4093 29.3125C61.0401 33.8845 67.1942 40.0877 70.7324 46.7757C72.3186 49.7889 73.3083 52.7555 73.7006 55.5897C74.1572 55.1689 74.6052 54.7339 75.0396 54.2817C75.0512 54.2611 75.0586 54.2393 75.07 54.2177C76.9171 50.9355 76.2028 46.0153 73.1116 40.7167Z" fill="url(#paint3_linear_1354_250)"/>
<path d="M50.4848 34.4969C39.1116 27.6831 26.5437 26.6157 20.5 31.3709C20.5119 32.8593 20.6222 34.3451 20.8303 35.8181C22.6081 35.2623 24.4404 34.9123 26.2933 34.7747C33.0469 34.2507 40.4926 36.1913 47.2495 40.2413C54.0061 44.2915 59.3325 50.0035 62.2375 56.3085C63.0406 58.0359 63.6531 59.8507 64.0634 61.7189C65.4076 61.1755 66.7146 60.5387 67.9752 59.8131C68.987 52.0425 61.8611 41.3119 50.4848 34.4969Z" fill="url(#paint4_linear_1354_250)"/>
<path d="M78.9594 30.6282C75.4002 24.6072 69.3187 18.8194 61.8392 14.3408C54.3599 9.86216 46.4829 7.28064 39.6463 7.07346C34.4346 6.91836 30.3978 8.22104 28.3047 10.6822C36.9957 9.16362 48.4593 11.7159 59.5705 18.3725C70.6819 25.0292 78.5135 34.0362 81.5364 42.5736C82.5725 39.4812 81.671 35.2196 78.9594 30.6282Z" fill="url(#paint5_linear_1354_250)"/>
</g>
</g>
</g>
<path d="M25.108 86C24.82 86 24.556 85.932 24.316 85.796C24.084 85.652 23.896 85.464 23.752 85.232C23.616 84.992 23.548 84.728 23.548 84.44L23.548 83.6H24.844L24.844 84.404C24.844 84.484 24.872 84.556 24.928 84.62C24.992 84.676 25.064 84.704 25.144 84.704H30.592C30.672 84.704 30.74 84.676 30.796 84.62C30.852 84.556 30.88 84.484 30.88 84.404L30.88 77.36H32.188L32.188 84.44C32.188 84.728 32.116 84.992 31.972 85.232C31.836 85.464 31.648 85.652 31.408 85.796C31.168 85.932 30.908 86 30.628 86H25.108ZM36.7393 86C36.4513 86 36.1873 85.928 35.9473 85.784C35.7153 85.64 35.5273 85.452 35.3833 85.22C35.2473 84.988 35.1793 84.728 35.1793 84.44L35.1793 79.04H36.4753L36.4753 84.404C36.4753 84.484 36.5033 84.556 36.5593 84.62C36.6233 84.676 36.6953 84.704 36.7753 84.704H40.6633C40.7433 84.704 40.8113 84.676 40.8673 84.62C40.9313 84.556 40.9633 84.484 40.9633 84.404L40.9633 79.04H42.2593L42.2593 84.44C42.2593 84.728 42.1873 84.988 42.0433 85.22C41.9073 85.452 41.7193 85.64 41.4793 85.784C41.2473 85.928 40.9873 86 40.6993 86H36.7393ZM44.9924 88.76L44.9924 79.04H50.5124C50.8004 79.04 51.0604 79.112 51.2924 79.256C51.5324 79.4 51.7204 79.588 51.8564 79.82C52.0004 80.052 52.0724 80.312 52.0724 80.6L52.0724 84.44C52.0724 84.728 52.0004 84.988 51.8564 85.22C51.7204 85.452 51.5324 85.64 51.2924 85.784C51.0604 85.928 50.8004 86 50.5124 86H46.2884L46.2884 88.76H44.9924ZM46.5884 84.704H50.4764C50.5564 84.704 50.6244 84.676 50.6804 84.62C50.7444 84.556 50.7764 84.484 50.7764 84.404L50.7764 80.636C50.7764 80.556 50.7444 80.488 50.6804 80.432C50.6244 80.368 50.5564 80.336 50.4764 80.336H46.5884C46.5084 80.336 46.4364 80.368 46.3724 80.432C46.3164 80.488 46.2884 80.556 46.2884 80.636L46.2884 84.404C46.2884 84.484 46.3164 84.556 46.3724 84.62C46.4364 84.676 46.5084 84.704 46.5884 84.704ZM54.7226 86L54.7226 79.04H56.0186L56.0186 86H54.7226ZM54.7226 78.056L54.7226 76.76H56.0186L56.0186 78.056H54.7226ZM60.6465 86C60.3585 86 60.0945 85.928 59.8545 85.784C59.6225 85.64 59.4345 85.452 59.2905 85.22C59.1545 84.988 59.0865 84.728 59.0865 84.44L59.0865 76.844H60.3825L60.3825 79.04H63.2385L63.2385 80.336H60.3825L60.3825 84.404C60.3825 84.484 60.4105 84.556 60.4665 84.62C60.5305 84.676 60.6025 84.704 60.6825 84.704H63.2385L63.2385 86H60.6465ZM67.4001 86C67.1121 86 66.8521 85.928 66.6201 85.784C66.3881 85.64 66.2001 85.452 66.0561 85.22C65.9121 84.988 65.8401 84.728 65.8401 84.44L65.8401 80.6C65.8401 80.312 65.9121 80.052 66.0561 79.82C66.2001 79.588 66.3881 79.4 66.6201 79.256C66.8521 79.112 67.1121 79.04 67.4001 79.04H71.3601C71.6481 79.04 71.9081 79.112 72.1401 79.256C72.3801 79.392 72.5681 79.58 72.7041 79.82C72.8481 80.06 72.9201 80.32 72.9201 80.6V83.168H67.1361L67.1361 84.404C67.1361 84.484 67.1641 84.556 67.2201 84.62C67.2841 84.676 67.3561 84.704 67.4361 84.704H72.9201V86H67.4001ZM67.1361 81.956H71.6121V80.636C71.6121 80.556 71.5841 80.488 71.5281 80.432C71.4721 80.368 71.4041 80.336 71.3241 80.336H67.4361C67.3561 80.336 67.2841 80.368 67.2201 80.432C67.1641 80.488 67.1361 80.556 67.1361 80.636V81.956ZM75.7704 86L75.7704 80.6C75.7704 80.312 75.8424 80.052 75.9864 79.82C76.1304 79.588 76.3184 79.4 76.5504 79.256C76.7904 79.112 77.0504 79.04 77.3304 79.04H81.2184L81.2184 80.336H77.3664C77.2864 80.336 77.2144 80.368 77.1504 80.432C77.0944 80.488 77.0664 80.556 77.0664 80.636L77.0664 86H75.7704Z" fill="white"/>
<defs>
<filter id="filter0_d_1354_250" x="-2.2448" y="-20.4703" width="108.107" height="109.49" filterUnits="userSpaceOnUse" color-interpolation-filters="sRGB">
<feFlood flood-opacity="0" result="BackgroundImageFix"/>
<feColorMatrix in="SourceAlpha" type="matrix" values="0 0 0 0 0 0 0 0 0 0 0 0 0 0 0 0 0 0 127 0" result="hardAlpha"/>
<feOffset dy="2.27449"/>
<feGaussianBlur stdDeviation="11.3724"/>
<feComposite in2="hardAlpha" operator="out"/>
<feColorMatrix type="matrix" values="0 0 0 0 0 0 0 0 0 0 0 0 0 0 0 0 0 0 0.1 0"/>
<feBlend mode="normal" in2="BackgroundImageFix" result="effect1_dropShadow_1354_250"/>
<feBlend mode="normal" in="SourceGraphic" in2="effect1_dropShadow_1354_250" result="shape"/>
</filter>
<linearGradient id="paint0_linear_1354_250" x1="62.1989" y1="12.9998" x2="32.0884" y2="63.1943" gradientUnits="userSpaceOnUse">
<stop offset="0.0001" stop-color="#C7F284"/>
<stop offset="1" stop-color="#00BEF0"/>
</linearGradient>
<linearGradient id="paint1_linear_1354_250" x1="62.1956" y1="12.9998" x2="32.0851" y2="63.1943" gradientUnits="userSpaceOnUse">
<stop offset="0.0001" stop-color="#C7F284"/>
<stop offset="1" stop-color="#00BEF0"/>
</linearGradient>
<linearGradient id="paint2_linear_1354_250" x1="62.1989" y1="13" x2="32.0884" y2="63.1945" gradientUnits="userSpaceOnUse">
<stop offset="0.0001" stop-color="#C7F284"/>
<stop offset="1" stop-color="#00BEF0"/>
</linearGradient>
<linearGradient id="paint3_linear_1354_250" x1="62.1985" y1="13.0001" x2="32.088" y2="63.1945" gradientUnits="userSpaceOnUse">
<stop offset="0.0001" stop-color="#C7F284"/>
<stop offset="1" stop-color="#00BEF0"/>
</linearGradient>
<linearGradient id="paint4_linear_1354_250" x1="62.197" y1="12.9999" x2="32.0865" y2="63.1944" gradientUnits="userSpaceOnUse">
<stop offset="0.0001" stop-color="#C7F284"/>
<stop offset="1" stop-color="#00BEF0"/>
</linearGradient>
<linearGradient id="paint5_linear_1354_250" x1="62.1964" y1="13" x2="32.0859" y2="63.1944" gradientUnits="userSpaceOnUse">
<stop offset="0.0001" stop-color="#C7F284"/>
<stop offset="1" stop-color="#00BEF0"/>
</linearGradient>
<clipPath id="clip0_1354_250">
<rect width="64" height="64" fill="white" transform="translate(20.5)"/>
</clipPath>
</defs>
</svg>
