<svg width="20" height="20" viewBox="0 0 20 20" fill="none" xmlns="http://www.w3.org/2000/svg">
<mask id="mask0_1290_5588" style="mask-type:alpha" maskUnits="userSpaceOnUse" x="0" y="0" width="20" height="20">
<rect width="20" height="20" fill="#D9D9D9"/>
</mask>
<g mask="url(#mask0_1290_5588)">
<path d="M4.75674 16.5831C4.38163 16.5831 4.06456 16.4536 3.80553 16.1946C3.54651 15.9356 3.41699 15.6185 3.41699 15.2434V4.75625C3.41699 4.38114 3.54651 4.06407 3.80553 3.80505C4.06456 3.54602 4.38163 3.4165 4.75674 3.4165H9.67976V4.49982H4.75674C4.69263 4.49982 4.63386 4.52653 4.58043 4.57994C4.52701 4.63337 4.5003 4.69214 4.5003 4.75625V15.2434C4.5003 15.3075 4.52701 15.3663 4.58043 15.4197C4.63386 15.4731 4.69263 15.4998 4.75674 15.4998H15.2439C15.308 15.4998 15.3667 15.4731 15.4202 15.4197C15.4736 15.3663 15.5003 15.3075 15.5003 15.2434V10.3204H16.5836V15.2434C16.5836 15.6185 16.4541 15.9356 16.1951 16.1946C15.936 16.4536 15.619 16.5831 15.2439 16.5831H4.75674ZM8.07883 12.6953L7.3048 11.9213L14.7263 4.49982H12.0003V3.4165H16.5836V7.99982H15.5003V5.27384L8.07883 12.6953Z" fill="white"/>
</g>
</svg>
