<svg width="20" height="20" viewBox="0 0 20 20" fill="none" xmlns="http://www.w3.org/2000/svg">
<mask id="mask0_2050_16002" style="mask-type:alpha" maskUnits="userSpaceOnUse" x="0" y="0" width="20" height="20">
<rect width="20" height="20" fill="#D9D9D9"/>
</mask>
<g mask="url(#mask0_2050_16002)">
<path d="M15.4993 15.2448V12.7208H4.49933V15.2448C4.49933 15.3196 4.52337 15.3811 4.57145 15.4292C4.61954 15.4772 4.68097 15.5013 4.75577 15.5013H15.2429C15.3177 15.5013 15.3791 15.4772 15.4272 15.4292C15.4753 15.3811 15.4993 15.3196 15.4993 15.2448ZM15.4993 11.6375V8.36505H4.49933V11.6375H15.4993ZM15.4993 7.28176V4.75772C15.4993 4.68293 15.4753 4.62149 15.4272 4.57341C15.3791 4.52532 15.3177 4.50128 15.2429 4.50128H4.75577C4.68097 4.50128 4.61954 4.52532 4.57145 4.57341C4.52337 4.62149 4.49933 4.68293 4.49933 4.75772V7.28176H15.4993ZM4.75577 16.5846C4.39038 16.5846 4.07574 16.4527 3.81185 16.1888C3.54796 15.9249 3.41602 15.6102 3.41602 15.2448V4.75772C3.41602 4.38261 3.54796 4.06554 3.81185 3.80651C4.07574 3.54748 4.39038 3.41797 4.75577 3.41797H15.2429C15.618 3.41797 15.9351 3.54748 16.1941 3.80651C16.4531 4.06554 16.5826 4.38261 16.5826 4.75772V15.2448C16.5826 15.6102 16.4531 15.9249 16.1941 16.1888C15.9351 16.4527 15.618 16.5846 15.2429 16.5846H4.75577Z" fill="#8D8D8D"/>
</g>
</svg>
