<svg width="171" height="215" viewBox="0 0 171 215" fill="none" xmlns="http://www.w3.org/2000/svg">
<path d="M168.081 4.71278L140.706 0.594598C139.896 0.429871 139.086 0.759305 138.763 1.08876L127.1 16.5731C126.29 17.5615 126.128 18.8793 126.452 20.0324C126.776 21.1855 125.804 22.1739 124.67 22.0092L115.114 19.8677C113.656 19.5382 112.036 20.0324 111.064 21.3503L73.1613 70.7685C72.5134 71.7568 71.2176 72.0863 70.0837 71.5921L55.6676 65.003C54.3718 64.3441 52.914 64.5088 51.7801 65.3324L44.4911 70.439C43.3573 71.2626 41.7375 71.4274 40.4417 70.7685L36.8781 68.9565C34.6104 67.8034 31.8568 69.1212 31.2089 71.5921L28.6172 83.2877C27.9693 86.0881 29.1032 88.8885 31.5329 90.371L37.0401 93.8303L54.6958 104.867L63.2806 110.303C65.7103 111.786 68.7879 111.456 70.8936 109.644L85.3097 96.7954C86.4435 95.807 88.2253 95.4776 89.5211 96.3012L93.8945 98.6074C95.3523 99.431 97.1341 99.1016 98.2679 97.9485L105.557 91.0299C106.691 89.8768 108.473 89.7121 109.768 90.371L120.621 95.4776C122.241 96.3012 124.184 95.807 125.318 94.3245L130.34 87.7354L168.405 38.1524C170.186 35.8462 169.052 32.387 166.137 31.7281L157.714 29.7513C155.932 29.4219 155.122 27.1157 156.418 25.7979L169.538 9.16039C170.834 7.18366 170.024 5.04224 168.081 4.71278Z" fill="url(#paint0_linear_1109_3387)"/>
<path d="M42.5399 104.539C41.73 104.045 40.9201 104.868 41.244 105.692L45.2935 116.564C45.6175 117.388 45.6174 118.211 45.4555 119.035L41.8919 133.201C41.73 134.19 42.0539 135.178 42.7018 135.672L52.9065 143.744C53.8783 144.403 55.1742 144.403 55.9841 143.579L66.6746 134.025C67.3225 133.531 68.1324 133.201 68.7804 133.037L80.9287 131.719C81.7386 131.554 82.0626 130.401 81.2527 129.907L42.5399 104.539Z" fill="#D9D9D9"/>
<path d="M38.9852 141.105C38.3373 140.611 37.3655 140.446 36.5556 140.776L27.9707 145.059C27.4848 145.223 27.1608 145.718 26.8369 146.212L8.53333 192.171C8.53333 192.336 8.53333 192.335 8.53333 192.5C8.69531 192.665 8.85727 192.83 9.18123 192.83L13.3927 191.182C13.5547 191.182 13.7166 191.182 13.8786 191.182C14.0406 191.347 14.2026 191.677 14.0406 191.841L0.920322 213.75C0.596365 214.244 1.24429 214.738 1.56825 214.244L49.0279 165.814C49.5139 165.32 49.6758 164.826 49.8378 164.167L50.8097 151.648C50.8097 150.824 50.4857 150.165 49.9998 149.671L38.9852 141.105Z" fill="#D9D9D9"/>
<defs>
<linearGradient id="paint0_linear_1109_3387" x1="102.025" y1="1.66699" x2="6.77474" y2="128.667" gradientUnits="userSpaceOnUse">
<stop stop-color="#FFC83A"/>
<stop offset="1" stop-color="#F7931A"/>
</linearGradient>
</defs>
</svg>
