<svg width="47" height="48" viewBox="0 0 47 48" fill="none" xmlns="http://www.w3.org/2000/svg">
<rect x="0.5" y="1" width="46" height="46" fill="black"/>
<rect x="0.5" y="1" width="46" height="46" stroke="#4D4D4D"/>
<mask id="mask0_940_1633" style="mask-type:alpha" maskUnits="userSpaceOnUse" x="7" y="8" width="33" height="32">
<rect x="7.5" y="8" width="32" height="32" fill="#D9D9D9"/>
</mask>
<g mask="url(#mask0_940_1633)">
<path d="M13.9257 23.7334C14.4727 21.9454 15.5406 20.0428 17.1295 18.0257C18.7184 16.0086 20.8418 13.8462 23.5 11.5386C26.1581 13.8462 28.2816 16.0086 29.8704 18.0257C31.4593 20.0428 32.5273 21.9454 33.0743 23.7334H30.9666C30.4555 22.3556 29.5777 20.8723 28.3333 19.2834C27.0888 17.6945 25.4777 16 23.5 14.2C21.5444 16 19.9388 17.6945 18.6833 19.2834C17.4277 20.8723 16.5444 22.3556 16.0333 23.7334H13.9257ZM33.3768 27.7666C33.2538 28.5307 33.0341 29.2572 32.7179 29.9461C32.4017 30.6349 31.9957 31.2657 31.5 31.8383L28.5511 34.7744C27.9784 35.2702 27.3498 35.6706 26.6652 35.9757C25.9806 36.2808 25.2631 36.4838 24.5127 36.5846L33.3768 27.7666ZM27.7384 26.4H30.6024L20.7512 36.2384C20.3768 36.1444 20.0149 36.038 19.6653 35.9192C19.3157 35.8004 18.9786 35.6444 18.6538 35.4513L27.7384 26.4ZM20.7461 26.4H23.6101L16.3615 33.6487C16.1136 33.4059 15.8825 33.1564 15.6679 32.9C15.4534 32.6436 15.2538 32.3692 15.0692 32.0769L20.7461 26.4ZM13.4795 26.4H16.6102L13.8538 29.1564C13.7273 28.7017 13.6367 28.2457 13.5821 27.7885C13.5273 27.3312 13.4932 26.8684 13.4795 26.4Z" fill="white"/>
</g>
</svg>
