<svg width="47" height="48" viewBox="0 0 47 48" fill="none" xmlns="http://www.w3.org/2000/svg">
<rect x="0.5" y="1" width="46" height="46" fill="black"/>
<rect x="0.5" y="1" width="46" height="46" stroke="#FFC83A"/>
<mask id="mask0_217_2730" style="mask-type:alpha" maskUnits="userSpaceOnUse" x="7" y="8" width="33" height="32">
<rect x="7.5" y="8" width="32" height="32" fill="#D9D9D9"/>
</mask>
<g mask="url(#mask0_217_2730)">
<path d="M13.9267 23.7329C14.4737 21.9449 15.5416 20.0423 17.1305 18.0252C18.7194 16.0081 20.8429 13.8458 23.501 11.5381C26.1591 13.8458 28.2826 16.0081 29.8714 18.0252C31.4603 20.0423 32.5283 21.9449 33.0753 23.7329H13.9267ZM33.3778 27.7662C33.2548 28.5302 33.0351 29.2567 32.7189 29.9456C32.4027 30.6345 31.9967 31.2652 31.501 31.8378L28.5521 34.774C27.9794 35.2697 27.3508 35.6701 26.6662 35.9752C25.9816 36.2803 25.2641 36.4833 24.5137 36.5841L33.3778 27.7662ZM27.7394 26.3996H30.6034L20.7522 36.238C20.3778 36.1439 20.0159 36.0375 19.6663 35.9187C19.3168 35.7999 18.9796 35.6439 18.6548 35.4508L27.7394 26.3996ZM20.7471 26.3996H23.6111L16.3625 33.6482C16.1147 33.4055 15.8835 33.1559 15.6689 32.8995C15.4544 32.6431 15.2548 32.3687 15.0702 32.0764L20.7471 26.3996ZM13.7472 26.3996H16.6112L13.8548 29.1559C13.7283 28.7012 13.6548 28.2418 13.6343 27.7777C13.6138 27.3136 13.6514 26.8542 13.7472 26.3996Z" fill="#FFC83A"/>
</g>
</svg>
