<svg width="118" height="36" viewBox="0 0 118 36" fill="none" xmlns="http://www.w3.org/2000/svg">
<rect width="36" height="36" fill="black"/>
<path d="M25.803 8.28779L23.2165 7.89867C23.1399 7.88311 23.0634 7.91423 23.0328 7.94536L21.9308 9.40845C21.8543 9.50184 21.839 9.62636 21.8696 9.73531C21.9002 9.84427 21.8084 9.93766 21.7013 9.92209L20.7983 9.71975C20.6605 9.68862 20.5075 9.73532 20.4156 9.85984L16.8343 14.5293C16.773 14.6227 16.6506 14.6538 16.5435 14.6071L15.1813 13.9845C15.0589 13.9222 14.9211 13.9378 14.814 14.0156L14.1253 14.4981C14.0181 14.576 13.8651 14.5915 13.7427 14.5293L13.4059 14.3581C13.1917 14.2491 12.9315 14.3736 12.8703 14.6071L12.6254 15.7122C12.5642 15.9768 12.6713 16.2414 12.9009 16.3815L13.4212 16.7083L15.0895 17.7512L15.9007 18.2648C16.1302 18.4049 16.421 18.3738 16.62 18.2026L17.9821 16.9885C18.0893 16.8951 18.2576 16.864 18.3801 16.9418L18.7933 17.1597C18.9311 17.2375 19.0994 17.2064 19.2066 17.0975L19.8953 16.4437C20.0024 16.3348 20.1708 16.3192 20.2932 16.3815L21.3186 16.864C21.4717 16.9418 21.6554 16.8951 21.7625 16.755L22.2369 16.1324L25.8336 11.4474C26.002 11.2295 25.8949 10.9027 25.6194 10.8404L24.8235 10.6536C24.6551 10.6225 24.5786 10.4046 24.7011 10.2801L25.9408 8.70804C26.0632 8.52126 25.9867 8.31892 25.803 8.28779Z" fill="url(#paint0_linear_931_5096)"/>
<path d="M13.9409 17.7202C13.8643 17.6735 13.7878 17.7513 13.8184 17.8291L14.2011 18.8564C14.2317 18.9342 14.2317 19.012 14.2164 19.0899L13.8797 20.4284C13.8643 20.5218 13.895 20.6152 13.9562 20.6619L14.9204 21.4246C15.0122 21.4868 15.1347 21.4868 15.2112 21.409L16.2213 20.5062C16.2825 20.4595 16.3591 20.4284 16.4203 20.4129L17.5682 20.2883C17.6447 20.2728 17.6753 20.1638 17.5988 20.1171L13.9409 17.7202Z" fill="#D9D9D9"/>
<path d="M13.605 21.1753C13.5438 21.1286 13.452 21.113 13.3755 21.1441L12.5643 21.5488C12.5184 21.5644 12.4878 21.6111 12.4571 21.6578L10.7277 26.0003C10.7277 26.0159 10.7277 26.0159 10.7277 26.0315C10.743 26.047 10.7583 26.0626 10.7889 26.0626L11.1868 25.9069C11.2021 25.9069 11.2174 25.9069 11.2327 25.9069C11.2481 25.9225 11.2634 25.9536 11.2481 25.9692L10.0083 28.0393C9.97773 28.086 10.039 28.1327 10.0696 28.086L14.5539 23.51C14.5999 23.4633 14.6152 23.4166 14.6305 23.3543L14.7223 22.1714C14.7223 22.0936 14.6917 22.0313 14.6458 21.9846L13.605 21.1753Z" fill="#D9D9D9"/>
<path d="M47.3491 24V12.48H49.4131L53.8771 17.792L58.3251 12.48H60.4051V24H58.6611V14.8L53.8771 20.496L49.0771 14.8V24H47.3491ZM65.6929 24C65.3089 24 64.9622 23.904 64.6529 23.712C64.3435 23.52 64.0929 23.2693 63.9009 22.96C63.7089 22.6507 63.6129 22.304 63.6129 21.92V16.8C63.6129 16.416 63.7089 16.0693 63.9009 15.76C64.0929 15.4507 64.3435 15.2 64.6529 15.008C64.9622 14.816 65.3089 14.72 65.6929 14.72H70.9729C71.3569 14.72 71.7035 14.816 72.0129 15.008C72.3329 15.1893 72.5835 15.44 72.7649 15.76C72.9569 16.08 73.0529 16.4267 73.0529 16.8V21.92C73.0529 22.304 72.9569 22.6507 72.7649 22.96C72.5835 23.2693 72.3329 23.52 72.0129 23.712C71.7035 23.904 71.3569 24 70.9729 24H65.6929ZM65.7409 22.272H70.9249C71.0315 22.272 71.1222 22.2347 71.1969 22.16C71.2715 22.0747 71.3089 21.9787 71.3089 21.872V16.848C71.3089 16.7413 71.2715 16.6507 71.1969 16.576C71.1222 16.4907 71.0315 16.448 70.9249 16.448H65.7409C65.6342 16.448 65.5382 16.4907 65.4529 16.576C65.3782 16.6507 65.3409 16.7413 65.3409 16.848V21.872C65.3409 21.9787 65.3782 22.0747 65.4529 22.16C65.5382 22.2347 65.6342 22.272 65.7409 22.272ZM77.9273 24C77.5433 24 77.1966 23.904 76.8873 23.712C76.5779 23.52 76.3273 23.2693 76.1353 22.96C75.9433 22.6507 75.8473 22.304 75.8473 21.92V16.8C75.8473 16.416 75.9433 16.0693 76.1353 15.76C76.3273 15.4507 76.5779 15.2 76.8873 15.008C77.1966 14.816 77.5433 14.72 77.9273 14.72H83.2073C83.5913 14.72 83.9379 14.816 84.2473 15.008C84.5673 15.1893 84.8179 15.44 84.9993 15.76C85.1913 16.08 85.2873 16.4267 85.2873 16.8V21.92C85.2873 22.304 85.1913 22.6507 84.9993 22.96C84.8179 23.2693 84.5673 23.52 84.2473 23.712C83.9379 23.904 83.5913 24 83.2073 24H77.9273ZM77.9753 22.272H83.1593C83.2659 22.272 83.3566 22.2347 83.4313 22.16C83.5059 22.0747 83.5433 21.9787 83.5433 21.872V16.848C83.5433 16.7413 83.5059 16.6507 83.4313 16.576C83.3566 16.4907 83.2659 16.448 83.1593 16.448H77.9753C77.8686 16.448 77.7726 16.4907 77.6873 16.576C77.6126 16.6507 77.5753 16.7413 77.5753 16.848V21.872C77.5753 21.9787 77.6126 22.0747 77.6873 22.16C77.7726 22.2347 77.8686 22.272 77.9753 22.272ZM88.1609 24V14.72H95.5209C95.9049 14.72 96.2515 14.816 96.5609 15.008C96.8809 15.2 97.1315 15.4507 97.3129 15.76C97.5049 16.0693 97.6009 16.416 97.6009 16.8V24H95.8729V16.848C95.8729 16.7413 95.8302 16.6507 95.7449 16.576C95.6702 16.4907 95.5795 16.448 95.4729 16.448H90.2889C90.1822 16.448 90.0862 16.4907 90.0009 16.576C89.9262 16.6507 89.8889 16.7413 89.8889 16.848V24H88.1609ZM102.85 24C102.466 24 102.119 23.904 101.81 23.712C101.5 23.52 101.25 23.2693 101.058 22.96C100.866 22.6507 100.77 22.304 100.77 21.92V11.68H102.498V21.872C102.498 21.9787 102.535 22.0747 102.61 22.16C102.695 22.2347 102.791 22.272 102.898 22.272H104.578V24H102.85ZM108.898 27.552V25.808H114.578C114.684 25.808 114.775 25.7653 114.85 25.68C114.935 25.6053 114.978 25.5147 114.978 25.408V24H109.346C108.972 24 108.626 23.9093 108.306 23.728C107.986 23.536 107.73 23.28 107.538 22.96C107.356 22.64 107.266 22.2933 107.266 21.92V14.752H108.994V21.872C108.994 21.9787 109.031 22.0747 109.106 22.16C109.191 22.2347 109.287 22.272 109.394 22.272H114.578C114.684 22.272 114.775 22.2347 114.85 22.16C114.935 22.0747 114.978 21.9787 114.978 21.872V14.752H116.706V25.472C116.706 25.856 116.61 26.2027 116.418 26.512C116.236 26.832 115.986 27.0827 115.666 27.264C115.356 27.456 115.01 27.552 114.626 27.552H108.898Z" fill="white"/>
<defs>
<linearGradient id="paint0_linear_931_5096" x1="19.5615" y1="8" x2="10.5615" y2="20" gradientUnits="userSpaceOnUse">
<stop stop-color="#FFC83A"/>
<stop offset="1" stop-color="#F7931A"/>
</linearGradient>
</defs>
</svg>
