<svg width="343" height="343" viewBox="0 0 343 343" fill="none" xmlns="http://www.w3.org/2000/svg">
<rect x="0.5" y="0.5" width="342" height="342" fill="black" stroke="#FFC83A"/>
<rect x="46" y="45" width="252" height="252" rx="126" fill="#1D1D1D"/>
<rect x="46" y="45" width="252" height="252" rx="126" stroke="#4D4D4D" stroke-width="2"/>
<path d="M151 139.1V135L155.5 131.5H176.7C186.9 131.5 192 136.6 192 146.8V155.5C192 165.9 187 171.1 177 171.1H172.4V179.5H164V163.5H176.8C181.333 163.5 183.6 161.233 183.6 156.7V145.9C183.6 141.367 181.333 139.1 176.8 139.1H151ZM163.3 200.5V189.7H173.1V200.5H163.3Z" fill="white"/>
</svg>
