<svg width="64" height="65" viewBox="0 0 64 65" fill="none" xmlns="http://www.w3.org/2000/svg">
<path d="M53.8725 54.7609C66.1668 42.4665 66.1668 22.5335 53.8724 10.2391C41.5781 -2.05521 21.6451 -2.05521 9.35071 10.2391C-2.94362 22.5335 -2.94363 42.4665 9.35071 54.7609C21.6451 67.0552 41.5781 67.0552 53.8725 54.7609Z" fill="#0D0D0D"/>
<mask id="mask0_1632_445" style="mask-type:luminance" maskUnits="userSpaceOnUse" x="0" y="1" width="38" height="63">
<path d="M12.652 32.4992C12.652 17.2553 23.4873 4.54283 37.8754 1.64146C35.8519 1.2329 33.7594 1.01758 31.6144 1.01758C14.2283 1.01758 0.132812 15.1131 0.132812 32.4992C0.132812 49.8853 14.2283 63.9808 31.6144 63.9808C33.7566 63.9808 35.8519 63.7655 37.8754 63.3569C23.4873 60.4528 12.652 47.7403 12.652 32.4992Z" fill="white"/>
</mask>
<g mask="url(#mask0_1632_445)">
<path d="M31.6144 63.9808C49.0013 63.9808 63.0961 49.886 63.0961 32.4992C63.0961 15.1124 49.0013 1.01758 31.6144 1.01758C14.2276 1.01758 0.132812 15.1124 0.132812 32.4992C0.132812 49.886 14.2276 63.9808 31.6144 63.9808Z" fill="#FFC83A"/>
<path d="M23.9582 20.8035C24.3919 18.9759 23.262 17.1428 21.4344 16.709C19.6068 16.2753 17.7737 17.4053 17.34 19.2329C16.9063 21.0604 18.0362 22.8936 19.8638 23.3273C21.6914 23.761 23.5245 22.631 23.9582 20.8035Z" fill="#F9E2A8"/>
<path d="M21.292 35.3145C21.6749 33.6848 20.6641 32.0534 19.0344 31.6705C17.4048 31.2877 15.7733 32.2985 15.3905 33.9281C15.0076 35.5578 16.0184 37.1893 17.6481 37.5721C19.2777 37.9549 20.9092 36.9442 21.292 35.3145Z" fill="#F9E2A8"/>
<path d="M20.6016 32.5996C20.9246 33.0799 21.1123 33.6597 21.1123 34.2836C21.1123 35.9565 19.7569 37.3147 18.0812 37.3147C17.184 37.3147 16.3752 36.9227 15.8203 36.3015C16.3641 37.1132 17.2889 37.6487 18.3407 37.6487C20.0136 37.6487 21.3718 36.2905 21.3718 34.6176C21.3718 33.8419 21.0792 33.1352 20.6016 32.5996Z" fill="#F3C757"/>
<path d="M18.0783 36.6068C19.362 36.6068 20.4027 35.5662 20.4027 34.2824C20.4027 32.9987 19.362 31.958 18.0783 31.958C16.7946 31.958 15.7539 32.9987 15.7539 34.2824C15.7539 35.5662 16.7946 36.6068 18.0783 36.6068Z" fill="#E2AF2E"/>
<path d="M12.2765 17.3122C13.133 16.1842 12.9129 14.5754 11.7849 13.7189C10.6569 12.8623 9.04806 13.0824 8.19152 14.2104C7.33498 15.3385 7.55507 16.9473 8.68311 17.8038C9.81115 18.6604 11.42 18.4403 12.2765 17.3122Z" fill="#F9E2A8"/>
<path d="M12.1419 14.0371C12.4152 14.4457 12.5753 14.9343 12.5753 15.4616C12.5753 16.8777 11.4269 18.0261 10.0107 18.0261C9.25158 18.0261 8.56695 17.6949 8.09766 17.1704C8.55867 17.8578 9.33991 18.3105 10.2316 18.3105C11.6478 18.3105 12.7961 17.1621 12.7961 15.7459C12.7961 15.0889 12.5505 14.4926 12.1447 14.0371H12.1419Z" fill="#EEB31D"/>
<path d="M11.9796 15.4605C11.9796 16.5481 11.0989 17.4288 10.0113 17.4288C8.92359 17.4288 8.04297 16.5481 8.04297 15.4605C8.04297 14.3728 8.92359 13.4922 10.0113 13.4922C11.0989 13.4922 11.9796 14.3728 11.9796 15.4605Z" fill="#E2AF2E"/>
<path d="M35.7775 23.3499C39.4915 23.3499 42.5023 20.3391 42.5023 16.6252C42.5023 12.9112 39.4915 9.90039 35.7775 9.90039C32.0635 9.90039 29.0527 12.9112 29.0527 16.6252C29.0527 20.3391 32.0635 23.3499 35.7775 23.3499Z" fill="#F9E2A8"/>
<path d="M40.7925 12.1475C41.5075 13.2158 41.9243 14.4995 41.9243 15.8825C41.9243 19.5955 38.9125 22.6073 35.1996 22.6073C33.2064 22.6073 31.4148 21.7377 30.1836 20.3602C31.39 22.1628 33.4438 23.3499 35.7765 23.3499C39.4895 23.3499 42.5013 20.3381 42.5013 16.6251C42.5013 14.9053 41.8553 13.3373 40.7925 12.1475Z" fill="#EEB31D"/>
<path d="M38.8473 19.5311C40.8623 17.5162 40.8623 14.2494 38.8473 12.2345C36.8324 10.2196 33.5656 10.2196 31.5507 12.2345C29.5358 14.2494 29.5358 17.5162 31.5507 19.5311C33.5656 21.5461 36.8324 21.5461 38.8473 19.5311Z" fill="#E2AF2E"/>
<path d="M30.0366 56.7918C30.0366 57.8242 29.2002 58.6607 28.1677 58.6607C27.1353 58.6607 26.2988 57.8242 26.2988 56.7918C26.2988 55.7593 27.1353 54.9229 28.1677 54.9229C29.2002 54.9229 30.0366 55.7593 30.0366 56.7918Z" fill="#EEB31D"/>
<path d="M18.1775 10.6236C19.2097 10.6236 20.0464 9.78683 20.0464 8.75466C20.0464 7.72249 19.2097 6.88574 18.1775 6.88574C17.1453 6.88574 16.3086 7.72249 16.3086 8.75466C16.3086 9.78683 17.1453 10.6236 18.1775 10.6236Z" fill="#EEB31D"/>
<g style="mix-blend-mode:multiply">
<path d="M9.92749 48.1265C10.9597 48.1265 11.7964 47.2898 11.7964 46.2576C11.7964 45.2254 10.9597 44.3887 9.92749 44.3887C8.89532 44.3887 8.05859 45.2254 8.05859 46.2576C8.05859 47.2898 8.89532 48.1265 9.92749 48.1265Z" fill="#FFC83A"/>
</g>
<g style="mix-blend-mode:multiply">
<path d="M31.6131 39.5161C32.6452 39.5161 33.482 38.6794 33.482 37.6472C33.482 36.6151 32.6452 35.7783 31.6131 35.7783C30.5809 35.7783 29.7441 36.6151 29.7441 37.6472C29.7441 38.6794 30.5809 39.5161 31.6131 39.5161Z" fill="#FFC83A"/>
</g>
<path d="M7.37064 26.3406C7.37064 27.373 6.53418 28.2095 5.50172 28.2095C4.46926 28.2095 3.63281 27.373 3.63281 26.3406C3.63281 25.3081 4.46926 24.4717 5.50172 24.4717C6.53418 24.4717 7.37064 25.3081 7.37064 26.3406Z" fill="#EEB31D"/>
<g style="mix-blend-mode:multiply">
<path d="M61.1113 21.4795C57.6164 40.2514 41.1551 54.4629 21.37 54.4629C16.1829 54.4629 11.2249 53.4856 6.66992 51.705C12.4257 59.1697 21.4583 63.9813 31.6145 63.9813C49.0006 63.9813 63.0961 49.8858 63.0961 32.4997C63.0961 28.6211 62.3922 24.9109 61.1113 21.4795Z" fill="#FFC83A"/>
</g>
</g>
</svg>
