<svg width="18" height="18" viewBox="0 0 18 18" fill="none" xmlns="http://www.w3.org/2000/svg">
<mask id="mask0_1354_2676" style="mask-type:alpha" maskUnits="userSpaceOnUse" x="0" y="0" width="18" height="18">
<rect width="18" height="18" fill="#D9D9D9"/>
</mask>
<g mask="url(#mask0_1354_2676)">
<path d="M4.27999 14.9252C3.94721 14.9252 3.66305 14.8075 3.42752 14.5719C3.19199 14.3364 3.07422 14.0522 3.07422 13.7194V4.28104C3.07422 3.94825 3.19199 3.66409 3.42752 3.42857C3.66305 3.19303 3.94721 3.07526 4.27999 3.07526H7.65933C7.72568 2.75989 7.87856 2.49451 8.11797 2.27914C8.35738 2.06375 8.65112 1.95605 8.9992 1.95605C9.33765 1.95605 9.62779 2.06375 9.86961 2.27914C10.1114 2.49451 10.2655 2.75989 10.3319 3.07526H13.7184C14.0512 3.07526 14.3354 3.19303 14.5709 3.42857C14.8064 3.66409 14.9242 3.94825 14.9242 4.28104V13.7194C14.9242 14.0522 14.8064 14.3364 14.5709 14.5719C14.3354 14.8075 14.0512 14.9252 13.7184 14.9252H4.27999ZM4.27999 13.9502H13.7184C13.7761 13.9502 13.829 13.9262 13.8771 13.8781C13.9252 13.83 13.9492 13.7771 13.9492 13.7194V4.28104C13.9492 4.22334 13.9252 4.17044 13.8771 4.12235C13.829 4.07428 13.7761 4.05024 13.7184 4.05024H12.2242V6.01176H5.77422V4.05024H4.27999C4.22229 4.05024 4.1694 4.07428 4.12131 4.12235C4.07324 4.17044 4.0492 4.22334 4.0492 4.28104V13.7194C4.0492 13.7771 4.07324 13.83 4.12131 13.8781C4.1694 13.9262 4.22229 13.9502 4.27999 13.9502ZM8.99524 4.13679C9.16614 4.13679 9.31001 4.07969 9.42683 3.96549C9.54367 3.8513 9.60209 3.70876 9.60209 3.53786C9.60209 3.36696 9.54499 3.2231 9.43079 3.10627C9.31659 2.98945 9.17404 2.93104 9.00316 2.93104C8.83226 2.93104 8.68839 2.98813 8.57157 3.10232C8.45473 3.21652 8.39631 3.35907 8.39631 3.52997C8.39631 3.70087 8.45341 3.84473 8.56761 3.96156C8.68181 4.07838 8.82436 4.13679 8.99524 4.13679Z" fill="white"/>
</g>
</svg>
