<svg width="20" height="21" viewBox="0 0 20 21" fill="none" xmlns="http://www.w3.org/2000/svg">
<rect x="0.490672" y="0.990672" width="19.0187" height="19.0187" rx="3.50933" fill="#FFC83A"/>
<rect x="0.490672" y="0.990672" width="19.0187" height="19.0187" rx="3.50933" fill="#161618"/>
<rect x="0.490672" y="0.990672" width="19.0187" height="19.0187" rx="3.50933" stroke="#50D591" stroke-width="0.981343"/>
<g clip-path="url(#clip0_4475_13518)">
<path d="M8.40725 5.35882L6.58305 8.51843L12.9023 12.1668L14.7265 9.00722C15.7339 7.26222 15.136 5.03089 13.391 4.02342C11.6461 3.01594 9.41472 3.61382 8.40725 5.35882Z" fill="#FEFEFE" stroke="#0A4E3D" stroke-width="0.486453"/>
<path d="M11.078 15.3275L12.9022 12.1679L6.58301 8.51953L4.75883 11.6791C3.75132 13.4242 4.34922 15.6555 6.09422 16.6629C7.83922 17.6704 10.0705 17.0726 11.078 15.3275Z" fill="#50D591" stroke="#0A4E3D" stroke-width="0.486453"/>
<g style="mix-blend-mode:darken">
<path fill-rule="evenodd" clip-rule="evenodd" d="M14.5659 8.91197C15.5062 7.28331 14.9482 5.20074 13.3195 4.26043C12.8692 4.0004 12.3841 3.85495 11.898 3.81503C12.1266 3.88412 12.351 3.98037 12.5668 4.10495C14.0791 4.9781 14.5973 6.91191 13.7241 8.42425L11.8999 11.5839L10.0757 14.7435C9.20256 16.2558 7.26874 16.774 5.75641 15.9008C5.5368 15.774 5.33816 15.6249 5.16173 15.4578C5.44016 15.8637 5.81138 16.2151 6.26598 16.4775C7.89466 17.4179 9.97719 16.8599 10.9175 15.2312L14.5659 8.91197Z" fill="#134D42" fill-opacity="0.28"/>
</g>
<path fill-rule="evenodd" clip-rule="evenodd" d="M6.2795 12.0302C6.38878 12.1083 6.41406 12.2602 6.33592 12.3695C6.29923 12.4209 6.26465 12.4745 6.23236 12.5304C6.20012 12.5863 6.17093 12.6431 6.14487 12.7005C6.08926 12.8228 5.94508 12.8768 5.82276 12.8213C5.70047 12.7657 5.6464 12.6215 5.702 12.4992C5.73459 12.4275 5.77096 12.3567 5.81109 12.2872C5.85125 12.2176 5.89437 12.1507 5.94018 12.0866C6.01832 11.9773 6.17025 11.9521 6.2795 12.0302ZM5.73697 13.1885C5.87121 13.1928 5.97661 13.3051 5.9723 13.4394C5.96008 13.8235 6.06218 14.2047 6.26487 14.5312C6.33573 14.6453 6.30063 14.7953 6.18646 14.8662C6.07233 14.937 5.92241 14.9019 5.85155 14.7878C5.59827 14.3797 5.4708 13.9039 5.4861 13.4239C5.49037 13.2896 5.60268 13.1843 5.73697 13.1885ZM6.44442 15.1413C6.52252 15.032 6.67445 15.0068 6.78373 15.0849C6.83506 15.1216 6.88871 15.1561 6.9446 15.1884C7.00051 15.2207 7.05725 15.2498 7.1147 15.2759C7.23699 15.3315 7.29106 15.4757 7.2355 15.598C7.1799 15.7203 7.03572 15.7744 6.91344 15.7188C6.84169 15.6862 6.7709 15.6499 6.70135 15.6097C6.63181 15.5696 6.56496 15.5264 6.50085 15.4806C6.39156 15.4025 6.36628 15.2506 6.44442 15.1413Z" fill="white"/>
</g>
<defs>
<clipPath id="clip0_4475_13518">
<rect width="8.38508" height="15.0931" fill="white" transform="translate(10.1426 1.86719) rotate(30)"/>
</clipPath>
</defs>
</svg>
