<svg width="17" height="14" viewBox="0 0 17 14" fill="none" xmlns="http://www.w3.org/2000/svg">
<path d="M5.32722 14C4.8454 14 4.39963 13.8958 3.98991 13.6875C3.58019 13.4792 3.18088 13.1597 2.79199 12.7292C2.22337 12.0997 1.77912 11.3489 1.45926 10.4768C1.13942 9.60471 0.979492 8.70967 0.979492 7.79167C0.979492 6.71943 1.1913 5.71179 1.61491 4.76875C2.03852 3.8257 2.61491 3 3.34408 2.29167C4.07324 1.58333 4.92365 1.02431 5.89528 0.614583C6.86694 0.204861 7.90513 0 9.00987 0C10.1146 0 11.1496 0.208333 12.1149 0.625C13.0802 1.04167 13.9274 1.61111 14.6566 2.33333C15.3857 3.05556 15.9587 3.89931 16.3753 4.86458C16.792 5.82986 17.0003 6.8597 17.0003 7.9541C17.0003 8.94551 16.8309 9.87253 16.4921 10.7352C16.1533 11.5978 15.6722 12.3253 15.0487 12.9176C14.6692 13.2781 14.2777 13.5486 13.874 13.7292C13.4704 13.9097 13.0602 14 12.6436 14C12.4092 14 12.167 13.9688 11.917 13.9062C11.667 13.8438 11.4239 13.7569 11.1878 13.6458L10.0003 13.0625C9.84755 12.9931 9.69824 12.941 9.55241 12.9062C9.40658 12.8715 9.24338 12.8542 9.06283 12.8542C8.85449 12.8542 8.64456 12.8785 8.43301 12.9271C8.22147 12.9757 8.02169 13.0486 7.83366 13.1458L6.81283 13.6458C6.57671 13.7569 6.33366 13.8438 6.08366 13.9062C5.83366 13.9688 5.58151 14 5.32722 14ZM5.33366 12.5208C5.47255 12.5208 5.60796 12.5035 5.73991 12.4688C5.87185 12.434 6.00727 12.3819 6.14616 12.3125L7.14616 11.7917C7.42394 11.6389 7.72367 11.5278 8.04537 11.4583C8.36706 11.3889 8.69233 11.3542 9.02116 11.3542C9.32671 11.3542 9.61537 11.3839 9.88714 11.4435C10.1589 11.503 10.4189 11.5982 10.667 11.7292L11.8337 12.3125C11.9864 12.3819 12.1219 12.434 12.2399 12.4688C12.358 12.5035 12.4864 12.5208 12.6253 12.5208C12.8614 12.5208 13.0941 12.4688 13.3232 12.3646C13.5524 12.2604 13.785 12.0972 14.0212 11.875C14.5073 11.4306 14.8753 10.8785 15.1253 10.2188C15.3753 9.55903 15.5003 8.84028 15.5003 8.0625C15.5003 6.22917 14.8716 4.67708 13.614 3.40625C12.3565 2.13542 10.8218 1.5 9.00987 1.5C7.19795 1.5 5.65658 2.13048 4.38574 3.39144C3.11491 4.6524 2.47949 6.18164 2.47949 7.97917C2.47949 8.75694 2.60796 9.48264 2.86491 10.1562C3.12185 10.8299 3.48644 11.3958 3.95866 11.8542C4.19477 12.0944 4.42394 12.2656 4.64616 12.3677C4.86838 12.4698 5.09755 12.5208 5.33366 12.5208ZM9.00474 9.25C9.41846 9.25 9.77116 9.10313 10.0628 8.80938C10.3545 8.51563 10.5003 8.1625 10.5003 7.75C10.5003 7.63889 10.4882 7.52778 10.4639 7.41667C10.4396 7.30556 10.4031 7.19444 10.3545 7.08333L11.4587 5.64583C11.6253 5.84028 11.7633 6.04914 11.8727 6.27242C11.9821 6.49569 12.0732 6.73822 12.1462 7H13.667C13.4725 5.83333 12.9365 4.875 12.0589 4.125C11.1812 3.375 10.1617 3 9.00033 3C7.81977 3 6.79199 3.37847 5.91699 4.13542C5.04199 4.89236 4.51421 5.84722 4.33366 7H5.84624C6.01841 6.26389 6.40013 5.66319 6.99141 5.19792C7.58269 4.73264 8.2496 4.5 8.99214 4.5C9.2259 4.5 9.44592 4.52083 9.65218 4.5625C9.85843 4.60417 10.0578 4.66667 10.2503 4.75L9.10764 6.25H9.00439C8.59078 6.25 8.23669 6.39731 7.94214 6.69192C7.6476 6.98654 7.50033 7.34071 7.50033 7.75442C7.50033 8.16814 7.64763 8.52083 7.94224 8.8125C8.23687 9.10417 8.59103 9.25 9.00474 9.25Z" fill="white"/>
</svg>
