<svg width="20" height="20" viewBox="0 0 20 20" fill="none" xmlns="http://www.w3.org/2000/svg">
<mask id="mask0_1563_1936" style="mask-type:alpha" maskUnits="userSpaceOnUse" x="0" y="0" width="20" height="20">
<rect width="20" height="20" fill="#D9D9D9"/>
</mask>
<g mask="url(#mask0_1563_1936)">
<path d="M6.32722 17C5.8454 17 5.39963 16.8958 4.98991 16.6875C4.58019 16.4792 4.18088 16.1597 3.79199 15.7292C3.22337 15.0997 2.77912 14.3489 2.45926 13.4768C2.13942 12.6047 1.97949 11.7097 1.97949 10.7917C1.97949 9.71943 2.1913 8.71179 2.61491 7.76875C3.03852 6.8257 3.61491 6 4.34408 5.29167C5.07324 4.58333 5.92365 4.02431 6.89528 3.61458C7.86694 3.20486 8.90513 3 10.0099 3C11.1146 3 12.1496 3.20833 13.1149 3.625C14.0802 4.04167 14.9274 4.61111 15.6566 5.33333C16.3857 6.05556 16.9587 6.89931 17.3753 7.86458C17.792 8.82986 18.0003 9.8597 18.0003 10.9541C18.0003 11.9455 17.8309 12.8725 17.4921 13.7352C17.1533 14.5978 16.6722 15.3253 16.0487 15.9176C15.6692 16.2781 15.2777 16.5486 14.874 16.7292C14.4704 16.9097 14.0602 17 13.6436 17C13.4092 17 13.167 16.9688 12.917 16.9062C12.667 16.8438 12.4239 16.7569 12.1878 16.6458L11.0003 16.0625C10.8475 15.9931 10.6982 15.941 10.5524 15.9062C10.4066 15.8715 10.2434 15.8542 10.0628 15.8542C9.85449 15.8542 9.64456 15.8785 9.43301 15.9271C9.22147 15.9757 9.02169 16.0486 8.83366 16.1458L7.81283 16.6458C7.57671 16.7569 7.33366 16.8438 7.08366 16.9062C6.83366 16.9688 6.58151 17 6.32722 17ZM6.33366 15.5208C6.47255 15.5208 6.60796 15.5035 6.73991 15.4688C6.87185 15.434 7.00727 15.3819 7.14616 15.3125L8.14616 14.7917C8.42394 14.6389 8.72367 14.5278 9.04537 14.4583C9.36706 14.3889 9.69233 14.3542 10.0212 14.3542C10.3267 14.3542 10.6154 14.3839 10.8871 14.4435C11.1589 14.503 11.4189 14.5982 11.667 14.7292L12.8337 15.3125C12.9864 15.3819 13.1219 15.434 13.2399 15.4688C13.358 15.5035 13.4864 15.5208 13.6253 15.5208C13.8614 15.5208 14.0941 15.4688 14.3232 15.3646C14.5524 15.2604 14.785 15.0972 15.0212 14.875C15.5073 14.4306 15.8753 13.8785 16.1253 13.2188C16.3753 12.559 16.5003 11.8403 16.5003 11.0625C16.5003 9.22917 15.8716 7.67708 14.614 6.40625C13.3565 5.13542 11.8218 4.5 10.0099 4.5C8.19795 4.5 6.65658 5.13048 5.38574 6.39144C4.11491 7.6524 3.47949 9.18164 3.47949 10.9792C3.47949 11.7569 3.60796 12.4826 3.86491 13.1562C4.12185 13.8299 4.48644 14.3958 4.95866 14.8542C5.19477 15.0944 5.42394 15.2656 5.64616 15.3677C5.86838 15.4698 6.09755 15.5208 6.33366 15.5208ZM10.0047 12.25C10.4185 12.25 10.7712 12.1031 11.0628 11.8094C11.3545 11.5156 11.5003 11.1625 11.5003 10.75C11.5003 10.6389 11.4882 10.5278 11.4639 10.4167C11.4396 10.3056 11.4031 10.1944 11.3545 10.0833L12.4587 8.64583C12.6253 8.84028 12.7633 9.04914 12.8727 9.27242C12.9821 9.49569 13.0732 9.73822 13.1462 10H14.667C14.4725 8.83333 13.9365 7.875 13.0589 7.125C12.1812 6.375 11.1617 6 10.0003 6C8.81977 6 7.79199 6.37847 6.91699 7.13542C6.04199 7.89236 5.51421 8.84722 5.33366 10H6.84624C7.01841 9.26389 7.40013 8.66319 7.99141 8.19792C8.58269 7.73264 9.2496 7.5 9.99214 7.5C10.2259 7.5 10.4459 7.52083 10.6522 7.5625C10.8584 7.60417 11.0578 7.66667 11.2503 7.75L10.1076 9.25H10.0044C9.59078 9.25 9.23669 9.39731 8.94214 9.69192C8.6476 9.98654 8.50033 10.3407 8.50033 10.7544C8.50033 11.1681 8.64763 11.5208 8.94224 11.8125C9.23687 12.1042 9.59103 12.25 10.0047 12.25Z" fill="white"/>
</g>
</svg>
