<svg width="64" height="64" viewBox="0 0 64 64" fill="none" xmlns="http://www.w3.org/2000/svg">
<g clip-path="url(#clip0_1591_5484)">
<path d="M56.4621 23.9846V46.269L31.6756 60.5768L6.8754 46.269V17.6394L31.6756 3.31775L50.7252 14.3217L53.6006 12.6628L31.6756 0L4 15.9805V47.9279L31.6756 63.9084L59.3514 47.9279V22.3258L56.4621 23.9846Z" fill="url(#paint0_linear_1591_5484)"/>
<path d="M24.7371 46.2831H20.5898V32.3761H34.4139C35.7218 32.3616 36.9714 31.8327 37.8924 30.9039C38.8134 29.9752 39.3317 28.7212 39.3353 27.4131C39.3427 26.7665 39.2179 26.1249 38.9683 25.5283C38.7185 24.9315 38.3496 24.3922 37.8836 23.9434C37.4328 23.4802 36.8932 23.1128 36.297 22.8634C35.7007 22.6139 35.0602 22.4875 34.4139 22.4918H20.5898V18.2617H34.4276C36.8503 18.2762 39.1696 19.2451 40.8828 20.9581C42.5958 22.6713 43.5646 24.9906 43.5791 27.4131C43.5939 29.2677 43.0285 31.0802 41.9618 32.5971C40.9801 34.0486 39.5966 35.1823 37.9805 35.8596C36.3802 36.3672 34.7102 36.6191 33.0314 36.6062H24.7371V46.2831Z" fill="url(#paint1_linear_1591_5484)"/>
<path d="M43.483 45.9368H38.6445L34.9121 39.4257C36.3888 39.3353 37.8453 39.0375 39.239 38.541L43.483 45.9368Z" fill="url(#paint2_linear_1591_5484)"/>
<path d="M53.5723 19.3531L56.4338 20.9429L59.2955 19.3531V15.9938L56.4338 14.335L53.5723 15.9938V19.3531Z" fill="url(#paint3_linear_1591_5484)"/>
</g>
<defs>
<linearGradient id="paint0_linear_1591_5484" x1="59.3023" y1="15.9981" x2="0.614772" y2="39.4671" gradientUnits="userSpaceOnUse">
<stop stop-color="#C200FB"/>
<stop offset="0.489658" stop-color="#3772FF"/>
<stop offset="0.489758" stop-color="#3773FE"/>
<stop offset="1" stop-color="#5AC4BE"/>
</linearGradient>
<linearGradient id="paint1_linear_1591_5484" x1="59.3034" y1="15.9983" x2="0.61581" y2="39.4674" gradientUnits="userSpaceOnUse">
<stop stop-color="#C200FB"/>
<stop offset="0.489658" stop-color="#3772FF"/>
<stop offset="0.489758" stop-color="#3773FE"/>
<stop offset="1" stop-color="#5AC4BE"/>
</linearGradient>
<linearGradient id="paint2_linear_1591_5484" x1="59.3039" y1="15.9977" x2="0.616375" y2="39.4667" gradientUnits="userSpaceOnUse">
<stop stop-color="#C200FB"/>
<stop offset="0.489658" stop-color="#3772FF"/>
<stop offset="0.489758" stop-color="#3773FE"/>
<stop offset="1" stop-color="#5AC4BE"/>
</linearGradient>
<linearGradient id="paint3_linear_1591_5484" x1="59.3017" y1="15.9976" x2="0.614181" y2="39.4666" gradientUnits="userSpaceOnUse">
<stop stop-color="#C200FB"/>
<stop offset="0.489658" stop-color="#3772FF"/>
<stop offset="0.489758" stop-color="#3773FE"/>
<stop offset="1" stop-color="#5AC4BE"/>
</linearGradient>
<clipPath id="clip0_1591_5484">
<rect width="55.3514" height="64" fill="white" transform="translate(4)"/>
</clipPath>
</defs>
</svg>
