<svg width="14" height="15" viewBox="0 0 14 15" fill="none" xmlns="http://www.w3.org/2000/svg">
<path opacity="0.28" d="M11.0422 2.48047C11.2336 3.21204 11.3292 3.96502 11.3269 4.72058C11.3263 4.91789 11.1613 4.98168 11.0005 5.01727L10.9992 5.01755M8.8647 5.22062C9.58226 5.2407 10.2991 5.1724 10.9992 5.01755M10.9992 5.01755C10.2994 3.90717 9.13776 3.09697 7.73772 2.8884C5.18852 2.50864 2.81414 4.26732 2.43438 6.81652C2.05462 9.36572 3.8133 11.7401 6.3625 12.1199C8.81996 12.486 11.115 10.8648 11.6172 8.46383" stroke="#FFC83A" stroke-linecap="round" stroke-linejoin="round"/>
<path d="M8.16667 9.25L7.17086 8.25419C7.06146 8.14479 7 7.99642 7 7.84171V5.75" stroke="#FFC83A" stroke-linecap="round" stroke-linejoin="round"/>
</svg>
