<svg width="20" height="20" viewBox="0 0 20 20" fill="none" xmlns="http://www.w3.org/2000/svg">
<g clip-path="url(#clip0_931_4237)">
<path d="M2.78082 14.1665C2.42855 13.5573 2.15471 12.9061 1.96582 12.2282C2.37691 12.0191 2.72215 11.7004 2.96334 11.3073C3.20454 10.9142 3.33229 10.462 3.33246 10.0008C3.33264 9.53957 3.20522 9.08731 2.96432 8.69402C2.72342 8.30073 2.37842 7.98174 1.96749 7.77235C2.34418 6.41026 3.06143 5.16648 4.05165 4.15819C4.4384 4.40962 4.88717 4.54915 5.3483 4.56134C5.80943 4.57352 6.26495 4.45788 6.66443 4.22721C7.06391 3.99655 7.39178 3.65985 7.61176 3.25439C7.83174 2.84892 7.93524 2.3905 7.91082 1.92985C9.27924 1.5762 10.7152 1.57678 12.0833 1.93152C12.0591 2.39216 12.1628 2.85051 12.383 3.25586C12.6031 3.66121 12.9311 3.99775 13.3307 4.22824C13.7302 4.45872 14.1858 4.57418 14.6469 4.56181C15.108 4.54945 15.5567 4.40975 15.9433 4.15819C16.4258 4.64985 16.8542 5.20902 17.2142 5.83319C17.575 6.45735 17.845 7.10819 18.0292 7.77152C17.6181 7.9806 17.2728 8.29933 17.0316 8.69244C16.7904 9.08555 16.6627 9.53772 16.6625 9.99892C16.6623 10.4601 16.7898 10.9124 17.0307 11.3057C17.2716 11.699 17.6166 12.018 18.0275 12.2274C17.6508 13.5894 16.9335 14.8332 15.9433 15.8415C15.5566 15.5901 15.1078 15.4506 14.6467 15.4384C14.1855 15.4262 13.73 15.5418 13.3305 15.7725C12.9311 16.0032 12.6032 16.3399 12.3832 16.7453C12.1632 17.1508 12.0597 17.6092 12.0842 18.0699C10.7157 18.4235 9.2798 18.4229 7.91165 18.0682C7.93586 17.6075 7.83215 17.1492 7.612 16.7438C7.39186 16.3385 7.06386 16.002 6.6643 15.7715C6.26474 15.541 5.8092 15.4255 5.34809 15.4379C4.88699 15.4503 4.43829 15.59 4.05165 15.8415C3.55915 15.339 3.13215 14.7762 2.78082 14.1665ZM7.49749 14.3299C8.38551 14.842 9.05319 15.664 9.37249 16.6382C9.78832 16.6774 10.2058 16.6782 10.6217 16.639C10.9412 15.6647 11.6092 14.8427 12.4975 14.3307C13.3852 13.8171 14.4313 13.6494 15.435 13.8599C15.6767 13.5199 15.885 13.1574 16.0583 12.7782C15.3745 12.0144 14.9968 11.025 14.9975 9.99985C14.9975 8.94985 15.3892 7.96902 16.0583 7.22152C15.8838 6.84248 15.6745 6.48038 15.4333 6.13985C14.4302 6.35011 13.3848 6.18275 12.4975 5.66985C11.6095 5.15766 10.9418 4.33567 10.6225 3.36152C10.2067 3.32235 9.78915 3.32152 9.37332 3.36069C9.05382 4.33497 8.38582 5.15699 7.49749 5.66902C6.60981 6.18261 5.56372 6.35029 4.55999 6.13985C4.31879 6.48009 4.1101 6.84224 3.93665 7.22152C4.62046 7.98532 4.99822 8.97468 4.99749 9.99985C4.99749 11.0499 4.60582 12.0307 3.93665 12.7782C4.11121 13.1572 4.32044 13.5193 4.56165 13.8599C5.56475 13.6496 6.61016 13.817 7.49749 14.3299ZM9.99749 12.4999C9.33445 12.4999 8.69856 12.2365 8.22972 11.7676C7.76088 11.2988 7.49749 10.6629 7.49749 9.99985C7.49749 9.33681 7.76088 8.70093 8.22972 8.23209C8.69856 7.76324 9.33445 7.49985 9.99749 7.49985C10.6605 7.49985 11.2964 7.76324 11.7653 8.23209C12.2341 8.70093 12.4975 9.33681 12.4975 9.99985C12.4975 10.6629 12.2341 11.2988 11.7653 11.7676C11.2964 12.2365 10.6605 12.4999 9.99749 12.4999ZM9.99749 10.8332C10.2185 10.8332 10.4305 10.7454 10.5867 10.5891C10.743 10.4328 10.8308 10.2209 10.8308 9.99985C10.8308 9.77884 10.743 9.56688 10.5867 9.4106C10.4305 9.25432 10.2185 9.16652 9.99749 9.16652C9.77647 9.16652 9.56451 9.25432 9.40823 9.4106C9.25195 9.56688 9.16415 9.77884 9.16415 9.99985C9.16415 10.2209 9.25195 10.4328 9.40823 10.5891C9.56451 10.7454 9.77647 10.8332 9.99749 10.8332Z" fill="#F0F4F7"/>
</g>
<defs>
<clipPath id="clip0_931_4237">
<rect width="20" height="20" fill="white"/>
</clipPath>
</defs>
</svg>
