<svg width="18" height="18" viewBox="0 0 18 18" fill="none" xmlns="http://www.w3.org/2000/svg">
<path d="M1.78082 13.1665C1.42855 12.5573 1.15471 11.9061 0.96582 11.2282C1.37691 11.0191 1.72215 10.7004 1.96334 10.3073C2.20454 9.91415 2.33229 9.46199 2.33246 9.00078C2.33264 8.53957 2.20522 8.08731 1.96432 7.69402C1.72342 7.30073 1.37842 6.98174 0.967487 6.77235C1.34418 5.41026 2.06143 4.16648 3.05165 3.15819C3.4384 3.40962 3.88717 3.54915 4.3483 3.56134C4.80943 3.57352 5.26495 3.45788 5.66443 3.22721C6.06391 2.99655 6.39178 2.65985 6.61176 2.25439C6.83174 1.84892 6.93524 1.3905 6.91082 0.929852C8.27924 0.576204 9.71518 0.576778 11.0833 0.931519C11.0591 1.39216 11.1628 1.85051 11.383 2.25586C11.6031 2.66121 11.9311 2.99775 12.3307 3.22824C12.7302 3.45872 13.1858 3.57418 13.6469 3.56181C14.108 3.54945 14.5567 3.40975 14.9433 3.15819C15.4258 3.64985 15.8542 4.20902 16.2142 4.83319C16.575 5.45735 16.845 6.10819 17.0292 6.77152C16.6181 6.9806 16.2728 7.29933 16.0316 7.69244C15.7904 8.08555 15.6627 8.53772 15.6625 8.99892C15.6623 9.46013 15.7898 9.91239 16.0307 10.3057C16.2716 10.699 16.6166 11.018 17.0275 11.2274C16.6508 12.5894 15.9335 13.8332 14.9433 14.8415C14.5566 14.5901 14.1078 14.4506 13.6467 14.4384C13.1855 14.4262 12.73 14.5418 12.3305 14.7725C11.9311 15.0032 11.6032 15.3399 11.3832 15.7453C11.1632 16.1508 11.0597 16.6092 11.0842 17.0699C9.71573 17.4235 8.2798 17.4229 6.91165 17.0682C6.93586 16.6075 6.83215 16.1492 6.612 15.7438C6.39186 15.3385 6.06386 15.002 5.6643 14.7715C5.26474 14.541 4.8092 14.4255 4.34809 14.4379C3.88699 14.4503 3.43829 14.59 3.05165 14.8415C2.55915 14.339 2.13215 13.7762 1.78082 13.1665ZM6.49749 13.3299C7.38551 13.842 8.05319 14.664 8.37249 15.6382C8.78832 15.6774 9.20582 15.6782 9.62165 15.639C9.94115 14.6647 10.6092 13.8427 11.4975 13.3307C12.3852 12.8171 13.4313 12.6494 14.435 12.8599C14.6767 12.5199 14.885 12.1574 15.0583 11.7782C14.3745 11.0144 13.9968 10.025 13.9975 8.99985C13.9975 7.94985 14.3892 6.96902 15.0583 6.22152C14.8838 5.84248 14.6745 5.48038 14.4333 5.13985C13.4302 5.35011 12.3848 5.18275 11.4975 4.66985C10.6095 4.15766 9.94178 3.33567 9.62249 2.36152C9.20665 2.32235 8.78915 2.32152 8.37332 2.36069C8.05382 3.33497 7.38582 4.15699 6.49749 4.66902C5.60981 5.18261 4.56372 5.35029 3.55999 5.13985C3.31879 5.48009 3.1101 5.84224 2.93665 6.22152C3.62046 6.98532 3.99822 7.97468 3.99749 8.99985C3.99749 10.0499 3.60582 11.0307 2.93665 11.7782C3.11121 12.1572 3.32044 12.5193 3.56165 12.8599C4.56475 12.6496 5.61016 12.817 6.49749 13.3299ZM8.99749 11.4999C8.33445 11.4999 7.69856 11.2365 7.22972 10.7676C6.76088 10.2988 6.49749 9.66289 6.49749 8.99985C6.49749 8.33681 6.76088 7.70093 7.22972 7.23209C7.69856 6.76324 8.33445 6.49985 8.99749 6.49985C9.66053 6.49985 10.2964 6.76324 10.7653 7.23209C11.2341 7.70093 11.4975 8.33681 11.4975 8.99985C11.4975 9.66289 11.2341 10.2988 10.7653 10.7676C10.2964 11.2365 9.66053 11.4999 8.99749 11.4999ZM8.99749 9.83319C9.2185 9.83319 9.43046 9.74539 9.58674 9.58911C9.74302 9.43283 9.83082 9.22087 9.83082 8.99985C9.83082 8.77884 9.74302 8.56688 9.58674 8.4106C9.43046 8.25432 9.2185 8.16652 8.99749 8.16652C8.77647 8.16652 8.56451 8.25432 8.40823 8.4106C8.25195 8.56688 8.16415 8.77884 8.16415 8.99985C8.16415 9.22087 8.25195 9.43283 8.40823 9.58911C8.56451 9.74539 8.77647 9.83319 8.99749 9.83319Z" fill="#8D8D8D"/>
</svg>
