<svg width="18" height="17" viewBox="0 0 18 17" fill="none" xmlns="http://www.w3.org/2000/svg">
<path d="M6.62402 3.45619C7.32569 1.98571 7.67653 1.25047 8.13439 0.983712C8.66924 0.672096 9.33033 0.672096 9.86517 0.983712C10.323 1.25047 10.6739 1.98571 11.3756 3.45619C11.5835 3.89188 11.6874 4.10972 11.8362 4.28303C12.011 4.48661 12.231 4.64645 12.4786 4.74976C12.6894 4.83771 12.9287 4.86925 13.4073 4.93234C15.0226 5.14527 15.8303 5.25174 16.2255 5.60476C16.6871 6.01713 16.8914 6.64586 16.7603 7.25083C16.6481 7.76872 16.0573 8.32959 14.8756 9.45132C14.5255 9.78368 14.3504 9.94986 14.2316 10.1449C14.092 10.374 14.0079 10.6327 13.9862 10.9001C13.9677 11.1278 14.0117 11.3651 14.0995 11.8398C14.3962 13.4419 14.5445 14.2429 14.3309 14.7278C14.0814 15.2943 13.5465 15.6829 12.9307 15.7452C12.4035 15.7985 11.6875 15.4099 10.2555 14.6327C9.83119 14.4024 9.61904 14.2872 9.3968 14.2345C9.13575 14.1725 8.86382 14.1725 8.60276 14.2345C8.38052 14.2872 8.16838 14.4024 7.7441 14.6327C6.3121 15.4099 5.5961 15.7985 5.06889 15.7452C4.45302 15.6829 3.91819 15.2943 3.66865 14.7278C3.45504 14.2429 3.60336 13.4419 3.90002 11.8398C3.98792 11.3651 4.03187 11.1278 4.01336 10.9001C3.99163 10.6327 3.90759 10.374 3.76799 10.1449C3.64914 9.94986 3.47408 9.78368 3.12396 9.45132C1.94228 8.32958 1.35145 7.76872 1.23923 7.25083C1.10814 6.64586 1.31243 6.01713 1.77407 5.60476C2.16926 5.25174 2.97693 5.14527 4.59227 4.93234C5.07088 4.86925 5.31018 4.83771 5.52098 4.74976C5.7686 4.64645 5.9886 4.48661 6.16338 4.28303C6.31216 4.10972 6.41611 3.89188 6.62402 3.45619Z" fill="#FFC83A" stroke="#FFC83A" stroke-linecap="round" stroke-linejoin="round"/>
</svg>
