<svg width="18" height="17" viewBox="0 0 18 17" fill="none" xmlns="http://www.w3.org/2000/svg">
<path d="M6.62402 3.70619C7.32569 2.23571 7.67653 1.50047 8.13439 1.23371C8.66924 0.922096 9.33033 0.922096 9.86517 1.23371C10.323 1.50047 10.6739 2.23571 11.3756 3.70619C11.5835 4.14188 11.6874 4.35972 11.8362 4.53303C12.011 4.73661 12.231 4.89645 12.4786 4.99976C12.6894 5.08771 12.9287 5.11925 13.4073 5.18234C15.0226 5.39527 15.8303 5.50174 16.2255 5.85476C16.6871 6.26713 16.8914 6.89586 16.7603 7.50083C16.6481 8.01872 16.0573 8.57959 14.8756 9.70132C14.5255 10.0337 14.3504 10.1999 14.2316 10.3949C14.092 10.624 14.0079 10.8827 13.9862 11.1501C13.9677 11.3778 14.0117 11.6151 14.0995 12.0898C14.3962 13.6919 14.5445 14.4929 14.3309 14.9778C14.0814 15.5443 13.5465 15.9329 12.9307 15.9952C12.4035 16.0485 11.6875 15.6599 10.2555 14.8827C9.83119 14.6524 9.61904 14.5372 9.3968 14.4845C9.13575 14.4225 8.86382 14.4225 8.60276 14.4845C8.38052 14.5372 8.16838 14.6524 7.7441 14.8827C6.3121 15.6599 5.5961 16.0485 5.06889 15.9952C4.45302 15.9329 3.91819 15.5443 3.66865 14.9778C3.45504 14.4929 3.60336 13.6919 3.90002 12.0898C3.98792 11.6151 4.03187 11.3778 4.01336 11.1501C3.99163 10.8827 3.90759 10.624 3.76799 10.3949C3.64914 10.1999 3.47408 10.0337 3.12396 9.70132C1.94228 8.57958 1.35145 8.01872 1.23923 7.50083C1.10814 6.89586 1.31243 6.26713 1.77407 5.85476C2.16926 5.50174 2.97693 5.39527 4.59227 5.18234C5.07088 5.11925 5.31018 5.08771 5.52098 4.99976C5.7686 4.89645 5.9886 4.73661 6.16338 4.53303C6.31216 4.35972 6.41611 4.14188 6.62402 3.70619Z" fill="#4D4D4D" stroke="#4D4D4D" stroke-linecap="round" stroke-linejoin="round"/>
</svg>
