<svg width="48" height="48" viewBox="0 0 48 48" fill="none" xmlns="http://www.w3.org/2000/svg">
<rect x="0.75" y="0.75" width="46.5" height="46.5" fill="#0FCB68"/>
<rect x="0.75" y="0.75" width="46.5" height="46.5" stroke="white" stroke-width="1.5"/>
<mask id="mask0_957_5421" style="mask-type:alpha" maskUnits="userSpaceOnUse" x="12" y="12" width="24" height="24">
<rect x="12" y="12" width="24" height="24" fill="#D9D9D9"/>
</mask>
<g mask="url(#mask0_957_5421)">
<path d="M24 34C22.6167 34 21.3167 33.7375 20.1 33.2125C18.8833 32.6875 17.825 31.975 16.925 31.075C16.025 30.175 15.3125 29.1167 14.7875 27.9C14.2625 26.6833 14 25.3833 14 24C14 22.6167 14.2625 21.3167 14.7875 20.1C15.3125 18.8833 16.025 17.825 16.925 16.925C17.825 16.025 18.8833 15.3125 20.1 14.7875C21.3167 14.2625 22.6167 14 24 14C25.0833 14 26.1083 14.1583 27.075 14.475C28.0417 14.7917 28.9333 15.2333 29.75 15.8L28.3 17.275C27.6667 16.875 26.9917 16.5625 26.275 16.3375C25.5583 16.1125 24.8 16 24 16C21.7833 16 19.8958 16.7792 18.3375 18.3375C16.7792 19.8958 16 21.7833 16 24C16 26.2167 16.7792 28.1042 18.3375 29.6625C19.8958 31.2208 21.7833 32 24 32C26.2167 32 28.1042 31.2208 29.6625 29.6625C31.2208 28.1042 32 26.2167 32 24C32 23.7 31.9833 23.4 31.95 23.1C31.9167 22.8 31.8667 22.5083 31.8 22.225L33.425 20.6C33.6083 21.1333 33.75 21.6833 33.85 22.25C33.95 22.8167 34 23.4 34 24C34 25.3833 33.7375 26.6833 33.2125 27.9C32.6875 29.1167 31.975 30.175 31.075 31.075C30.175 31.975 29.1167 32.6875 27.9 33.2125C26.6833 33.7375 25.3833 34 24 34ZM22.6 28.6L18.35 24.35L19.75 22.95L22.6 25.8L32.6 15.775L34 17.175L22.6 28.6Z" fill="white"/>
</g>
</svg>
