<svg width="21" height="20" viewBox="0 0 21 20" fill="none" xmlns="http://www.w3.org/2000/svg">
<g clip-path="url(#clip0_279_2337)">
<path fill-rule="evenodd" clip-rule="evenodd" d="M20.5 10C20.5 15.5228 16.0228 20 10.5 20C4.97715 20 0.5 15.5228 0.5 10C0.5 4.47715 4.97715 0 10.5 0C16.0228 0 20.5 4.47715 20.5 10ZM10.8584 7.38244C9.88571 7.787 7.94178 8.62433 5.02658 9.89443C4.55319 10.0827 4.30521 10.2668 4.28264 10.4469C4.24449 10.7512 4.62559 10.8711 5.14456 11.0343C5.21515 11.0565 5.28829 11.0795 5.36328 11.1038C5.87386 11.2698 6.56069 11.464 6.91774 11.4717C7.24162 11.4787 7.60311 11.3452 8.0022 11.0711C10.726 9.2325 12.132 8.30317 12.2203 8.28314C12.2825 8.26901 12.3688 8.25123 12.4273 8.3032C12.4858 8.35518 12.48 8.4536 12.4738 8.48C12.4361 8.64095 10.9401 10.0317 10.1659 10.7515C9.92459 10.9759 9.75339 11.135 9.7184 11.1714C9.64 11.2528 9.56011 11.3298 9.48332 11.4038C9.00897 11.8611 8.65326 12.204 9.50301 12.764C9.91137 13.0331 10.2381 13.2556 10.5641 13.4776C10.9201 13.7201 11.2752 13.9619 11.7347 14.2631C11.8517 14.3398 11.9635 14.4195 12.0724 14.4971C12.4867 14.7925 12.859 15.0578 13.3188 15.0155C13.586 14.9909 13.8621 14.7397 14.0022 13.9903C14.3335 12.2193 14.9847 8.38205 15.1352 6.80081C15.1484 6.66227 15.1318 6.48498 15.1185 6.40715C15.1051 6.32931 15.0773 6.21842 14.9761 6.13633C14.8563 6.03911 14.6714 6.01861 14.5886 6.02007C14.2125 6.0267 13.6355 6.22735 10.8584 7.38244Z" fill="#FFC83A"/>
</g>
<defs>
<clipPath id="clip0_279_2337">
<rect width="20" height="20" fill="white" transform="translate(0.5)"/>
</clipPath>
</defs>
</svg>
