<svg width="47" height="48" viewBox="0 0 47 48" fill="none" xmlns="http://www.w3.org/2000/svg">
<rect x="0.5" y="1" width="46" height="46" fill="black"/>
<rect x="0.5" y="1" width="46" height="46" stroke="#FFC83A"/>
<mask id="mask0_217_2926" style="mask-type:alpha" maskUnits="userSpaceOnUse" x="7" y="8" width="33" height="32">
<rect x="7.5" y="8" width="32" height="32" fill="#D9D9D9"/>
</mask>
<g mask="url(#mask0_217_2926)">
<path d="M17.3198 30.3336H19.3198V24.0003H17.3198V30.3336ZM27.6788 30.3336H29.6788V17.3336H27.6788V30.3336ZM22.4993 30.3336H24.4993V26.667H22.4993V30.3336ZM22.4993 24.0003H24.4993V21.3336H22.4993V24.0003ZM14.5763 35.3336C13.9028 35.3336 13.3327 35.1003 12.866 34.6336C12.3993 34.1669 12.166 33.5968 12.166 32.9233V15.0773C12.166 14.4037 12.3993 13.8337 12.866 13.367C13.3327 12.9003 13.9028 12.667 14.5763 12.667H32.4223C33.0959 12.667 33.666 12.9003 34.1326 13.367C34.5993 13.8337 34.8326 14.4037 34.8326 15.0773V32.9233C34.8326 33.5968 34.5993 34.1669 34.1326 34.6336C33.666 35.1003 33.0959 35.3336 32.4223 35.3336H14.5763Z" fill="#FFC83A"/>
</g>
</svg>
