<svg width="47" height="48" viewBox="0 0 47 48" fill="none" xmlns="http://www.w3.org/2000/svg">
<rect x="0.5" y="1" width="46" height="46" fill="black"/>
<rect x="0.5" y="1" width="46" height="46" stroke="#4D4D4D"/>
<mask id="mask0_940_1469" style="mask-type:alpha" maskUnits="userSpaceOnUse" x="7" y="8" width="33" height="32">
<rect x="7.5" y="8" width="32" height="32" fill="#D9D9D9"/>
</mask>
<g mask="url(#mask0_940_1469)">
<path d="M17.3208 30.3334H19.3208V24H17.3208V30.3334ZM27.6798 30.3334H29.6798V17.3334H27.6798V30.3334ZM22.5003 30.3334H24.5003V26.6667H22.5003V30.3334ZM22.5003 24H24.5003V21.3334H22.5003V24ZM14.5773 35.3334C13.9037 35.3334 13.3337 35.1 12.867 34.6334C12.4003 34.1667 12.167 33.5966 12.167 32.9231V15.077C12.167 14.4035 12.4003 13.8334 12.867 13.3667C13.3337 12.9001 13.9037 12.6667 14.5773 12.6667H32.4233C33.0968 12.6667 33.6669 12.9001 34.1336 13.3667C34.6003 13.8334 34.8336 14.4035 34.8336 15.077V32.9231C34.8336 33.5966 34.6003 34.1667 34.1336 34.6334C33.6669 35.1 33.0968 35.3334 32.4233 35.3334H14.5773ZM14.5773 33.3334H32.4233C32.5259 33.3334 32.6199 33.2907 32.7054 33.2052C32.7909 33.1197 32.8336 33.0257 32.8336 32.9231V15.077C32.8336 14.9744 32.7909 14.8804 32.7054 14.7949C32.6199 14.7094 32.5259 14.6667 32.4233 14.6667H14.5773C14.4747 14.6667 14.3806 14.7094 14.2952 14.7949C14.2097 14.8804 14.167 14.9744 14.167 15.077V32.9231C14.167 33.0257 14.2097 33.1197 14.2952 33.2052C14.3806 33.2907 14.4747 33.3334 14.5773 33.3334Z" fill="white"/>
</g>
</svg>
