<svg width="47" height="48" viewBox="0 0 47 48" fill="none" xmlns="http://www.w3.org/2000/svg">
<rect x="0.5" y="1" width="46" height="46" fill="black"/>
<rect x="0.5" y="1" width="46" height="46" stroke="#4D4D4D"/>
<mask id="mask0_0_210" style="mask-type:alpha" maskUnits="userSpaceOnUse" x="7" y="8" width="33" height="32">
<rect x="7.5" y="8" width="32" height="32" fill="#D9D9D9"/>
</mask>
<g mask="url(#mask0_0_210)">
<path d="M16.7586 35.6663L10.0176 23.9996L16.7586 12.333H30.2406L36.9816 23.9996L30.2406 35.6663H16.7586ZM17.709 33.9911H29.2902L35.0252 23.9996L29.2899 14.0082H17.709L11.9406 23.9996L17.709 33.9911Z" fill="white"/>
</g>
<mask id="mask1_0_210" style="mask-type:alpha" maskUnits="userSpaceOnUse" x="11" y="12" width="25" height="24">
<rect x="11.5" y="12" width="24" height="24" fill="#D9D9D9"/>
</mask>
<g mask="url(#mask1_0_210)">
<path d="M22.75 24.75H17V23.25H22.75V17.5H24.2499V23.25H30V24.75H24.2499V30.5H22.75V24.75Z" fill="white"/>
</g>
</svg>
