<svg width="20" height="20" viewBox="0 0 20 20" fill="none" xmlns="http://www.w3.org/2000/svg">
<mask id="mask0_1159_3888" style="mask-type:alpha" maskUnits="userSpaceOnUse" x="0" y="0" width="20" height="20">
<rect width="20" height="20" fill="#D9D9D9"/>
</mask>
<g mask="url(#mask0_1159_3888)">
<path d="M12.6725 15.5831C11.1219 15.5831 9.80331 15.0398 8.7167 13.9532C7.6301 12.8666 7.0868 11.548 7.0868 9.99744C7.0868 8.45844 7.6301 7.14353 8.7167 6.05271C9.80331 4.96191 11.1219 4.4165 12.6725 4.4165C14.2115 4.4165 15.5264 4.96191 16.6172 6.05271C17.708 7.14353 18.2534 8.45844 18.2534 9.99744C18.2534 11.548 17.708 12.8666 16.6172 13.9532C15.5264 15.0398 14.2115 15.5831 12.6725 15.5831ZM12.6597 14.4998C13.9166 14.4998 14.9826 14.0658 15.8576 13.1977C16.7326 12.3297 17.1701 11.2672 17.1701 10.0102C17.1701 8.75329 16.7326 7.68732 15.8576 6.81232C14.9826 5.93732 13.9201 5.49982 12.6701 5.49982C11.4062 5.49982 10.3403 5.93732 9.4722 6.81232C8.60414 7.68732 8.17011 8.74982 8.17011 9.99982C8.17011 11.2637 8.60414 12.3297 9.4722 13.1977C10.3403 14.0658 11.4028 14.4998 12.6597 14.4998ZM14.4586 12.5751L15.2246 11.8091L13.21 9.79034V7.12803H12.1284V10.2292L14.4586 12.5751ZM2.99707 7.29146V6.20817H5.8368V7.29146H2.99707ZM1.99707 10.5415V9.45817H5.8368V10.5415H1.99707ZM2.99707 13.7915V12.7082H5.8368V13.7915H2.99707Z" fill="white"/>
</g>
</svg>
