<svg width="20" height="20" viewBox="0 0 20 20" fill="none" xmlns="http://www.w3.org/2000/svg">
<mask id="mask0_1159_3894" style="mask-type:alpha" maskUnits="userSpaceOnUse" x="0" y="0" width="20" height="20">
<rect width="20" height="20" fill="#D9D9D9"/>
</mask>
<g mask="url(#mask0_1159_3894)">
<path d="M9.82448 15.5831C9.70987 15.5831 9.6133 15.5446 9.53477 15.4674C9.45624 15.3903 9.41698 15.2942 9.41698 15.1793V10.6264L4.68943 4.90848C4.61252 4.80591 4.60147 4.69828 4.65629 4.58557C4.71112 4.47286 4.80069 4.4165 4.925 4.4165H15.0756C15.1999 4.4165 15.2895 4.47286 15.3443 4.58557C15.3991 4.69828 15.3881 4.80591 15.3111 4.90848L10.5836 10.6264V15.1793C10.5836 15.2942 10.5452 15.3903 10.4682 15.4674C10.3913 15.5446 10.2956 15.5831 10.181 15.5831H9.82448ZM10.0003 9.62482L13.3753 5.49982H6.60445L10.0003 9.62482Z" fill="white"/>
</g>
</svg>
