<svg width="20" height="20" viewBox="0 0 20 20" fill="none" xmlns="http://www.w3.org/2000/svg">
<mask id="mask0_1256_5329" style="mask-type:alpha" maskUnits="userSpaceOnUse" x="0" y="0" width="20" height="20">
<rect width="20" height="20" fill="#D9D9D9"/>
</mask>
<g mask="url(#mask0_1256_5329)">
<path d="M6.33457 16.5834C5.91151 16.5834 5.52183 16.4939 5.16553 16.3149C4.80924 16.136 4.46068 15.8606 4.11986 15.4888C3.57795 14.9074 3.15508 14.2034 2.85126 13.3767C2.54742 12.55 2.39551 11.6964 2.39551 10.8158C2.39551 9.79695 2.5953 8.84006 2.99488 7.9451C3.39445 7.05013 3.94145 6.26584 4.63588 5.59223C5.33033 4.91862 6.138 4.38764 7.0589 3.99929C7.97979 3.61093 8.96322 3.41675 10.0092 3.41675C11.0552 3.41675 12.0354 3.61307 12.95 4.00571C13.8645 4.39833 14.6676 4.93439 15.3594 5.61387C16.0512 6.29335 16.5947 7.08768 16.99 7.99687C17.3853 8.90605 17.583 9.87312 17.583 10.8981C17.583 11.804 17.4282 12.6629 17.1188 13.4748C16.8094 14.2867 16.375 14.9781 15.8157 15.549C15.4682 15.8988 15.1154 16.1587 14.7572 16.3286C14.3989 16.4984 14.0275 16.5834 13.6429 16.5834C13.4352 16.5834 13.2224 16.5561 13.0045 16.5016C12.7865 16.4471 12.5755 16.3724 12.3715 16.2773L11.184 15.6939C10.9991 15.6085 10.8164 15.5444 10.6359 15.5016C10.4553 15.4589 10.2614 15.4375 10.0541 15.4375C9.81374 15.4375 9.57176 15.4659 9.32817 15.5225C9.08458 15.5791 8.85541 15.664 8.64067 15.7773L7.62784 16.2773C7.42379 16.3724 7.21412 16.4471 6.99884 16.5016C6.78356 16.5561 6.56214 16.5834 6.33457 16.5834ZM6.33299 15.5209C6.47188 15.5209 6.60729 15.5035 6.73924 15.4688C6.87118 15.4341 7.0066 15.382 7.14549 15.3126L8.14549 14.7917C8.42326 14.639 8.723 14.5278 9.04469 14.4584C9.36639 14.389 9.69165 14.3542 10.0205 14.3542C10.326 14.3542 10.6147 14.384 10.8865 14.4435C11.1582 14.503 11.4182 14.5983 11.6663 14.7292L12.833 15.3126C12.9858 15.382 13.1212 15.4341 13.2392 15.4688C13.3573 15.5035 13.4858 15.5209 13.6247 15.5209C13.8608 15.5209 14.0947 15.4688 14.3266 15.3646C14.5584 15.2605 14.7924 15.0973 15.0285 14.8751C15.5146 14.4306 15.8813 13.8785 16.1287 13.2188C16.376 12.5591 16.4997 11.8377 16.4997 11.0545C16.4997 9.22121 15.8709 7.67046 14.6134 6.40231C13.3558 5.13414 11.8211 4.50006 10.0092 4.50006C8.19728 4.50006 6.6559 5.13054 5.38507 6.3915C4.11424 7.65246 3.47882 9.1817 3.47882 10.9792C3.47882 11.757 3.60863 12.4827 3.86824 13.1563C4.12786 13.8299 4.49111 14.3959 4.95799 14.8542C5.1941 15.0945 5.42326 15.2656 5.64549 15.3677C5.86771 15.4698 6.09688 15.5209 6.33299 15.5209ZM10.0041 12.0417C10.3644 12.0417 10.669 11.9162 10.9179 11.6652C11.1668 11.4142 11.2913 11.1091 11.2913 10.7501C11.2913 10.6336 11.2751 10.5185 11.2428 10.4047C11.2105 10.2909 11.1647 10.1812 11.1054 10.0754L12.458 8.34139C12.6567 8.54117 12.8228 8.76339 12.9562 9.00804C13.0896 9.25268 13.2008 9.51658 13.2897 9.79973H14.3939C14.1674 8.74524 13.6447 7.88307 12.8258 7.21321C12.0069 6.54335 11.0649 6.20841 9.99965 6.20841C8.91527 6.20841 7.96495 6.54548 7.14872 7.21962C6.33248 7.89376 5.81538 8.7538 5.59742 9.79973H6.6853C6.89487 9.05827 7.30865 8.4549 7.92663 7.98962C8.54462 7.52435 9.2329 7.29171 9.99147 7.29171C10.284 7.29171 10.5614 7.32723 10.8238 7.39829C11.0861 7.46933 11.3376 7.57056 11.5782 7.70198L10.1951 9.48246C10.1492 9.47176 10.1161 9.46508 10.0958 9.46242C10.0755 9.45975 10.0448 9.45842 10.0037 9.45842C9.64352 9.45842 9.33752 9.58435 9.08572 9.83623C8.83391 10.0881 8.70801 10.3942 8.70801 10.7545C8.70801 11.1148 8.83395 11.4194 9.08582 11.6683C9.3377 11.9172 9.64378 12.0417 10.0041 12.0417Z" fill="white"/>
</g>
</svg>
