<svg width="21" height="20" viewBox="0 0 21 20" fill="none" xmlns="http://www.w3.org/2000/svg">
<mask id="mask0_1419_8948" style="mask-type:alpha" maskUnits="userSpaceOnUse" x="0" y="0" width="21" height="20">
<rect x="0.5" width="20" height="20" fill="#D9D9D9"/>
</mask>
<g mask="url(#mask0_1419_8948)">
<path d="M9.95768 15.5846V8.25124L7.88237 10.3266L7.10835 9.56855L10.4993 6.17757L13.8903 9.56855L13.1163 10.3266L11.041 8.25124V15.5846H9.95768ZM4.91602 6.0173V4.75772C4.91602 4.38261 5.04561 4.06554 5.30481 3.80651C5.564 3.54748 5.88127 3.41797 6.2566 3.41797H14.7488C15.1241 3.41797 15.4403 3.54748 15.6972 3.80651C15.9542 4.06554 16.0826 4.38261 16.0826 4.75772V6.0173H14.9993V4.75772C14.9993 4.69361 14.9726 4.63484 14.9192 4.58141C14.8658 4.52799 14.807 4.50128 14.7429 4.50128H6.25577C6.19165 4.50128 6.13288 4.52799 6.07945 4.58141C6.02604 4.63484 5.99933 4.69361 5.99933 4.75772V6.0173H4.91602Z" fill="white"/>
</g>
</svg>
