<svg width="16" height="18" viewBox="0 0 16 18" fill="none" xmlns="http://www.w3.org/2000/svg">
<path d="M7.873 17.051L8.00128 17.0851L8.12956 17.051C9.99496 16.5559 11.5391 15.4702 12.7555 13.8205C13.9729 12.1693 14.5846 10.3146 14.5846 8.2713V3.78895V3.44555L14.2641 3.32227L8.18077 0.982546L8.00128 0.913512L7.82179 0.982546L1.73848 3.32227L1.41797 3.44555V3.78895V8.2713C1.41797 10.3146 2.02967 12.1693 3.24709 13.8205C4.46346 15.4702 6.0076 16.5559 7.873 17.051Z" fill="#09A854"/>
<path d="M7.873 17.051L8.00128 17.0851L8.12956 17.051C9.99496 16.5559 11.5391 15.4702 12.7555 13.8205C13.9729 12.1693 14.5846 10.3146 14.5846 8.2713V3.78895V3.44555L14.2641 3.32227L8.18077 0.982546L8.00128 0.913512L7.82179 0.982546L1.73848 3.32227L1.41797 3.44555V3.78895V8.2713C1.41797 10.3146 2.02967 12.1693 3.24709 13.8205C4.46346 15.4702 6.0076 16.5559 7.873 17.051Z" stroke="#FFC83A"/>
<path d="M7.873 17.051L8.00128 17.0851L8.12956 17.051C9.99496 16.5559 11.5391 15.4702 12.7555 13.8205C13.9729 12.1693 14.5846 10.3146 14.5846 8.2713V3.78895V3.44555L14.2641 3.32227L8.18077 0.982546L8.00128 0.913512L7.82179 0.982546L1.73848 3.32227L1.41797 3.44555V3.78895V8.2713C1.41797 10.3146 2.02967 12.1693 3.24709 13.8205C4.46346 15.4702 6.0076 16.5559 7.873 17.051Z" stroke="white"/>
</svg>
