<svg width="20" height="20" viewBox="0 0 20 20" fill="none" xmlns="http://www.w3.org/2000/svg">
<mask id="mask0_1354_4969" style="mask-type:alpha" maskUnits="userSpaceOnUse" x="0" y="0" width="20" height="20">
<rect width="20" height="20" fill="#D9D9D9"/>
</mask>
<g mask="url(#mask0_1354_4969)">
<path d="M10.5018 13.4945C11.4225 13.4945 12.2044 13.1546 12.8476 12.4747C13.4909 11.7948 13.8125 10.9693 13.8125 9.99805C13.8125 9.02683 13.4903 8.20194 12.8458 7.52336C12.2014 6.84479 11.4188 6.5055 10.4982 6.5055C9.57752 6.5055 8.79559 6.84543 8.15235 7.52529C7.50912 8.20516 7.18751 9.03072 7.18751 10.002C7.18751 10.9732 7.50973 11.7981 8.15418 12.4766C8.79865 13.1552 9.5812 13.4945 10.5018 13.4945ZM10.5 12.3143C9.89062 12.3143 9.37265 12.0893 8.94609 11.6393C8.51952 11.1893 8.30624 10.6429 8.30624 10C8.30624 9.35714 8.51952 8.81071 8.94609 8.36071C9.37265 7.91071 9.89062 7.68571 10.5 7.68571C11.1094 7.68571 11.6273 7.91071 12.0539 8.36071C12.4805 8.81071 12.6938 9.35714 12.6938 10C12.6938 10.6429 12.4805 11.1893 12.0539 11.6393C11.6273 12.0893 11.1094 12.3143 10.5 12.3143ZM10.5011 16C8.63267 16 6.93021 15.4563 5.39374 14.369C3.85729 13.2816 2.72604 11.8253 2 10C2.72604 8.17472 3.85692 6.7184 5.39265 5.63104C6.92836 4.54368 8.63044 4 10.4989 4C12.3673 4 14.0698 4.54368 15.6063 5.63104C17.1427 6.7184 18.274 8.17472 19 10C18.274 11.8253 17.1431 13.2816 15.6074 14.369C14.0716 15.4563 12.3696 16 10.5011 16ZM10.5 14.7143C12.0302 14.7143 13.4352 14.2893 14.7149 13.4393C15.9946 12.5893 16.9729 11.4429 17.65 10C16.9729 8.55714 15.9946 7.41071 14.7149 6.5607C13.4352 5.7107 12.0302 5.2857 10.5 5.2857C8.96979 5.2857 7.56483 5.7107 6.28514 6.5607C5.00545 7.41071 4.02706 8.55714 3.34997 10C4.02706 11.4429 5.00545 12.5893 6.28514 13.4393C7.56483 14.2893 8.96979 14.7143 10.5 14.7143Z" fill="white"/>
</g>
</svg>
