<svg width="48" height="48" viewBox="0 0 48 48" fill="none" xmlns="http://www.w3.org/2000/svg">
<rect x="0.5" y="0.5" width="47" height="47" stroke="black"/>
<path d="M13.8652 32.75L23.9998 15.2501L34.1343 32.75H13.8652ZM16.4498 31.25H31.5498L23.9998 18.25L16.4498 31.25ZM23.9998 30.0577C24.2286 30.0577 24.4205 29.9803 24.5753 29.8255C24.7301 29.6707 24.8075 29.4788 24.8075 29.25C24.8075 29.0211 24.7301 28.8293 24.5753 28.6745C24.4205 28.5197 24.2286 28.4423 23.9998 28.4423C23.7709 28.4423 23.5791 28.5197 23.4243 28.6745C23.2695 28.8293 23.1921 29.0211 23.1921 29.25C23.1921 29.4788 23.2695 29.6707 23.4243 29.8255C23.5791 29.9803 23.7709 30.0577 23.9998 30.0577ZM23.2498 27.4423H24.7498V22.4423H23.2498V27.4423Z" fill="#1C1B1F"/>
</svg>
