<svg width="21" height="20" viewBox="0 0 21 20" fill="none" xmlns="http://www.w3.org/2000/svg">
<mask id="mask0_279_2333" style="mask-type:alpha" maskUnits="userSpaceOnUse" x="0" y="0" width="21" height="20">
<rect x="0.5" width="20" height="20" fill="#D9D9D9"/>
</mask>
<g mask="url(#mask0_279_2333)">
<path d="M17.2477 17.99L15.1539 15.8963V17.4194H13.4247V12.9402H17.9039V14.6694H16.3808L18.4696 16.7631L17.2477 17.99ZM10.4995 18.1694C9.37938 18.1694 8.32316 17.9569 7.33083 17.5319C6.33848 17.1069 5.46943 16.5216 4.72366 15.7758C3.97788 15.03 3.39251 14.1609 2.96754 13.1685C2.54256 12.1761 2.33008 11.1197 2.33008 9.99955C2.33008 8.86546 2.54256 7.80582 2.96754 6.82061C3.39251 5.8354 3.97788 4.96991 4.72366 4.22415C5.46943 3.47837 6.33852 2.893 7.33095 2.46802C8.32338 2.04305 9.3797 1.83057 10.4999 1.83057C11.634 1.83057 12.6936 2.04305 13.6788 2.46802C14.664 2.893 15.5295 3.47837 16.2753 4.22415C17.0211 4.96991 17.6064 5.8355 18.0314 6.8209C18.4564 7.80629 18.6689 8.86598 18.6689 9.99996C18.6689 10.24 18.655 10.48 18.6272 10.7201C18.5994 10.9601 18.568 11.2001 18.533 11.4402H16.7572C16.8078 11.2001 16.8491 10.9601 16.8814 10.7201C16.9136 10.48 16.9297 10.24 16.9297 9.99996C16.9297 9.74996 16.9124 9.50162 16.8776 9.25494C16.8429 9.00826 16.7978 8.76158 16.7422 8.5149H13.4279C13.4524 8.75101 13.4672 8.99158 13.4725 9.23661C13.4778 9.48162 13.4805 9.72218 13.4805 9.9583C13.4805 10.2122 13.4748 10.4592 13.4633 10.6992C13.452 10.9393 13.4418 11.1863 13.4329 11.4402H11.9121C11.921 11.1863 11.9311 10.9358 11.9425 10.6888C11.9539 10.4418 11.9596 10.1914 11.9596 9.93746C11.9596 9.70135 11.9578 9.46343 11.9542 9.22369C11.9506 8.98396 11.9351 8.74769 11.908 8.5149H9.08689C9.05911 8.76158 9.04175 9.00826 9.03481 9.25494C9.02786 9.50162 9.02439 9.74996 9.02439 9.99996C9.02439 10.25 9.02786 10.4983 9.03481 10.745C9.04175 10.9917 9.05911 11.2383 9.08689 11.485H11.129V12.975H9.27439C9.3855 13.5934 9.53483 14.1954 9.72237 14.7811C9.90991 15.3669 10.1656 15.9215 10.4895 16.4452C10.7287 16.4452 10.9714 16.4319 11.2175 16.4053C11.4637 16.3787 11.6994 16.3311 11.9247 16.2626V18.0285C11.6986 18.0979 11.4645 18.1388 11.2225 18.151C10.9805 18.1632 10.7395 18.1694 10.4995 18.1694ZM4.24437 11.485H7.56606C7.53828 11.2522 7.52092 11.0125 7.51397 10.7658C7.50703 10.5191 7.50356 10.2777 7.50356 10.0416C7.50356 9.77774 7.50703 9.52246 7.51397 9.27577C7.52092 9.02909 7.53828 8.77547 7.56606 8.5149H4.24677C4.19121 8.76158 4.14607 9.00826 4.11135 9.25494C4.07663 9.50162 4.05927 9.74996 4.05927 9.99996C4.05927 10.25 4.07643 10.4983 4.11074 10.745C4.14506 10.9917 4.18961 11.2383 4.24437 11.485ZM4.80427 7.02986H7.75566C7.83759 6.47762 7.94468 5.93233 8.07691 5.39398C8.20916 4.85564 8.38972 4.33284 8.61858 3.82559C7.78858 4.07227 7.04461 4.47143 6.38668 5.02309C5.72877 5.57473 5.20129 6.24365 4.80427 7.02986ZM8.63941 16.1743C8.38277 15.6704 8.1918 15.1484 8.0665 14.6084C7.9412 14.0684 7.83759 13.524 7.75566 12.975H4.80427C5.2004 13.7568 5.72849 14.4237 6.38852 14.976C7.04854 15.5282 7.79884 15.9277 8.63941 16.1743ZM9.27439 7.02986H11.7196C11.6085 6.42207 11.46 5.82982 11.2742 5.25313C11.0883 4.67643 10.8268 4.13114 10.4895 3.61725C10.1523 4.12782 9.89584 4.67311 9.72027 5.25313C9.5447 5.83314 9.39607 6.42539 9.27439 7.02986ZM13.2383 7.02986H16.1897C15.7936 6.24483 15.2646 5.5762 14.603 5.02396C13.9413 4.47173 13.1954 4.07227 12.3654 3.82559C12.5943 4.33284 12.7765 4.85564 12.9121 5.39398C13.0476 5.93233 13.1564 6.47762 13.2383 7.02986Z" fill="#FFC83A"/>
</g>
</svg>
